<svg aria-hidden="true" style="position: absolute; width: 0; height: 0; overflow: hidden;" version="1.1" xmlns="http://www.w3.org/2000/svg" xmlns:xlink="http://www.w3.org/1999/xlink">
<defs>
<symbol id="icon-suitcase" viewBox="0 0 32 32">
<path d="M27 29h-23c-1.105 0-2-0.896-2-2v-12c0 0 5.221 2.685 10 3.784v1.216c0 0.553 0.447 1 1 1h5c0.552 0 1-0.447 1-1v-1.216c4.778-1.099 10-3.784 10-3.784v12c0 1.104-0.896 2-2 2zM17 17c0.552 0 1 0.447 1 1v1c0 0.553-0.448 1-1 1h-3c-0.553 0-1-0.447-1-1v-1c0-0.553 0.447-1 1-1h3zM19 17c0-0.553-0.448-1-1-1h-5c-0.553 0-1 0.447-1 1v0.896c-4.779-1.132-10-3.896-10-3.896v-4c0-1.104 0.895-2 2-2h6v-2c0-1.104 0.896-2 2-2h7c1.104 0 2 0.896 2 2v2h6c1.104 0 2 0.896 2 2v4c0 0-5.222 2.764-10 3.896v-0.896zM19 7c0-0.553-0.448-1-1-1h-5c-0.553 0-1 0.447-1 1 0 0.552 0 1 0 1h7c0 0 0-0.448 0-1z"></path>
</symbol>
<symbol id="icon-books" viewBox="0 0 36 32">
<path d="M7 4h-6c-0.55 0-1 0.45-1 1v22c0 0.55 0.45 1 1 1h6c0.55 0 1-0.45 1-1v-22c0-0.55-0.45-1-1-1zM6 10h-4v-2h4v2z"></path>
<path d="M17 4h-6c-0.55 0-1 0.45-1 1v22c0 0.55 0.45 1 1 1h6c0.55 0 1-0.45 1-1v-22c0-0.55-0.45-1-1-1zM16 10h-4v-2h4v2z"></path>
<path d="M23.909 5.546l-5.358 2.7c-0.491 0.247-0.691 0.852-0.443 1.343l8.999 17.861c0.247 0.491 0.852 0.691 1.343 0.443l5.358-2.7c0.491-0.247 0.691-0.852 0.443-1.343l-8.999-17.861c-0.247-0.491-0.852-0.691-1.343-0.443z"></path>
</symbol>
</defs>
</svg>
