<svg xmlns="http://www.w3.org/2000/svg" xmlns:xlink="http://www.w3.org/1999/xlink" width="360" height="172" viewBox="0 0 360 172">
  <defs>
    <linearGradient id="linear-gradient" y1="0.915" x2="1.021" y2="0.402" gradientUnits="objectBoundingBox">
      <stop offset="0" stop-color="#0093c7"/>
      <stop offset="1" stop-color="#0878a0"/>
    </linearGradient>
    <clipPath id="clip-path">
      <path id="Path_88144" data-name="Path 88144" d="M0,0H360V172H0Z" fill="url(#linear-gradient)"/>
    </clipPath>
  </defs>
  <g id="Mask_Group_119120" data-name="Mask Group 119120" clip-path="url(#clip-path)">
    <g id="Group_117348" data-name="Group 117348" transform="translate(308.186 14.175)">
      <path id="Path_83104" data-name="Path 83104" d="M509.731,220.371c-4.681-1.856-9.769-2.814-14.593-4.248-.2-.059-.308.231-.114.3,4.743,1.684,9.743,2.927,14.615,4.189A.129.129,0,0,0,509.731,220.371Zm-10.114-5.161a.124.124,0,0,0,.055-.238,17.089,17.089,0,0,0-1.812-.477c-.183-.044-.293.231-.1.282A18.984,18.984,0,0,0,499.617,215.21Zm5.961,1.684c.147.026.2-.205.059-.253-1.357-.455-2.751-.877-4.142-1.218-.154-.037-.242.194-.088.235C502.8,216.031,504.155,216.633,505.578,216.893Zm8.789.385c-5.381-2.036-11.016-3.382-16.555-4.908-.165-.044-.257.2-.092.249,5.536,1.6,11.078,3.125,16.563,4.89A.123.123,0,0,0,514.367,217.279Zm-16.83-7.036a23.087,23.087,0,0,0,4.035,1c.125.026.172-.183.051-.22-1.324-.385-2.7-.51-4-1.005A.121.121,0,0,0,497.537,210.243Z" transform="translate(-471.549 -197.723)" fill="#7fc1d8"/>
      <path id="Path_83105" data-name="Path 83105" d="M448.511,184.463a.457.457,0,0,0-.059-.015,5.9,5.9,0,0,0-.756-1.79c.462-.348.935-.69,1.427-1a.205.205,0,0,0,.1-.18.529.529,0,0,0,.128.158.655.655,0,0,0,.444.132c.22.227.382.191.62.055a.165.165,0,0,0,.04-.011c.077-.044.154-.088.227-.132a.263.263,0,0,0,.132-.213.383.383,0,0,0,.04-.029.636.636,0,0,1-.073-.117.874.874,0,0,1-.015-.693.85.85,0,0,1,.249-.359c-.011-.015-.015-.029-.026-.044a.988.988,0,0,0-1.456-.213.209.209,0,0,0-.194.1c-.147.231-.646.862-.4,1.133a.251.251,0,0,0,.048.04.077.077,0,0,0-.037.015,17.48,17.48,0,0,0-1.5,1.023,3.9,3.9,0,0,0-2.971-1.526,4.619,4.619,0,0,0-1.035.055,11.92,11.92,0,0,1-.282-2.8.285.285,0,0,0-.015-.081c.1,0,.194,0,.282-.007a.206.206,0,0,0,.169-.22,1.167,1.167,0,0,0,.121-.11.627.627,0,0,0,.2-.569.815.815,0,0,0-.88-.536.675.675,0,0,0-.521.3c-.007.007-.007.018-.015.026a.155.155,0,0,0-.062.147.582.582,0,0,0-.011.238c0,.011,0,.022-.007.033a.666.666,0,0,0,.022.359.478.478,0,0,0,.3.275.212.212,0,0,0-.029.1,9.324,9.324,0,0,0,.29,2.935,5.1,5.1,0,0,0-2.59,1.647,5.71,5.71,0,0,0-2.285-.018,21.745,21.745,0,0,0-4.549.807c-.976.3-3.269,1.145-1.988,2.337,4.325,7.153,15.22,11.225,22.766,6.72a.29.29,0,0,0,.07-.062.234.234,0,0,0,.246-.048C458.174,189.316,450.694,185.406,448.511,184.463ZM450,180.2a.624.624,0,0,0-.114.106c-.015-.018-.029-.037-.044-.059A.463.463,0,0,1,450,180.2Zm-.844,1.093c0,.007,0,.011,0,.018a.082.082,0,0,0-.018-.011A.019.019,0,0,1,449.153,181.294Zm-5.748-4.222a.3.3,0,0,1,.051.051c.011.011.011.033.015.026,0,.044.015,0,0,.051,0-.011,0,0-.007.007-.022-.048-.044-.1-.07-.147A.05.05,0,0,1,443.4,177.071Zm-.591.3c0-.062.011-.125.015-.187.007,0,.011,0,.015.007a.194.194,0,0,0,.11.033c.022.026.044.051.062.077s.015.033.026.051A.179.179,0,0,0,442.814,177.376Zm.473,4.039a.242.242,0,0,0,.11-.026,4.5,4.5,0,0,1,.9-.07,3.425,3.425,0,0,1,2.729,1.321,18.171,18.171,0,0,0-1.669,1.5.142.142,0,0,0,.183.216c.58-.459,1.148-.928,1.728-1.383a7.028,7.028,0,0,1,.877,4.006.262.262,0,0,0-.139.062c-2.671,2.406-6.57.95-8.477-1.695A5.313,5.313,0,0,1,443.287,181.415Zm11.049,10.5a.234.234,0,0,0-.084.154c-.018,0-.033,0-.051.007-4.292,1.475-8.283,2.135-12.707.671a20.176,20.176,0,0,1-9.743-7.4.137.137,0,0,0-.084-.051c-.426-1.145,3.676-1.853,4.343-1.959,1.324-.213,2.718-.1,4.035-.246a5.031,5.031,0,0,0-.767,1.948.191.191,0,0,0-.213.249c1.4,3.492,6.592,4.629,9.3,2.172a.264.264,0,0,0,.062-.084.237.237,0,0,0,.257-.231,9.45,9.45,0,0,0-.132-2.249C450.411,186.272,457.359,189.331,454.336,191.91Zm-12.245-1.093a31.257,31.257,0,0,1-9.945-5.741c-.117-.1-.242.092-.136.191,2.788,2.527,6.243,5.084,10.022,5.807C442.183,191.1,442.231,190.868,442.092,190.817Zm12.351.583c-3.371.323-6.6.649-9.937-.176-.165-.04-.26.2-.1.253a18.583,18.583,0,0,0,10.077.172A.127.127,0,0,0,454.443,191.4Zm-14.1-6a1.658,1.658,0,0,0,1.871,1,1.5,1.5,0,0,0,.73-2.465,1.46,1.46,0,0,0-.774-.459,1.339,1.339,0,0,0-1.137.161.147.147,0,0,0-.022.187A1.2,1.2,0,0,0,440.345,185.4Zm1.053-1.376a.1.1,0,0,0,.088-.121,1.676,1.676,0,0,1,.605-.022,1.053,1.053,0,0,1,.576.367,1.243,1.243,0,0,1,.143,1.262,1.223,1.223,0,0,1-2.172-.466A.849.849,0,0,1,441.4,184.027Z" transform="translate(-431.206 -176.522)" fill="#7fc1d8"/>
    </g>
    <g id="Group_116425" data-name="Group 116425" transform="translate(195.612 142.8)" opacity="0.45">
      <g id="Group_114247" data-name="Group 114247" transform="translate(9.737 0.026)">
        <path id="Path_84400" data-name="Path 84400" d="M15.833,19.917c1.644.122,3.105.974,4.627,1.553,1.827.67,3.805.67,5.662,1.218a.188.188,0,1,0,.091-.365c-1.857-.548-3.805-.609-5.662-1.218-1.583-.518-3.044-1.431-4.719-1.553-.244-.03-.244.335,0,.365Z" transform="translate(-15.65 -19.549)" fill="#fff"/>
      </g>
      <g id="Group_114248" data-name="Group 114248" transform="translate(0.931)">
        <path id="Path_84401" data-name="Path 84401" d="M21.594,19.63a50.65,50.65,0,0,1-4.658,6.119c-.761.944-1.644,1.766-2.5,2.648A20.316,20.316,0,0,0,12.8,30.741c-.152.213.183.4.335.183a25.493,25.493,0,0,1,1.887-2.588c.852-.913,1.735-1.766,2.527-2.74a53.48,53.48,0,0,0,4.384-5.784c.122-.183-.213-.4-.335-.183Z" transform="translate(-12.757 -19.541)" fill="#fff"/>
      </g>
      <g id="Group_114249" data-name="Group 114249" transform="translate(11.93 2.769)">
        <path id="Path_84402" data-name="Path 84402" d="M24.65,20.51a45.422,45.422,0,0,0-3.47,4.505c-.791,1.248-1.553,2.557-2.344,3.805a23.722,23.722,0,0,1-2.4,3.5.194.194,0,1,0,.274.274,17.5,17.5,0,0,0,1.827-2.618c.883-1.248,1.674-2.557,2.435-3.836a48.283,48.283,0,0,1,3.957-5.327c.152-.213-.122-.487-.274-.3Z" transform="translate(-16.37 -20.45)" fill="#fff"/>
      </g>
      <g id="Group_114250" data-name="Group 114250" transform="translate(0.939 11.292)">
        <path id="Path_84403" data-name="Path 84403" d="M12.943,23.646c3.744.365,7.306,2.253,10.837,3.349a.188.188,0,0,0,.091-.365C20.31,25.5,16.717,23.615,12.943,23.25c-.244,0-.244.365,0,.4Z" transform="translate(-12.76 -23.25)" fill="#fff"/>
      </g>
      <g id="Group_114251" data-name="Group 114251" transform="translate(0 11.201)">
        <path id="Path_84404" data-name="Path 84404" d="M13.36,23.28c-1.522,1.492-1.1,5.053,1,5.875.244.091.335-.274.091-.365-1.827-.7-2.131-3.957-.852-5.206.213-.213-.061-.487-.244-.3Z" transform="translate(-12.451 -23.22)" fill="#fff"/>
      </g>
      <g id="Group_114252" data-name="Group 114252" transform="translate(1.788 16.741)">
        <path id="Path_84405" data-name="Path 84405" d="M13.225,25.436a16.559,16.559,0,0,1,5.236,1.583,22.124,22.124,0,0,0,5.419,1.37c.244.03.244-.365,0-.4a24.379,24.379,0,0,1-5.845-1.553,14.989,14.989,0,0,0-4.84-1.4c-.213,0-.213.4.03.4Z" transform="translate(-13.039 -25.04)" fill="#fff"/>
      </g>
      <g id="Group_114253" data-name="Group 114253" transform="translate(19.761 2.779)">
        <path id="Path_84406" data-name="Path 84406" d="M19.33,20.595A6.555,6.555,0,0,0,19,23.243a2.592,2.592,0,0,0,1.218,1.827c.213.091.426-.244.183-.335a2.309,2.309,0,0,1-1.035-1.583,5.633,5.633,0,0,1,.335-2.435.193.193,0,1,0-.365-.122Z" transform="translate(-18.943 -20.454)" fill="#fff"/>
      </g>
      <g id="Group_114254" data-name="Group 114254" transform="translate(12.447 7.031)">
        <path id="Path_84407" data-name="Path 84407" d="M25.063,21.91a21.493,21.493,0,0,0-2.07,2.8c-.7.883-1.339,1.735-1.979,2.648-.761,1.1-1.644,2.1-2.314,3.288-.761,1.279-1.065,2.862-2.1,3.957a.194.194,0,0,0,.274.274A9.7,9.7,0,0,0,18.4,32.2a16.992,16.992,0,0,1,2.07-3.41,35.437,35.437,0,0,1,2.5-3.44c.913-.944,1.4-2.253,2.374-3.136a.205.205,0,1,0-.274-.3Z" transform="translate(-16.54 -21.85)" fill="#fff"/>
      </g>
      <g id="Group_114255" data-name="Group 114255" transform="translate(11.587 14.671)">
        <path id="Path_84408" data-name="Path 84408" d="M16.478,24.543A18.168,18.168,0,0,0,16.3,27.13a8.44,8.44,0,0,0,.852,2.557c.122.213.457.03.335-.183A8.521,8.521,0,0,1,16.63,26.8c-.091-.731.274-1.492.244-2.253a.2.2,0,0,0-.4,0Z" transform="translate(-16.258 -24.36)" fill="#fff"/>
      </g>
      <g id="Group_114256" data-name="Group 114256" transform="translate(1.391 11.935)">
        <path id="Path_84409" data-name="Path 84409" d="M13.035,23.64c-.03.67-.152,1.339-.122,2.009a17.876,17.876,0,0,1,.244,2.192c-.03.244.365.244.4,0a10.642,10.642,0,0,0-.213-1.979,13.208,13.208,0,0,1,.091-2.192c0-.274-.4-.274-.4-.03Z" transform="translate(-12.908 -23.461)" fill="#fff"/>
      </g>
      <g id="Group_114257" data-name="Group 114257" transform="translate(2.105 12.276)">
        <path id="Path_84410" data-name="Path 84410" d="M13.5,23.624h0a1.192,1.192,0,0,0-.244.3,41.013,41.013,0,0,0,4.14,1.735c1.8.578,3.44,1.583,5.358,1.613.244,0,.244-.365,0-.4-1.7-.03-3.2-.852-4.779-1.431-1.553-.578-3.044-1.187-4.536-1.857-.183-.091-.4.152-.244.3h0c.213.152.457-.122.3-.274Z" transform="translate(-13.143 -23.573)" fill="#fff"/>
      </g>
      <g id="Group_114258" data-name="Group 114258" transform="translate(2.266 13.286)">
        <path id="Path_84411" data-name="Path 84411" d="M13.33,24.285c1.461.426,2.862,1.248,4.292,1.766,1.644.578,3.379.883,5.023,1.492.244.091.335-.274.091-.365-1.461-.548-2.983-.883-4.475-1.309-1.674-.487-3.166-1.461-4.84-1.948-.213-.091-.335.274-.091.365Z" transform="translate(-13.196 -23.905)" fill="#fff"/>
      </g>
      <g id="Group_114259" data-name="Group 114259" transform="translate(2.083 14.116)">
        <path id="Path_84412" data-name="Path 84412" d="M13.27,24.55a31.709,31.709,0,0,1,4.6,1.887c1.613.609,3.288.913,4.9,1.461.244.091.335-.3.091-.365-1.613-.548-3.288-.852-4.9-1.461-1.553-.578-2.983-1.553-4.6-1.887-.213-.061-.335.3-.091.365Z" transform="translate(-13.136 -24.178)" fill="#fff"/>
      </g>
      <g id="Group_114260" data-name="Group 114260" transform="translate(2.877 15.509)">
        <path id="Path_84413" data-name="Path 84413" d="M13.529,25.015c1.857.67,3.836,1.218,5.662,2.009a25.134,25.134,0,0,1,3.41,1.218c.213.122.4-.213.183-.335-1.065-.7-2.588-.883-3.744-1.37-1.735-.731-3.623-1.248-5.388-1.887a.193.193,0,1,0-.122.365Z" transform="translate(-13.396 -24.635)" fill="#fff"/>
      </g>
      <g id="Group_114261" data-name="Group 114261" transform="translate(11.793 4.516)">
        <path id="Path_84414" data-name="Path 84414" d="M16.674,32.457c1.857-1.7,2.831-4.14,4.445-6.028a26.691,26.691,0,0,0,3.5-5.114c.122-.213-.213-.426-.335-.183a29.906,29.906,0,0,1-3.744,5.388c-1.522,1.8-2.4,4.079-4.171,5.693-.152.152.122.426.3.244Z" transform="translate(-16.325 -21.024)" fill="#fff"/>
      </g>
      <g id="Group_114262" data-name="Group 114262" transform="translate(11.773 5.825)">
        <path id="Path_84415" data-name="Path 84415" d="M24.511,21.563c-.913,2.131-2.709,3.775-4.049,5.6-.7.974-1.309,1.979-2.04,2.922-.7.913-.974,2.557-2.009,3.136-.213.122-.03.457.183.335a4.114,4.114,0,0,0,1.309-1.735c.7-1.279,1.613-2.4,2.344-3.653,1.309-2.253,3.562-3.957,4.6-6.423.091-.213-.244-.426-.335-.183Z" transform="translate(-16.319 -21.454)" fill="#fff"/>
      </g>
      <g id="Group_114263" data-name="Group 114263" transform="translate(12.094 6.71)">
        <path id="Path_84416" data-name="Path 84416" d="M24.57,21.821a14.853,14.853,0,0,0-1.492,2.131c-.822,1.309-1.766,2.466-2.709,3.683a22.216,22.216,0,0,0-2.1,2.922,15.417,15.417,0,0,1-1.8,3.349c-.152.183.091.457.274.274l.213-.213a.194.194,0,0,0-.274-.274,1.407,1.407,0,0,1-.213.213l.274.274a8.923,8.923,0,0,0,1.248-2.07c.3-.578.518-1.218.822-1.8A19.5,19.5,0,0,1,20,28.732c.791-1.157,1.8-2.1,2.588-3.257a39.509,39.509,0,0,1,2.192-3.349c.244-.244-.03-.518-.213-.3Z" transform="translate(-16.424 -21.745)" fill="#fff"/>
      </g>
    </g>
    <g id="Group_117309" data-name="Group 117309" transform="translate(4.378 123.628) rotate(-16)" opacity="0.398">
      <g id="Group_114659" data-name="Group 114659" transform="translate(0 14.178)">
        <path id="Path_84784" data-name="Path 84784" d="M.837.284.666.114C.5.284.381.512.211.682,2.145,1.82,3.851,3.3,6.07,3.982A.352.352,0,1,0,6.24,3.3C4.136,2.673,2.429,1.137.552.057.211-.171-.187.341.1.626L.268.8c.4.284.91-.228.569-.512Z" transform="translate(0 0)" fill="#fff"/>
      </g>
      <g id="Group_114660" data-name="Group 114660" transform="translate(1.747 11.276)">
        <path id="Path_84785" data-name="Path 84785" d="M1.365.341C1.251,3.64.114,6.826,0,10.125c0,.455.683.455.739,0C.853,6.826,1.991,3.64,2.1.341a.371.371,0,0,0-.739,0Z" transform="translate(0 0)" fill="#fff"/>
      </g>
      <g id="Group_114661" data-name="Group 114661" transform="translate(7.898 9.165)">
        <path id="Path_84786" data-name="Path 84786" d="M.049.519c.91,1.536,1.536,3.242,2.5,4.778.228.4.853.057.626-.341C2.267,3.42,1.642,1.713.675.178.447-.221-.179.121.049.519Z" transform="translate(0 0)" fill="#fff"/>
      </g>
      <g id="Group_114662" data-name="Group 114662" transform="translate(6.973 10.806)">
        <path id="Path_84787" data-name="Path 84787" d="M.519,3.03C1.77,2.234,3.192,1.608,4.387.7c.341-.284,0-.91-.341-.626C2.794,1.039,1.429,1.608.177,2.4c-.4.284-.057.91.341.626Z" transform="translate(0 0)" fill="#fff"/>
      </g>
      <g id="Group_114663" data-name="Group 114663" transform="translate(11.193 6.393)">
        <path id="Path_84788" data-name="Path 84788" d="M.166.731c1.365.967,2.389,2.5,4.209,2.332.455-.057.455-.739,0-.739C2.726,2.438,1.759.9.508.049.166-.179-.232.447.166.731Z" transform="translate(0 0)" fill="#fff"/>
      </g>
      <g id="Group_114664" data-name="Group 114664" transform="translate(14.475 4.512)">
        <path id="Path_84789" data-name="Path 84789" d="M.013.451C.7,3.693,2.117,7.5.638,10.746c-.171.4.4.8.626.341C2.857,7.618,1.492,3.693.7.223.582-.175-.1,0,.013.451Z" transform="translate(0 0)" fill="#fff"/>
      </g>
      <g id="Group_114665" data-name="Group 114665" transform="translate(16.195 0)">
        <path id="Path_84790" data-name="Path 84790" d="M.683.867v-.4C.626.583.512.7.455.81,2.218.241,2.048,2.8,1.763,3.825A.364.364,0,0,0,2.1,4.28,3.277,3.277,0,0,0,4.152,2.744c.284-.4-.341-.739-.626-.341A2.9,2.9,0,0,1,2.1,3.6c.114.171.228.284.341.455C2.9,2.46,2.73-.669.284.128A.36.36,0,0,0,0,.469v.4a.341.341,0,1,0,.683,0Z" fill="#fff"/>
      </g>
    </g>
    <g id="Group_117347" data-name="Group 117347" transform="translate(79.039 144.529)">
      <path id="Path_83113" data-name="Path 83113" d="M211.323,296.747l-.171-.017a64.36,64.36,0,0,1,7.418,1.881l.146-.124a24.279,24.279,0,0,0-7.567-1.947c.071.022.139.042.2.066A.074.074,0,0,1,211.323,296.747Z" transform="translate(-207.451 -295.775)" fill="#6ab0c9"/>
      <path id="Path_83114" data-name="Path 83114" d="M210.946,322.978a1.041,1.041,0,0,1,.049.107c1.493,1.044,3.043,2.015,4.619,2.935,1.918,1.118,3.875,2.167,5.837,3.2a50.723,50.723,0,0,0,5.9,2.357.066.066,0,0,0,.046-.124c-2.042-.961-4.19-1.545-6.2-2.608-1.837-.971-3.67-1.957-5.466-3a58.866,58.866,0,0,1-9.741-7,.1.1,0,0,1-.132.029c-.083-.046-.168-.1-.254-.161a44.073,44.073,0,0,0,5.192,4.238A.1.1,0,0,1,210.946,322.978Z" transform="translate(-203.263 -312.536)" fill="#6ab0c9"/>
      <path id="Path_83115" data-name="Path 83115" d="M298.317,372.281c2.984,1.144,13.225,4.011,12.039-.163a.087.087,0,0,0-.122-.061c.044.19.083.383.112.573a.073.073,0,0,1-.144.024c-.01-.032-.017-.063-.024-.1-.39,3.641-10.468.1-12.427-.7-.1-.044-.154.112-.059.161s.2.093.337.151c.012-.012.029-.022.041-.034C298.187,372.02,298.339,372.154,298.317,372.281Z" transform="translate(-272.838 -352.708)" fill="#6ab0c9"/>
      <path id="Path_83116" data-name="Path 83116" d="M325.734,349c-1.867-2.389-4.512-4.043-6.808-5.976-.068-.059-.144.056-.081.112,2.338,2.074,4.868,3.775,6.913,6.173a.081.081,0,0,0,.039.027q-.048-.121-.1-.242A.068.068,0,0,1,325.734,349Z" transform="translate(-288.851 -330.902)" fill="#6ab0c9"/>
      <path id="Path_83117" data-name="Path 83117" d="M292.191,353.923c-1.788-.31-3.465-1.017-5.229-1.464-.076-.02-.12.09-.044.115a50.08,50.08,0,0,0,5.017,1.486,6.478,6.478,0,0,0,3.033.09c2.14-.671.178-2.74-.747-3.545-.059-.051-.146.044-.09.1.654.676,2.447,2.013,1.252,3.043-.583.5-1.635.351-2.318.29-.273-.024-.544-.061-.81-.1A.11.11,0,0,1,292.191,353.923Z" transform="translate(-264.702 -336.637)" fill="#6ab0c9"/>
      <path id="Path_83118" data-name="Path 83118" d="M275.124,352.966a1.352,1.352,0,0,0,.461.193c.073.024.112-.088.042-.11a1.291,1.291,0,0,1-.434-.181C275.134,352.82,275.068,352.918,275.124,352.966Z" transform="translate(-255.799 -338.349)" fill="#6ab0c9"/>
      <path id="Path_83119" data-name="Path 83119" d="M229.27,326.042c.386.31.786.605,1.183.9a64.394,64.394,0,0,0,5.793,3.794c.081.046.163-.066.083-.12a68.747,68.747,0,0,1-6.915-4.712l-.029.093A.083.083,0,0,1,229.27,326.042Z" transform="translate(-221.15 -317.971)" fill="#6ab0c9"/>
      <path id="Path_83120" data-name="Path 83120" d="M222.107,312.4c-.037-.032-.078-.063-.115-.1-.761-.676-2.918-2.677-1.41-3.611.866-.537,2.286-.049,3.314-.024.054-.061.1-.122.161-.181-1.139-.024-2.791-.63-3.789.132-.759.578-.368,1.523.063,2.176a8.346,8.346,0,0,0,1.764,1.859.078.078,0,0,1-.015-.054C222.087,312.528,222.1,312.462,222.107,312.4Z" transform="translate(-214.019 -304.614)" fill="#6ab0c9"/>
      <path id="Path_83121" data-name="Path 83121" d="M263.657,348.178c-1.027-.554-2.145-1.042-3.218-1.505-.081-.034-.151.1-.073.139a16.432,16.432,0,0,0,3.216,1.508C263.664,348.341,263.742,348.224,263.657,348.178Z" transform="translate(-244.632 -333.671)" fill="#6ab0c9"/>
      <path id="Path_83122" data-name="Path 83122" d="M278.74,355.527c.181.068.356.146.537.217a1.7,1.7,0,0,0,.508.159.08.08,0,0,0,.054-.144,2.337,2.337,0,0,0-.49-.2c-.181-.068-.364-.127-.551-.178A.08.08,0,0,0,278.74,355.527Z" transform="translate(-258.51 -340.253)" fill="#6ab0c9"/>
      <path id="Path_83123" data-name="Path 83123" d="M231,297.731l-.161.181a7.222,7.222,0,0,0-1.789,3.731c-.01.066-.02.134-.027.2a.078.078,0,0,0,.015.054.1.1,0,0,0,.044.034.083.083,0,0,0,.115-.049l.029-.093a9.836,9.836,0,0,1,3.226-4.956,15.669,15.669,0,0,1,5.551-2.689c-.032,0-.063,0-.1,0a.084.084,0,0,1-.078-.134,12.29,12.29,0,0,0-5.6,2.564l-.146.124A10.56,10.56,0,0,0,231,297.731Z" transform="translate(-220.967 -293.862)" fill="#6ab0c9"/>
      <path id="Path_83124" data-name="Path 83124" d="M265.133,293.771c.034,0,.063,0,.1,0a7.483,7.483,0,0,1,1.039.1,1.123,1.123,0,0,0,.788-.11c-.1,0-.193-.007-.29-.007s-.093-.144-.007-.161a.632.632,0,0,1,.071-.01,5.675,5.675,0,0,1-.883-.027,1.4,1.4,0,0,0-.866.056.07.07,0,0,0-.027.027A.084.084,0,0,0,265.133,293.771Z" transform="translate(-248.19 -293.487)" fill="#6ab0c9"/>
      <path id="Path_83125" data-name="Path 83125" d="M271.9,293.67c.1,0,.2,0,.29.007a9.867,9.867,0,0,1,4.163.915,19.7,19.7,0,0,1,3.194,2.137.1.1,0,0,1,.188-.012,1.509,1.509,0,0,0,.068.142.108.108,0,0,0,.046-.168c-1.635-2.037-5.27-3.7-7.891-3.194-.022,0-.046,0-.071.01C271.8,293.526,271.8,293.67,271.9,293.67Z" transform="translate(-253.321 -293.406)" fill="#6ab0c9"/>
      <path id="Path_83126" data-name="Path 83126" d="M303.449,306.816a.082.082,0,0,0,0,.049,1.9,1.9,0,0,0,.737,1.025,7.858,7.858,0,0,1,.647.6,4.787,4.787,0,0,1,.434.634.07.07,0,0,1,.085.017c.034.041.066.088.1.132a.078.078,0,0,0,.061-.076c-.029-1.01-1.347-1.432-1.8-2.247a1.506,1.506,0,0,1-.068-.142A.1.1,0,0,0,303.449,306.816Z" transform="translate(-277.223 -303.491)" fill="#6ab0c9"/>
      <path id="Path_83127" data-name="Path 83127" d="M308.935,316.447a.078.078,0,0,0-.044.1,14.073,14.073,0,0,1,1.432,5.719,9.562,9.562,0,0,1-2,5.641.136.136,0,0,0,.059.2.14.14,0,0,0,.063.012.11.11,0,0,0,.071-.032,8.312,8.312,0,0,0,2.084-5.79,9.77,9.77,0,0,0-1.486-5.7c-.034-.044-.063-.09-.1-.132A.066.066,0,0,0,308.935,316.447Z" transform="translate(-280.899 -310.819)" fill="#6ab0c9"/>
      <path id="Path_83128" data-name="Path 83128" d="M229.2,343.169a11.684,11.684,0,0,1-1.776-3.8c-.281-1.03.012-2.242-.422-3.211-.017-.037-.032-.073-.049-.107a.1.1,0,0,0-.144-.027.077.077,0,0,0-.027.081c.32,1.318.12,2.608.534,3.938a6.894,6.894,0,0,0,1.754,3.238A.1.1,0,0,1,229.2,343.169Z" transform="translate(-219.268 -325.612)" fill="#6ab0c9"/>
      <path id="Path_83129" data-name="Path 83129" d="M237.842,366.889c.041.032.085.061.127.093a2.549,2.549,0,0,0-1.689-1.63.106.106,0,0,0-.134.115.1.1,0,0,0,.061.078,3.077,3.077,0,0,1,1.005.715,6.6,6.6,0,0,1,.488.676A.1.1,0,0,1,237.842,366.889Z" transform="translate(-226.348 -347.795)" fill="#6ab0c9"/>
      <path id="Path_83130" data-name="Path 83130" d="M246.447,373.654c.073.059.146.112.22.166a.077.077,0,0,0-.032-.1c-.62-.329-1.3-.532-1.93-.847a12.429,12.429,0,0,1-1.911-1.188c-.041-.032-.085-.061-.127-.093a.089.089,0,0,0-.137.046.085.085,0,0,0,.015.088,6.357,6.357,0,0,0,1.823,1.3,7.151,7.151,0,0,0,1.991.822.451.451,0,0,1-.042-.054C246.257,373.712,246.355,373.58,246.447,373.654Z" transform="translate(-231.171 -352.502)" fill="#6ab0c9"/>
      <path id="Path_83131" data-name="Path 83131" d="M260.359,380.627a6.527,6.527,0,0,1-.874.032,2.1,2.1,0,0,1-1.13-.468c-.073-.054-.144-.107-.22-.166-.1-.073-.19.059-.132.144.012.02.027.034.042.054a2.449,2.449,0,0,0,2.755.576.074.074,0,0,0,.044-.046c-.149.017-.3.037-.449.063C260.271,380.836,260.249,380.666,260.359,380.627Z" transform="translate(-242.859 -358.873)" fill="#6ab0c9"/>
      <path id="Path_83132" data-name="Path 83132" d="M275.467,373.025c.022-.127-.129-.261-.249-.151-.012.012-.029.022-.042.034a9,9,0,0,1-3.682,1.828c-1.32.361-2.7.068-4,.466a.1.1,0,0,0,.034.19c.151-.024.3-.046.449-.063a20.16,20.16,0,0,0,4.072-.442,8.793,8.793,0,0,0,3.375-1.776A.125.125,0,0,0,275.467,373.025Z" transform="translate(-249.989 -353.453)" fill="#6ab0c9"/>
      <path id="Path_83133" data-name="Path 83133" d="M198.726,301.517a.092.092,0,0,0,0-.11c-.793-1.088-1.969-1.852-2.335-3.238-.559-2.12,1.862-2.137,3.3-2.008.059,0,.117.01.171.017a.073.073,0,0,0,.032-.142q-.1-.037-.2-.066c-1.3-.385-3.394-.249-3.67,1.357-.237,1.381,1.159,3.25,2.32,4.055.085.059.171.115.254.161A.1.1,0,0,0,198.726,301.517Z" transform="translate(-195.991 -295.208)" fill="#6ab0c9"/>
      <path id="Path_83134" data-name="Path 83134" d="M329.889,371.868a.083.083,0,0,0-.059.156c.969.434,5.231.266,3.963-1.635-.044-.066-.171-.01-.146.068C334.216,372.252,330.975,372.2,329.889,371.868Z" transform="translate(-297.135 -351.583)" fill="#6ab0c9"/>
      <path id="Path_83135" data-name="Path 83135" d="M200.417,300.644a.089.089,0,0,0-.076-.161c-2.235.969,3.889,6.232,4.907,6.837a.064.064,0,0,0,.073-.1C204.53,306.508,198.6,301.62,200.417,300.644Z" transform="translate(-198.911 -298.75)" fill="#6ab0c9"/>
      <path id="Path_83136" data-name="Path 83136" d="M209.5,299.48c-1.74-.51-3.824-1.235-5.646-.844a.071.071,0,0,0,.024.139,22.1,22.1,0,0,1,5.6.832C209.547,299.619,209.574,299.5,209.5,299.48Z" transform="translate(-201.895 -297.276)" fill="#6ab0c9"/>
      <path id="Path_83137" data-name="Path 83137" d="M230.123,303.347c.12.059.193-.137.073-.2-.232-.112-.473-.19-.712-.288-.081-.032-.149.093-.071.137C229.643,303.13,229.884,303.233,230.123,303.347Z" transform="translate(-221.232 -300.552)" fill="#6ab0c9"/>
      <path id="Path_83138" data-name="Path 83138" d="M217.871,307.022c.073-.024.032-.137-.039-.124-.627.1-1.437.386-1.54,1.113a2.983,2.983,0,0,0,.822,2,.075.075,0,0,0,.124-.081,5.16,5.16,0,0,1-.749-1.632C216.395,307.473,217.241,307.224,217.871,307.022Z" transform="translate(-211.329 -303.604)" fill="#6ab0c9"/>
      <path id="Path_83139" data-name="Path 83139" d="M224.648,324.258a17.625,17.625,0,0,1-1.974-1.693.071.071,0,0,0-.107.093,11.409,11.409,0,0,0,2.008,1.708C224.641,324.412,224.709,324.309,224.648,324.258Z" transform="translate(-216.069 -315.431)" fill="#6ab0c9"/>
      <path id="Path_83140" data-name="Path 83140" d="M231.853,335.2c.083.039.156-.1.076-.142-2.625-1.44-5.019-3.248-7.63-4.695-.078-.044-.159.063-.083.117A54.929,54.929,0,0,0,231.853,335.2Z" transform="translate(-217.306 -321.341)" fill="#6ab0c9"/>
      <path id="Path_83141" data-name="Path 83141" d="M258.668,351.636c-.073-.061-.178.054-.112.122a1.149,1.149,0,0,0,.307.222.625.625,0,0,0,.347.115.08.08,0,0,0,.046-.132.967.967,0,0,0-.288-.144A1.352,1.352,0,0,1,258.668,351.636Z" transform="translate(-243.274 -337.415)" fill="#6ab0c9"/>
      <path id="Path_83142" data-name="Path 83142" d="M246.405,340.488a63.11,63.11,0,0,1-7.427-4.519.069.069,0,0,0-.081.112,38.539,38.539,0,0,0,7.449,4.514C246.412,340.624,246.469,340.519,246.405,340.488Z" transform="translate(-228.408 -325.573)" fill="#6ab0c9"/>
      <path id="Path_83143" data-name="Path 83143" d="M321.524,351.484c1.008,1,3.819,2.584,3.248,4.287a.1.1,0,0,0,.183.068c.761-1.757-2.313-3.5-3.336-4.436C321.563,351.35,321.465,351.425,321.524,351.484Z" transform="translate(-290.88 -337.238)" fill="#6ab0c9"/>
      <path id="Path_83144" data-name="Path 83144" d="M327.119,352.657c-.056-.051-.149.024-.093.078.771.749,4.8,3.509,2.979,4.558a.1.1,0,0,0,.083.173C332.47,356.544,327.807,353.287,327.119,352.657Z" transform="translate(-295.04 -338.187)" fill="#6ab0c9"/>
      <path id="Path_83145" data-name="Path 83145" d="M281.9,361.6a84.558,84.558,0,0,1-8.284-3.06c-.1-.039-.149.107-.056.149a73.546,73.546,0,0,0,8.011,3.179A.329.329,0,0,1,281.9,361.6Z" transform="translate(-254.597 -342.642)" fill="#6ab0c9"/>
      <path id="Path_83146" data-name="Path 83146" d="M308.59,371.678a22.18,22.18,0,0,0,3.687.725c.085.01.093-.115.012-.132-1.3-.281-2.569-.617-3.819-.991A.323.323,0,0,1,308.59,371.678Z" transform="translate(-281.025 -352.278)" fill="#6ab0c9"/>
      <path id="Path_83147" data-name="Path 83147" d="M207.4,303.224c.073-.01.071-.137,0-.134-.529.017-1.03.21-.966.827a3.073,3.073,0,0,0,.937,1.728c.068.056.149-.032.122-.1C207.2,304.815,205.808,303.427,207.4,303.224Z" transform="translate(-203.881 -300.727)" fill="#6ab0c9"/>
      <path id="Path_83148" data-name="Path 83148" d="M212.009,307.364a.523.523,0,0,0-.068.39c.017.061.117.088.137.012.049-.183.017-.378.261-.4.083-.007.078-.146,0-.146A.351.351,0,0,0,212.009,307.364Z" transform="translate(-208.039 -303.849)" fill="#6ab0c9"/>
      <path id="Path_83149" data-name="Path 83149" d="M214.476,316.586c-.085-.083-.173-.163-.259-.244s-.2.029-.129.11.163.171.246.254c.066.066.146.183.239.2.051.012.12-.024.1-.085C214.652,316.723,214.549,316.655,214.476,316.586Z" transform="translate(-209.655 -310.727)" fill="#6ab0c9"/>
      <path id="Path_83150" data-name="Path 83150" d="M268.1,364.9a4.151,4.151,0,0,0-1.227-.583.086.086,0,0,0-.061.161q.611.271,1.22.549C268.108,365.07,268.155,364.955,268.1,364.9Z" transform="translate(-249.489 -347.012)" fill="#6ab0c9"/>
      <path id="Path_83151" data-name="Path 83151" d="M261.317,369a5.792,5.792,0,0,0-1.737-.969.091.091,0,0,0-.063.171,12.9,12.9,0,0,1,1.723.91A.068.068,0,0,0,261.317,369Z" transform="translate(-243.974 -349.816)" fill="#6ab0c9"/>
      <path id="Path_83152" data-name="Path 83152" d="M260.187,371.831c.059.032.156-.022.112-.1-.146-.239-.454-.361-.664-.539-.071-.061-.176.054-.11.122a2.008,2.008,0,0,0,.312.264A3.369,3.369,0,0,0,260.187,371.831Z" transform="translate(-244.007 -352.202)" fill="#6ab0c9"/>
      <path id="Path_83153" data-name="Path 83153" d="M250.776,373.23c.081.037.151-.1.073-.139-1.647-.905-3.509-1.286-5-2.491-.071-.059-.146.056-.081.115C247.2,371.959,249.088,372.449,250.776,373.23Z" transform="translate(-233.606 -351.752)" fill="#6ab0c9"/>
      <path id="Path_83154" data-name="Path 83154" d="M259.988,364.135a.074.074,0,0,0,.068-.129,5.439,5.439,0,0,0-.778-.4c-.09-.041-.171.11-.081.156A5.186,5.186,0,0,0,259.988,364.135Z" transform="translate(-243.745 -346.473)" fill="#6ab0c9"/>
      <path id="Path_83155" data-name="Path 83155" d="M261.1,297.064c.088.017.112-.117.034-.149a.539.539,0,0,0-.339-.042,1.012,1.012,0,0,0-.373.185c-.059.044-.01.159.063.137A1.431,1.431,0,0,1,261.1,297.064Z" transform="translate(-244.679 -296.019)" fill="#6ab0c9"/>
      <path id="Path_83156" data-name="Path 83156" d="M241.17,298.4a8.88,8.88,0,0,0-5.522,4.3c-.054.112.12.2.188.1a10.33,10.33,0,0,1,5.361-4.241C241.292,298.529,241.268,298.377,241.17,298.4Z" transform="translate(-225.964 -297.181)" fill="#6ab0c9"/>
      <path id="Path_83157" data-name="Path 83157" d="M247.54,306.248a1.56,1.56,0,0,0-.583.5c-.049.063.041.142.1.093a4.26,4.26,0,0,1,.566-.415C247.73,306.362,247.657,306.194,247.54,306.248Z" transform="translate(-234.511 -303.106)" fill="#6ab0c9"/>
      <path id="Path_83158" data-name="Path 83158" d="M234.411,313.168c.444-.61.747-1.318,1.159-1.95a7.886,7.886,0,0,1,1.647-1.828c.071-.059-.02-.161-.093-.107a8.866,8.866,0,0,0-2.86,3.811A.083.083,0,0,0,234.411,313.168Z" transform="translate(-224.922 -305.398)" fill="#6ab0c9"/>
      <path id="Path_83159" data-name="Path 83159" d="M232.8,319.81a8.158,8.158,0,0,1-.349,1.005.08.08,0,0,0,.139.073,2.278,2.278,0,0,0,.405-1.059C233.021,319.7,232.828,319.688,232.8,319.81Z" transform="translate(-223.554 -313.303)" fill="#6ab0c9"/>
      <path id="Path_83160" data-name="Path 83160" d="M309.615,336.122c1.481-1.576.9-4.1.856-6.049,0-.1-.146-.117-.154-.015-.193,2.15.356,3.972-.822,5.954C309.451,336.088,309.547,336.2,309.615,336.122Z" transform="translate(-281.792 -321.063)" fill="#6ab0c9"/>
      <path id="Path_83161" data-name="Path 83161" d="M306.168,356.928c-.037.1-.073.2-.12.29s-.129.188-.181.29c-.032.061.051.134.11.1a1,1,0,0,0,.366-.617C306.373,356.879,306.21,356.815,306.168,356.928Z" transform="translate(-279.053 -341.384)" fill="#6ab0c9"/>
      <path id="Path_83162" data-name="Path 83162" d="M304.053,337.616a.093.093,0,0,0-.183.032,5.971,5.971,0,0,1-1.63,4.97.079.079,0,0,0,.085.132C303.814,342.035,304.475,339.075,304.053,337.616Z" transform="translate(-276.296 -326.774)" fill="#6ab0c9"/>
      <path id="Path_83163" data-name="Path 83163" d="M299.735,349.889a2.814,2.814,0,0,0,.854-2.311.1.1,0,0,0-.19.034,3.58,3.58,0,0,1-.773,2.177C299.584,349.857,299.667,349.955,299.735,349.889Z" transform="translate(-274.33 -334.301)" fill="#6ab0c9"/>
      <path id="Path_83164" data-name="Path 83164" d="M281.329,297.356c-.115-.017-.129.159-.017.178a7.166,7.166,0,0,1,4.753,2.779c.051.073.164,0,.127-.083C285.4,298.5,283.083,297.617,281.329,297.356Z" transform="translate(-260.435 -296.391)" fill="#6ab0c9"/>
      <path id="Path_83165" data-name="Path 83165" d="M302.9,310.933a.8.8,0,0,0-.264-.425c-.081-.078-.217.034-.134.115a1.419,1.419,0,0,1,.259.354A.074.074,0,0,0,302.9,310.933Z" transform="translate(-276.492 -306.315)" fill="#6ab0c9"/>
      <path id="Path_83166" data-name="Path 83166" d="M305.552,313.375c-.076-.071-.2.029-.124.1a8.2,8.2,0,0,1,.593.644,5.085,5.085,0,0,1,.427.73.085.085,0,0,0,.159-.051C306.564,314.239,305.93,313.734,305.552,313.375Z" transform="translate(-278.707 -308.484)" fill="#6ab0c9"/>
      <path id="Path_83167" data-name="Path 83167" d="M290.4,304.632a11.27,11.27,0,0,0-1.915-1.266c-.085-.049-.176.076-.09.127.654.4,1.286.832,1.93,1.242A.064.064,0,0,0,290.4,304.632Z" transform="translate(-265.821 -300.927)" fill="#6ab0c9"/>
      <path id="Path_83168" data-name="Path 83168" d="M299.561,311.611c-.073-.059-.151.059-.083.117a5.05,5.05,0,0,1,1.71,2.677c.02.081.154.085.151,0A4.187,4.187,0,0,0,299.561,311.611Z" transform="translate(-274.207 -307.156)" fill="#6ab0c9"/>
      <path id="Path_83169" data-name="Path 83169" d="M248.824,312.017a.993.993,0,0,0-.3.356.083.083,0,0,0,.112.1.917.917,0,0,0,.329-.285.085.085,0,0,0,.02-.022C249.032,312.08,248.937,311.912,248.824,312.017Z" transform="translate(-235.705 -307.45)" fill="#6ab0c9"/>
      <path id="Path_83170" data-name="Path 83170" d="M238.658,318.67a5.774,5.774,0,0,1,.632-1.8,9.008,9.008,0,0,1,1.22-1.5c.061-.063-.027-.168-.09-.1-.9.9-1.928,2.018-1.911,3.375C238.509,318.717,238.636,318.763,238.658,318.67Z" transform="translate(-228.135 -309.912)" fill="#6ab0c9"/>
      <path id="Path_83171" data-name="Path 83171" d="M241,322.136c.454-.9.578-1.928,1.41-2.6.081-.063-.02-.178-.1-.12a4.952,4.952,0,0,0-1.469,2.655A.086.086,0,0,0,241,322.136Z" transform="translate(-229.888 -313.06)" fill="#6ab0c9"/>
      <path id="Path_83172" data-name="Path 83172" d="M245.511,319.8a5.269,5.269,0,0,0-1.771,3.14c0,.09.129.132.161.037a7.686,7.686,0,0,1,.608-1.632,8.073,8.073,0,0,1,1.132-1.4C245.724,319.865,245.6,319.714,245.511,319.8Z" transform="translate(-232.089 -313.342)" fill="#6ab0c9"/>
      <path id="Path_83173" data-name="Path 83173" d="M245.831,330.116a2.438,2.438,0,0,0-.242.664.077.077,0,0,0,.139.051,2.538,2.538,0,0,0,.271-.651A.09.09,0,0,0,245.831,330.116Z" transform="translate(-233.487 -321.116)" fill="#6ab0c9"/>
      <path id="Path_83174" data-name="Path 83174" d="M293.448,343c1.039-1,.8-3.121.617-4.409-.015-.1-.154-.068-.146.027.129,1.425.3,3.052-.586,4.277A.079.079,0,0,0,293.448,343Z" transform="translate(-269.57 -327.517)" fill="#6ab0c9"/>
      <path id="Path_83175" data-name="Path 83175" d="M296.312,352.262a1.5,1.5,0,0,0,.542-.947c.02-.1-.154-.142-.176-.039a2.953,2.953,0,0,1-.478.883A.077.077,0,0,0,296.312,352.262Z" transform="translate(-271.739 -337.111)" fill="#6ab0c9"/>
      <path id="Path_83176" data-name="Path 83176" d="M291.1,353.056a1.352,1.352,0,0,0,.473-.883c.02-.11-.149-.122-.171-.017a1.62,1.62,0,0,1-.161.437c-.073.129-.176.234-.254.359A.078.078,0,0,0,291.1,353.056Z" transform="translate(-267.794 -337.766)" fill="#6ab0c9"/>
      <path id="Path_83177" data-name="Path 83177" d="M269.326,375.141a9.261,9.261,0,0,0,6.312-1.33c.127-.083-.027-.261-.151-.178a10.51,10.51,0,0,1-6.144,1.34A.085.085,0,0,0,269.326,375.141Z" transform="translate(-251.377 -354.041)" fill="#6ab0c9"/>
      <path id="Path_83178" data-name="Path 83178" d="M271.024,375.96c-.088.088.029.237.127.151s.168-.051.29,0a.082.082,0,0,0,.1-.112A.31.31,0,0,0,271.024,375.96Z" transform="translate(-252.692 -355.724)" fill="#6ab0c9"/>
      <path id="Path_83179" data-name="Path 83179" d="M276.121,373.413a10.322,10.322,0,0,0,3.655-.842c.127-.056.034-.249-.093-.193a11.611,11.611,0,0,1-3.589.883C275.992,373.269,276.023,373.418,276.121,373.413Z" transform="translate(-256.501 -353.101)" fill="#6ab0c9"/>
      <path id="Path_83180" data-name="Path 83180" d="M282.828,372.175c.229-.068.471-.022.7-.083.066-.02.1-.129.015-.151a1.438,1.438,0,0,0-.766.061C282.675,372.034,282.728,372.2,282.828,372.175Z" transform="translate(-261.559 -352.757)" fill="#6ab0c9"/>
      <path id="Path_83181" data-name="Path 83181" d="M230.344,341.045c-.517,1.432.3,3.113.942,4.373a.062.062,0,0,0,.112-.054c-.544-1.332-1.349-2.8-.925-4.273C230.495,341.008,230.373,340.962,230.344,341.045Z" transform="translate(-221.838 -329.388)" fill="#6ab0c9"/>
      <path id="Path_83182" data-name="Path 83182" d="M233.938,346.126a12.717,12.717,0,0,1-.52-3.033c.012-.11-.149-.122-.168-.017a6.582,6.582,0,0,0,.564,3.087C233.838,346.238,233.947,346.194,233.938,346.126Z" transform="translate(-224.124 -330.901)" fill="#6ab0c9"/>
      <path id="Path_83183" data-name="Path 83183" d="M236.486,358.519a2.77,2.77,0,0,0,.6,1.366.071.071,0,0,0,.117-.076,5.6,5.6,0,0,1-.583-1.313A.068.068,0,0,0,236.486,358.519Z" transform="translate(-226.605 -342.572)" fill="#6ab0c9"/>
      <path id="Path_83184" data-name="Path 83184" d="M237.7,349.106a6.671,6.671,0,0,1-.783-3.653.072.072,0,0,0-.144-.015,6.321,6.321,0,0,0,.817,3.719C237.632,349.221,237.739,349.172,237.7,349.106Z" transform="translate(-226.803 -332.696)" fill="#6ab0c9"/>
      <path id="Path_83185" data-name="Path 83185" d="M240.194,348.207a3.4,3.4,0,0,0,.068-.447c0-.09-.137-.11-.144-.015a3.688,3.688,0,0,0-.051.464C240.07,348.285,240.187,348.275,240.194,348.207Z" transform="translate(-229.312 -334.439)" fill="#6ab0c9"/>
      <path id="Path_83186" data-name="Path 83186" d="M241.03,354.641a7.5,7.5,0,0,1-.571-1.7c-.015-.1-.163-.071-.151.027a4.464,4.464,0,0,0,.608,1.728A.063.063,0,0,0,241.03,354.641Z" transform="translate(-229.494 -338.368)" fill="#6ab0c9"/>
      <path id="Path_83187" data-name="Path 83187" d="M241.928,364.938a1.785,1.785,0,0,0,.425.378c.063.032.127-.049.1-.107a2.019,2.019,0,0,0-.412-.442c-.146-.142-.3-.271-.451-.407-.063-.056-.156.046-.1.11C241.633,364.628,241.774,364.787,241.928,364.938Z" transform="translate(-230.372 -347.034)" fill="#6ab0c9"/>
      <path id="Path_83188" data-name="Path 83188" d="M245.385,363.8c.1-.22-.037-.386-.2-.527-.083-.076-.222.029-.139.117a.5.5,0,0,1,.193.378A.074.074,0,0,0,245.385,363.8Z" transform="translate(-233.061 -346.203)" fill="#6ab0c9"/>
      <path id="Path_83189" data-name="Path 83189" d="M249.511,368.132a6.911,6.911,0,0,1-2.162-1.235c-.083-.063-.171.066-.093.132a5.3,5.3,0,0,0,2.216,1.274C249.569,368.322,249.606,368.161,249.511,368.132Z" transform="translate(-234.724 -348.952)" fill="#6ab0c9"/>
      <path id="Path_83190" data-name="Path 83190" d="M251.581,372.072c-.078-.068-.171.066-.093.132a1.511,1.511,0,0,0,.342.19c.054.024.124-.044.09-.1C251.845,372.176,251.681,372.159,251.581,372.072Z" transform="translate(-237.925 -352.862)" fill="#6ab0c9"/>
      <path id="Path_83191" data-name="Path 83191" d="M255.465,374.019a9.9,9.9,0,0,0,2.255.82c.09.02.127-.137.037-.161a17.326,17.326,0,0,1-2.24-.8C255.429,373.848,255.382,373.98,255.465,374.019Z" transform="translate(-240.921 -354.242)" fill="#6ab0c9"/>
      <path id="Path_83192" data-name="Path 83192" d="M269.32,306.191c-.066.078.051.171.127.115a.848.848,0,0,1,.59-.181.692.692,0,0,1,.551.4c.049.078.185.051.163-.051C270.628,305.844,269.691,305.754,269.32,306.191Z" transform="translate(-251.413 -302.866)" fill="#6ab0c9"/>
      <path id="Path_83193" data-name="Path 83193" d="M275.634,308.249c-.061.068.046.156.115.1a.721.721,0,0,1,.471-.161,2.779,2.779,0,0,1,.425.11.081.081,0,0,0,.068-.132A.763.763,0,0,0,275.634,308.249Z" transform="translate(-256.187 -304.425)" fill="#6ab0c9"/>
      <path id="Path_83194" data-name="Path 83194" d="M298.766,324.006a1.6,1.6,0,0,1,.044.737.08.08,0,0,0,.034.063.062.062,0,0,1,.051-.01.237.237,0,0,1,.039.012s.012,0,.017-.012c.342-.561-.122-1.2-.625-1.447-.076-.037-.144.09-.068.132A1.148,1.148,0,0,1,298.766,324.006Z" transform="translate(-273.28 -316.038)" fill="#6ab0c9"/>
      <path id="Path_83195" data-name="Path 83195" d="M300.656,329.314a.085.085,0,0,0,.017.146.732.732,0,0,1,.456.434,3.645,3.645,0,0,1,.076.581.082.082,0,0,0,.156.015.966.966,0,0,0-.068-.756.758.758,0,0,0-.544-.417c-.015,0-.024-.01-.039-.012A.066.066,0,0,0,300.656,329.314Z" transform="translate(-275.092 -320.543)" fill="#6ab0c9"/>
      <path id="Path_83196" data-name="Path 83196" d="M303.035,338.009a.663.663,0,0,0,.19-.534.444.444,0,0,0-.349-.368.083.083,0,0,0-.059.156.277.277,0,0,1,.21.3c-.017.134-.1.242-.124.373A.081.081,0,0,0,303.035,338.009Z" transform="translate(-276.712 -326.44)" fill="#6ab0c9"/>
      <path id="Path_83197" data-name="Path 83197" d="M255.693,323.985a.081.081,0,0,0,.132.093,1.283,1.283,0,0,1,.447-.41.88.88,0,0,1,.6.044.15.15,0,0,1,.024-.059c.02-.02.039-.042.061-.061,0-.007,0-.015-.015-.02C256.462,323.231,255.974,323.566,255.693,323.985Z" transform="translate(-241.114 -316.105)" fill="#6ab0c9"/>
      <path id="Path_83198" data-name="Path 83198" d="M260.617,323.36a.085.085,0,0,0,.134.051,1.039,1.039,0,0,1,.342-.229.661.661,0,0,1,.405.039c.063.015.144-.061.083-.117-.288-.273-.649-.093-.888.139-.02.02-.041.039-.061.061A.073.073,0,0,0,260.617,323.36Z" transform="translate(-244.848 -315.753)" fill="#6ab0c9"/>
      <path id="Path_83199" data-name="Path 83199" d="M244.33,354.139a.081.081,0,0,0-.056.151.645.645,0,0,1,.349.312.992.992,0,0,1-.007.493.077.077,0,0,0,.139.051.629.629,0,0,0,.061-.637A.682.682,0,0,0,244.33,354.139Z" transform="translate(-232.455 -339.317)" fill="#6ab0c9"/>
      <path id="Path_83200" data-name="Path 83200" d="M246.15,358.536c-.1,0-.085.159.007.168a.413.413,0,0,1,.273.124.92.92,0,0,1,.12.263.074.074,0,0,0,.134,0,.4.4,0,0,0-.124-.405A.5.5,0,0,0,246.15,358.536Z" transform="translate(-233.86 -342.642)" fill="#6ab0c9"/>
      <path id="Path_83201" data-name="Path 83201" d="M254.6,333.988a.069.069,0,0,0-.017-.039,2.556,2.556,0,0,1-.322-.307,1.49,1.49,0,0,1-.178-.415.079.079,0,0,0-.156.027,1,1,0,0,0,.569.82.137.137,0,0,0,.017-.039A.085.085,0,0,1,254.6,333.988Z" transform="translate(-239.789 -323.463)" fill="#6ab0c9"/>
      <path id="Path_83202" data-name="Path 83202" d="M256.651,337.442c.066.017.137-.059.083-.117-.1-.1-.232-.161-.317-.278a.513.513,0,0,1-.049-.427.07.07,0,0,0-.068-.083.079.079,0,0,0-.088.049.184.184,0,0,0-.01.039A.639.639,0,0,0,256.651,337.442Z" transform="translate(-241.487 -326.012)" fill="#6ab0c9"/>
      <path id="Path_83203" data-name="Path 83203" d="M253.8,302.438a.621.621,0,0,1,.8-.244.053.053,0,0,0,.02,0c-.046-.007-.088-.063-.049-.107.015-.015.029-.032.044-.049a.708.708,0,0,0-.944.3C253.605,302.433,253.735,302.528,253.8,302.438Z" transform="translate(-239.58 -299.87)" fill="#6ab0c9"/>
      <path id="Path_83204" data-name="Path 83204" d="M257.687,302.88a.066.066,0,0,1-.027.012A.054.054,0,0,0,257.687,302.88Z" transform="translate(-242.613 -300.568)" fill="#6ab0c9"/>
      <path id="Path_83205" data-name="Path 83205" d="M257.391,301.5h.017a.039.039,0,0,0,.027-.012,2.923,2.923,0,0,0,.337-.337c.051-.066-.044-.146-.1-.1a2.407,2.407,0,0,0-.281.288l-.044.049C257.3,301.438,257.344,301.5,257.391,301.5Z" transform="translate(-242.36 -299.18)" fill="#6ab0c9"/>
      <path id="Path_83206" data-name="Path 83206" d="M268.545,296.369a.027.027,0,0,0-.017-.02.775.775,0,0,0-.778-.054.072.072,0,0,0,.061.129.754.754,0,0,1,.642.068.077.077,0,0,0,.093-.032A.07.07,0,0,1,268.545,296.369Z" transform="translate(-250.211 -295.529)" fill="#6ab0c9"/>
      <path id="Path_83207" data-name="Path 83207" d="M271.08,296.1a.065.065,0,0,0,0,.093.086.086,0,0,0,.115.015.751.751,0,0,1,.688-.132c.071.022.134-.078.063-.12A.681.681,0,0,0,271.08,296.1Z" transform="translate(-252.744 -295.259)" fill="#6ab0c9"/>
      <path id="Path_83208" data-name="Path 83208" d="M308.961,324.811a.5.5,0,0,0-.007-.727c-.061-.061-.163.022-.1.088.193.212.081.417-.059.62a.066.066,0,0,1,.078-.029C308.9,324.78,308.931,324.794,308.961,324.811Z" transform="translate(-281.267 -316.582)" fill="#6ab0c9"/>
      <path id="Path_83209" data-name="Path 83209" d="M308.917,326.97a.815.815,0,0,0-.093-.046.059.059,0,0,0-.078.029.065.065,0,0,0,.015.1.746.746,0,0,1,.266.278,3.136,3.136,0,0,1,.1.327.073.073,0,0,0,.132,0,.569.569,0,0,0-.088-.427A.654.654,0,0,0,308.917,326.97Z" transform="translate(-281.223 -318.741)" fill="#6ab0c9"/>
      <path id="Path_83210" data-name="Path 83210" d="M347.637,369.369c-.029-.19-.068-.381-.112-.573a5.532,5.532,0,0,0-.422-1.222.066.066,0,0,0-.088-.032.065.065,0,0,0-.039.093c.039.081.071.161.1.242a12.752,12.752,0,0,1,.39,1.423c.007.032.017.063.024.1A.073.073,0,0,0,347.637,369.369Z" transform="translate(-310.129 -349.448)" fill="#6ab0c9"/>
      <path id="Path_83211" data-name="Path 83211" d="M306.553,371.548c.024.044.046.085.068.129a.243.243,0,0,0,.439-.019l.034-.066a.447.447,0,0,0,.022-.051.325.325,0,0,0-.117-.4.311.311,0,0,0-.132-.044.333.333,0,0,0-.342.271A.272.272,0,0,0,306.553,371.548Z" transform="translate(-279.552 -352.141)" fill="#6ab0c9"/>
    </g>
    <g id="Group_118742" data-name="Group 118742" transform="translate(349.398 163.986) rotate(-150)" opacity="0.256">
      <g id="Group_115528" data-name="Group 115528" transform="translate(6.874 30.22)">
        <path id="Path_85596" data-name="Path 85596" d="M.465,2.754a.065.065,0,0,0,.066-.066A.426.426,0,0,1,0,2.289C0,.628,2.392.163,3.588.03,5.116-.1,7.243.163,7.973,1.757,9.1,4.349,1.528,3.02.6,2.754c-.532-.133-.266-.93.2-.8a18.239,18.239,0,0,0,3.322.532,5.329,5.329,0,0,0,3.057-.266c.266-.133-.664-.93-.8-1a4.173,4.173,0,0,0-2.193-.4,7.407,7.407,0,0,0-2.06.332,2.607,2.607,0,0,0-.93.532c-.066.066-.332.864-.332.532-.2-.133-.332-.266-.532-.4a.678.678,0,0,1,.6.133c.4.332,0,1.063-.465.8Z" transform="translate(0 0)" fill="#fff"/>
      </g>
      <g id="Group_115529" data-name="Group 115529" transform="translate(0 3.89)">
        <path id="Path_85597" data-name="Path 85597" d="M7.139,27.888c1.661-5.581,1.794-10.3-.532-15.615C4.814,8.087,1.492,4.831.03.512c-.2-.532.664-.731.8-.2C1.757,3.1,3.419,5.23,5.013,7.622a28.37,28.37,0,0,1,3.322,6.844c1.661,4.585.93,9.169-.4,13.754-.133.4-.93.2-.8-.332Z" transform="translate(0 0)" fill="#fff"/>
      </g>
      <g id="Group_115530" data-name="Group 115530" transform="translate(14.045 6.862)">
        <path id="Path_85598" data-name="Path 85598" d="M.071,25.447C-.66,14.882,4.324,7.108,11.765.131a.423.423,0,1,1,.6.6C5.121,7.507.2,15.082.935,25.447c0,.532-.8.532-.864,0Z" transform="translate(0 0)" fill="#fff"/>
      </g>
      <g id="Group_115531" data-name="Group 115531" transform="translate(0.105 0)">
        <path id="Path_85599" data-name="Path 85599" d="M.057,4.07C2.383-1.113,11.154-.05,15.539.416c3.588.4,11.96,1.595,10.9,6.977a.411.411,0,0,1-.8-.2C26.768,1.479,15.008,1.146,12.084.947,8.5.748,2.582.615.788,4.469c-.266.532-1,.066-.731-.4Z" transform="translate(0 0)" fill="#fff"/>
      </g>
      <g id="Group_115532" data-name="Group 115532" transform="translate(3.201 9.59)">
        <path id="Path_85600" data-name="Path 85600" d="M.749.194C2.344,2.719,6.862,2.985,9.52,3.118c2.924.2,6.777.066,9.236-1.794.4-.332,1,.266.6.6C16.5,4.115,12.178,4.115,8.789,3.915,5.932,3.783,1.746,3.251.085.593c-.332-.4.4-.864.664-.4Z" transform="translate(0 0)" fill="#fff"/>
      </g>
      <g id="Group_115533" data-name="Group 115533" transform="translate(5.478 7.326)">
        <path id="Path_85601" data-name="Path 85601" d="M.4,0A1.839,1.839,0,0,1,1,.066c.465.2.266,1-.2.8A.842.842,0,0,0,.4.8.4.4,0,0,1,.4,0Z" transform="translate(0)" fill="#fff"/>
      </g>
      <g id="Group_115534" data-name="Group 115534" transform="translate(8.503 8.389)">
        <path id="Path_85602" data-name="Path 85602" d="M.032.731A1.25,1.25,0,0,1,1.294,0c.532,0,.532.8,0,.864C1.228.864.9.864.829,1c-.2.465-1,.266-.8-.266Z" transform="translate(0)" fill="#fff"/>
      </g>
      <g id="Group_115535" data-name="Group 115535" transform="translate(8.751 5.399)">
        <path id="Path_85603" data-name="Path 85603" d="M.449,0H.98a.433.433,0,0,1,0,.864H.449A.432.432,0,1,1,.449,0Z" transform="translate(0)" fill="#fff"/>
      </g>
      <g id="Group_115536" data-name="Group 115536" transform="translate(4.882 3.441)">
        <path id="Path_85604" data-name="Path 85604" d="M.132.363A1.167,1.167,0,0,0,.464.1c.4-.332,1,.266.6.6A1.167,1.167,0,0,0,.73.961c-.4.332-1-.266-.6-.6Z" transform="translate(0 0)" fill="#fff"/>
      </g>
      <g id="Group_115537" data-name="Group 115537" transform="translate(13.724 3.804)">
        <path id="Path_85605" data-name="Path 85605" d="M.193.133A1.093,1.093,0,0,1,.857,0a.433.433,0,0,1,0,.864h-.2C.193,1.13-.272.4.193.133Z" transform="translate(0)" fill="#fff"/>
      </g>
      <g id="Group_115538" data-name="Group 115538" transform="translate(18.369 6.861)">
        <path id="Path_85606" data-name="Path 85606" d="M.4,0H.6A.433.433,0,0,1,.6.864H.4A.433.433,0,0,1,.4,0Z" transform="translate(0)" fill="#fff"/>
      </g>
      <g id="Group_115539" data-name="Group 115539" transform="translate(14.234 9.737)">
        <path id="Path_85607" data-name="Path 85607" d="M.015.579c0-.066.066-.2.066-.266a.411.411,0,0,1,.8.2C.879.579.812.645.812.778a.411.411,0,1,1-.8-.2Z" transform="translate(0 0)" fill="#fff"/>
      </g>
      <g id="Group_115540" data-name="Group 115540" transform="translate(15.255 6.458)">
        <path id="Path_85608" data-name="Path 85608" d="M.057.469A.958.958,0,0,1,.788,0c.532-.066.532.8,0,.864C.855.8.855.8.788.934c-.266.465-1,0-.731-.465Z" transform="translate(0 0)" fill="#fff"/>
      </g>
      <g id="Group_115541" data-name="Group 115541" transform="translate(21.234 3.671)">
        <path id="Path_85609" data-name="Path 85609" d="M.391,0a.638.638,0,0,1,.6.4A.452.452,0,0,1,.723.93C.457,1,.324.864.191.664V.6L.457.864h0C-.141.864-.141,0,.391,0Z" transform="translate(0)" fill="#fff"/>
      </g>
      <g id="Group_115542" data-name="Group 115542" transform="translate(20.96 9.387)">
        <path id="Path_85610" data-name="Path 85610" d="M.4.065c-.066,0-.066,0-.133.066a.423.423,0,1,1,.6.6A.6.6,0,0,1,.4.929.433.433,0,0,1,.4.065Z" transform="translate(0 0)" fill="#fff"/>
      </g>
    </g>
    <g id="Group_118744" data-name="Group 118744" transform="matrix(0.883, -0.469, 0.469, 0.883, 300.56, 69.59)" opacity="0.49">
      <g id="Group_115705" data-name="Group 115705" transform="translate(0.111 20.551)">
        <path id="Path_85762" data-name="Path 85762" d="M71.029,55.647c6.276-.045,12.508-.134,18.74-.134a.292.292,0,0,0,0-.583c-6.276,0-12.508.045-18.74.134a.292.292,0,0,0,0,.583Z" transform="translate(-70.76 -54.93)" fill="#fff"/>
      </g>
      <g id="Group_115706" data-name="Group 115706" transform="translate(0 20.8)">
        <path id="Path_85763" data-name="Path 85763" d="M70.936,55.544a11.983,11.983,0,0,1,1.166.4c.224.09.493.224.717.314a1.124,1.124,0,0,1,.314.179c.09.045.134.134.09.045.09.359.628.179.538-.134-.09-.359-.762-.583-1.076-.717a10.532,10.532,0,0,0-1.659-.628c-.269-.135-.448.448-.09.538Z" transform="translate(-70.735 -54.986)" fill="#fff"/>
      </g>
      <g id="Group_115707" data-name="Group 115707" transform="translate(0.336 19.767)">
        <path id="Path_85764" data-name="Path 85764" d="M71.3,56.391a7.6,7.6,0,0,1,2.376-1.076c.359-.134.179-.672-.134-.538a9.44,9.44,0,0,0-2.645,1.21c-.269.224.134.628.4.4Z" transform="translate(-70.81 -54.755)" fill="#fff"/>
      </g>
      <g id="Group_115708" data-name="Group 115708" transform="translate(13.874 0.376)">
        <path id="Path_85765" data-name="Path 85765" d="M74.413,76.029c0-8.473.269-16.9.359-25.33h-.583v.224a.292.292,0,0,0,.583,0V50.7a.292.292,0,0,0-.583,0c-.045,8.428-.314,16.9-.359,25.33a.292.292,0,0,0,.583,0Z" transform="translate(-73.83 -50.43)" fill="#fff"/>
      </g>
      <g id="Group_115709" data-name="Group 115709" transform="translate(13.074 0.121)">
        <path id="Path_85766" data-name="Path 85766" d="M74.183,53.184c.224-.448.538-.807.807-1.255a9.54,9.54,0,0,0,.359-1.21c.134-.359-.448-.493-.538-.134a5.488,5.488,0,0,1-.4,1.21c-.224.4-.493.717-.717,1.121-.179.314.314.583.493.269Z" transform="translate(-73.651 -50.373)" fill="#fff"/>
      </g>
      <g id="Group_115710" data-name="Group 115710" transform="translate(14.181)">
        <path id="Path_85767" data-name="Path 85767" d="M74.578,50.678a.443.443,0,0,0-.314-.314c-.224-.09-.4.179-.359.359a6.487,6.487,0,0,0,1.39,2.242c.224.314.717,0,.493-.269a6.505,6.505,0,0,1-1.345-2.107l-.359.359-.09-.09c.09.314.672.179.583-.179Z" transform="translate(-73.898 -50.346)" fill="#fff"/>
      </g>
      <g id="Group_115711" data-name="Group 115711" transform="translate(2.265 3.649)">
        <path id="Path_85768" data-name="Path 85768" d="M80.115,51.519c0,2.78-2.69,3-4.842,3.228a11.093,11.093,0,0,0-1.928.269,2.481,2.481,0,0,0-1.793,1.39A1.254,1.254,0,0,0,72,57.661a10.159,10.159,0,0,0,3.452,1.793,6.5,6.5,0,0,0,.852.269c.9.224,2.017.538,2.286,1.255a1.115,1.115,0,0,1-.09.986,3.389,3.389,0,0,1-2.511,1.569.855.855,0,0,0-.673.538.8.8,0,0,0,.134.762,3.455,3.455,0,0,0,2.286,1.031h.314c.762,0,1.435.045,1.7.448a.516.516,0,0,1,.045.538,1.956,1.956,0,0,1-.717.762,2.03,2.03,0,0,0-.538.538.171.171,0,1,1-.314-.134,1.93,1.93,0,0,1,.672-.672,1.3,1.3,0,0,0,.583-.628c.045-.179,0-.224,0-.224-.179-.269-.986-.269-1.39-.269h-.359a3.642,3.642,0,0,1-2.555-1.166A1.2,1.2,0,0,1,75,63.982a1.228,1.228,0,0,1,.941-.717,3.158,3.158,0,0,0,2.286-1.39.84.84,0,0,0,.09-.717c-.224-.538-1.3-.852-2.062-1.031a2.938,2.938,0,0,1-.9-.314,10.3,10.3,0,0,1-3.542-1.838,1.646,1.646,0,0,1-.538-1.614A2.819,2.819,0,0,1,73.3,54.7a12.34,12.34,0,0,1,1.973-.269c2.286-.224,4.662-.448,4.528-3.093a.179.179,0,1,1,.359,0C80.115,51.384,80.115,51.429,80.115,51.519Z" transform="translate(-71.241 -51.16)" fill="#fff"/>
      </g>
    </g>
    <g id="Group_119090" data-name="Group 119090" transform="translate(15.388 56.391) rotate(-49)" opacity="0.45">
      <g id="Group_115365" data-name="Group 115365" transform="translate(0 0.578)">
        <path id="Path_85446" data-name="Path 85446" d="M74.784,85.817a25.794,25.794,0,0,1-3.016,11.189c-1.459,2.627-3.551,6.13-6.227,7.638-.341.195-.049.73.292.535,2.822-1.605,4.816-5.157,6.422-7.881a26.319,26.319,0,0,0,3.113-11.53c.049-.341-.584-.341-.584.049Z" transform="translate(-65.389 -85.519)" fill="#fff"/>
      </g>
      <g id="Group_115366" data-name="Group 115366" transform="translate(9.507)">
        <path id="Path_85447" data-name="Path 85447" d="M67.718,86.471c3.065-.632,6.373-.778,9.195.876,1.849,1.07,2.384,3.259,3.843,4.622a.31.31,0,1,0,.438-.438c-1.946-1.849-2.578-4.184-5.254-5.351-2.627-1.168-5.692-.827-8.368-.243-.389,0-.243.584.146.535Z" transform="translate(-67.343 -85.4)" fill="#fff"/>
      </g>
      <g id="Group_115367" data-name="Group 115367" transform="translate(23.066 5.272)">
        <path id="Path_85448" data-name="Path 85448" d="M70.664,87.974c1.849-1.605,6.227-.778,8.076.146,2.53,1.216,5.5,3.454,6.713,6.081.195.341.681.049.535-.292-1.362-2.87-4.816-5.546-7.686-6.665-2.092-.827-6.227-1.313-8.076.341-.292.243.146.681.438.389Z" transform="translate(-70.13 -86.484)" fill="#fff"/>
      </g>
      <g id="Group_115368" data-name="Group 115368" transform="translate(28.899 12.773)">
        <path id="Path_85449" data-name="Path 85449" d="M81.16,88.047c-2.189.73-3.162,4.232-3.989,6.081C76.2,96.22,75.176,98.312,74.2,100.4a39.838,39.838,0,0,1-2.822,5.789c-.195.243.195.584.438.438s.243-.243.292-.535c.049-.389-.584-.389-.632,0h.049l.438.438c1.849-2.676,2.87-5.935,4.33-8.854.778-1.557,1.459-3.162,2.238-4.768.632-1.314,1.362-3.7,2.919-4.232.243-.146.049-.778-.292-.632Z" transform="translate(-71.329 -88.026)" fill="#fff"/>
      </g>
      <g id="Group_115369" data-name="Group 115369" transform="translate(13.811 6.27)">
        <path id="Path_85450" data-name="Path 85450" d="M77.53,86.841c-2.384,3.113-3.746,6.616-5.3,10.167-1.216,2.822-3.211,5.692-3.989,8.659a.3.3,0,0,0,.584.146c.778-2.919,2.724-5.741,3.94-8.513,1.557-3.551,2.919-7.054,5.254-10.168.292-.34-.243-.632-.487-.292Z" transform="translate(-68.228 -86.689)" fill="#fff"/>
      </g>
      <g id="Group_115370" data-name="Group 115370" transform="translate(0.034 19.018)">
        <path id="Path_85451" data-name="Path 85451" d="M79.476,95.638c-1.946-1.508-3.6-3.308-5.595-4.816a8.51,8.51,0,0,0-8.27-.827c-.389.146-.195.73.146.584,3.551-1.313,6.227-.535,9,1.7,1.459,1.168,2.773,2.578,4.281,3.746.292.292.73-.146.438-.389Z" transform="translate(-65.396 -89.309)" fill="#fff"/>
      </g>
      <g id="Group_115371" data-name="Group 115371" transform="translate(13.552 24.268)">
        <path id="Path_85452" data-name="Path 85452" d="M68.4,91.953c.778.146,1.411-.389,2.141-.632a10.082,10.082,0,0,1,6.957.632,13.256,13.256,0,0,1,3.892,3.259A12.192,12.192,0,0,0,83.574,97.5c.341.195.681-.341.292-.535-1.07-.584-2.238-2.384-3.113-3.259a11.01,11.01,0,0,0-3.7-2.578,11.5,11.5,0,0,0-6.811-.389,13.227,13.227,0,0,1-1.8.632c-.243-.049-.438.535-.049.584Z" transform="translate(-68.175 -90.388)" fill="#fff"/>
      </g>
      <g id="Group_115372" data-name="Group 115372" transform="translate(28.855 12.789)">
        <path id="Path_85453" data-name="Path 85453" d="M81,88.181c-3.016,6.13-4.865,12.989-9.584,18.1a.31.31,0,1,0,.438.438c4.719-5.157,6.616-12.016,9.681-18.243.146-.34-.389-.632-.535-.292Z" transform="translate(-71.32 -88.029)" fill="#fff"/>
      </g>
      <g id="Group_115373" data-name="Group 115373" transform="translate(11.685 3.13)">
        <path id="Path_85454" data-name="Path 85454" d="M68.176,86.708c1.946-.341,5.254.584,6.13,2.578.146.34.681.049.535-.292-1.022-2.238-4.573-3.259-6.859-2.87-.341.1-.195.681.195.584Z" transform="translate(-67.791 -86.043)" fill="#fff"/>
      </g>
      <g id="Group_115374" data-name="Group 115374" transform="translate(10.372 5.353)">
        <path id="Path_85455" data-name="Path 85455" d="M67.906,87.277c1.022-.438,2.676,0,3.6.341,1.362.438,2.238,1.654,3.162,2.724.243.292.681-.146.438-.438a8.581,8.581,0,0,0-3.454-2.87,6.451,6.451,0,0,0-3.941-.341c-.34.146-.195.73.195.584Z" transform="translate(-67.521 -86.5)" fill="#fff"/>
      </g>
      <g id="Group_115375" data-name="Group 115375" transform="translate(9.368 7.357)">
        <path id="Path_85456" data-name="Path 85456" d="M67.78,87.68c2.384-1.07,5.059,1.265,6.616,2.773a.31.31,0,1,0,.438-.438c-.389-.341-.681-1.022-1.216-1.216-.438-.146-.584-.438-.973-.681a10.213,10.213,0,0,0-1.459-.73,4.884,4.884,0,0,0-3.7-.195c-.389.146-.049.681.292.486Z" transform="translate(-67.314 -86.912)" fill="#fff"/>
      </g>
      <g id="Group_115376" data-name="Group 115376" transform="translate(8.914 9.536)">
        <path id="Path_85457" data-name="Path 85457" d="M67.507,87.992a9.65,9.65,0,0,1,6.713,3.259c.243.292.681-.146.438-.438a10.056,10.056,0,0,0-7.1-3.454.317.317,0,0,0-.049.632Z" transform="translate(-67.221 -87.36)" fill="#fff"/>
      </g>
      <g id="Group_115377" data-name="Group 115377" transform="translate(7.154 12.885)">
        <path id="Path_85458" data-name="Path 85458" d="M67.446,88.542a18.129,18.129,0,0,0,2.919.584c1.216.292,3.211,1.168,3.649,2.53.1.389.73.195.584-.146-.778-2.53-5.205-3.746-7.541-3.405-.1,0-.195.146-.195.195v.049c-.049.438.535.584.584.195Z" transform="translate(-66.859 -88.048)" fill="#fff"/>
      </g>
      <g id="Group_115378" data-name="Group 115378" transform="translate(6.588 15.333)">
        <path id="Path_85459" data-name="Path 85459" d="M67.118,89.273a6.71,6.71,0,0,1,4.719.876c.876.486,1.508,1.7,2.141,2.432.243.292.681-.146.438-.438-.924-1.022-1.508-2.092-2.724-2.773a6.888,6.888,0,0,0-4.719-.681c-.389.049-.243.681.146.584Z" transform="translate(-66.743 -88.552)" fill="#fff"/>
      </g>
      <g id="Group_115379" data-name="Group 115379" transform="translate(24.276 7.654)">
        <path id="Path_85460" data-name="Path 85460" d="M70.823,87.882c1.605-.973,4.427.681,5.935,1.411A14.66,14.66,0,0,1,81.136,92.6a.31.31,0,1,0,.438-.438,14.451,14.451,0,0,0-5.254-3.746c-1.7-.632-3.989-2.141-5.789-1.07-.341.195-.049.73.292.535Z" transform="translate(-70.379 -86.973)" fill="#fff"/>
      </g>
      <g id="Group_115380" data-name="Group 115380" transform="translate(24.342 10.168)">
        <path id="Path_85461" data-name="Path 85461" d="M70.721,88.122c2.87,0,6.422,1.216,8.27,3.5.243.292.681-.146.438-.438-1.995-2.481-5.595-3.7-8.708-3.7a.316.316,0,1,0,0,.632Z" transform="translate(-70.393 -87.49)" fill="#fff"/>
      </g>
      <g id="Group_115381" data-name="Group 115381" transform="translate(23.194 12.384)">
        <path id="Path_85462" data-name="Path 85462" d="M70.563,88.648c1.459-.389,2.773.438,4.086.924a10.188,10.188,0,0,1,3.5,2.384c.292.243.73-.195.438-.438C77.277,90.4,76.5,89.524,74.8,88.989c-1.508-.486-2.773-1.362-4.427-.924-.389.1-.195.73.195.584Z" transform="translate(-70.156 -87.946)" fill="#fff"/>
      </g>
      <g id="Group_115382" data-name="Group 115382" transform="translate(22.202 14.924)">
        <path id="Path_85463" data-name="Path 85463" d="M70.281,89.209c.73,0,1.411-.146,2.189-.195a7,7,0,0,1,2.578.681c1.946.778,2.773,2.092,3.649,3.892.195.341.73.049.535-.292-.876-1.8-1.654-3.065-3.5-3.94a9.726,9.726,0,0,0-2.627-.827,18.244,18.244,0,0,0-2.822.1.294.294,0,1,0,0,.584Z" transform="translate(-69.952 -88.468)" fill="#fff"/>
      </g>
      <g id="Group_115383" data-name="Group 115383" transform="translate(21.131 18.144)">
        <path id="Path_85464" data-name="Path 85464" d="M70.061,89.716a25.109,25.109,0,0,1,3.746.632A8.967,8.967,0,0,1,77.8,92.781c.243.341.778,0,.535-.292a9.082,9.082,0,0,0-3.357-2.335,5.076,5.076,0,0,0-2.092-.486c-.973-.1-1.9-.535-2.822-.535a.294.294,0,1,0,0,.584Z" transform="translate(-69.733 -89.129)" fill="#fff"/>
      </g>
      <g id="Group_115384" data-name="Group 115384" transform="translate(20.146 19.968)">
        <path id="Path_85465" data-name="Path 85465" d="M69.822,90.212a10.837,10.837,0,0,1,5.5,1.216c1.168.486,1.849,1.9,2.968,2.53.341.195.632-.341.292-.535-1.216-.73-2.092-2.481-3.5-2.822a20.642,20.642,0,0,1-2.432-.876,6.875,6.875,0,0,0-2.822-.146c-.389.049-.389.681,0,.632Z" transform="translate(-69.53 -89.505)" fill="#fff"/>
      </g>
      <g id="Group_115385" data-name="Group 115385" transform="translate(18.748 21.89)">
        <path id="Path_85466" data-name="Path 85466" d="M69.571,90.486A11.076,11.076,0,0,1,74.679,91.8a10.813,10.813,0,0,1,2.238,1.411c.341.243.389.535.827.73.341.146.681-.389.292-.535a12.647,12.647,0,0,1-1.557-1.265A13.57,13.57,0,0,0,69.571,89.9a.294.294,0,1,0,0,.584Z" transform="translate(-69.242 -89.899)" fill="#fff"/>
      </g>
      <g id="Group_115386" data-name="Group 115386" transform="translate(13.561 24.962)">
        <path id="Path_85467" data-name="Path 85467" d="M68.583,91.4c5.5-1.265,10.9,2.141,14.935,5.643.292.243.73-.195.438-.438-4.281-3.7-9.73-7.1-15.567-5.789-.389.1-.195.681.195.584Z" transform="translate(-68.176 -90.531)" fill="#fff"/>
      </g>
    </g>
  </g>
</svg>
