<svg xmlns="http://www.w3.org/2000/svg" xmlns:xlink="http://www.w3.org/1999/xlink" width="1366" height="524" viewBox="0 0 1366 524">
  <defs>
    <linearGradient id="linear-gradient" x1="2.94" y1="-0.988" x2="-0.404" y2="1.2" gradientUnits="objectBoundingBox">
      <stop offset="0" stop-color="#1794c9"/>
      <stop offset="1" stop-color="#83c124"/>
    </linearGradient>
    <clipPath id="clip-path">
      <path id="Rectangle_13580" data-name="Rectangle 13580" d="M0,0H1366V524H0Z" transform="translate(0 529)" fill="url(#linear-gradient)"/>
    </clipPath>
  </defs>
  <g id="Mask_Group_832" data-name="Mask Group 832" transform="translate(0 -529)" clip-path="url(#clip-path)">
    <g id="Group_117506" data-name="Group 117506" transform="translate(-33.228 541.293)">
      <g id="Group_116425" data-name="Group 116425" transform="translate(0 66.67)" opacity="0.45">
        <g id="Group_114247" data-name="Group 114247" transform="translate(43.389 0.119)">
          <path id="Path_84400" data-name="Path 84400" d="M16.464,21.2c7.325.549,13.836,4.391,20.619,7,8.139,3.019,16.956,3.019,25.231,5.489a.848.848,0,0,0,.407-1.647c-8.275-2.47-16.957-2.744-25.231-5.489-7.054-2.333-13.565-6.449-21.026-7-1.085-.137-1.085,1.509,0,1.647Z" transform="translate(-15.65 -19.549)" fill="#fff"/>
        </g>
        <g id="Group_114248" data-name="Group 114248" transform="translate(4.149)">
          <path id="Path_84401" data-name="Path 84401" d="M52.133,19.942c-5.833,9.88-13.565,18.8-20.755,27.582-3.391,4.254-7.325,7.959-11.123,11.938-3.12,3.293-4.748,7-7.325,10.566-.678.961.814,1.784,1.492.823,2.849-3.979,5.019-7.959,8.41-11.664,3.8-4.117,7.732-7.959,11.259-12.35,6.783-8.371,13.972-16.878,19.534-26.072.543-.823-.95-1.784-1.492-.823Z" transform="translate(-12.757 -19.541)" fill="#fff"/>
        </g>
        <g id="Group_114249" data-name="Group 114249" transform="translate(53.159 12.482)">
          <path id="Path_84402" data-name="Path 84402" d="M53.265,20.72C47.974,27.307,42.277,33.756,37.8,41.029c-3.527,5.626-6.918,11.527-10.445,17.153-3.256,4.94-6.647,11.664-10.717,15.781A.868.868,0,0,0,17.859,75.2C21.115,71.9,23.421,67.239,26,63.4c3.934-5.626,7.461-11.527,10.852-17.29,5.155-8.645,11.395-16.192,17.635-24.014.678-.961-.543-2.2-1.221-1.372Z" transform="translate(-16.37 -20.45)" fill="#fff"/>
        </g>
        <g id="Group_114250" data-name="Group 114250" transform="translate(4.186 50.899)">
          <path id="Path_84403" data-name="Path 84403" d="M13.574,25.034C30.259,26.681,46.13,35.188,61.866,40.128a.848.848,0,0,0,.407-1.647C46.4,33.4,30.395,24.9,13.574,23.25c-1.085,0-1.085,1.647,0,1.784Z" transform="translate(-12.76 -23.25)" fill="#fff"/>
        </g>
        <g id="Group_114251" data-name="Group 114251" transform="translate(0 50.492)">
          <path id="Path_84404" data-name="Path 84404" d="M16.5,23.49c-6.783,6.724-4.883,22.779,4.477,26.484,1.085.412,1.492-1.235.407-1.647-8.139-3.156-9.5-17.839-3.8-23.465.95-.961-.271-2.2-1.085-1.372Z" transform="translate(-12.451 -23.22)" fill="#fff"/>
        </g>
        <g id="Group_114252" data-name="Group 114252" transform="translate(7.966 75.462)">
          <path id="Path_84405" data-name="Path 84405" d="M13.87,26.824c8.275.412,15.871,4.117,23.332,7.136a97.671,97.671,0,0,0,24.146,6.175c1.085.137,1.085-1.647,0-1.784a107.644,107.644,0,0,1-26.045-7c-6.918-2.882-13.972-5.9-21.569-6.312-.95,0-.95,1.784.136,1.784Z" transform="translate(-13.039 -25.04)" fill="#fff"/>
        </g>
        <g id="Group_114253" data-name="Group 114253" transform="translate(88.054 12.526)">
          <path id="Path_84406" data-name="Path 84406" d="M20.67,21.09c-.814,3.842-2.306,7.959-1.492,11.938.543,3.019,2.577,7,5.426,8.233.95.412,1.9-1.1.814-1.509-2.577-1.1-3.934-4.528-4.612-7.136-.95-3.293.814-7.684,1.492-10.978.271-1.235-1.357-1.647-1.628-.549Z" transform="translate(-18.943 -20.454)" fill="#fff"/>
        </g>
        <g id="Group_114254" data-name="Group 114254" transform="translate(55.465 31.693)">
          <path id="Path_84407" data-name="Path 84407" d="M54.52,22.12c-3.8,3.431-5.969,8.508-9.224,12.625-3.12,3.979-5.969,7.822-8.817,11.938-3.391,4.94-7.325,9.468-10.31,14.82-3.391,5.763-4.748,12.9-9.36,17.839a.868.868,0,0,0,1.221,1.235c3.12-3.431,4.883-7.822,6.783-12.076a76.768,76.768,0,0,1,9.224-15.369c3.8-5.077,6.783-10.978,11.123-15.506,4.07-4.254,6.24-10.155,10.581-14.134A.92.92,0,1,0,54.52,22.12Z" transform="translate(-16.54 -21.85)" fill="#fff"/>
        </g>
        <g id="Group_114255" data-name="Group 114255" transform="translate(51.634 66.131)">
          <path id="Path_84408" data-name="Path 84408" d="M17.238,25.183c.136,3.842-1.492,7.684-.814,11.664a38.349,38.349,0,0,0,3.8,11.527.852.852,0,0,0,1.492-.823,38.732,38.732,0,0,1-3.8-12.213c-.407-3.293,1.221-6.724,1.085-10.155a.884.884,0,0,0-1.763,0Z" transform="translate(-16.258 -24.36)" fill="#fff"/>
        </g>
        <g id="Group_114256" data-name="Group 114256" transform="translate(6.199 53.798)">
          <path id="Path_84409" data-name="Path 84409" d="M13.473,24.268c-.136,3.019-.678,6.038-.543,9.057.271,3.293,1.221,6.587,1.085,9.88-.136,1.1,1.628,1.1,1.763,0,.136-3.019-.543-6.038-.95-8.919-.407-3.293.271-6.587.407-9.88,0-1.235-1.763-1.235-1.763-.137Z" transform="translate(-12.908 -23.461)" fill="#fff"/>
        </g>
        <g id="Group_114257" data-name="Group 114257" transform="translate(9.38 55.338)">
          <path id="Path_84410" data-name="Path 84410" d="M14.731,23.8h0a5.362,5.362,0,0,0-1.085,1.372,181.612,181.612,0,0,0,18.449,7.822c8,2.607,15.329,7.136,23.875,7.273,1.085,0,1.085-1.647,0-1.784-7.6-.137-14.243-3.842-21.3-6.449-6.918-2.607-13.565-5.352-20.212-8.371-.814-.412-1.763.686-1.085,1.372h0c.95.686,2.035-.549,1.357-1.235Z" transform="translate(-13.143 -23.573)" fill="#fff"/>
        </g>
        <g id="Group_114258" data-name="Group 114258" transform="translate(10.098 59.891)">
          <path id="Path_84411" data-name="Path 84411" d="M13.8,25.617c6.511,1.921,12.751,5.626,19.127,7.959C40.247,36.184,47.979,37.556,55.3,40.3c1.085.412,1.492-1.235.407-1.647-6.511-2.47-13.294-3.979-19.941-5.9-7.461-2.2-14.108-6.587-21.569-8.782-.95-.412-1.492,1.235-.407,1.647Z" transform="translate(-13.196 -23.905)" fill="#fff"/>
        </g>
        <g id="Group_114259" data-name="Group 114259" transform="translate(9.284 63.631)">
          <path id="Path_84412" data-name="Path 84412" d="M13.735,25.855c7.054,1.509,13.837,5.9,20.483,8.508,7.19,2.744,14.65,4.117,21.84,6.587,1.085.412,1.492-1.372.407-1.647-7.19-2.47-14.65-3.842-21.84-6.587-6.918-2.607-13.294-7-20.483-8.508-.95-.274-1.492,1.372-.407,1.647Z" transform="translate(-13.136 -24.178)" fill="#fff"/>
        </g>
        <g id="Group_114260" data-name="Group 114260" transform="translate(12.819 69.908)">
          <path id="Path_84413" data-name="Path 84413" d="M13.988,26.347c8.275,3.019,17.092,5.489,25.231,9.057,4.748,2.058,10.852,2.744,15.193,5.489.95.549,1.763-.961.814-1.509C50.478,36.227,43.7,35.4,38.541,33.209,30.809,29.915,22.4,27.582,14.531,24.7c-1.085-.412-1.628,1.235-.543,1.647Z" transform="translate(-13.396 -24.635)" fill="#fff"/>
        </g>
        <g id="Group_114261" data-name="Group 114261" transform="translate(52.552 20.359)">
          <path id="Path_84414" data-name="Path 84414" d="M17.88,72.56C26.154,64.876,30.5,53.9,37.685,45.39a120.382,120.382,0,0,0,15.6-23.053c.543-.961-.95-1.921-1.492-.823A134.849,134.849,0,0,1,35.107,45.8C28.325,53.9,24.391,64.19,16.523,71.463c-.678.686.543,1.921,1.357,1.1Z" transform="translate(-16.325 -21.024)" fill="#fff"/>
        </g>
        <g id="Group_114262" data-name="Group 114262" transform="translate(52.462 26.259)">
          <path id="Path_84415" data-name="Path 84415" d="M52.825,21.943c-4.07,9.606-12.073,17.016-18.042,25.249-3.12,4.391-5.833,8.919-9.089,13.173-3.12,4.117-4.341,11.527-8.953,14.134-.95.549-.136,2.058.814,1.509,2.849-1.647,4.341-5.077,5.833-7.822,3.12-5.763,7.19-10.841,10.445-16.467,5.833-10.155,15.871-17.839,20.483-28.954.407-.961-1.085-1.921-1.492-.823Z" transform="translate(-16.319 -21.454)" fill="#fff"/>
        </g>
        <g id="Group_114263" data-name="Group 114263" transform="translate(53.892 30.245)">
          <path id="Path_84416" data-name="Path 84416" d="M52.721,22.09A66.967,66.967,0,0,0,46.074,31.7C42.411,37.6,38.206,42.811,34,48.3a100.124,100.124,0,0,0-9.36,13.173c-2.713,5.077-4.07,10.7-8,15.095-.678.823.407,2.058,1.221,1.235l.95-.961a.868.868,0,0,0-1.221-1.235,6.305,6.305,0,0,1-.95.961L17.858,77.8c2.442-2.744,3.934-6.038,5.562-9.331,1.357-2.607,2.306-5.489,3.663-8.1,1.357-2.47,3.663-4.8,5.29-7.136,3.527-5.214,8-9.468,11.53-14.683,3.391-4.94,5.833-10.429,9.767-15.095,1.085-1.1-.136-2.333-.95-1.372Z" transform="translate(-16.424 -21.745)" fill="#fff"/>
        </g>
      </g>
      <g id="Group_116434" data-name="Group 116434" transform="translate(1331.832 228.576) rotate(-2)" opacity="0.45">
        <g id="Group_114247-2" data-name="Group 114247" transform="translate(28.836 0.067)">
          <path id="Path_84400-2" data-name="Path 84400" d="M.54,1.1c4.868.363,9.194,2.914,13.7,4.645,5.408,2,11.268,2,16.767,3.641a.564.564,0,0,0,.271-1.094c-5.5-1.639-11.268-1.819-16.767-3.641C9.825,3.1,5.5.368.541.005c-.721-.091-.722,1,0,1.094Z" fill="#fff"/>
        </g>
        <g id="Group_114248-2" data-name="Group 114248" transform="translate(2.757 -0.001)">
          <path id="Path_84401-2" data-name="Path 84401" d="M26.169.256c-3.879,6.568-9.02,12.5-13.8,18.336-2.255,2.828-4.87,5.291-7.4,7.937C2.9,28.718,1.815,31.181.1,33.553c-.451.639.54,1.185.991.547,1.894-2.645,3.338-5.291,5.593-7.754,2.525-2.737,5.141-5.291,7.486-8.21C18.681,12.57,23.461,6.914,27.16.8c.361-.547-.631-1.185-.991-.547Z" fill="#fff"/>
        </g>
        <g id="Group_114249-2" data-name="Group 114249" transform="translate(35.325 8.281)">
          <path id="Path_84402-2" data-name="Path 84402" d="M24.519.169C21,4.548,17.214,8.836,14.237,13.67c-2.345,3.74-4.6,7.662-6.946,11.4C5.125,28.356,2.87,32.826.164,35.562a.577.577,0,1,0,.811.82c2.165-2.19,3.7-5.291,5.412-7.845C9,24.8,11.349,20.876,13.6,17.045,17.032,11.3,21.181,6.281,25.33,1.081c.451-.639-.36-1.459-.811-.912Z" fill="#fff"/>
        </g>
        <g id="Group_114250-2" data-name="Group 114250" transform="translate(2.768 33.825)">
          <path id="Path_84403-2" data-name="Path 84403" d="M.54,1.185c11.088,1.09,21.634,6.74,32.09,10.018a.564.564,0,0,0,.271-1.094C22.355,6.739,11.719,1.09.541,0-.18,0-.181,1.094.54,1.185Z" fill="#fff"/>
        </g>
        <g id="Group_114251-2" data-name="Group 114251" transform="translate(-0.013 33.556)">
          <path id="Path_84404-2" data-name="Path 84404" d="M2.692.178c-4.509,4.47-3.252,15.14,2.968,17.6.721.273.992-.821.271-1.094C.522,14.588-.375,4.83,3.412,1.09c.631-.639-.18-1.459-.721-.912Z" fill="#fff"/>
        </g>
        <g id="Group_114252-2" data-name="Group 114252" transform="translate(5.274 50.148)">
          <path id="Path_84405-2" data-name="Path 84405" d="M.552,1.185c5.5.271,10.547,2.732,15.5,4.736a64.876,64.876,0,0,0,16.045,4.1c.721.091.722-1.095,0-1.186A71.5,71.5,0,0,1,14.8,4.189C10.2,2.276,5.511.271.463,0c-.631,0-.632,1.186.09,1.185Z" fill="#fff"/>
        </g>
        <g id="Group_114253-2" data-name="Group 114253" transform="translate(58.516 8.301)">
          <path id="Path_84406-2" data-name="Path 84406" d="M1.148.423C.606,2.976-.387,5.713.153,8.357c.36,2.006,1.711,4.65,3.6,5.47.631.273,1.262-.73.541-1-1.713-.729-2.613-3.008-3.063-4.741-.63-2.188.543-5.107.995-7.3.181-.821-.9-1.094-1.082-.364Z" fill="#fff"/>
        </g>
        <g id="Group_114254-2" data-name="Group 114254" transform="translate(36.853 21.047)">
          <path id="Path_84407-2" data-name="Path 84407" d="M25.241.169c-2.525,2.281-3.969,5.656-6.134,8.392-2.075,2.645-3.969,5.2-5.863,7.936-2.255,3.284-4.871,6.294-6.855,9.852C4.133,30.18,3.23,34.923.163,38.207a.577.577,0,1,0,.811.82c2.074-2.281,3.248-5.2,4.511-8.027a51.071,51.071,0,0,1,6.134-10.216c2.526-3.375,4.511-7.3,7.4-10.308,2.706-2.828,4.15-6.75,7.036-9.4a.611.611,0,1,0-.811-.912Z" fill="#fff"/>
        </g>
        <g id="Group_114255-2" data-name="Group 114255" transform="translate(34.297 43.935)">
          <path id="Path_84408-2" data-name="Path 84408" d="M.651.547C.74,3.1-.343,5.654.107,8.3a25.467,25.467,0,0,0,2.521,7.659.567.567,0,0,0,.992-.548A25.722,25.722,0,0,1,1.1,7.3c-.27-2.189.813-4.469.724-6.749a.587.587,0,0,0-1.172,0Z" fill="#fff"/>
        </g>
        <g id="Group_114256-2" data-name="Group 114256" transform="translate(4.105 35.75)">
          <path id="Path_84409-2" data-name="Path 84409" d="M.375.536C.284,2.542-.078,4.549.012,6.555c.179,2.189.81,4.377.719,6.566-.09.73,1.082.729,1.172,0a32.226,32.226,0,0,0-.629-5.927C1,5,1.456,2.816,1.547.627,1.547-.194.375-.193.375.536Z" fill="#fff"/>
        </g>
        <g id="Group_114257-2" data-name="Group 114257" transform="translate(6.219 36.773)">
          <path id="Path_84410-2" data-name="Path 84410" d="M1.055.15h0a3.568,3.568,0,0,0-.722.912A120.594,120.594,0,0,0,12.592,6.256c5.318,1.731,10.185,4.738,15.865,4.827.721,0,.722-1.095,0-1.186-5.048-.089-9.465-2.55-14.152-4.28C9.708,3.886,5.292,2.064.875.059.334-.214-.3.516.153.972h0c.631.456,1.352-.365.9-.821Z" fill="#fff"/>
        </g>
        <g id="Group_114258-2" data-name="Group 114258" transform="translate(6.695 39.799)">
          <path id="Path_84411-2" data-name="Path 84411" d="M.4,1.138C4.725,2.413,8.871,4.873,13.107,6.422c4.868,1.731,10.006,2.641,14.873,4.462.721.273.992-.821.271-1.094C23.925,8.15,19.418,7.149,15,5.874,10.043,4.417,5.627,1.5.669.043.038-.23-.323.864.4,1.138Z" fill="#fff"/>
        </g>
        <g id="Group_114259-2" data-name="Group 114259" transform="translate(6.153 42.284)">
          <path id="Path_84412-2" data-name="Path 84412" d="M.4,1.115c4.688,1,9.194,3.918,13.611,5.649,4.777,1.822,9.735,2.732,14.513,4.371.721.273.992-.912.271-1.094C24.015,8.4,19.057,7.491,14.28,5.669,9.682,3.938,5.446,1.021.669.02.038-.162-.323.932.4,1.115Z" fill="#fff"/>
        </g>
        <g id="Group_114260-2" data-name="Group 114260" transform="translate(8.5 46.455)">
          <path id="Path_84413-2" data-name="Path 84413" d="M.393,1.138c5.5,2,11.358,3.643,16.766,6.012,3.155,1.367,7.211,1.821,10.1,3.644.631.365,1.172-.639.541-1-3.154-2.1-7.662-2.642-11.087-4.1C11.571,3.5,5.982,1.956.754.043.033-.23-.328.864.393,1.138Z" fill="#fff"/>
        </g>
        <g id="Group_114261-2" data-name="Group 114261" transform="translate(34.92 13.516)">
          <path id="Path_84414-2" data-name="Path 84414" d="M1.019,34.249c5.5-5.109,8.389-12.406,13.169-18.062A80.091,80.091,0,0,0,24.562.862c.361-.639-.631-1.276-.991-.547a89.716,89.716,0,0,1-11.1,16.146C7.966,21.844,5.349,28.684.118,33.52c-.451.456.36,1.277.9.729Z" fill="#fff"/>
        </g>
        <g id="Group_114262-2" data-name="Group 114262" transform="translate(34.858 17.437)">
          <path id="Path_84415-2" data-name="Path 84415" d="M24.262.315c-2.707,6.385-8.028,11.311-12,16.785-2.075,2.919-3.879,5.929-6.044,8.757-2.075,2.737-2.888,7.661-5.954,9.4-.631.365-.091,1.368.541,1,1.894-1.1,2.886-3.375,3.879-5.2,2.075-3.831,4.781-7.206,6.946-10.946C15.512,13.359,22.185,8.25,25.253.862c.271-.638-.721-1.276-.991-.547Z" fill="#fff"/>
        </g>
        <g id="Group_114263-2" data-name="Group 114263" transform="translate(35.808 20.086)">
          <path id="Path_84416-2" data-name="Path 84416" d="M24.122.22A44.554,44.554,0,0,0,19.7,6.605c-2.436,3.922-5.232,7.389-8.028,11.038A66.615,66.615,0,0,0,5.45,26.4c-1.8,3.375-2.707,7.114-5.323,10.033-.451.547.27,1.368.811.82l.631-.639a.577.577,0,1,0-.811-.82,4.2,4.2,0,0,1-.631.639l.811.82a26.82,26.82,0,0,0,3.7-6.2c.9-1.733,1.534-3.648,2.436-5.381a58.434,58.434,0,0,1,3.518-4.744c2.345-3.466,5.321-6.295,7.667-9.761,2.255-3.284,3.879-6.932,6.495-10.034.722-.73-.09-1.55-.631-.912Z" fill="#fff"/>
        </g>
      </g>
      <g id="Group_116428" data-name="Group 116428" transform="matrix(-0.839, 0.545, -0.545, -0.839, 1384.461, 67.37)" opacity="0.49">
        <g id="Group_115705" data-name="Group 115705" transform="translate(0.258 15.178)">
          <path id="Path_85762" data-name="Path 85762" d="M.817,0c19.056.036,37.975.21,56.895.11C58.8.1,58.791,1.878,57.7,1.884c-19.056.1-37.976.064-56.895-.11C-.282,1.779-.272,0,.817,0Z" transform="translate(0 0)" fill="#fff"/>
        </g>
        <g id="Group_115706" data-name="Group 115706" transform="translate(-0.06 11.43)">
          <path id="Path_85763" data-name="Path 85763" d="M.592,3.473a36.626,36.626,0,0,0,3.546-1.25c.682-.277,1.5-.692,2.183-.969A3.453,3.453,0,0,0,7.276.7c.273-.138.411-.412.273-.138a.841.841,0,0,1,1.631.4C8.9,2.062,6.857,2.756,5.9,3.171A32.22,32.22,0,0,1,.855,5.113C.036,5.527-.5,3.752.592,3.473Z" transform="translate(0 0)" fill="#fff"/>
        </g>
        <g id="Group_115707" data-name="Group 115707" transform="translate(0.945 14.564)">
          <path id="Path_85764" data-name="Path 85764" d="M1.493.192c1.9,1.768,4.888,2.3,7.2,3.244,1.087.4.534,2.049-.417,1.643C5.693,4,2.43,3.333.262,1.43-.551.75.68-.487,1.493.192Z" transform="translate(0 0)" fill="#fff"/>
        </g>
        <g id="Group_115708" data-name="Group 115708" transform="translate(42.126 -0.222)">
          <path id="Path_85765" data-name="Path 85765" d="M1.765.811c-.136,25.847.546,51.553.684,77.262l-1.769.009,0-.684a.887.887,0,0,1,1.769-.009l0,.684a.887.887,0,0,1-1.769.009C.678,52.373,0,26.53,0,.821A.887.887,0,0,1,1.765.811Z" transform="translate(0 0)" fill="#fff"/>
        </g>
        <g id="Group_115709" data-name="Group 115709" transform="translate(39.323 70.477)">
          <path id="Path_85766" data-name="Path 85766" d="M1.612.418c.673,1.364,1.621,2.453,2.43,3.816a28.959,28.959,0,0,1,1.07,3.687c.4,1.092-1.369,1.512-1.636.419A16.638,16.638,0,0,0,2.271,4.654C1.6,3.427.785,2.474.111,1.247a.858.858,0,0,1,1.5-.828Z" transform="translate(0 0)" fill="#fff"/>
        </g>
        <g id="Group_115710" data-name="Group 115710" transform="translate(42.681 71.444)">
          <path id="Path_85767" data-name="Path 85767" d="M2.024,7.364a1.367,1.367,0,0,1-.958.962C.384,8.6-.156,7.785-.017,7.238.542,4.5,2.73,2.574,4.238.378c.686-.961,2.178-.011,1.493.813C4.36,3.249,2.172,5.038,1.614,7.639L.531,6.551l-.274.275c.277-.959,2.045-.558,1.767.538Z" transform="translate(0 0)" fill="#fff"/>
        </g>
        <g id="Group_115711" data-name="Group 115711" transform="translate(6.79 16.731)">
          <path id="Path_85768" data-name="Path 85768" d="M26.676,50.922c.044-8.479-8.119-9.12-14.649-9.769a33.388,33.388,0,0,1-5.849-.79C3.46,39.694,1.291,37.927.756,36.152c-.4-1.229.15-2.6,1.381-3.836,3.009-2.751,6.827-4.139,10.51-5.526a19.852,19.852,0,0,1,2.591-.834c2.726-.7,6.134-1.673,6.962-3.866a3.407,3.407,0,0,0-.256-3.007c-1.482-3-4.606-4.078-7.6-4.746a2.563,2.563,0,0,1-2.033-1.63,2.467,2.467,0,0,1,.421-2.327c1.509-2.2,5.051-2.9,6.958-3.182l.953-.005C22.958,7.18,25,7.033,25.824,5.8a1.585,1.585,0,0,0,.145-1.642c-.4-1.092-1.353-1.634-2.166-2.313A6.084,6.084,0,0,1,22.178.21.492.492,0,0,0,21.5-.06a.5.5,0,0,0-.276.685,5.784,5.784,0,0,0,2.031,2.041,3.912,3.912,0,0,1,1.759,1.905c.133.546,0,.684,0,.684-.549.823-3,.836-4.224.843L19.7,6.1c-2.179.285-5.994.989-7.777,3.6a3.706,3.706,0,0,0-.562,3.285,3.68,3.68,0,0,0,2.847,2.173c2.855.669,5.572,1.612,6.92,4.2a2.564,2.564,0,0,1,.261,2.187c-.689,1.645-3.961,2.619-6.278,3.178a8.981,8.981,0,0,0-2.727.972C8.7,27.085,4.743,28.473,1.6,31.362A5.075,5.075,0,0,0-.062,36.293c.667,2.595,3.652,4.357,6.1,5.028a37.144,37.144,0,0,0,5.985.789c6.938.647,14.149,1.293,13.7,9.364a.579.579,0,0,0,.542.544.6.6,0,0,0,.547-.55C26.674,51.332,26.675,51.2,26.676,50.922Z" transform="translate(0 0)" fill="#fff"/>
        </g>
      </g>
      <g id="Group_117512" data-name="Group 117512" transform="translate(141.987 265.185)">
        <path id="Path_83113" data-name="Path 83113" d="M211.516,296.983c-.119-.01-.237-.026-.361-.036,5.311,1.226,10.514,2.165,15.675,4.022l.309-.266c-4.754-2.415-10.694-3.469-15.99-4.162.15.047.294.089.433.141A.158.158,0,0,1,211.516,296.983Z" transform="translate(-203.334 -294.905)" fill="#e1e5e9"/>
        <path id="Path_83114" data-name="Path 83114" d="M216.887,327.833a2.242,2.242,0,0,1,.1.23c3.156,2.232,6.43,4.308,9.761,6.275,4.053,2.389,8.188,4.632,12.334,6.844,4.017,2.144,8.25,3.422,12.478,5.039.17.063.258-.188.1-.266-4.316-2.055-8.854-3.3-13.1-5.576-3.883-2.076-7.755-4.183-11.55-6.421a124.438,124.438,0,0,1-20.584-14.965.2.2,0,0,1-.278.063c-.175-.1-.356-.219-.536-.344a93.357,93.357,0,0,0,10.973,9.06A.209.209,0,0,1,216.887,327.833Z" transform="translate(-200.65 -305.511)" fill="#e1e5e9"/>
        <path id="Path_83115" data-name="Path 83115" d="M299.069,372.772c6.306,2.446,27.948,8.575,25.442-.349a.184.184,0,0,0-.258-.13c.093.407.175.819.237,1.226a.154.154,0,0,1-.3.052c-.021-.068-.036-.136-.052-.2-.825,7.782-22.121.224-26.261-1.5-.222-.094-.325.24-.124.344.175.089.418.2.712.323.026-.026.062-.047.088-.073C298.8,372.214,299.115,372.5,299.069,372.772Z" transform="translate(-245.227 -330.932)" fill="#e1e5e9"/>
        <path id="Path_83116" data-name="Path 83116" d="M333.429,355.812c-3.945-5.106-9.534-8.643-14.386-12.774-.144-.125-.3.12-.17.24,4.94,4.434,10.287,8.069,14.608,13.2a.171.171,0,0,0,.083.057q-.1-.258-.217-.516A.146.146,0,0,1,333.429,355.812Z" transform="translate(-255.486 -317.133)" fill="#e1e5e9"/>
        <path id="Path_83117" data-name="Path 83117" d="M298.1,357.715c-3.78-.663-7.322-2.175-11.05-3.13-.16-.042-.253.193-.093.245a104.905,104.905,0,0,0,10.6,3.177c1.959.407,4.455.814,6.409.193,4.522-1.434.376-5.858-1.578-7.579-.124-.109-.309.094-.191.214,1.382,1.445,5.172,4.3,2.645,6.5-1.232,1.069-3.455.751-4.9.621-.577-.052-1.15-.13-1.712-.224A.23.23,0,0,1,298.1,357.715Z" transform="translate(-240.014 -320.762)" fill="#e1e5e9"/>
        <path id="Path_83118" data-name="Path 83118" d="M275.148,353.093a2.839,2.839,0,0,0,.975.412c.155.052.237-.188.088-.235a2.71,2.71,0,0,1-.918-.386C275.168,352.78,275.029,352.988,275.148,353.093Z" transform="translate(-234.31 -321.846)" fill="#e1e5e9"/>
        <path id="Path_83119" data-name="Path 83119" d="M229.27,326.2c.815.662,1.66,1.294,2.5,1.914a135.948,135.948,0,0,0,12.241,8.111c.17.1.345-.141.175-.256-4.883-3.276-10.143-6.2-14.613-10.072-.021.068-.041.13-.062.2A.174.174,0,0,1,229.27,326.2Z" transform="translate(-212.11 -308.951)" fill="#e1e5e9"/>
        <path id="Path_83120" data-name="Path 83120" d="M224.634,317.134c-.077-.068-.165-.136-.242-.209-1.609-1.445-6.167-5.722-2.98-7.72,1.831-1.148,4.832-.1,7-.052.113-.13.222-.261.34-.386-2.408-.052-5.9-1.346-8.008.282-1.6,1.236-.779,3.255.134,4.653a17.756,17.756,0,0,0,3.728,3.975.168.168,0,0,1-.031-.115C224.593,317.416,224.613,317.275,224.634,317.134Z" transform="translate(-207.541 -300.498)" fill="#e1e5e9"/>
        <path id="Path_83121" data-name="Path 83121" d="M267.359,349.9c-2.171-1.184-4.532-2.227-6.8-3.218-.17-.073-.32.2-.155.3a34.539,34.539,0,0,0,6.8,3.224C267.374,350.247,267.539,350,267.359,349.9Z" transform="translate(-227.155 -318.885)" fill="#e1e5e9"/>
        <path id="Path_83122" data-name="Path 83122" d="M278.8,355.7c.382.146.753.313,1.134.464A3.573,3.573,0,0,0,281,356.5a.172.172,0,0,0,.113-.308,4.9,4.9,0,0,0-1.036-.433c-.382-.146-.768-.271-1.165-.381A.17.17,0,0,0,278.8,355.7Z" transform="translate(-236.047 -323.051)" fill="#e1e5e9"/>
        <path id="Path_83123" data-name="Path 83123" d="M233.206,301.965c-.113.13-.227.256-.34.386a15.513,15.513,0,0,0-3.78,7.975c-.021.141-.041.287-.057.428a.168.168,0,0,0,.031.115.218.218,0,0,0,.093.073.174.174,0,0,0,.242-.1c.021-.068.041-.13.062-.2a21.05,21.05,0,0,1,6.817-10.594c3.486-2.874,7.477-4.439,11.731-5.748-.067,0-.134-.005-.206,0a.18.18,0,0,1-.165-.287,25.833,25.833,0,0,0-11.834,5.482l-.309.266A22.454,22.454,0,0,0,233.206,301.965Z" transform="translate(-211.993 -293.695)" fill="#e1e5e9"/>
        <path id="Path_83124" data-name="Path 83124" d="M265.24,294.065c.072-.005.134,0,.206,0a15.648,15.648,0,0,1,2.2.209,2.349,2.349,0,0,0,1.665-.235c-.206-.005-.407-.016-.614-.016s-.2-.308-.016-.344a1.3,1.3,0,0,1,.15-.021,11.86,11.86,0,0,1-1.867-.057,2.924,2.924,0,0,0-1.83.12.15.15,0,0,0-.057.057A.18.18,0,0,0,265.24,294.065Z" transform="translate(-229.435 -293.457)" fill="#e1e5e9"/>
        <path id="Path_83125" data-name="Path 83125" d="M271.977,293.971c.206,0,.412.01.614.016a20.653,20.653,0,0,1,8.8,1.956,41.612,41.612,0,0,1,6.75,4.569.215.215,0,0,1,.4-.026,3.24,3.24,0,0,0,.144.3.232.232,0,0,0,.1-.36c-3.455-4.355-11.138-7.908-16.676-6.828-.046.01-.1.01-.15.021C271.781,293.663,271.776,293.971,271.977,293.971Z" transform="translate(-232.722 -293.406)" fill="#e1e5e9"/>
        <path id="Path_83126" data-name="Path 83126" d="M303.456,306.894a.178.178,0,0,0-.01.1A4.065,4.065,0,0,0,305,309.19a16.681,16.681,0,0,1,1.366,1.273,10.238,10.238,0,0,1,.918,1.356.146.146,0,0,1,.18.036c.072.089.139.188.206.282a.167.167,0,0,0,.129-.162c-.062-2.16-2.846-3.062-3.8-4.8a3.239,3.239,0,0,1-.144-.3A.219.219,0,0,0,303.456,306.894Z" transform="translate(-248.036 -299.788)" fill="#e1e5e9"/>
        <path id="Path_83127" data-name="Path 83127" d="M309.637,316.455a.167.167,0,0,0-.093.214c1.624,4.074,3.109,7.72,3.027,12.226a20.591,20.591,0,0,1-4.218,12.06.291.291,0,0,0,.258.449.231.231,0,0,0,.15-.068c3.14-3.171,4.373-8.007,4.4-12.378.031-3.949-.7-8.909-3.14-12.18-.072-.094-.134-.193-.206-.282A.139.139,0,0,0,309.637,316.455Z" transform="translate(-250.391 -304.425)" fill="#e1e5e9"/>
        <path id="Path_83128" data-name="Path 83128" d="M231.9,351.317a25.11,25.11,0,0,1-3.754-8.116c-.593-2.2.026-4.794-.892-6.864-.036-.078-.067-.156-.1-.23a.2.2,0,0,0-.3-.057.165.165,0,0,0-.057.172c.676,2.817.253,5.576,1.129,8.419.763,2.462,1.727,5.185,3.707,6.922A.22.22,0,0,1,231.9,351.317Z" transform="translate(-210.905 -313.785)" fill="#e1e5e9"/>
        <path id="Path_83129" data-name="Path 83129" d="M239.732,368.641c.088.068.18.13.268.2a5.415,5.415,0,0,0-3.568-3.484.226.226,0,0,0-.284.245.208.208,0,0,0,.129.167A6.5,6.5,0,0,1,238.4,367.3a14.082,14.082,0,0,1,1.031,1.445A.2.2,0,0,1,239.732,368.641Z" transform="translate(-215.441 -327.823)" fill="#e1e5e9"/>
        <path id="Path_83130" data-name="Path 83130" d="M250.814,376.017c.155.125.309.24.464.355a.165.165,0,0,0-.067-.209c-1.31-.7-2.748-1.137-4.079-1.81a26.219,26.219,0,0,1-4.037-2.54c-.088-.068-.18-.13-.268-.2a.187.187,0,0,0-.289.1.184.184,0,0,0,.031.188,13.439,13.439,0,0,0,3.852,2.78,15.016,15.016,0,0,0,4.208,1.758.964.964,0,0,1-.088-.115C250.412,376.142,250.618,375.861,250.814,376.017Z" transform="translate(-218.531 -330.802)" fill="#e1e5e9"/>
        <path id="Path_83131" data-name="Path 83131" d="M263,381.337a13.632,13.632,0,0,1-1.846.068,4.4,4.4,0,0,1-2.387-1c-.155-.115-.3-.23-.464-.355-.2-.156-.4.125-.278.308.026.042.057.073.088.115,1.3,1.763,3.9,1.925,5.822,1.231a.159.159,0,0,0,.093-.1c-.315.036-.629.078-.949.136C262.815,381.785,262.768,381.42,263,381.337Z" transform="translate(-226.019 -334.833)" fill="#e1e5e9"/>
        <path id="Path_83132" data-name="Path 83132" d="M284.429,373.244c.046-.271-.273-.558-.526-.323-.026.026-.062.047-.088.073a18.942,18.942,0,0,1-7.781,3.907c-2.79.772-5.713.146-8.462,1-.242.083-.191.449.072.407.32-.052.634-.1.949-.136,2.913-.339,5.724-.01,8.606-.944a18.511,18.511,0,0,0,7.131-3.8A.269.269,0,0,0,284.429,373.244Z" transform="translate(-230.587 -331.403)" fill="#e1e5e9"/>
        <path id="Path_83133" data-name="Path 83133" d="M201.771,308.032a.2.2,0,0,0-.01-.235c-1.676-2.326-4.161-3.959-4.935-6.922-1.181-4.533,3.934-4.569,6.982-4.293.124.01.247.021.361.036a.157.157,0,0,0,.067-.3q-.209-.078-.433-.141c-2.738-.824-7.173-.532-7.755,2.9-.5,2.952,2.449,6.948,4.9,8.669.18.125.361.245.536.344A.2.2,0,0,0,201.771,308.032Z" transform="translate(-195.991 -294.546)" fill="#e1e5e9"/>
        <path id="Path_83134" data-name="Path 83134" d="M330.012,373.584a.178.178,0,0,0-.124.334c2.047.928,11.055.569,8.374-3.495-.093-.141-.361-.021-.309.146C339.154,374.4,332.306,374.3,330.012,373.584Z" transform="translate(-260.793 -330.22)" fill="#e1e5e9"/>
        <path id="Path_83135" data-name="Path 83135" d="M201.043,300.837a.19.19,0,0,0-.16-.344c-4.723,2.071,8.219,13.322,10.369,14.616a.136.136,0,0,0,.155-.224C209.737,313.372,197.207,302.924,201.043,300.837Z" transform="translate(-197.862 -296.787)" fill="#e1e5e9"/>
        <path id="Path_83136" data-name="Path 83136" d="M215.851,300.567c-3.677-1.09-8.08-2.639-11.932-1.8a.151.151,0,0,0,.052.3c4.12-.172,7.833.923,11.824,1.779C215.944,300.864,216,300.609,215.851,300.567Z" transform="translate(-199.774 -295.855)" fill="#e1e5e9"/>
        <path id="Path_83137" data-name="Path 83137" d="M230.952,303.9c.253.125.407-.292.155-.417-.49-.24-1-.407-1.506-.616-.17-.068-.315.2-.15.292C229.936,303.439,230.447,303.658,230.952,303.9Z" transform="translate(-212.163 -297.928)" fill="#e1e5e9"/>
        <path id="Path_83138" data-name="Path 83138" d="M219.642,307.164c.155-.052.067-.292-.083-.266-1.325.219-3.037.824-3.254,2.379-.206,1.476.866,3.192,1.738,4.277a.159.159,0,0,0,.263-.172c-.557-1.121-1.439-2.2-1.583-3.49C216.522,308.129,218.312,307.6,219.642,307.164Z" transform="translate(-205.818 -299.859)" fill="#e1e5e9"/>
        <path id="Path_83139" data-name="Path 83139" d="M226.984,326.212a37.364,37.364,0,0,1-4.172-3.62.151.151,0,0,0-.227.2,24.179,24.179,0,0,0,4.244,3.651C226.969,326.541,227.113,326.322,226.984,326.212Z" transform="translate(-208.855 -307.343)" fill="#e1e5e9"/>
        <path id="Path_83140" data-name="Path 83140" d="M240.389,340.718c.175.083.33-.209.16-.3-5.548-3.077-10.607-6.943-16.124-10.036-.165-.094-.335.136-.175.25C229.37,334.245,234.743,338.006,240.389,340.718Z" transform="translate(-209.648 -311.083)" fill="#e1e5e9"/>
        <path id="Path_83141" data-name="Path 83141" d="M258.816,351.656c-.155-.13-.376.115-.237.261a2.431,2.431,0,0,0,.65.475,1.312,1.312,0,0,0,.732.245.172.172,0,0,0,.1-.282,2.031,2.031,0,0,0-.608-.308A2.855,2.855,0,0,1,258.816,351.656Z" transform="translate(-226.285 -321.254)" fill="#e1e5e9"/>
        <path id="Path_83142" data-name="Path 83142" d="M254.793,345.644a133.119,133.119,0,0,1-15.7-9.66c-.155-.11-.315.125-.17.24a81.273,81.273,0,0,0,15.742,9.65C254.809,345.936,254.927,345.712,254.793,345.644Z" transform="translate(-216.76 -313.761)" fill="#e1e5e9"/>
        <path id="Path_83143" data-name="Path 83143" d="M321.544,351.6c2.13,2.128,8.07,5.524,6.863,9.165a.207.207,0,0,0,.387.146c1.609-3.756-4.888-7.49-7.049-9.483C321.627,351.309,321.42,351.471,321.544,351.6Z" transform="translate(-256.786 -321.142)" fill="#e1e5e9"/>
        <path id="Path_83144" data-name="Path 83144" d="M327.241,352.677c-.119-.11-.315.052-.2.167,1.629,1.6,10.148,7.5,6.3,9.744a.205.205,0,0,0,.175.37C338.549,360.986,328.7,354.022,327.241,352.677Z" transform="translate(-259.451 -321.743)" fill="#e1e5e9"/>
        <path id="Path_83145" data-name="Path 83145" d="M291.239,365.088a177.411,177.411,0,0,1-17.506-6.541c-.2-.083-.315.23-.119.318a154.374,154.374,0,0,0,16.928,6.8A.7.7,0,0,1,291.239,365.088Z" transform="translate(-233.54 -324.562)" fill="#e1e5e9"/>
        <path id="Path_83146" data-name="Path 83146" d="M308.723,372.13a46.4,46.4,0,0,0,7.791,1.549c.18.021.2-.245.026-.282-2.754-.6-5.43-1.32-8.07-2.118A.7.7,0,0,1,308.723,372.13Z" transform="translate(-250.472 -330.66)" fill="#e1e5e9"/>
        <path id="Path_83147" data-name="Path 83147" d="M208.491,303.377c.155-.021.15-.292-.01-.287-1.119.037-2.176.449-2.042,1.768a6.593,6.593,0,0,0,1.98,3.693c.144.12.315-.068.258-.219C208.063,306.778,205.119,303.81,208.491,303.377Z" transform="translate(-201.046 -298.039)" fill="#e1e5e9"/>
        <path id="Path_83148" data-name="Path 83148" d="M212.1,307.527a1.13,1.13,0,0,0-.144.835c.036.13.248.188.289.026.1-.391.036-.808.552-.855.175-.016.165-.313-.01-.313A.738.738,0,0,0,212.1,307.527Z" transform="translate(-203.71 -300.014)" fill="#e1e5e9"/>
        <path id="Path_83149" data-name="Path 83149" d="M214.934,316.892c-.18-.177-.366-.349-.547-.522-.165-.156-.433.063-.273.235.175.183.346.365.521.542.139.141.309.391.505.438.108.026.253-.052.217-.183C215.305,317.185,215.089,317.038,214.934,316.892Z" transform="translate(-204.746 -304.366)" fill="#e1e5e9"/>
        <path id="Path_83150" data-name="Path 83150" d="M269.589,365.574a8.727,8.727,0,0,0-2.594-1.247.184.184,0,0,0-.129.344q1.292.579,2.578,1.174C269.614,365.929,269.712,365.684,269.589,365.574Z" transform="translate(-230.267 -327.328)" fill="#e1e5e9"/>
        <path id="Path_83151" data-name="Path 83151" d="M263.384,370.108a12.2,12.2,0,0,0-3.671-2.071c-.232-.089-.361.271-.134.365a27.165,27.165,0,0,1,3.64,1.946A.146.146,0,0,0,263.384,370.108Z" transform="translate(-226.733 -329.102)" fill="#e1e5e9"/>
        <path id="Path_83152" data-name="Path 83152" d="M260.946,372.572c.124.068.33-.047.237-.2-.309-.511-.959-.772-1.4-1.153-.15-.13-.371.115-.232.261a4.256,4.256,0,0,0,.66.563A7.144,7.144,0,0,0,260.946,372.572Z" transform="translate(-226.755 -330.612)" fill="#e1e5e9"/>
        <path id="Path_83153" data-name="Path 83153" d="M256.375,376.241c.17.078.32-.2.155-.3-3.481-1.935-7.415-2.749-10.56-5.326-.15-.125-.309.12-.17.245C248.811,373.524,252.807,374.572,256.375,376.241Z" transform="translate(-220.091 -330.327)" fill="#e1e5e9"/>
        <path id="Path_83154" data-name="Path 83154" d="M260.912,364.743a.158.158,0,0,0,.144-.276,11.438,11.438,0,0,0-1.645-.85c-.191-.089-.361.235-.17.334A10.893,10.893,0,0,0,260.912,364.743Z" transform="translate(-226.587 -326.986)" fill="#e1e5e9"/>
        <path id="Path_83155" data-name="Path 83155" d="M261.882,297.294c.186.037.237-.25.072-.318a1.127,1.127,0,0,0-.717-.089,2.129,2.129,0,0,0-.789.4c-.124.094-.021.339.134.292A3,3,0,0,1,261.882,297.294Z" transform="translate(-227.185 -295.059)" fill="#e1e5e9"/>
        <path id="Path_83156" data-name="Path 83156" d="M247.329,298.4c-4.532,1.116-9.637,4.851-11.669,9.186-.113.24.253.423.4.209,2.748-4.027,6.574-7.662,11.328-9.066C247.587,298.676,247.535,298.353,247.329,298.4Z" transform="translate(-215.195 -295.794)" fill="#e1e5e9"/>
        <path id="Path_83157" data-name="Path 83157" d="M248.2,306.26a3.307,3.307,0,0,0-1.232,1.069c-.1.136.088.3.217.2a9.013,9.013,0,0,1,1.2-.887C248.607,306.5,248.452,306.145,248.2,306.26Z" transform="translate(-220.67 -299.544)" fill="#e1e5e9"/>
        <path id="Path_83158" data-name="Path 83158" d="M234.579,317.6c.938-1.3,1.578-2.817,2.449-4.168a16.794,16.794,0,0,1,3.481-3.907c.15-.125-.041-.344-.2-.23a18.934,18.934,0,0,0-6.043,8.148A.176.176,0,0,0,234.579,317.6Z" transform="translate(-214.527 -300.994)" fill="#e1e5e9"/>
        <path id="Path_83159" data-name="Path 83159" d="M233.2,319.905a17.584,17.584,0,0,1-.737,2.149.169.169,0,0,0,.294.157,4.9,4.9,0,0,0,.856-2.264C233.657,319.676,233.249,319.645,233.2,319.905Z" transform="translate(-213.651 -305.997)" fill="#e1e5e9"/>
        <path id="Path_83160" data-name="Path 83160" d="M309.76,343.1c3.13-3.37,1.9-8.768,1.81-12.931-.005-.209-.309-.25-.325-.031-.407,4.6.753,8.492-1.738,12.727C309.415,343.025,309.616,343.255,309.76,343.1Z" transform="translate(-250.963 -310.907)" fill="#e1e5e9"/>
        <path id="Path_83161" data-name="Path 83161" d="M306.51,356.995c-.077.209-.155.417-.253.621-.108.219-.273.4-.382.621-.067.13.108.287.232.214a2.14,2.14,0,0,0,.773-1.32C306.943,356.89,306.6,356.755,306.51,356.995Z" transform="translate(-249.208 -323.766)" fill="#e1e5e9"/>
        <path id="Path_83162" data-name="Path 83162" d="M306.1,337.7a.2.2,0,0,0-.387.068,12.857,12.857,0,0,1-3.444,10.625c-.134.13,0,.37.18.282C305.595,347.145,306.992,340.817,306.1,337.7Z" transform="translate(-247.442 -314.521)" fill="#e1e5e9"/>
        <path id="Path_83163" data-name="Path 83163" d="M299.87,352.607a6.056,6.056,0,0,0,1.8-4.94.2.2,0,0,0-.4.073c.2,1.826-.8,3.151-1.635,4.653C299.55,352.539,299.726,352.748,299.87,352.607Z" transform="translate(-246.183 -319.284)" fill="#e1e5e9"/>
        <path id="Path_83164" data-name="Path 83164" d="M281.433,297.358c-.242-.037-.273.339-.036.381,3.909.7,7.76,2.572,10.045,5.941.108.156.346-.01.268-.177C290.034,299.8,285.141,297.916,281.433,297.358Z" transform="translate(-237.28 -295.295)" fill="#e1e5e9"/>
        <path id="Path_83165" data-name="Path 83165" d="M303.369,311.446a1.72,1.72,0,0,0-.557-.908c-.17-.167-.459.073-.284.245a3.031,3.031,0,0,1,.547.756A.156.156,0,0,0,303.369,311.446Z" transform="translate(-247.568 -301.575)" fill="#e1e5e9"/>
        <path id="Path_83166" data-name="Path 83166" d="M305.716,313.4c-.16-.151-.423.063-.263.224A17.477,17.477,0,0,1,306.706,315a10.9,10.9,0,0,1,.9,1.56.179.179,0,0,0,.335-.11C307.856,315.249,306.516,314.169,305.716,313.4Z" transform="translate(-248.987 -302.947)" fill="#e1e5e9"/>
        <path id="Path_83167" data-name="Path 83167" d="M292.67,306.085a23.8,23.8,0,0,0-4.048-2.707c-.18-.1-.371.162-.191.271,1.382.85,2.717,1.779,4.079,2.655A.136.136,0,0,0,292.67,306.085Z" transform="translate(-240.731 -298.165)" fill="#e1e5e9"/>
        <path id="Path_83168" data-name="Path 83168" d="M299.683,311.629c-.155-.125-.32.125-.175.25a10.812,10.812,0,0,1,3.615,5.722c.041.172.325.183.32-.01C303.437,315.254,301.359,313.006,299.683,311.629Z" transform="translate(-246.104 -302.107)" fill="#e1e5e9"/>
        <path id="Path_83169" data-name="Path 83169" d="M249.161,312.055a2.116,2.116,0,0,0-.629.762.177.177,0,0,0,.237.219,1.944,1.944,0,0,0,.7-.61.179.179,0,0,0,.041-.047C249.6,312.19,249.4,311.83,249.161,312.055Z" transform="translate(-221.435 -302.293)" fill="#e1e5e9"/>
        <path id="Path_83170" data-name="Path 83170" d="M238.824,322.574a12.438,12.438,0,0,1,1.335-3.855,19.217,19.217,0,0,1,2.578-3.213c.129-.136-.057-.36-.191-.224-1.9,1.92-4.074,4.314-4.037,7.214C238.51,322.673,238.778,322.772,238.824,322.574Z" transform="translate(-216.585 -303.851)" fill="#e1e5e9"/>
        <path id="Path_83171" data-name="Path 83171" d="M241.18,325.244c.959-1.919,1.222-4.121,2.98-5.55.17-.136-.041-.381-.217-.256-1.758,1.294-2.485,3.662-3.1,5.675A.182.182,0,0,0,241.18,325.244Z" transform="translate(-217.709 -305.843)" fill="#e1e5e9"/>
        <path id="Path_83172" data-name="Path 83172" d="M247.483,319.836c-1.655,1.716-3.692,4.183-3.744,6.713-.005.193.273.282.34.078a16.556,16.556,0,0,1,1.284-3.49,17.22,17.22,0,0,1,2.393-2.984C247.932,319.966,247.669,319.643,247.483,319.836Z" transform="translate(-219.119 -306.021)" fill="#e1e5e9"/>
        <path id="Path_83173" data-name="Path 83173" d="M246.1,330.18a5.248,5.248,0,0,0-.51,1.419.163.163,0,0,0,.294.11,5.461,5.461,0,0,0,.572-1.393C246.518,330.081,246.188,329.951,246.1,330.18Z" transform="translate(-220.015 -310.941)" fill="#e1e5e9"/>
        <path id="Path_83174" data-name="Path 83174" d="M293.593,348.079c2.2-2.133,1.686-6.671,1.3-9.426-.031-.2-.325-.146-.309.057.273,3.046.634,6.525-1.238,9.144C293.237,348.006,293.453,348.21,293.593,348.079Z" transform="translate(-243.133 -314.991)" fill="#e1e5e9"/>
        <path id="Path_83175" data-name="Path 83175" d="M296.452,353.451a3.217,3.217,0,0,0,1.145-2.024c.041-.214-.325-.3-.371-.083a6.336,6.336,0,0,1-1.011,1.888A.164.164,0,0,0,296.452,353.451Z" transform="translate(-244.522 -321.062)" fill="#e1e5e9"/>
        <path id="Path_83176" data-name="Path 83176" d="M291.237,354.163a2.9,2.9,0,0,0,1-1.888c.041-.235-.314-.261-.361-.036a3.489,3.489,0,0,1-.34.934c-.155.277-.371.5-.536.767A.165.165,0,0,0,291.237,354.163Z" transform="translate(-241.995 -321.477)" fill="#e1e5e9"/>
        <path id="Path_83177" data-name="Path 83177" d="M269.406,376.881a19.388,19.388,0,0,0,13.34-2.843c.268-.177-.057-.558-.32-.381-3.888,2.556-8.472,2.978-12.984,2.864A.181.181,0,0,0,269.406,376.881Z" transform="translate(-231.477 -331.775)" fill="#e1e5e9"/>
        <path id="Path_83178" data-name="Path 83178" d="M271.059,376.1c-.186.188.062.506.268.323.237-.209.356-.11.614-.005a.175.175,0,0,0,.217-.24A.652.652,0,0,0,271.059,376.1Z" transform="translate(-232.319 -332.84)" fill="#e1e5e9"/>
        <path id="Path_83179" data-name="Path 83179" d="M276.221,374.6a21.6,21.6,0,0,0,7.724-1.8c.268-.12.072-.532-.2-.412a24.308,24.308,0,0,1-7.585,1.888C275.948,374.294,276.015,374.612,276.221,374.6Z" transform="translate(-234.76 -331.181)" fill="#e1e5e9"/>
        <path id="Path_83180" data-name="Path 83180" d="M282.948,372.474c.485-.146,1-.047,1.475-.177.139-.042.206-.276.031-.323a3.007,3.007,0,0,0-1.619.13C282.623,372.172,282.736,372.537,282.948,372.474Z" transform="translate(-238 -330.963)" fill="#e1e5e9"/>
        <path id="Path_83181" data-name="Path 83181" d="M230.526,341.094c-1.093,3.062.639,6.656,1.99,9.347a.132.132,0,0,0,.237-.115c-1.15-2.848-2.851-5.983-1.954-9.133C230.845,341.016,230.587,340.917,230.526,341.094Z" transform="translate(-212.551 -316.175)" fill="#e1e5e9"/>
        <path id="Path_83182" data-name="Path 83182" d="M234.754,349.678c-.284-2.227-1.336-4.178-1.1-6.484a.179.179,0,0,0-.356-.036c-.4,2.175.526,4.559,1.191,6.6C234.543,349.918,234.775,349.824,234.754,349.678Z" transform="translate(-214.016 -317.133)" fill="#e1e5e9"/>
        <path id="Path_83183" data-name="Path 83183" d="M236.488,358.607a5.956,5.956,0,0,0,1.268,2.921.15.15,0,0,0,.247-.162,12.035,12.035,0,0,1-1.232-2.806A.144.144,0,0,0,236.488,358.607Z" transform="translate(-215.605 -324.518)" fill="#e1e5e9"/>
        <path id="Path_83184" data-name="Path 83184" d="M238.76,353.349a14.4,14.4,0,0,1-1.655-7.809.153.153,0,0,0-.3-.031,13.641,13.641,0,0,0,1.727,7.949C238.616,353.594,238.842,353.49,238.76,353.349Z" transform="translate(-215.732 -318.268)" fill="#e1e5e9"/>
        <path id="Path_83185" data-name="Path 83185" d="M240.337,348.8a7.347,7.347,0,0,0,.144-.955c-.005-.193-.289-.235-.3-.031a7.974,7.974,0,0,0-.108.991C240.074,348.97,240.321,348.949,240.337,348.8Z" transform="translate(-217.34 -319.371)" fill="#e1e5e9"/>
        <path id="Path_83186" data-name="Path 83186" d="M241.835,356.646a16.165,16.165,0,0,1-1.207-3.636c-.031-.209-.345-.151-.32.057a9.614,9.614,0,0,0,1.284,3.693A.134.134,0,0,0,241.835,356.646Z" transform="translate(-217.456 -321.857)" fill="#e1e5e9"/>
        <path id="Path_83187" data-name="Path 83187" d="M242.439,365.614a3.787,3.787,0,0,0,.9.809c.134.068.268-.1.206-.23a4.3,4.3,0,0,0-.871-.944c-.309-.3-.634-.579-.954-.871-.134-.12-.33.1-.211.235C241.815,364.952,242.114,365.291,242.439,365.614Z" transform="translate(-218.019 -327.342)" fill="#e1e5e9"/>
        <path id="Path_83188" data-name="Path 83188" d="M245.786,364.426c.217-.469-.077-.824-.413-1.127-.175-.162-.469.063-.294.25a1.078,1.078,0,0,1,.407.809A.155.155,0,0,0,245.786,364.426Z" transform="translate(-219.742 -326.815)" fill="#e1e5e9"/>
        <path id="Path_83189" data-name="Path 83189" d="M252.054,369.556a14.563,14.563,0,0,1-4.569-2.639c-.175-.136-.361.141-.2.282a11.176,11.176,0,0,0,4.682,2.723C252.178,369.963,252.255,369.618,252.054,369.556Z" transform="translate(-220.807 -328.555)" fill="#e1e5e9"/>
        <path id="Path_83190" data-name="Path 83190" d="M251.717,372.093c-.165-.146-.361.141-.2.282a3.185,3.185,0,0,0,.722.407c.113.052.263-.094.191-.209C252.274,372.317,251.929,372.281,251.717,372.093Z" transform="translate(-222.858 -331.03)" fill="#e1e5e9"/>
        <path id="Path_83191" data-name="Path 83191" d="M255.514,374.181a20.771,20.771,0,0,0,4.764,1.753c.191.042.268-.292.077-.344a36.341,36.341,0,0,1-4.734-1.7C255.436,373.816,255.339,374.1,255.514,374.181Z" transform="translate(-224.777 -331.902)" fill="#e1e5e9"/>
        <path id="Path_83192" data-name="Path 83192" d="M269.342,306.5c-.139.167.108.365.268.245a1.778,1.778,0,0,1,1.248-.386,1.464,1.464,0,0,1,1.165.845c.1.167.392.11.346-.11C272.105,305.758,270.125,305.565,269.342,306.5Z" transform="translate(-231.5 -299.392)" fill="#e1e5e9"/>
        <path id="Path_83193" data-name="Path 83193" d="M275.654,308.554c-.129.146.1.334.242.224a1.514,1.514,0,0,1,1-.344,5.817,5.817,0,0,1,.9.235.173.173,0,0,0,.144-.282A1.6,1.6,0,0,0,275.654,308.554Z" transform="translate(-234.559 -300.378)" fill="#e1e5e9"/>
        <path id="Path_83194" data-name="Path 83194" d="M299.367,324.76a3.459,3.459,0,0,1,.093,1.575.171.171,0,0,0,.072.136.13.13,0,0,1,.108-.021.5.5,0,0,1,.082.026c.01-.01.026-.01.036-.026.722-1.2-.258-2.572-1.32-3.093-.16-.078-.3.193-.144.282A2.442,2.442,0,0,1,299.367,324.76Z" transform="translate(-245.51 -307.727)" fill="#e1e5e9"/>
        <path id="Path_83195" data-name="Path 83195" d="M300.693,329.327a.184.184,0,0,0,.036.313,1.556,1.556,0,0,1,.964.928,7.869,7.869,0,0,1,.16,1.241.173.173,0,0,0,.33.031,2.086,2.086,0,0,0-.144-1.617,1.6,1.6,0,0,0-1.15-.892c-.031-.005-.052-.021-.083-.026A.138.138,0,0,0,300.693,329.327Z" transform="translate(-246.671 -310.578)" fill="#e1e5e9"/>
        <path id="Path_83196" data-name="Path 83196" d="M303.335,339.041a1.427,1.427,0,0,0,.4-1.142.944.944,0,0,0-.737-.788.178.178,0,0,0-.124.334.593.593,0,0,1,.443.652c-.036.287-.222.516-.263.8A.171.171,0,0,0,303.335,339.041Z" transform="translate(-247.709 -314.31)" fill="#e1e5e9"/>
        <path id="Path_83197" data-name="Path 83197" d="M255.71,324.615a.171.171,0,0,0,.278.2,2.725,2.725,0,0,1,.944-.876,1.84,1.84,0,0,1,1.268.094.322.322,0,0,1,.052-.125c.041-.042.083-.089.129-.13-.01-.016-.01-.031-.031-.042C257.334,323,256.3,323.718,255.71,324.615Z" transform="translate(-224.902 -307.77)" fill="#e1e5e9"/>
        <path id="Path_83198" data-name="Path 83198" d="M260.618,323.808a.179.179,0,0,0,.284.109,2.2,2.2,0,0,1,.722-.49,1.383,1.383,0,0,1,.856.083c.134.031.3-.13.175-.25-.608-.584-1.372-.2-1.877.3-.041.042-.088.083-.129.13A.157.157,0,0,0,260.618,323.808Z" transform="translate(-227.293 -307.547)" fill="#e1e5e9"/>
        <path id="Path_83199" data-name="Path 83199" d="M244.448,354.143a.172.172,0,0,0-.119.323,1.369,1.369,0,0,1,.737.668,2.145,2.145,0,0,1-.015,1.054.163.163,0,0,0,.294.11,1.358,1.358,0,0,0,.129-1.361A1.443,1.443,0,0,0,244.448,354.143Z" transform="translate(-219.353 -322.458)" fill="#e1e5e9"/>
        <path id="Path_83200" data-name="Path 83200" d="M246.225,358.537c-.206.01-.181.339.015.36a.869.869,0,0,1,.578.266,1.981,1.981,0,0,1,.253.563.155.155,0,0,0,.284-.01.853.853,0,0,0-.263-.866A1.046,1.046,0,0,0,246.225,358.537Z" transform="translate(-220.253 -324.562)" fill="#e1e5e9"/>
        <path id="Path_83201" data-name="Path 83201" d="M255.351,334.925a.148.148,0,0,0-.036-.083,5.428,5.428,0,0,1-.681-.657,3.2,3.2,0,0,1-.376-.887.168.168,0,0,0-.33.057,2.137,2.137,0,0,0,1.2,1.753.294.294,0,0,0,.036-.083A.18.18,0,0,1,255.351,334.925Z" transform="translate(-224.053 -312.425)" fill="#e1e5e9"/>
        <path id="Path_83202" data-name="Path 83202" d="M257.186,338.473c.139.037.289-.125.175-.25-.2-.224-.49-.344-.67-.595a1.107,1.107,0,0,1-.1-.913.149.149,0,0,0-.144-.177.167.167,0,0,0-.186.1.4.4,0,0,0-.021.083A1.368,1.368,0,0,0,257.186,338.473Z" transform="translate(-225.14 -314.039)" fill="#e1e5e9"/>
        <path id="Path_83203" data-name="Path 83203" d="M253.964,302.986a1.306,1.306,0,0,1,1.681-.522.109.109,0,0,0,.041,0,.144.144,0,0,1-.1-.229c.031-.031.062-.068.093-.1a1.489,1.489,0,0,0-2,.647C253.557,302.975,253.83,303.179,253.964,302.986Z" transform="translate(-223.919 -297.496)" fill="#e1e5e9"/>
        <path id="Path_83204" data-name="Path 83204" d="M257.717,302.88a.138.138,0,0,1-.057.026A.114.114,0,0,0,257.717,302.88Z" transform="translate(-225.861 -297.938)" fill="#e1e5e9"/>
        <path id="Path_83205" data-name="Path 83205" d="M257.462,302.027h.036a.082.082,0,0,0,.057-.026,6.228,6.228,0,0,0,.712-.72c.108-.141-.093-.313-.222-.2a5.126,5.126,0,0,0-.593.616c-.031.036-.062.068-.093.1C257.277,301.887,257.364,302.012,257.462,302.027Z" transform="translate(-225.7 -297.059)" fill="#e1e5e9"/>
        <path id="Path_83206" data-name="Path 83206" d="M269.474,296.546a.058.058,0,0,0-.036-.042,1.622,1.622,0,0,0-1.645-.115.153.153,0,0,0,.129.276,1.578,1.578,0,0,1,1.356.146.162.162,0,0,0,.2-.068A.152.152,0,0,1,269.474,296.546Z" transform="translate(-230.729 -294.749)" fill="#e1e5e9"/>
        <path id="Path_83207" data-name="Path 83207" d="M271.1,296.37a.141.141,0,0,0,0,.2.18.18,0,0,0,.242.031,1.573,1.573,0,0,1,1.454-.282c.15.047.284-.167.134-.256A1.428,1.428,0,0,0,271.1,296.37Z" transform="translate(-232.352 -294.578)" fill="#e1e5e9"/>
        <path id="Path_83208" data-name="Path 83208" d="M309.151,325.663a1.083,1.083,0,0,0-.015-1.554c-.129-.13-.345.047-.222.188.407.454.17.892-.124,1.325a.139.139,0,0,1,.165-.063C309.027,325.595,309.089,325.626,309.151,325.663Z" transform="translate(-250.627 -308.072)" fill="#e1e5e9"/>
        <path id="Path_83209" data-name="Path 83209" d="M309.123,327.029a1.724,1.724,0,0,0-.2-.1.125.125,0,0,0-.165.063.14.14,0,0,0,.031.2,1.587,1.587,0,0,1,.562.595,6.771,6.771,0,0,1,.206.7.153.153,0,0,0,.278-.01,1.227,1.227,0,0,0-.186-.913A1.39,1.39,0,0,0,309.123,327.029Z" transform="translate(-250.599 -309.438)" fill="#e1e5e9"/>
        <path id="Path_83210" data-name="Path 83210" d="M348.382,371.455c-.062-.407-.144-.814-.237-1.226a11.915,11.915,0,0,0-.892-2.613.139.139,0,0,0-.186-.068.14.14,0,0,0-.083.2c.083.172.15.344.217.516a27.513,27.513,0,0,1,.825,3.041c.016.068.036.136.052.2A.154.154,0,0,0,348.382,371.455Z" transform="translate(-269.119 -328.869)" fill="#e1e5e9"/>
        <path id="Path_83211" data-name="Path 83211" d="M306.588,372.059c.052.094.1.183.144.276a.51.51,0,0,0,.928-.042c.026-.052.046-.089.072-.141a.98.98,0,0,0,.046-.11.7.7,0,0,0-.248-.85.653.653,0,0,0-.278-.094.705.705,0,0,0-.722.579A.586.586,0,0,0,306.588,372.059Z" transform="translate(-249.528 -330.573)" fill="#e1e5e9"/>
      </g>
      <g id="Group_117513" data-name="Group 117513" transform="translate(95.169 404.635) rotate(-18)" opacity="0.398">
        <g id="Group_114659" data-name="Group 114659" transform="translate(-0.115 34.165)">
          <path id="Path_84784" data-name="Path 84784" d="M1.995.678,1.589.268C1.18.681.907,1.23.5,1.643c4.608,2.726,8.67,6.276,13.961,7.9A.849.849,0,0,0,14.871,7.9C9.852,6.408,5.79,2.721,1.318.132.5-.413-.45.824.227,1.507l.406.41C1.581,2.6,2.807,1.361,1.995.678Z" transform="translate(0 0)" fill="#fff"/>
        </g>
        <g id="Group_114660" data-name="Group 114660" transform="translate(4.078 27.159)">
          <path id="Path_84785" data-name="Path 84785" d="M3.256.811C2.958,8.763.216,16.448-.082,24.4c0,1.1,1.626,1.091,1.765-.006.3-7.951,3.04-15.637,3.339-23.588A.885.885,0,0,0,3.256.811Z" transform="translate(0 0)" fill="#fff"/>
        </g>
        <g id="Group_114661" data-name="Group 114661" transform="translate(18.781 22.021)">
          <path id="Path_84786" data-name="Path 84786" d="M.113,1.25c2.16,3.694,3.64,7.8,5.936,11.494a.856.856,0,0,0,1.5-.827C5.386,8.222,3.906,4.115,1.609.422a.856.856,0,0,0-1.5.828Z" transform="translate(0 0)" fill="#fff"/>
        </g>
        <g id="Group_114662" data-name="Group 114662" transform="translate(16.56 25.983)">
          <path id="Path_84787" data-name="Path 84787" d="M1.214,7.3C4.208,5.369,7.608,3.85,10.467,1.647c.817-.688.007-2.193-.81-1.505C6.662,2.482,3.4,3.864.4,5.793c-.953.689-.143,2.194.81,1.505Z" transform="translate(0 0)" fill="#fff"/>
        </g>
        <g id="Group_114663" data-name="Group 114663" transform="translate(26.671 15.314)">
          <path id="Path_84788" data-name="Path 84788" d="M.391,1.761C3.643,4.08,6.075,7.773,10.422,7.347c1.087-.141,1.092-1.786.006-1.782C6.489,5.853,4.192,2.159,1.212.114.4-.432-.557,1.079.391,1.761Z" transform="translate(0 0)" fill="#fff"/>
        </g>
        <g id="Group_114664" data-name="Group 114664" transform="translate(34.522 10.755)">
          <path id="Path_84789" data-name="Path 84789" d="M.027,1.086c1.6,7.808,4.967,16.98,1.41,24.805-.411.961.944,1.916,1.491.817,3.831-8.374.6-17.821-1.27-26.176C1.39-.426-.241-.01.027,1.086Z" transform="translate(0 0)" fill="#fff"/>
        </g>
        <g id="Group_114665" data-name="Group 114665" transform="translate(38.664 -0.131)">
          <path id="Path_84790" data-name="Path 84790" d="M1.623,2.084l0-.96c-.137.275-.409.55-.546.824C5.294.564,4.866,6.733,4.179,9.2A.87.87,0,0,0,4.99,10.3c2.174-.282,3.674-2.069,4.9-3.718.682-.962-.809-1.779-1.491-.817-.819,1.1-2.046,2.611-3.4,2.89.27.41.541.684.811,1.094C6.906,5.9,6.524-1.634.678.305A.874.874,0,0,0,0,1.13l0,.96a.815.815,0,1,0,1.63-.006Z" fill="#fff"/>
        </g>
      </g>
      <g id="Group_117515" data-name="Group 117515" transform="translate(1212.481 395.967) rotate(-150)" opacity="0.398">
        <g id="Group_115528" data-name="Group 115528" transform="translate(10.706 46.374)">
          <path id="Path_85596" data-name="Path 85596" d="M.73,4.225a.1.1,0,0,0,.1-.1.657.657,0,0,1-.813-.615C0,.962,3.647.268,5.469.073,7.8-.119,11.039.3,12.165,2.755,13.907,6.735,2.352,4.641.932,4.226a.629.629,0,0,1,.3-1.221,27.782,27.782,0,0,0,5.067.84c1.418.109,3.344.424,4.656-.384.4-.2-1.02-1.431-1.223-1.534A6.361,6.361,0,0,0,6.386,1.3a11.178,11.178,0,0,0-3.137.494A3.917,3.917,0,0,0,1.836,2.6c-.1.1-.5,1.322-.5.812C1.029,3.208.825,3,.52,2.8a1.034,1.034,0,0,1,.912.208c.61.512.008,1.629-.7,1.219Z" transform="translate(0 0)" fill="#fff"/>
        </g>
        <g id="Group_115529" data-name="Group 115529" transform="translate(0.03 5.963)">
          <path id="Path_85597" data-name="Path 85597" d="M11.093,42.8c2.489-8.543,2.656-15.773-.929-23.939C7.4,12.432,2.31,7.416.049.785-.259-.031,1.056-.33,1.263.486,2.7,4.77,5.25,8.042,7.7,11.721a44.1,44.1,0,0,1,5.115,10.516c2.567,7.04,1.488,14.062-.5,21.08-.2.61-1.416.3-1.218-.515Z" transform="translate(0 0)" fill="#fff"/>
        </g>
        <g id="Group_115530" data-name="Group 115530" transform="translate(21.458 10.626)">
          <path id="Path_85598" data-name="Path 85598" d="M.3,39.007C-.892,22.807,6.643,10.929,17.932.291a.65.65,0,0,1,.916.921C7.862,11.546.426,23.119,1.619,39.013c0,.815-1.211.809-1.316-.007Z" transform="translate(0 0)" fill="#fff"/>
        </g>
        <g id="Group_115531" data-name="Group 115531" transform="translate(0.16 0.001)">
          <path id="Path_85599" data-name="Path 85599" d="M.118,6.239C3.623-1.687,17,.009,23.685.755c5.471.638,18.24,2.535,16.661,10.777a.628.628,0,1,1-1.217-.312c1.678-8.751-16.248-9.349-20.706-9.677C12.954,1.211,3.94.962,1.235,6.856c-.4.813-1.519.094-1.117-.617Z" transform="translate(0 0)" fill="#fff"/>
        </g>
        <g id="Group_115532" data-name="Group 115532" transform="translate(4.951 14.724)">
          <path id="Path_85600" data-name="Path 85600" d="M1.144.3c2.45,3.882,9.338,4.324,13.389,4.548,4.457.328,10.33.154,14.062-2.68.605-.506,1.521.415.916.921C25.173,6.433,18.591,6.4,13.425,6.069,9.07,5.843,2.686,5,.134.91-.375.3.735-.411,1.144.3Z" transform="translate(0 0)" fill="#fff"/>
        </g>
        <g id="Group_115533" data-name="Group 115533" transform="translate(8.405 11.271)">
          <path id="Path_85601" data-name="Path 85601" d="M.608,0a2.8,2.8,0,0,1,.912.106c.71.309.413,1.53-.3,1.221a1.284,1.284,0,0,0-.608-.1A.611.611,0,0,1,.608,0Z" transform="translate(0 0)" fill="#fff"/>
        </g>
        <g id="Group_115534" data-name="Group 115534" transform="translate(13.023 12.924)">
          <path id="Path_85602" data-name="Path 85602" d="M.054,1.121A1.881,1.881,0,0,1,1.972.01c.81,0,.816,1.226.007,1.324-.1,0-.608,0-.708.2-.3.711-1.517.4-1.217-.413Z" transform="translate(0 0)" fill="#fff"/>
        </g>
        <g id="Group_115535" data-name="Group 115535" transform="translate(13.377 8.342)">
          <path id="Path_85603" data-name="Path 85603" d="M.684,0l.81,0c.81,0,.817,1.328.007,1.324l-.81,0C-.222,1.221-.228,0,.684,0Z" transform="translate(0 0)" fill="#fff"/>
        </g>
        <g id="Group_115536" data-name="Group 115536" transform="translate(7.466 5.312)">
          <path id="Path_85604" data-name="Path 85604" d="M.2.558a1.755,1.755,0,0,0,.5-.4c.605-.506,1.521.415.916.921a1.755,1.755,0,0,0-.5.4C.514,1.985-.4,1.064.2.558Z" transform="translate(0 0)" fill="#fff"/>
        </g>
        <g id="Group_115537" data-name="Group 115537" transform="translate(20.945 5.936)">
          <path id="Path_85605" data-name="Path 85605" d="M.295.205a1.648,1.648,0,0,1,1.012-.2c.81,0,.817,1.328.007,1.324l-.3,0C.3,1.733-.412.609.295.205Z" transform="translate(0 0)" fill="#fff"/>
        </g>
        <g id="Group_115538" data-name="Group 115538" transform="translate(28.047 10.656)">
          <path id="Path_85606" data-name="Path 85606" d="M.608,0l.3,0c.81,0,.817,1.328.007,1.324l-.3,0C-.2,1.323-.2,0,.608,0Z" transform="translate(0 0)" fill="#fff"/>
        </g>
        <g id="Group_115539" data-name="Group 115539" transform="translate(21.767 15.034)">
          <path id="Path_85607" data-name="Path 85607" d="M.027.887c0-.1.1-.305.1-.407A.628.628,0,1,1,1.343.792c0,.1-.1.2-.1.407A.628.628,0,1,1,.027.887Z" transform="translate(0 0)" fill="#fff"/>
        </g>
        <g id="Group_115540" data-name="Group 115540" transform="translate(23.298 10.016)">
          <path id="Path_85608" data-name="Path 85608" d="M.091.719A1.442,1.442,0,0,1,1.2.012c.81-.1.816,1.226.007,1.324.1-.1.1-.1,0,.1C.807,2.148-.311,1.43.091.719Z" transform="translate(0 0)" fill="#fff"/>
        </g>
        <g id="Group_115541" data-name="Group 115541" transform="translate(32.389 5.789)">
          <path id="Path_85609" data-name="Path 85609" d="M.6,0A.985.985,0,0,1,1.51.619a.687.687,0,0,1-.4.813C.7,1.531.5,1.327.3,1.02v-.1L.7,1.328h0C-.208,1.323-.215,0,.6,0Z" transform="translate(0 0)" fill="#fff"/>
        </g>
        <g id="Group_115542" data-name="Group 115542" transform="translate(32.015 14.549)">
          <path id="Path_85610" data-name="Path 85610" d="M.608.1c-.1,0-.1,0-.2.1a.65.65,0,0,1,.916.921.908.908,0,0,1-.707.3C-.2,1.423-.2.1.608.1Z" transform="translate(0 0)" fill="#fff"/>
        </g>
      </g>
      <g id="Group_117516" data-name="Group 117516" transform="translate(1339.901 451.488) rotate(-49)" opacity="0.45">
        <g id="Group_115365" data-name="Group 115365" transform="translate(-0.007 1.209)">
          <path id="Path_85446" data-name="Path 85446" d="M19.685.512C19.128,8.76,17.35,16.607,13.23,23.959,10.141,29.473,5.715,36.826.09,40.013c-.716.411-.111,1.527.605,1.116C6.627,37.737,10.85,30.283,14.246,24.564c4.323-7.251,6-15.811,6.662-24.161C21.015-.31,19.69-.3,19.685.512Z" fill="#fff"/>
        </g>
        <g id="Group_115366" data-name="Group 115366" transform="translate(19.922 -0.114)">
          <path id="Path_85447" data-name="Path 85447" d="M.773,2.236C7.2.876,14.138.531,20.031,3.958c3.861,2.217,4.957,6.791,8,9.624a.652.652,0,0,0,.923-.921C24.9,8.816,23.6,3.938,18.006,1.527,12.514-.884,6.088-.135.473,1.118c-.816,0-.517,1.224.3,1.118Z" fill="#fff"/>
        </g>
        <g id="Group_115367" data-name="Group 115367" transform="translate(48.275 10.755)">
          <path id="Path_85448" data-name="Path 85448" d="M1.1,3.112c3.893-3.381,13.059-1.7,16.922.209,5.287,2.515,11.479,7.161,14,12.643.4.71,1.427.094,1.125-.617C30.324,9.358,23.118,3.8,17.116,1.494,12.742-.211,4.082-1.179.189,2.3c-.615.512.3,1.423.913.809Z" fill="#fff"/>
        </g>
        <g id="Group_115368" data-name="Group 115368" transform="translate(60.409 26.38)">
          <path id="Path_85449" data-name="Path 85449" d="M20.6-.072c-4.6,1.553-6.677,8.893-8.432,12.771-2.064,4.388-4.23,8.777-6.294,13.166-1.96,4.082-3.413,8.467-5.982,12.146-.411.511.4,1.219.912.911s.513-.512.618-1.123c.107-.815-1.219-.807-1.325.008H.2l.912.911C5.019,33.1,7.2,26.264,10.292,20.14c1.65-3.266,3.1-6.634,4.747-10,1.341-2.756,2.9-7.752,6.167-8.89.512-.308.111-1.629-.6-1.32Z" fill="#fff"/>
        </g>
        <g id="Group_115369" data-name="Group 115369" transform="translate(28.868 12.954)">
          <path id="Path_85450" data-name="Path 85450" d="M19.493.207C14.461,6.749,11.564,14.094,8.259,21.543,5.677,27.461,1.463,33.49-.2,39.709a.629.629,0,1,0,1.222.3C2.684,33.89,6.8,27.964,9.377,22.147c3.3-7.449,6.2-14.794,11.132-21.336.616-.716-.5-1.32-1.016-.6Z" fill="#fff"/>
        </g>
        <g id="Group_115370" data-name="Group 115370" transform="translate(-0.155 39.79)">
          <path id="Path_85451" data-name="Path 85451" d="M29.43,13.073c-4.06-3.132-7.5-6.878-11.667-10.01C12.688-.776,6.266-.739.442,1.432c-.817.31-.417,1.529.3,1.22C8.2-.139,13.8,1.457,19.581,6.106c3.045,2.425,5.78,5.362,8.927,7.786.608.607,1.531-.314.922-.819Z" fill="#fff"/>
        </g>
        <g id="Group_115371" data-name="Group 115371" transform="translate(28.111 50.615)">
          <path id="Path_85452" data-name="Path 85452" d="M.445,3.27c1.63.3,2.961-.831,4.493-1.349a21.1,21.1,0,0,1,14.571,1.24C22.763,4.67,25.3,7.4,27.626,9.935c1.419,1.519,2.732,3.649,4.56,4.758.711.4,1.431-.721.618-1.123-2.236-1.209-4.661-4.961-6.486-6.782A22.711,22.711,0,0,0,18.6,1.437,21.908,21.908,0,0,0,10.047-.041,22.034,22.034,0,0,0,4.333.7C3.721.809,1.165,2.147.554,2.048.045,1.95-.37,3.173.445,3.27Z" fill="#fff"/>
        </g>
        <g id="Group_115372" data-name="Group 115372" transform="translate(60.318 26.414)">
          <path id="Path_85453" data-name="Path 85453" d="M20.284.2C13.89,13.063,9.934,27.437-.016,38.181a.645.645,0,1,0,.912.911C10.847,28.246,14.9,13.871,21.4.806c.31-.714-.808-1.318-1.118-.6Z" fill="#fff"/>
        </g>
        <g id="Group_115373" data-name="Group 115373" transform="translate(24.451 6.41)">
          <path id="Path_85454" data-name="Path 85454" d="M.8,1.386c4.082-.736,11,1.159,12.815,5.321.3.711,1.427.094,1.125-.617C12.625,1.421,5.2-.674.4.167-.316.375-.017,1.594.8,1.386Z" fill="#fff"/>
        </g>
        <g id="Group_115374" data-name="Group 115374" transform="translate(21.671 11.076)">
          <path id="Path_85455" data-name="Path 85455" d="M.8,1.622c2.146-.928,5.607-.032,7.54.67,2.849.9,4.67,3.434,6.594,5.662.506.608,1.429-.313.923-.921C13.729,4.5,11.8,2.271,8.651,1.068,6.515.266,2.646-.526.4.4-.318.712-.019,1.932.8,1.622Z" fill="#fff"/>
        </g>
        <g id="Group_115375" data-name="Group 115375" transform="translate(19.543 15.28)">
          <path id="Path_85456" data-name="Path 85456" d="M.966,1.6C5.974-.666,11.554,4.188,14.8,7.325a.652.652,0,0,0,.923-.921c-.811-.708-1.415-2.129-2.534-2.53-.916-.3-1.218-.909-2.031-1.413A21.126,21.126,0,0,0,8.106.951C5.869-.055,2.609-.443.36.588-.457.9.25,2.013.966,1.6Z" fill="#fff"/>
        </g>
        <g id="Group_115376" data-name="Group 115376" transform="translate(18.567 19.845)">
          <path id="Path_85457" data-name="Path 85457" d="M.592,1.32a19.979,19.979,0,0,1,14.03,6.739c.506.608,1.429-.313.923-.921A20.82,20.82,0,0,0,.7,0,.664.664,0,0,0,.592,1.32Z" fill="#fff"/>
        </g>
        <g id="Group_115377" data-name="Group 115377" transform="translate(14.839 26.873)">
          <path id="Path_85458" data-name="Path 85458" d="M1.223,1.027c0,.305,5.4,1.089,6.11,1.187,2.545.6,6.715,2.4,7.616,5.249.2.813,1.527.4,1.225-.312C14.574,1.867,5.311-.625.413.115.209.116,0,.423,0,.525v.1c-.107.917,1.114,1.215,1.221.4Z" fill="#fff"/>
        </g>
        <g id="Group_115378" data-name="Group 115378" transform="translate(13.622 32.002)">
          <path id="Path_85459" data-name="Path 85459" d="M.777,1.506a14,14,0,0,1,9.879,1.776c1.829,1.007,3.14,3.544,4.457,5.064.506.608,1.429-.313.923-.921C14.11,5.3,12.9,3.065,10.359,1.655A14.388,14.388,0,0,0,.478.286c-.816.106-.518,1.428.3,1.22Z" fill="#fff"/>
        </g>
        <g id="Group_115379" data-name="Group 115379" transform="translate(50.781 15.725)">
          <path id="Path_85460" data-name="Path 85460" d="M.919,1.9C4.295-.16,10.188,3.267,13.34,4.776c3.661,1.608,6.4,4.137,9.136,6.869a.652.652,0,0,0,.923-.921c-3.244-3.239-6.489-6.172-10.966-7.775C8.872,1.646,4.1-1.482.314.779-.4,1.19.2,2.306.919,1.9Z" fill="#fff"/>
        </g>
        <g id="Group_115380" data-name="Group 115380" transform="translate(50.891 20.984)">
          <path id="Path_85461" data-name="Path 85461" d="M.681,1.319C6.7,1.285,14.123,3.787,17.97,8.549c.506.608,1.429-.313.923-.921C14.742,2.461,7.213-.041.688,0-.23.1-.237,1.325.681,1.319Z" fill="#fff"/>
        </g>
        <g id="Group_115381" data-name="Group 115381" transform="translate(48.457 25.634)">
          <path id="Path_85462" data-name="Path 85462" d="M.844,1.465C3.907.634,6.65,2.348,9.4,3.351c3.256,1.1,4.775,2.823,7.312,4.946.609.505,1.532-.416.923-.921-2.739-2.325-4.36-4.148-7.922-5.248C6.555,1.128,3.915-.689.443.246a.642.642,0,1,0,.4,1.219Z" fill="#fff"/>
        </g>
        <g id="Group_115382" data-name="Group 115382" transform="translate(46.348 30.959)">
          <path id="Path_85463" data-name="Path 85463" d="M.679,1.548c1.529-.009,2.958-.322,4.59-.433a14.572,14.572,0,0,1,5.4,1.394c4.069,1.605,5.786,4.344,7.6,8.1.4.71,1.529.093,1.125-.617-1.814-3.756-3.43-6.393-7.293-8.2A20.21,20.21,0,0,0,6.6.089C4.564-.306,2.725.417.686.326A.615.615,0,1,0,.679,1.548Z" fill="#fff"/>
        </g>
        <g id="Group_115383" data-name="Group 115383" transform="translate(44.067 37.709)">
          <path id="Path_85464" data-name="Path 85464" d="M.681,1.223c2.345-.013,5.5.885,7.843,1.278,2.241.394,6.915,3.116,8.331,5.042.506.71,1.631-.009,1.125-.617C16.462,4.8,13.311,3.187,10.973,2.081a10.573,10.573,0,0,0-4.378-.993C4.557.9,2.625-.009.688,0A.615.615,0,1,0,.681,1.223Z" fill="#fff"/>
        </g>
        <g id="Group_115384" data-name="Group 115384" transform="translate(41.981 41.539)">
          <path id="Path_85465" data-name="Path 85465" d="M.6,1.477A22.583,22.583,0,0,1,12.109,3.956C14.55,4.96,15.96,7.9,18.3,9.214a.642.642,0,0,0,.618-1.123c-2.54-1.512-4.354-5.166-7.307-5.862A42.841,42.841,0,0,1,6.522.426,14.406,14.406,0,0,0,.611.154C-.205.261-.213,1.584.6,1.477Z" fill="#fff"/>
        </g>
        <g id="Group_115385" data-name="Group 115385" transform="translate(39.027 45.575)">
          <path id="Path_85466" data-name="Path 85466" d="M.681,1.223A23.054,23.054,0,0,1,11.37,3.91a22.32,22.32,0,0,1,4.673,2.925c.711.5.809,1.115,1.724,1.517.712.3,1.432-.822.618-1.123-1.119-.5-2.232-1.921-3.247-2.628A23.429,23.429,0,0,0,9.853,1.883,23.763,23.763,0,0,0,.688,0,.615.615,0,1,0,.681,1.223Z" fill="#fff"/>
        </g>
        <g id="Group_115386" data-name="Group 115386" transform="translate(28.121 52.064)">
          <path id="Path_85467" data-name="Path 85467" d="M.842,1.818C12.377-.894,23.653,6.167,32.073,13.447c.609.505,1.532-.416.923-.921C24.068,4.841,12.691-2.219.441.6c-.817.208-.416,1.427.4,1.219Z" fill="#fff"/>
        </g>
      </g>
    </g>
    <g id="Group_117517" data-name="Group 117517" transform="translate(975.365 1015.799)">
      <path id="Path_83104" data-name="Path 83104" d="M526.188,231.89c-9.883-3.919-20.626-5.941-30.811-8.969-.418-.124-.651.488-.24.635,10.015,3.555,20.572,6.181,30.857,8.845A.273.273,0,0,0,526.188,231.89Zm-21.354-10.9a.261.261,0,0,0,.116-.5,36.085,36.085,0,0,0-3.826-1.007c-.387-.093-.62.488-.217.6A40.079,40.079,0,0,0,504.835,220.992Zm12.586,3.555c.31.054.418-.434.124-.534-2.866-.96-5.809-1.851-8.744-2.571-.325-.077-.511.41-.186.5C511.558,222.727,514.416,224,517.421,224.547Zm18.558.813c-11.362-4.3-23.259-7.141-34.955-10.363-.349-.093-.542.426-.194.527,11.688,3.377,23.391,6.6,34.97,10.325A.26.26,0,0,0,535.979,225.361ZM500.443,210.5a48.745,48.745,0,0,0,8.52,2.107c.263.054.364-.387.108-.465-2.8-.813-5.708-1.077-8.45-2.122A.256.256,0,0,0,500.443,210.5Z" transform="translate(-445.572 -184.072)" fill="#a3d3ab"/>
      <path id="Path_83105" data-name="Path 83105" d="M467.744,193.289a.96.96,0,0,0-.124-.031,12.464,12.464,0,0,0-1.6-3.78c.976-.736,1.975-1.456,3.013-2.114a.433.433,0,0,0,.2-.38,1.116,1.116,0,0,0,.271.333,1.383,1.383,0,0,0,.937.279c.465.48.806.4,1.309.116a.347.347,0,0,0,.085-.023c.163-.093.325-.186.48-.279a.556.556,0,0,0,.279-.449.809.809,0,0,0,.085-.062,1.343,1.343,0,0,1-.155-.248,1.844,1.844,0,0,1-.031-1.464,1.8,1.8,0,0,1,.527-.759c-.023-.031-.031-.062-.054-.093-.7-.945-2.262-1.355-3.075-.449a.44.44,0,0,0-.411.209c-.31.488-1.363,1.82-.844,2.393a.531.531,0,0,0,.1.085.163.163,0,0,0-.077.031,36.9,36.9,0,0,0-3.168,2.161,8.239,8.239,0,0,0-6.274-3.222,9.751,9.751,0,0,0-2.184.116,25.169,25.169,0,0,1-.6-5.917.6.6,0,0,0-.031-.17c.209,0,.41-.008.6-.015a.435.435,0,0,0,.356-.465,2.462,2.462,0,0,0,.256-.232,1.324,1.324,0,0,0,.418-1.2,1.722,1.722,0,0,0-1.859-1.131,1.424,1.424,0,0,0-1.1.627c-.016.016-.016.039-.031.054a.328.328,0,0,0-.132.31,1.229,1.229,0,0,0-.023.5c-.008.023-.008.046-.016.07a1.407,1.407,0,0,0,.047.759,1.01,1.01,0,0,0,.627.581.448.448,0,0,0-.062.217,19.688,19.688,0,0,0,.612,6.2,10.76,10.76,0,0,0-5.468,3.478c-1.417-.542-3.431-.147-4.825-.039a45.913,45.913,0,0,0-9.6,1.7c-2.06.627-6.9,2.417-4.2,4.934,9.132,15.1,32.135,23.7,48.068,14.189a.614.614,0,0,0,.147-.132.494.494,0,0,0,.519-.1C488.145,203.536,472.352,195.28,467.744,193.289Zm3.137-9a1.314,1.314,0,0,0-.24.225c-.031-.039-.062-.077-.093-.124A.978.978,0,0,1,470.881,184.289ZM469.1,186.6c0,.015.008.023.008.039a.17.17,0,0,0-.039-.023A.04.04,0,0,1,469.1,186.6Zm-12.137-8.915a.642.642,0,0,1,.108.108c.023.023.023.07.031.054,0,.093.031-.008-.008.108.008-.023,0-.008-.016.015-.046-.1-.093-.209-.147-.31A.106.106,0,0,1,456.962,177.682Zm-1.247.643c.008-.132.023-.263.031-.4.016-.008.023.008.031.016a.409.409,0,0,0,.232.07c.047.054.093.108.132.163.023.031.031.07.054.108A.377.377,0,0,0,455.715,178.325Zm1,8.528a.509.509,0,0,0,.232-.054,9.507,9.507,0,0,1,1.905-.147,7.231,7.231,0,0,1,5.763,2.788,38.353,38.353,0,0,0-3.524,3.176.3.3,0,0,0,.387.457c1.224-.968,2.424-1.96,3.648-2.92a14.84,14.84,0,0,1,1.851,8.458.554.554,0,0,0-.294.132c-5.639,5.081-13.872,2.006-17.9-3.578C449.961,191.206,452.679,187.7,456.715,186.853Zm23.329,22.159a.5.5,0,0,0-.178.325c-.039.008-.07.008-.108.015-9.062,3.114-17.489,4.508-26.83,1.417-8.605-2.843-15.181-8.512-20.572-15.63a.29.29,0,0,0-.178-.108c-.9-2.417,7.761-3.911,9.17-4.136,2.8-.449,5.739-.209,8.52-.519a10.623,10.623,0,0,0-1.619,4.113.4.4,0,0,0-.449.527c2.966,7.374,13.918,9.775,19.634,4.585a.559.559,0,0,0,.132-.178.5.5,0,0,0,.542-.488,19.952,19.952,0,0,0-.279-4.748C471.756,197.107,486.426,203.567,480.044,209.012ZM454.19,206.7a66,66,0,0,1-21-12.121c-.248-.209-.511.194-.287.4,5.886,5.337,13.183,10.735,21.16,12.261C454.383,207.308,454.484,206.812,454.19,206.7Zm26.078,1.231c-7.118.682-13.942,1.371-20.982-.372-.349-.085-.55.418-.2.534a39.236,39.236,0,0,0,21.276.364A.268.268,0,0,0,480.268,207.935ZM450.5,195.272a3.5,3.5,0,0,0,3.95,2.114c2.409-.387,3.005-3.509,1.541-5.2a3.083,3.083,0,0,0-1.634-.968,2.827,2.827,0,0,0-2.4.341.311.311,0,0,0-.046.4A2.538,2.538,0,0,0,450.5,195.272Zm2.223-2.9a.21.21,0,0,0,.186-.256,3.538,3.538,0,0,1,1.278-.046,2.224,2.224,0,0,1,1.216.775,2.625,2.625,0,0,1,.3,2.664,2.581,2.581,0,0,1-4.585-.984A1.792,1.792,0,0,1,452.726,192.367Z" transform="translate(-431.206 -176.522)" fill="#a3d3ab"/>
    </g>
  </g>
</svg>
