<svg xmlns="http://www.w3.org/2000/svg" xmlns:xlink="http://www.w3.org/1999/xlink" width="299.047" height="244" viewBox="0 0 299.047 244">
  <g id="Mask_Group_611" data-name="Mask Group 611" transform="translate(-1057.953 -1830.512)">
    <g id="_4323021" data-name="4323021" transform="translate(1055.102 1817.072) rotate(5)">
      <g id="Profile_data" transform="translate(85.896 67.966) rotate(-3)">
        <g id="Group_50769" data-name="Group 50769" transform="translate(0 0)">
          <g id="Group_50768" data-name="Group 50768" transform="translate(0 0)">
            <g id="Group_50767" data-name="Group 50767">
              <g id="Group_50766" data-name="Group 50766">
                <g id="Group_50722" data-name="Group 50722">
                  <g id="Group_50721" data-name="Group 50721">
                    <path id="Path_50027" data-name="Path 50027" d="M206.015,243.582,7.266,248.828H7.191v-.07l-.168-5.765L.168,10.048.007,4.373,0,4.213l.162-.006L159.659,0l.23.1,12.822,5.4,26.544,11.176,6.585,221.077h.007Z" transform="translate(0.178 0.11)" fill="#fcfeff"/>
                    <path id="Path_50028" data-name="Path 50028" d="M206.193,243.7,7.367,249.013H7.293v-.07L.007,4.322,0,4.162l.162-.006L159.83,0h.027l.02.006,39.59,16.684.054.019v.051l6.5,221.088h.007Zm0,0-.168-5.836h-.007L199.345,16.774l.054.077L159.8.2l.047.006L.183,4.475l.163-.166,7.1,244.634-.074-.07Z" fill="#263238"/>
                  </g>
                  <path id="Path_50029" data-name="Path 50029" d="M0,4.213l.007.16.156-.166ZM7.191,248.758v.07h.074ZM7.1,242.993.331,10.042.169,4.366l-.162.006.162,5.676L7.023,242.993l.168,5.765h.074ZM159.659,0,.162,4.207l.007.16L159.889.1Zm46.188,237.747h0l.169,5.835ZM7.266,248.758v.07l198.749-5.246Z" transform="translate(0.178 0.11)" fill="#263238"/>
                </g>
                <path id="Path_50030" data-name="Path 50030" d="M198.936,6.252.243,11.873H.168V11.8L0,5.62H.074L177.278.6,191.667.2,198.76,0h.007Z" transform="translate(7.289 237.066)" fill="#1581af"/>
                <path id="Path_50031" data-name="Path 50031" d="M161.891.1l12.982,5.786L21.935,10.163l-14.573.405L.335,10.76l-.165.007L.007,4.686,0,4.515l.165-.007L161.658,0Z" transform="translate(0.146 0.106)" fill="#1581af"/>
                <g id="Group_50765" data-name="Group 50765" transform="translate(15.466 22.638)">
                  <rect id="Rectangle_17517" data-name="Rectangle 17517" width="76.374" height="95.845" transform="translate(0 3.612) rotate(-1.593)" fill="#dbdbdb"/>
                  <rect id="Rectangle_17518" data-name="Rectangle 17518" width="33.691" height="2.277" transform="translate(83.923 0.937) rotate(-1.593)" fill="#455a64"/>
                  <rect id="Rectangle_17519" data-name="Rectangle 17519" width="33.691" height="2.427" transform="translate(2.52 99.329) rotate(-1.593)" fill="#455a64"/>
                  <rect id="Rectangle_17520" data-name="Rectangle 17520" width="33.691" height="2.277" transform="translate(5.104 181.737) rotate(-1.593)" fill="#455a64"/>
                  <rect id="Rectangle_17521" data-name="Rectangle 17521" width="33.691" height="2.277" transform="translate(4.084 151.365) rotate(-1.593)" fill="#455a64"/>
                  <g id="Group_50723" data-name="Group 50723" transform="translate(83.752 6.816)">
                    <path id="Path_50032" data-name="Path 50032" d="M0,1.749C5.209,1.5,10.425,1.3,15.641,1.116l15.641-.5L46.929.242C52.145.138,57.361.042,62.577,0,57.368.247,52.152.447,46.936.633l-15.641.5-15.648.379C10.432,1.6,5.216,1.707,0,1.749Z" transform="translate(0 0)" fill="#a6a6a6"/>
                    <path id="Path_50033" data-name="Path 50033" d="M0,1.749C5.209,1.5,10.425,1.3,15.634,1.116l15.641-.5L46.923.242C52.138.138,57.354.042,62.57,0,57.361.247,52.145.447,46.936.633l-15.641.5-15.648.379C10.432,1.61,5.216,1.707,0,1.749Z" transform="translate(0.089 3.112)" fill="#a6a6a6"/>
                    <path id="Path_50034" data-name="Path 50034" d="M0,1.749C5.209,1.5,10.425,1.3,15.634,1.116l15.641-.5L46.923.242C52.138.138,57.354.042,62.57,0,57.361.247,52.145.447,46.929.633l-15.641.5-15.648.379C10.432,1.61,5.216,1.707,0,1.749Z" transform="translate(0.177 6.223)" fill="#a6a6a6"/>
                    <path id="Path_50035" data-name="Path 50035" d="M0,1.749C5.209,1.5,10.425,1.3,15.641,1.116l15.641-.5L46.929.242C52.145.138,57.361.042,62.577,0,57.368.247,52.152.447,46.936.633l-15.641.5-15.648.379C10.432,1.61,5.216,1.707,0,1.749Z" transform="translate(0.259 9.335)" fill="#a6a6a6"/>
                    <path id="Path_50036" data-name="Path 50036" d="M0,.885C2.6.706,5.209.589,7.814.473S13.03.287,15.634.2c2.6-.055,5.216-.131,7.82-.159S28.67-.017,31.282.017c-2.6.179-5.209.3-7.813.412S18.252.615,15.648.7c-2.6.055-5.216.131-7.82.159S2.611.912,0,.885Z" transform="translate(0.348 13.311)" fill="#a6a6a6"/>
                    <path id="Path_50037" data-name="Path 50037" d="M0,1.749C5.209,1.5,10.425,1.3,15.634,1.116l15.641-.5L46.923.242C52.138.138,57.354.042,62.57,0,57.361.247,52.145.447,46.929.633l-15.641.5-15.648.379C10.432,1.61,5.216,1.707,0,1.749Z" transform="translate(0.519 18.67)" fill="#a6a6a6"/>
                    <path id="Path_50038" data-name="Path 50038" d="M0,1.749C5.209,1.5,10.425,1.3,15.634,1.116l15.641-.5L46.923.242C52.138.138,57.354.042,62.57,0,57.361.247,52.145.447,46.936.633l-15.641.5-15.648.379C10.432,1.61,5.216,1.707,0,1.749Z" transform="translate(0.607 21.782)" fill="#a6a6a6"/>
                    <path id="Path_50039" data-name="Path 50039" d="M0,1.749C5.209,1.5,10.425,1.3,15.641,1.116l15.641-.5L46.929.242C52.145.138,57.361.042,62.577,0,57.368.254,52.152.447,46.936.633l-15.641.5-15.648.379C10.439,1.61,5.223,1.707,0,1.749Z" transform="translate(0.689 24.894)" fill="#a6a6a6"/>
                    <path id="Path_50040" data-name="Path 50040" d="M0,1.749C5.209,1.5,10.425,1.3,15.634,1.116l15.641-.5L46.923.242C52.138.138,57.354.042,62.57,0,57.361.247,52.145.447,46.936.633l-15.641.5-15.648.379C10.432,1.61,5.216,1.707,0,1.749Z" transform="translate(0.778 28.006)" fill="#a6a6a6"/>
                    <path id="Path_50041" data-name="Path 50041" d="M0,.885C2.6.706,5.209.589,7.814.473S13.029.287,15.634.2c2.6-.055,5.216-.131,7.82-.159S28.67-.017,31.282.017c-2.6.179-5.209.3-7.814.412S18.252.615,15.648.7c-2.6.055-5.216.131-7.82.159S2.611.919,0,.885Z" transform="translate(0.867 31.981)" fill="#a6a6a6"/>
                    <path id="Path_50042" data-name="Path 50042" d="M0,1.749C5.209,1.5,10.425,1.3,15.641,1.116l15.641-.5L46.929.242C52.145.138,57.361.042,62.577,0,57.368.254,52.152.447,46.943.633l-15.641.5-15.648.379C10.432,1.61,5.216,1.707,0,1.749Z" transform="translate(1.037 37.341)" fill="#a6a6a6"/>
                    <path id="Path_50043" data-name="Path 50043" d="M0,1.749C5.209,1.5,10.425,1.3,15.634,1.116l15.641-.5L46.923.242C52.138.138,57.354.042,62.57,0,57.361.247,52.145.447,46.929.633l-15.641.5-15.648.379C10.432,1.61,5.216,1.707,0,1.749Z" transform="translate(1.126 40.452)" fill="#a6a6a6"/>
                    <path id="Path_50044" data-name="Path 50044" d="M0,1.749C5.209,1.5,10.425,1.3,15.634,1.116l15.641-.5L46.923.242C52.138.138,57.354.042,62.57,0,57.361.247,52.145.447,46.936.633l-15.641.5-15.648.379C10.432,1.61,5.216,1.707,0,1.749Z" transform="translate(1.208 43.564)" fill="#a6a6a6"/>
                    <path id="Path_50045" data-name="Path 50045" d="M0,.885C2.6.706,5.209.589,7.814.473S13.029.287,15.634.2c2.6-.055,5.216-.131,7.82-.159S28.67-.017,31.282.017c-2.6.179-5.209.3-7.814.412S18.252.615,15.648.7c-2.6.055-5.216.131-7.82.159S2.611.912,0,.885Z" transform="translate(1.296 47.547)" fill="#a6a6a6"/>
                    <path id="Path_50046" data-name="Path 50046" d="M0,1.749C5.209,1.5,10.425,1.3,15.634,1.116l15.641-.5L46.922.242C52.138.138,57.354.042,62.57,0,57.361.254,52.145.447,46.936.633l-15.641.5-15.648.379C10.432,1.61,5.216,1.707,0,1.749Z" transform="translate(1.467 52.906)" fill="#a6a6a6"/>
                    <path id="Path_50047" data-name="Path 50047" d="M0,1.749C5.209,1.5,10.425,1.3,15.634,1.116l15.641-.5L46.923.242C52.138.138,57.354.042,62.57,0,57.361.247,52.145.447,46.929.633l-15.641.5-15.648.379C10.432,1.61,5.216,1.707,0,1.749Z" transform="translate(1.556 56.018)" fill="#a6a6a6"/>
                    <path id="Path_50048" data-name="Path 50048" d="M0,1.749C5.209,1.5,10.425,1.3,15.641,1.116l15.641-.5L46.929.242C52.145.138,57.361.042,62.577,0,57.368.254,52.152.447,46.936.633l-15.641.5-15.648.379C10.432,1.61,5.216,1.707,0,1.749Z" transform="translate(1.644 59.13)" fill="#a6a6a6"/>
                    <path id="Path_50049" data-name="Path 50049" d="M0,1.749C5.209,1.5,10.425,1.3,15.634,1.116l15.641-.5L46.916.242C52.132.138,57.347.042,62.563,0,57.354.254,52.138.447,46.929.633l-15.641.5-15.648.379C10.432,1.61,5.216,1.707,0,1.749Z" transform="translate(1.726 62.241)" fill="#a6a6a6"/>
                    <path id="Path_50050" data-name="Path 50050" d="M0,.885C2.6.706,5.209.589,7.814.473S13.029.287,15.634.2c2.6-.055,5.216-.131,7.82-.159S28.67-.017,31.282.017c-2.6.179-5.209.3-7.814.412S18.252.615,15.648.7c-2.6.055-5.216.131-7.82.159S2.611.919,0,.885Z" transform="translate(1.815 66.217)" fill="#a6a6a6"/>
                  </g>
                  <g id="Group_50729" data-name="Group 50729" transform="translate(2.833 107.012)">
                    <g id="Group_50724" data-name="Group 50724" transform="translate(10.073 0)">
                      <rect id="Rectangle_17522" data-name="Rectangle 17522" width="67.839" height="3.137" transform="translate(0 1.886) rotate(-1.593)" fill="#ebebeb"/>
                      <rect id="Rectangle_17523" data-name="Rectangle 17523" width="49.044" height="3.14" transform="translate(0.003 1.885) rotate(-1.593)" fill="#6ea21f"/>
                    </g>
                    <g id="Group_50725" data-name="Group 50725" transform="translate(10.297 8.142)">
                      <rect id="Rectangle_17524" data-name="Rectangle 17524" width="67.839" height="3.144" transform="translate(0.001 1.886) rotate(-1.593)" fill="#ebebeb"/>
                      <rect id="Rectangle_17525" data-name="Rectangle 17525" width="62.211" height="3.145" transform="translate(0 1.89) rotate(-1.593)" fill="#6ea21f"/>
                    </g>
                    <g id="Group_50726" data-name="Group 50726" transform="translate(10.522 16.29)">
                      <rect id="Rectangle_17526" data-name="Rectangle 17526" width="67.839" height="3.144" transform="translate(0 1.886) rotate(-1.593)" fill="#ebebeb"/>
                      <rect id="Rectangle_17527" data-name="Rectangle 17527" width="52.868" height="3.146" transform="translate(0.004 1.883) rotate(-1.593)" fill="#6ea21f"/>
                    </g>
                    <g id="Group_50727" data-name="Group 50727" transform="translate(10.752 24.431)">
                      <rect id="Rectangle_17528" data-name="Rectangle 17528" width="67.839" height="3.144" transform="translate(0.002 1.886) rotate(-1.593)" fill="#ebebeb"/>
                      <rect id="Rectangle_17529" data-name="Rectangle 17529" width="58.297" height="3.145" transform="translate(0 1.883) rotate(-1.593)" fill="#6ea21f"/>
                    </g>
                    <g id="Group_50728" data-name="Group 50728" transform="translate(10.978 32.572)">
                      <rect id="Rectangle_17530" data-name="Rectangle 17530" width="67.839" height="3.144" transform="translate(0.001 1.886) rotate(-1.593)" fill="#ebebeb"/>
                      <rect id="Rectangle_17531" data-name="Rectangle 17531" width="63.801" height="3.145" transform="translate(0 1.885) rotate(-1.593)" fill="#6ea21f"/>
                    </g>
                    <rect id="Rectangle_17532" data-name="Rectangle 17532" width="5.085" height="5.084" transform="translate(0 1.198) rotate(-1.593)" fill="#ea1c2d"/>
                    <rect id="Rectangle_17533" data-name="Rectangle 17533" width="5.085" height="5.084" transform="translate(0.225 9.34) rotate(-1.593)" fill="#455a64"/>
                    <rect id="Rectangle_17534" data-name="Rectangle 17534" width="5.085" height="5.084" transform="translate(0.457 17.488) rotate(-1.593)" fill="#c7c7c7"/>
                    <rect id="Rectangle_17535" data-name="Rectangle 17535" width="5.085" height="5.084" transform="matrix(1, -0.028, 0.028, 1, 0.699, 25.622)" fill="#ea1c2d"/>
                    <rect id="Rectangle_17536" data-name="Rectangle 17536" width="5.085" height="5.084" transform="matrix(1, -0.028, 0.028, 1, 0.924, 33.763)" fill="#263238"/>
                  </g>
                  <g id="Group_50735" data-name="Group 50735" transform="translate(96.094 92.102)">
                    <rect id="Rectangle_17537" data-name="Rectangle 17537" width="43.221" height="2.277" transform="translate(0 1.202) rotate(-1.593)" fill="#455a64"/>
                    <rect id="Rectangle_17538" data-name="Rectangle 17538" width="16.429" height="2.28" transform="translate(0.309 12.281) rotate(-1.593)" fill="#c7c7c7"/>
                    <rect id="Rectangle_17539" data-name="Rectangle 17539" width="16.429" height="2.28" transform="translate(0.839 31.672) rotate(-1.593)" fill="#c7c7c7"/>
                    <rect id="Rectangle_17540" data-name="Rectangle 17540" width="16.429" height="2.28" transform="translate(1.377 51.062) rotate(-1.593)" fill="#c7c7c7"/>
                    <rect id="Rectangle_17541" data-name="Rectangle 17541" width="16.429" height="2.28" transform="translate(1.915 70.459) rotate(-1.593)" fill="#c7c7c7"/>
                    <g id="Group_50730" data-name="Group 50730" transform="translate(33.52 11.283)">
                      <path id="Path_50051" data-name="Path 50051" d="M0,1.2C3.6,1,7.2.848,10.8.71L21.6.352,32.413.111C36.018.049,39.616,0,43.221,0c-3.6.206-7.2.357-10.8.495l-10.8.358-10.809.241C7.2,1.156,3.605,1.2,0,1.2Z" transform="translate(0 0)" fill="#a6a6a6"/>
                      <path id="Path_50052" data-name="Path 50052" d="M0,1.212C3.6,1.006,7.2.854,10.8.717L21.6.352,32.413.111C36.018.049,39.616,0,43.221,0c-3.6.206-7.2.357-10.8.495l-10.8.358-10.809.241C7.21,1.163,3.605,1.211,0,1.212Z" transform="translate(0.082 3.105)" fill="#a6a6a6"/>
                      <path id="Path_50053" data-name="Path 50053" d="M0,1.2C3.6,1,7.2.848,10.8.71L21.6.352,32.413.111C36.018.049,39.616,0,43.221,0c-3.6.206-7.2.357-10.8.495l-10.8.358-10.809.241C7.21,1.156,3.605,1.2,0,1.2Z" transform="translate(0.171 6.223)" fill="#a6a6a6"/>
                      <path id="Path_50054" data-name="Path 50054" d="M0,.577C1.522.433,3.036.337,4.558.255S7.6.131,9.123.069C10.644.048,12.166,0,13.688,0s3.043.006,4.572.068c-1.522.144-3.036.24-4.558.323S10.658.514,9.136.576C7.615.6,6.093.645,4.572.645S1.522.639,0,.577Z" transform="translate(0.259 9.963)" fill="#a6a6a6"/>
                    </g>
                    <g id="Group_50731" data-name="Group 50731" transform="translate(34.059 30.728)">
                      <path id="Path_50055" data-name="Path 50055" d="M0,1.2C3.6,1,7.2.848,10.8.71L21.6.352,32.413.111C36.018.049,39.616,0,43.221,0c-3.6.206-7.2.357-10.8.495l-10.8.358-10.809.241C7.2,1.156,3.605,1.211,0,1.2Z" transform="translate(0 0)" fill="#a6a6a6"/>
                      <path id="Path_50056" data-name="Path 50056" d="M0,1.2C3.6,1,7.2.848,10.8.71L21.6.352,32.413.111C36.018.049,39.616,0,43.221,0c-3.6.206-7.2.357-10.8.495l-10.8.358-10.809.241C7.21,1.156,3.605,1.211,0,1.2Z" transform="translate(0.082 3.112)" fill="#a6a6a6"/>
                      <path id="Path_50057" data-name="Path 50057" d="M0,1.2C3.6,1,7.2.848,10.8.71L21.6.352,32.413.111C36.018.049,39.616,0,43.221,0c-3.6.206-7.2.357-10.8.495l-10.8.358-10.809.241C7.21,1.156,3.605,1.211,0,1.2Z" transform="translate(0.171 6.223)" fill="#a6a6a6"/>
                      <path id="Path_50058" data-name="Path 50058" d="M0,.578C1.522.433,3.036.337,4.558.255S7.6.131,9.123.069C10.644.048,12.166,0,13.688,0s3.043.007,4.572.068c-1.522.144-3.036.24-4.558.323S10.658.514,9.136.576C7.615.6,6.093.645,4.572.646S1.522.639,0,.578Z" transform="translate(0.259 9.963)" fill="#a6a6a6"/>
                    </g>
                    <g id="Group_50732" data-name="Group 50732" transform="translate(34.598 50.172)">
                      <path id="Path_50059" data-name="Path 50059" d="M0,1.2C3.6,1,7.2.847,10.8.71L21.6.352,32.413.111C36.018.049,39.616,0,43.221,0c-3.6.206-7.2.357-10.8.495l-10.8.358-10.809.241C7.21,1.156,3.605,1.211,0,1.2Z" transform="translate(0 0)" fill="#a6a6a6"/>
                      <path id="Path_50060" data-name="Path 50060" d="M0,1.2C3.6,1,7.2.848,10.8.71L21.6.352,32.413.111C36.018.049,39.616,0,43.221,0c-3.6.206-7.2.357-10.8.495l-10.8.358-10.809.241C7.21,1.156,3.605,1.2,0,1.2Z" transform="translate(0.082 3.119)" fill="#a6a6a6"/>
                      <path id="Path_50061" data-name="Path 50061" d="M0,1.2C3.6,1,7.2.848,10.8.71L21.6.352,32.413.111C36.018.049,39.616,0,43.221,0c-3.6.206-7.2.357-10.8.495l-10.8.358-10.809.241C7.21,1.156,3.605,1.2,0,1.2Z" transform="translate(0.171 6.23)" fill="#a6a6a6"/>
                      <path id="Path_50062" data-name="Path 50062" d="M0,.577C1.522.433,3.036.337,4.558.255S7.6.131,9.123.069C10.644.048,12.166,0,13.687,0s3.043.006,4.572.068c-1.522.144-3.036.24-4.558.323S10.658.514,9.136.576C7.615.6,6.093.645,4.572.645S1.522.639,0,.577Z" transform="translate(0.259 9.969)" fill="#a6a6a6"/>
                    </g>
                    <g id="Group_50733" data-name="Group 50733" transform="translate(35.137 69.624)">
                      <path id="Path_50063" data-name="Path 50063" d="M0,1.2C3.6,1,7.2.848,10.8.71L21.6.352,32.413.111C36.018.049,39.616,0,43.221,0c-3.6.206-7.2.357-10.8.495l-10.8.358-10.809.241C7.21,1.156,3.605,1.2,0,1.2Z" transform="translate(0 0)" fill="#a6a6a6"/>
                      <path id="Path_50064" data-name="Path 50064" d="M0,1.2C3.6,1,7.2.848,10.8.71L21.6.352,32.413.111C36.018.049,39.616,0,43.221,0c-3.6.206-7.2.357-10.8.495l-10.8.358-10.809.241C7.21,1.156,3.605,1.2,0,1.2Z" transform="translate(0.082 3.112)" fill="#a6a6a6"/>
                      <path id="Path_50065" data-name="Path 50065" d="M0,1.2C3.6,1,7.2.848,10.8.71L21.6.352,32.413.111C36.018.049,39.616,0,43.221,0c-3.6.206-7.2.357-10.8.495l-10.8.358-10.809.241C7.21,1.156,3.605,1.211,0,1.2Z" transform="translate(0.171 6.223)" fill="#a6a6a6"/>
                      <path id="Path_50066" data-name="Path 50066" d="M0,.577C1.522.433,3.036.337,4.558.255S7.6.131,9.123.069C10.644.048,12.166,0,13.688,0s3.043.006,4.572.068c-1.522.144-3.036.24-4.558.323S10.658.514,9.136.576C7.615.6,6.093.645,4.572.645S1.522.639,0,.577Z" transform="translate(0.259 9.963)" fill="#a6a6a6"/>
                    </g>
                    <g id="Group_50734" data-name="Group 50734" transform="translate(23.842 11.714)">
                      <path id="Path_50067" data-name="Path 50067" d="M0,0,.4,9.815.752,19.63l.608,19.644L1.331,40.48l.2,9.822.143,9.829-.4-9.822L.92,40.494l-.1-1.206L.347,19.644l-.2-9.822Z" transform="translate(0.994 0.24)" fill="#8dd6ff"/>
                      <path id="Path_50068" data-name="Path 50068" d="M2.029.987A1.015,1.015,0,1,1,.987,0,1.013,1.013,0,0,1,2.029.987Z" transform="translate(0 0)" fill="#8dd6ff"/>
                      <path id="Path_50069" data-name="Path 50069" d="M2.029.987A1.015,1.015,0,1,1,.987,0,1.013,1.013,0,0,1,2.029.987Z" transform="translate(0.539 19.445)" fill="#8dd6ff"/>
                      <path id="Path_50070" data-name="Path 50070" d="M2.029.987A1.015,1.015,0,1,1,.987,0,1.013,1.013,0,0,1,2.029.987Z" transform="translate(1.078 38.897)" fill="#8dd6ff"/>
                      <path id="Path_50071" data-name="Path 50071" d="M2.029.987A1.015,1.015,0,1,1,.987,0,1.013,1.013,0,0,1,2.029.987Z" transform="translate(1.617 58.341)" fill="#8dd6ff"/>
                    </g>
                  </g>
                  <g id="Group_50752" data-name="Group 50752" transform="translate(4.533 156.285)">
                    <g id="Group_50739" data-name="Group 50739" transform="translate(0 1.762)">
                      <g id="Group_50736" data-name="Group 50736" transform="translate(0 0)">
                        <path id="Path_50072" data-name="Path 50072" d="M15,7.291a7.485,7.485,0,1,1-1.089-3.7A7.581,7.581,0,0,1,15,7.291Z" transform="translate(0 0)" fill="#455a64"/>
                        <path id="Path_50073" data-name="Path 50073" d="M6.607,3.592.2,7.5,0,0A7.491,7.491,0,0,1,6.607,3.592Z" transform="translate(7.297 0)" fill="#6ea21f"/>
                      </g>
                      <g id="Group_50738" data-name="Group 50738" transform="translate(2.304 2.31)">
                        <g id="Group_50737" data-name="Group 50737" transform="translate(0 0)">
                          <path id="Path_50074" data-name="Path 50074" d="M10.38,5.043A5.191,5.191,0,1,1,5.048,0,5.192,5.192,0,0,1,10.38,5.043Z" fill="#fff"/>
                        </g>
                      </g>
                      <rect id="Rectangle_17542" data-name="Rectangle 17542" width="4.318" height="0.609" transform="matrix(1, -0.028, 0.028, 1, 5.318, 6.4)" fill="#263238"/>
                      <rect id="Rectangle_17543" data-name="Rectangle 17543" width="6.457" height="0.609" transform="translate(4.274 8.131) rotate(-1.593)" fill="#a6a6a6"/>
                    </g>
                    <g id="Group_50743" data-name="Group 50743" transform="translate(20.982 1.177)">
                      <g id="Group_50740" data-name="Group 50740" transform="translate(0 0)">
                        <path id="Path_50075" data-name="Path 50075" d="M15,7.284a6.571,6.571,0,0,1-.055,1.1A7.424,7.424,0,1,1,15,7.284Z" fill="#455a64"/>
                        <path id="Path_50076" data-name="Path 50076" d="M7.7,7.284a6.571,6.571,0,0,1-.055,1.1L.2,7.5,0,0A7.5,7.5,0,0,1,6.614,3.592,7.434,7.434,0,0,1,7.7,7.284Z" transform="translate(7.297 0)" fill="#6ea21f"/>
                      </g>
                      <g id="Group_50742" data-name="Group 50742" transform="translate(2.311 2.31)">
                        <g id="Group_50741" data-name="Group 50741" transform="translate(0 0)">
                          <path id="Path_50077" data-name="Path 50077" d="M10.38,5.043A5.191,5.191,0,1,1,5.048,0,5.192,5.192,0,0,1,10.38,5.043Z" fill="#fff"/>
                        </g>
                      </g>
                      <rect id="Rectangle_17544" data-name="Rectangle 17544" width="4.318" height="0.609" transform="matrix(1, -0.028, 0.028, 1, 5.321, 6.401)" fill="#263238"/>
                      <rect id="Rectangle_17545" data-name="Rectangle 17545" width="6.457" height="0.609" transform="translate(4.277 8.13) rotate(-1.593)" fill="#a6a6a6"/>
                    </g>
                    <g id="Group_50747" data-name="Group 50747" transform="translate(42.115 0.592)">
                      <g id="Group_50744" data-name="Group 50744" transform="translate(0 0)">
                        <path id="Path_50078" data-name="Path 50078" d="M14.994,7.284a7.469,7.469,0,1,1-1.083-3.692A7.5,7.5,0,0,1,14.994,7.284Z" fill="#455a64"/>
                        <path id="Path_50079" data-name="Path 50079" d="M7.7,7.284a7.5,7.5,0,0,1-4.614,7.132L.2,7.5,0,0A7.5,7.5,0,0,1,6.614,3.592,7.456,7.456,0,0,1,7.7,7.284Z" transform="translate(7.297 0)" fill="#6ea21f"/>
                      </g>
                      <g id="Group_50746" data-name="Group 50746" transform="translate(2.304 2.303)">
                        <g id="Group_50745" data-name="Group 50745" transform="translate(0 0)">
                          <path id="Path_50080" data-name="Path 50080" d="M10.38,5.043A5.191,5.191,0,1,1,5.048,0,5.192,5.192,0,0,1,10.38,5.043Z" fill="#fff"/>
                        </g>
                      </g>
                      <rect id="Rectangle_17546" data-name="Rectangle 17546" width="4.318" height="0.609" transform="matrix(1, -0.028, 0.028, 1, 5.317, 6.391)" fill="#263238"/>
                      <rect id="Rectangle_17547" data-name="Rectangle 17547" width="6.457" height="0.609" transform="translate(4.277 8.124) rotate(-1.593)" fill="#a6a6a6"/>
                    </g>
                    <g id="Group_50751" data-name="Group 50751" transform="translate(63.125 0)">
                      <g id="Group_50748" data-name="Group 50748" transform="translate(0 0)">
                        <path id="Path_50081" data-name="Path 50081" d="M15,7.277a7.5,7.5,0,1,1-1.1-3.686A7.3,7.3,0,0,1,15,7.277Z" transform="translate(0 0.007)" fill="#455a64"/>
                        <path id="Path_50082" data-name="Path 50082" d="M12.209,7.284a7.506,7.506,0,0,1-7.294,7.708A7.438,7.438,0,0,1,0,13.335L4.71,7.5,4.505,0A7.5,7.5,0,0,1,11.12,3.592,7.413,7.413,0,0,1,12.209,7.284Z" transform="translate(2.792 0)" fill="#6ea21f"/>
                      </g>
                      <g id="Group_50750" data-name="Group 50750" transform="translate(2.311 2.309)">
                        <g id="Group_50749" data-name="Group 50749" transform="translate(0 0)">
                          <path id="Path_50083" data-name="Path 50083" d="M10.38,5.044A5.191,5.191,0,1,1,5.048,0,5.192,5.192,0,0,1,10.38,5.044Z" fill="#fff"/>
                        </g>
                      </g>
                      <rect id="Rectangle_17548" data-name="Rectangle 17548" width="4.318" height="0.609" transform="matrix(1, -0.028, 0.028, 1, 5.317, 6.397)" fill="#263238"/>
                      <rect id="Rectangle_17549" data-name="Rectangle 17549" width="6.457" height="0.609" transform="translate(4.274 8.134) rotate(-1.593)" fill="#a6a6a6"/>
                    </g>
                  </g>
                  <path id="Path_50084" data-name="Path 50084" d="M0,0,.4,10.255.755,20.51l.625,20.51.509,20.516L2.1,71.791l.162,10.262L1.854,71.8,1.5,61.543.882,41.033.373,20.516.156,10.262Z" transform="translate(86.152 95.081)" fill="#455a64"/>
                  <g id="Group_50764" data-name="Group 50764" transform="translate(5.571 186.357)">
                    <g id="Group_50755" data-name="Group 50755" transform="translate(0 3.01)">
                      <g id="IaQ7Yo_9_" transform="translate(0 0)">
                        <g id="Group_50754" data-name="Group 50754" transform="translate(0 0)">
                          <g id="Group_50753" data-name="Group 50753">
                            <path id="Path_50085" data-name="Path 50085" d="M4.517,4.122a.7.7,0,0,1-.322.171,1.4,1.4,0,0,1-.165.034l-.281.007c-.1-.014-.192-.021-.281-.041a3.014,3.014,0,0,1-1.042-.424A6.649,6.649,0,0,1,.534,2.075,2.771,2.771,0,0,1,.062,1.068C.041.972.027.877.007.781L0,.507C.021.418.027.329.055.24A2.414,2.414,0,0,1,.165,0,.347.347,0,0,0,.213.034c.4.377.8.753,1.2,1.13.027.021.027.041.021.075A.583.583,0,0,0,1.57,1.8,12.785,12.785,0,0,0,2.653,2.828a.576.576,0,0,0,.569.11c.027-.007.041-.014.069.007L4.5,4.095C4.5,4.1,4.51,4.108,4.517,4.122Z" transform="translate(0 0.767)" fill="#8dd6ff"/>
                            <path id="Path_50086" data-name="Path 50086" d="M1.652,1.238c-.13.144-.267.281-.4.425l-.027.027C.816,1.3.411.916,0,.533A1.092,1.092,0,0,0,.089.444C.206.327.315.2.432.081a.186.186,0,0,1,.3-.007c.308.288.61.575.912.863A.19.19,0,0,1,1.652,1.238Z" transform="translate(3.53 2.953)" fill="#8dd6ff"/>
                            <path id="Path_50087" data-name="Path 50087" d="M1.659,1.226c-.151.151-.3.3-.446.452C.822,1.308.411.925,0,.534.007.528.014.514.021.507.158.363.288.219.425.075A.187.187,0,0,1,.72.069c.308.294.617.582.925.876A.177.177,0,0,1,1.659,1.226Z" transform="translate(0.405 0)" fill="#8dd6ff"/>
                          </g>
                        </g>
                      </g>
                    </g>
                    <g id="Group_50757" data-name="Group 50757" transform="translate(0.321 13.877)">
                      <g id="TEfYE6_5_" transform="translate(0 0)">
                        <g id="Group_50756" data-name="Group 50756" transform="translate(0 0)">
                          <path id="Path_50088" data-name="Path 50088" d="M4.7.048C4.661.1,4.62.13,4.579.171c-.644.651-1.3,1.3-1.94,1.952a.3.3,0,0,1-.459.014C1.48,1.514.781.891.082.261A.829.829,0,0,1,0,.185.339.339,0,0,1,.178.131L1.563.089C2.523.062,3.489.027,4.449,0A.48.48,0,0,1,4.7.048Z" transform="translate(0.185 0)" fill="#8dd6ff"/>
                          <path id="Path_50089" data-name="Path 50089" d="M4.709,1.534a.759.759,0,0,1-.171.034c-.548.021-1.1.034-1.659.055l-2.66.082A.425.425,0,0,1,0,1.658C.542,1.117,1.07.582,1.611.041L1.94.329c.048.041.1.082.137.123A.358.358,0,0,0,2.584.438C2.728.295,2.865.151,3.016,0,3.578.507,4.14,1.007,4.7,1.506A.052.052,0,0,1,4.709,1.534Z" transform="translate(0.267 2.048)" fill="#8dd6ff"/>
                          <path id="Path_50090" data-name="Path 50090" d="M1.679,1.486C1.158,2.02.63,2.541.109,3.082.109,3.061.1,3.034.1,3.006.061,2.034.034,1.061,0,.089,0,.055.007.021.007,0Z" transform="translate(0 0.418)" fill="#8dd6ff"/>
                          <path id="Path_50091" data-name="Path 50091" d="M1.672,3.075c-.206-.185-.411-.37-.624-.555-.336-.3-.672-.6-1.008-.9C.027,1.616.021,1.6,0,1.6.521,1.055,1.056.534,1.57,0,1.6.048,1.693,2.993,1.672,3.075Z" transform="translate(3.475 0.267)" fill="#8dd6ff"/>
                        </g>
                      </g>
                    </g>
                    <g id="Group_50759" data-name="Group 50759" transform="translate(83.333 0.383)">
                      <g id="aiZGp2_5_" transform="translate(0 0)">
                        <g id="Group_50758" data-name="Group 50758" transform="translate(0 0)">
                          <path id="Path_50092" data-name="Path 50092" d="M1.241,0a3.729,3.729,0,0,0-.22,1.164H1.008c-.329.007-.665.021-.994.028H0V1.164c0-.027.007-.055.007-.075a2.607,2.607,0,0,1,.055-.4A3.021,3.021,0,0,1,.274.048C.281.034.288.034.3.034.61.028.919.014,1.234.007Z" transform="translate(0 1.562)" fill="#8dd6ff"/>
                          <path id="Path_50093" data-name="Path 50093" d="M1.268,1.116H1.254c-.308.007-.617.014-.925.027-.014,0-.021-.007-.021-.014A2.891,2.891,0,0,1,.055.425,2.14,2.14,0,0,1,0,.069V.028H.014C.343.021.672.007,1,0c.021,0,.021,0,.021.021.007.082.014.164.027.246a2.379,2.379,0,0,0,.075.384c.041.157.089.308.144.459C1.268,1.1,1.268,1.109,1.268,1.116Z" transform="translate(0.014 3.027)" fill="#8dd6ff"/>
                          <path id="Path_50094" data-name="Path 50094" d="M2.015.007c0,.007-.007.007-.007.014A3.249,3.249,0,0,1,1.755.37a2.743,2.743,0,0,1-.377.37,2.685,2.685,0,0,1-.439.288,2.806,2.806,0,0,1-.466.2c-.13.041-.26.069-.391.1-.014,0-.027.007-.041.007H.021C.014,1.322.007,1.322,0,1.315a.1.1,0,0,1,.027-.021,3.077,3.077,0,0,0,.72-.74A3.417,3.417,0,0,0,1.035.041c.007-.014.014-.014.021-.014C1.371.021,1.687.007,2,0Z" transform="translate(3.228 4.321)" fill="#8dd6ff"/>
                          <path id="Path_50095" data-name="Path 50095" d="M1.357,1.144.034,1.178,0,.028H.014C.35.021.692.007,1.028,0c.014,0,.014,0,.021.014a2.869,2.869,0,0,1,.226.671,3.351,3.351,0,0,1,.062.363A.4.4,0,0,1,1.357,1.144Z" transform="translate(2.9 1.493)" fill="#8dd6ff"/>
                          <path id="Path_50096" data-name="Path 50096" d="M1.323,0c0,.027,0,.055,0,.082-.007.062-.007.13-.014.192C1.3.363,1.289.452,1.275.541a3.329,3.329,0,0,1-.158.568c-.007.014-.007.021-.021.021-.35.007-.692.021-1.042.027H.034L0,.041Z" transform="translate(2.934 2.938)" fill="#8dd6ff"/>
                          <path id="Path_50097" data-name="Path 50097" d="M1.255,0l.034,1.157L0,1.192V1.1C.007,1.041.007.973.014.911c.014-.1.027-.2.048-.294A2.774,2.774,0,0,1,.233.041C.24.028.247.027.254.027.583.021.912.007,1.234,0Z" transform="translate(1.35 1.534)" fill="#8dd6ff"/>
                          <path id="Path_50098" data-name="Path 50098" d="M1.3.021c.007.363.02.726.027,1.082v.014H1.3c-.336.007-.672.021-1.015.028-.014,0-.021,0-.021-.014A2.836,2.836,0,0,1,.075.555C.055.452.034.349.021.247.007.178.007.11,0,.041V.034H.014C.432.021.85.014,1.275,0,1.3.007,1.3.007,1.3.021Z" transform="translate(1.35 2.979)" fill="#8dd6ff"/>
                          <path id="Path_50099" data-name="Path 50099" d="M1.371,1.157.288,1.185A3.634,3.634,0,0,0,0,.028H.014C.343.021.672.007,1.008,0c.014,0,.021,0,.021.014A2.713,2.713,0,0,1,1.3.726a3.805,3.805,0,0,1,.062.4C1.371,1.144,1.371,1.15,1.371,1.157Z" transform="translate(4.284 1.445)" fill="#8dd6ff"/>
                          <path id="Path_50100" data-name="Path 50100" d="M1.268,0c0,.027,0,.048,0,.075-.007.1-.014.2-.028.294a3.11,3.11,0,0,1-.178.657l-.041.1a.015.015,0,0,1-.014.014c-.329.007-.665.021-.994.028H0c.014-.034.021-.068.034-.1A2.794,2.794,0,0,0,.151.541,2.5,2.5,0,0,0,.185.151v-.1C.185.048.185.041.2.041H.206Z" transform="translate(4.394 2.89)" fill="#8dd6ff"/>
                          <path id="Path_50101" data-name="Path 50101" d="M2.049,1.157c0,.007-.007.007,0,0l-.014.007c-.315.007-.631.021-.946.027-.014,0-.021,0-.021-.014A3.445,3.445,0,0,0,.583.493,2.767,2.767,0,0,0,.212.171C.144.123.075.082.014.034.007.034.007.027,0,.027S.007.021.014.021.007.007.007,0A2.813,2.813,0,0,1,.973.26,2.837,2.837,0,0,1,2.049,1.157Z" transform="translate(3.078 0)" fill="#8dd6ff"/>
                          <path id="Path_50102" data-name="Path 50102" d="M2.029,1.226c-.014,0-.021.007-.027.007-.1-.014-.206-.027-.308-.048A2.644,2.644,0,0,1,1.138,1,3.023,3.023,0,0,1,.569.651,2.22,2.22,0,0,1,.226.322,3.182,3.182,0,0,1,.007.034.007.007,0,0,0,0,.028H.014C.308.021.6.014.891,0,.9,0,.912.007.912.014a3.749,3.749,0,0,0,.336.52,3.156,3.156,0,0,0,.391.411,2.929,2.929,0,0,0,.37.281C2.022,1.219,2.022,1.226,2.029,1.226Z" transform="translate(0.507 4.431)" fill="#8dd6ff"/>
                          <path id="Path_50103" data-name="Path 50103" d="M1.926.021c-.041.027-.089.068-.13.1a3.377,3.377,0,0,0-.418.411,3.156,3.156,0,0,0-.432.651l-.021.041c0,.007-.007.007-.014.007H.864L0,1.26A2.8,2.8,0,0,1,1.913,0c0,.007-.007.007-.007.014A.03.03,0,0,1,1.926.021Z" transform="translate(0.439 0.027)" fill="#8dd6ff"/>
                          <path id="Path_50104" data-name="Path 50104" d="M.932,0A3.052,3.052,0,0,1,.514.6a2.713,2.713,0,0,1-.487.438L0,.028Z" transform="translate(2.975 4.369)" fill="#8dd6ff"/>
                          <path id="Path_50105" data-name="Path 50105" d="M.9,0,.925.993A2.965,2.965,0,0,1,0,.027Z" transform="translate(1.789 4.403)" fill="#8dd6ff"/>
                          <path id="Path_50106" data-name="Path 50106" d="M.925.918l-.9.027L0,0A2.968,2.968,0,0,1,.514.4,2.939,2.939,0,0,1,.925.918Z" transform="translate(2.866 0.274)" fill="#8dd6ff"/>
                          <path id="Path_50107" data-name="Path 50107" d="M.836,0,.864.925,0,.952A2.8,2.8,0,0,1,.836,0Z" transform="translate(1.734 0.308)" fill="#8dd6ff"/>
                        </g>
                      </g>
                    </g>
                    <g id="Group_50763" data-name="Group 50763" transform="translate(84.043 10.316)">
                      <g id="Group_50762" data-name="Group 50762" transform="translate(0 0)">
                        <g id="Group_50761" data-name="Group 50761">
                          <g id="uGJA8C_00000135668905352922124220000006324764647684046465_">
                            <g id="Group_50760" data-name="Group 50760">
                              <path id="Path_50108" data-name="Path 50108" d="M4.54,1.3A2.424,2.424,0,0,0,1.7.093,2.264,2.264,0,0,0,.016,2.538,3.276,3.276,0,0,0,.365,3.579,8.1,8.1,0,0,0,1.777,5.5c.226.24.459.466.7.7a.638.638,0,0,0,.069-.068c.288-.322.583-.637.85-.966a6.884,6.884,0,0,0,1.2-2.055A2.233,2.233,0,0,0,4.54,1.3Zm-2.2,2.37A1.463,1.463,0,1,1,2.415.744,1.482,1.482,0,0,1,3.848,2.2,1.482,1.482,0,0,1,2.339,3.668Z" fill="#8dd6ff"/>
                            </g>
                          </g>
                        </g>
                      </g>
                    </g>
                    <path id="Path_50109" data-name="Path 50109" d="M0,1.2C3.6,1,7.2.847,10.8.709l10.8-.358L32.416.111C36.022.049,39.621,0,43.226,0c-3.6.206-7.2.357-10.8.494L21.62.852l-10.81.241C7.2,1.155,3.606,1.21,0,1.2Z" transform="translate(10.399 2.415)" fill="#a6a6a6"/>
                    <path id="Path_50110" data-name="Path 50110" d="M0,.657C1.8.506,3.6.4,5.4.314S9,.177,10.8.1c1.8-.028,3.606-.083,5.408-.1s3.606-.014,5.408.04c-1.8.158-3.6.254-5.4.343s-3.6.137-5.4.206c-1.8.028-3.606.083-5.408.09C3.606.712,1.8.712,0,.657Z" transform="translate(10.481 6.07)" fill="#a6a6a6"/>
                    <path id="Path_50111" data-name="Path 50111" d="M0,1.211C3.6,1,7.2.854,10.8.716l10.8-.364L32.416.111C36.022.049,39.621,0,43.226,0c-3.6.206-7.2.357-10.8.494L21.62.852l-10.81.241C7.2,1.162,3.606,1.217,0,1.211Z" transform="translate(10.685 12.762)" fill="#a6a6a6"/>
                    <path id="Path_50112" data-name="Path 50112" d="M0,.657C1.8.5,3.6.4,5.4.314S9,.177,10.8.1c1.8-.028,3.606-.083,5.408-.1s3.606-.014,5.408.04c-1.8.158-3.6.254-5.4.343s-3.6.137-5.4.206c-1.8.028-3.606.083-5.408.09C3.612.712,1.81.712,0,.657Z" transform="translate(10.767 16.424)" fill="#a6a6a6"/>
                    <path id="Path_50113" data-name="Path 50113" d="M0,1.211C3.6,1,7.2.854,10.8.716l10.8-.364L32.416.111C36.022.049,39.621,0,43.226,0c-3.6.206-7.2.357-10.8.494L21.62.852l-10.81.241C7.211,1.162,3.606,1.21,0,1.211Z" transform="translate(96.611 0)" fill="#a6a6a6"/>
                    <path id="Path_50114" data-name="Path 50114" d="M0,.657C1.8.5,3.6.4,5.4.314S9,.177,10.8.1c1.8-.028,3.606-.083,5.408-.1s3.606-.014,5.408.04c-1.8.158-3.6.254-5.4.343s-3.6.137-5.4.206c-1.8.028-3.606.083-5.409.09S1.8.712,0,.657Z" transform="translate(96.7 3.662)" fill="#a6a6a6"/>
                    <path id="Path_50115" data-name="Path 50115" d="M0,1.2C3.6,1,7.2.847,10.8.709l10.8-.358L32.416.111C36.022.049,39.621,0,43.226,0c-3.6.206-7.2.357-10.8.494L21.62.852l-10.81.241C7.211,1.155,3.606,1.2,0,1.2Z" transform="translate(96.898 10.361)" fill="#a6a6a6"/>
                    <path id="Path_50116" data-name="Path 50116" d="M0,.657C1.8.5,3.6.4,5.4.314S9,.177,10.8.1c1.8-.028,3.606-.083,5.408-.1s3.606-.014,5.409.04c-1.8.158-3.6.254-5.4.343s-3.6.137-5.4.206c-1.8.028-3.606.083-5.408.09C3.606.712,1.8.712,0,.657Z" transform="translate(96.987 14.016)" fill="#a6a6a6"/>
                  </g>
                </g>
              </g>
            </g>
          </g>
          <path id="Path_50117" data-name="Path 50117" d="M0,0,40.1,17.9l-20.05,5.252Z" transform="translate(159.259 0.116)" fill="#dbdbdb"/>
        </g>
      </g>
      <g id="Group_64295" data-name="Group 64295" transform="translate(164.246 53.041)">
        <g id="Group_64294" data-name="Group 64294">
          <path id="Path_61207" data-name="Path 61207" d="M226.832,76.3a1.353,1.353,0,0,1-.039-.214c-.023-.158-.051-.367-.09-.632-.073-.575-.181-1.393-.316-2.437-.13-1.066-.293-2.358-.479-3.858a20.5,20.5,0,0,0-.367-2.386,3.643,3.643,0,0,0-.513-1.179,2.034,2.034,0,0,0-1.038-.8,2.764,2.764,0,0,0-2.662.677,5.05,5.05,0,0,0-1.365,2.8,20.082,20.082,0,0,0,.22,7.073c.22,1.235.457,2.51.739,3.8A12.346,12.346,0,0,0,222.3,82.88a5.883,5.883,0,0,0,3.08,2.555,3.905,3.905,0,0,0,2.036.147,3.8,3.8,0,0,0,1.827-.959,6.064,6.064,0,0,0,1.788-3.717,17.506,17.506,0,0,0-.107-4.14c-.3-2.73-.6-5.358-.874-7.868q-.211-1.878-.406-3.666c-.13-1.19-.248-2.341-.462-3.435a11.744,11.744,0,0,0-.965-3.057,6.68,6.68,0,0,0-1.816-2.29,7.13,7.13,0,0,0-4.761-1.438,5.905,5.905,0,0,0-3.536,1.314,4.736,4.736,0,0,0-1.354,1.991c-.18.53-.22.823-.237.818a3.9,3.9,0,0,1,.186-.84,4.629,4.629,0,0,1,1.337-2.053,5.933,5.933,0,0,1,3.6-1.393,7.289,7.289,0,0,1,4.9,1.438,6.911,6.911,0,0,1,1.89,2.352,11.773,11.773,0,0,1,1,3.113c.22,1.106.344,2.267.479,3.452s.276,2.408.417,3.661c.288,2.5.587,5.138.9,7.868a17.424,17.424,0,0,1,.113,4.208,6.368,6.368,0,0,1-1.878,3.9,4.073,4.073,0,0,1-1.969,1.027,4.177,4.177,0,0,1-2.188-.158,6.184,6.184,0,0,1-3.232-2.685,12.656,12.656,0,0,1-1.4-3.819c-.282-1.3-.513-2.566-.733-3.813a20.172,20.172,0,0,1-.192-7.169,5.232,5.232,0,0,1,1.455-2.922,2.974,2.974,0,0,1,2.882-.705,2.275,2.275,0,0,1,1.134.88,3.885,3.885,0,0,1,.53,1.247,19.243,19.243,0,0,1,.344,2.414c.169,1.5.31,2.8.429,3.864.113,1.049.2,1.867.259,2.442.023.271.045.479.062.637A2.219,2.219,0,0,1,226.832,76.3Z" transform="translate(-216.51 -54.831)" fill="#263238"/>
        </g>
      </g>
      <g id="Group_64537" data-name="Group 64537" transform="translate(94.73 43.528)">
        <g id="Group_64298" data-name="Group 64298" transform="translate(42.247 118.555)">
          <g id="Group_64297" data-name="Group 64297">
            <path id="Path_61209" data-name="Path 61209" d="M192.07,254.75" transform="translate(-192.07 -254.75)" fill="none" stroke="#ffc7bf" stroke-width="0.05"/>
          </g>
        </g>
        <g id="Group_64320" data-name="Group 64320" transform="translate(24.838 105.124)">
          <g id="Group_64299" data-name="Group 64299">
            <path id="Path_61210" data-name="Path 61210" d="M218.005,238.677l-4.288-4.347-45.841,12.937s-2.519,20.152-2.256,21.441a30.373,30.373,0,0,1-.02,4.972l63.264-4.926C228.857,268.747,229.594,251.588,218.005,238.677Z" transform="translate(-165.6 -234.33)" fill="#263238"/>
          </g>
          <g id="Group_64301" data-name="Group 64301" transform="translate(2.282 21.867)">
            <g id="Group_64300" data-name="Group 64300">
              <path id="Path_61211" data-name="Path 61211" d="M181.461,267.579a1.823,1.823,0,0,1-.256.513c-.191.315-.474.763-.862,1.3a10.152,10.152,0,0,1-1.572,1.717,7.341,7.341,0,0,1-2.5,1.381,15.838,15.838,0,0,1-5.084.756,13.88,13.88,0,0,1-1.552-.092,1.587,1.587,0,0,1-.566-.105c.007-.053.816-.007,2.111-.046a18.114,18.114,0,0,0,4.979-.842,7.389,7.389,0,0,0,2.407-1.3,11.263,11.263,0,0,0,1.578-1.624C180.961,268.224,181.415,267.547,181.461,267.579Z" transform="translate(-169.07 -267.578)" fill="#455a64"/>
            </g>
          </g>
          <g id="Group_64303" data-name="Group 64303" transform="translate(27.918 20.724)">
            <g id="Group_64302" data-name="Group 64302">
              <path id="Path_61212" data-name="Path 61212" d="M209.884,282.19a2.182,2.182,0,0,1-.177-.625c-.092-.408-.217-1-.349-1.73-.27-1.467-.592-3.506-.842-5.768s-.381-4.321-.434-5.814c-.026-.743-.039-1.348-.033-1.763a2.166,2.166,0,0,1,.039-.651,18.964,18.964,0,0,1,.237,2.4c.118,1.486.283,3.532.533,5.788s.533,4.288.743,5.761A18.559,18.559,0,0,1,209.884,282.19Z" transform="translate(-208.047 -265.84)" fill="#455a64"/>
            </g>
          </g>
          <g id="Group_64305" data-name="Group 64305" transform="translate(32.718 20.744)">
            <g id="Group_64304" data-name="Group 64304">
              <path id="Path_61213" data-name="Path 61213" d="M216.763,281.148c-.092.007-.48-3.407-.868-7.623s-.625-7.649-.526-7.656.48,3.407.868,7.623S216.855,281.142,216.763,281.148Z" transform="translate(-215.346 -265.87)" fill="#455a64"/>
            </g>
          </g>
          <g id="Group_64307" data-name="Group 64307" transform="translate(41.815 12.501)">
            <g id="Group_64306" data-name="Group 64306">
              <path id="Path_61214" data-name="Path 61214" d="M243.727,253.339c.02.02-.132.2-.428.526s-.717.776-1.282,1.309a14.1,14.1,0,0,1-2.144,1.7,8.489,8.489,0,0,1-3.131,1.236,6.235,6.235,0,0,1-3.341-.375,9.947,9.947,0,0,1-2.374-1.368,15.418,15.418,0,0,1-1.394-1.2,2.5,2.5,0,0,1-.454-.493c.04-.046.743.605,1.993,1.493a10.216,10.216,0,0,0,2.341,1.269,6.125,6.125,0,0,0,3.177.329,8.532,8.532,0,0,0,3.019-1.164,15.524,15.524,0,0,0,2.144-1.611C243,253.971,243.688,253.3,243.727,253.339Z" transform="translate(-229.178 -253.337)" fill="#455a64"/>
            </g>
          </g>
          <g id="Group_64309" data-name="Group 64309" transform="translate(44.742 25.257)">
            <g id="Group_64308" data-name="Group 64308">
              <path id="Path_61215" data-name="Path 61215" d="M248.757,272.738a2.8,2.8,0,0,1-.605.355l-1.69.881c-1.427.75-3.374,1.822-5.465,3.111s-3.92,2.558-5.229,3.5c-.605.441-1.118.809-1.546,1.118a2.632,2.632,0,0,1-.592.382,2.715,2.715,0,0,1,.506-.487c.342-.3.848-.71,1.486-1.21a59.874,59.874,0,0,1,5.189-3.6,60.5,60.5,0,0,1,5.538-3.039c.73-.349,1.329-.618,1.743-.789A2.591,2.591,0,0,1,248.757,272.738Z" transform="translate(-233.629 -272.733)" fill="#455a64"/>
            </g>
          </g>
          <g id="Group_64311" data-name="Group 64311" transform="translate(17.003 13.495)">
            <g id="Group_64310" data-name="Group 64310">
              <path id="Path_61216" data-name="Path 61216" d="M192.5,261.242c-.046.013-.2-.316-.414-.881a10.626,10.626,0,0,1-.579-2.269,6.021,6.021,0,0,1,.132-2.355c.164-.585.362-.908.4-.888a10.268,10.268,0,0,0-.191,3.2,19.363,19.363,0,0,0,.474,2.243A2.929,2.929,0,0,1,192.5,261.242Z" transform="translate(-191.452 -254.849)" fill="#455a64"/>
            </g>
          </g>
          <g id="Group_64313" data-name="Group 64313" transform="translate(20.055 13.567)">
            <g id="Group_64312" data-name="Group 64312">
              <path id="Path_61217" data-name="Path 61217" d="M196.854,261.444a2.988,2.988,0,0,1-.322-.94,12.375,12.375,0,0,1-.427-2.361,5.934,5.934,0,0,1,.066-1.342,4.131,4.131,0,0,1,.355-1.046,1.912,1.912,0,0,1,.618-.8,8.255,8.255,0,0,1-.394.894,5.113,5.113,0,0,0-.3,2.269c.059.908.237,1.73.322,2.335A2.805,2.805,0,0,1,196.854,261.444Z" transform="translate(-196.093 -254.958)" fill="#455a64"/>
            </g>
          </g>
          <g id="Group_64315" data-name="Group 64315" transform="translate(33.953 9.692)">
            <g id="Group_64314" data-name="Group 64314">
              <path id="Path_61218" data-name="Path 61218" d="M221.023,257.836a14.556,14.556,0,0,0-1-4.775,14.852,14.852,0,0,0-2.8-3.992,4.061,4.061,0,0,1,1.145.914,9.81,9.81,0,0,1,2.762,6.386A4.17,4.17,0,0,1,221.023,257.836Z" transform="translate(-217.225 -249.066)" fill="#455a64"/>
            </g>
          </g>
          <g id="Group_64317" data-name="Group 64317" transform="translate(37.431 9.068)">
            <g id="Group_64316" data-name="Group 64316">
              <path id="Path_61219" data-name="Path 61219" d="M225.878,256.446a30.7,30.7,0,0,0-1.2-4.354,31.4,31.4,0,0,0-2.157-3.973,3.991,3.991,0,0,1,.9,1A12.977,12.977,0,0,1,225,251.96a13.331,13.331,0,0,1,.842,3.137A4.488,4.488,0,0,1,225.878,256.446Z" transform="translate(-222.513 -248.118)" fill="#455a64"/>
            </g>
          </g>
          <g id="Group_64319" data-name="Group 64319" transform="translate(28.29 14.6)">
            <g id="Group_64318" data-name="Group 64318">
              <path id="Path_61220" data-name="Path 61220" d="M209.473,257.056c-.013-.013.118-.178.454-.335a2.175,2.175,0,0,1,2.466.546,1.991,1.991,0,0,1,.454,1.19,2.38,2.38,0,0,1-.362,1.355,1.959,1.959,0,0,1-1.236.881,2.255,2.255,0,0,1-2.479-1.217,2.178,2.178,0,0,1-.112-1.263,2.032,2.032,0,0,1,.441-1.013,2.151,2.151,0,0,1,1.4-.671.742.742,0,0,1,.553.138,2.088,2.088,0,0,0-.539-.007,2.127,2.127,0,0,0-1.23.7,1.889,1.889,0,0,0-.342.9,1.87,1.87,0,0,0,.118,1.085,1.969,1.969,0,0,0,2.124,1.013,1.856,1.856,0,0,0,1.355-1.894,1.7,1.7,0,0,0-.355-1.02,1.823,1.823,0,0,0-.783-.559,2.125,2.125,0,0,0-1.421-.046C209.651,256.957,209.493,257.082,209.473,257.056Z" transform="translate(-208.614 -256.529)" fill="#455a64"/>
            </g>
          </g>
        </g>
        <g id="Group_64358" data-name="Group 64358" transform="translate(0 40.854)">
          <g id="Group_64321" data-name="Group 64321" transform="translate(0 15.548)">
            <path id="Path_61221" data-name="Path 61221" d="M140.848,160.25c-.362.441-10.911,7.162-12.5,11.49s.967,21.98,1.408,25.032,6.426,14.574,6.426,14.574-1.256,4.972.395,8.037a11.141,11.141,0,0,0,4.6,4.433l10.6-5.807-6.59-29.767Z" transform="translate(-127.836 -160.25)" fill="#1794c9"/>
          </g>
          <g id="Group_64322" data-name="Group 64322" transform="translate(7.591 45.46)">
            <path id="Path_61222" data-name="Path 61222" d="M145.95,207.085c.3-.427.71-.7.96-1.026s.789-.467,1.052-.158c.3.355-.026.875-.342,1.217,1.072.046,1.881-1.414,2.914-1.125a1.291,1.291,0,0,1,.651,1.743,3.306,3.306,0,0,1-1.493,1.427,5.343,5.343,0,0,0-1.684,1.236c-.224.289-.368.73-.125,1.006.408.467,1.375-.085,1.736.421.25.342-.053.8-.335,1.111-1.033,1.131-2.072,2.263-3.1,3.394a2.284,2.284,0,0,1-.954.73.8.8,0,0,1-1.013-.414.937.937,0,0,1,.513-.98,7.971,7.971,0,0,0,1.039-.579.77.77,0,0,0,.191-1.052c-.342-.355-.934-.059-1.329.25q-1.815,1.421-3.617,2.841a1.857,1.857,0,0,1-.881.467.654.654,0,0,1-.75-.506.9.9,0,0,1,.158-.493,8.994,8.994,0,0,1,2.664-2.9,4.62,4.62,0,0,0,1.158-.947,1.2,1.2,0,0,0,.118-1.394,12.6,12.6,0,0,1-2.341,1.743c-.3.178-.73.316-.954.053s.007-.684.243-.954q1.874-2.2,3.749-4.393a1.828,1.828,0,0,1,1.184-.8Z" transform="translate(-139.378 -205.73)" fill="#fff"/>
          </g>
          <g id="Group_64323" data-name="Group 64323" transform="translate(9.899 0.066)">
            <path id="Path_61223" data-name="Path 61223" d="M154.49,142.345l-2.953,5.415-7.807,6.255a89.579,89.579,0,0,0-.085,23.69s11.4,30.912,11.687,32.26c.52,2.506,5.123,4.617,5.123,4.617s17.376.158,23.348-.7,20.415-9.964,21.776-11.181,2.94-7.024,2.94-7.024l-10.628-29.767-.6-20.941-15.883-4.078-5.393-4.176Z" transform="translate(-142.886 -136.71)" fill="#1794c9"/>
            <g id="Group_117503" data-name="Group 117503" transform="translate(-2151.081 1026.407) rotate(-25)">
              <g id="Group_64331" data-name="Group 64331" transform="translate(2395.939 -2.043)">
                <path id="Path_61229" data-name="Path 61229" d="M155.568,173.881c.007.007.066-.059.171-.2.125-.158.276-.355.467-.6.408-.526,1-1.289,1.776-2.236a73.024,73.024,0,0,1,6.86-7.3l-.263-.112c.072,3.012.151,6.393.23,9.958.007.316.013.625.02.914l.02.7.309-.631c2.789-5.729,5.294-10.879,7.123-14.634.881-1.848,1.6-3.348,2.111-4.42.23-.5.414-.9.559-1.21a2.071,2.071,0,0,0,.171-.427,2.041,2.041,0,0,0-.237.4c-.158.3-.362.691-.612,1.177-.539,1.065-1.289,2.552-2.21,4.374-1.855,3.742-4.393,8.879-7.215,14.588l.322.072c-.007-.289-.013-.605-.02-.914-.092-3.565-.184-6.945-.263-9.958l-.007-.349-.25.237a66.386,66.386,0,0,0-6.794,7.412c-.756.967-1.328,1.749-1.71,2.3-.171.257-.316.46-.428.625A1.064,1.064,0,0,0,155.568,173.881Z" transform="translate(-155.567 -153.69)" fill="#263238"/>
              </g>
            </g>
            <g id="Group_117504" data-name="Group 117504" transform="translate(-2150.489 1026.205) rotate(-25)" opacity="0.3">
              <g id="Group_64356" data-name="Group 64356" transform="translate(2395.924 -1.998)">
                <path id="Path_61244" data-name="Path 61244" d="M174.573,153.86a90.449,90.449,0,0,1-11.194,25.1,14.478,14.478,0,0,1-2.21-9.622,11.174,11.174,0,0,1-5.439,3.828,52.508,52.508,0,0,1,8.458-9.556s.283,11.168.27,10.878c3.44-6.926,6.787-13.733,10.115-20.632" transform="translate(-155.73 -153.86)"/>
              </g>
            </g>
          </g>
          <g id="Group_64324" data-name="Group 64324" transform="translate(59.648 26.282)">
            <path id="Path_61224" data-name="Path 61224" d="M225.1,177.925c.3-.428.71-.7.96-1.026s.789-.467,1.052-.158c.3.355-.026.875-.342,1.217,1.072.046,1.881-1.414,2.914-1.125a1.291,1.291,0,0,1,.651,1.743A3.307,3.307,0,0,1,228.842,180a5.348,5.348,0,0,0-1.684,1.236c-.224.289-.368.73-.125,1.006.408.467,1.374-.086,1.736.421.25.342-.052.8-.335,1.112-1.033,1.131-2.072,2.263-3.1,3.394a2.284,2.284,0,0,1-.954.73.8.8,0,0,1-1.013-.414.937.937,0,0,1,.513-.98,7.941,7.941,0,0,0,1.039-.579.769.769,0,0,0,.191-1.052c-.342-.355-.934-.059-1.329.25-1.2.947-2.414,1.894-3.617,2.841a1.857,1.857,0,0,1-.881.467.654.654,0,0,1-.75-.506.9.9,0,0,1,.158-.493,8.995,8.995,0,0,1,2.664-2.9,4.623,4.623,0,0,0,1.158-.947,1.2,1.2,0,0,0,.118-1.394,12.6,12.6,0,0,1-2.341,1.743c-.3.178-.73.316-.954.053s.007-.684.243-.954q1.874-2.2,3.749-4.393a1.829,1.829,0,0,1,1.184-.8Z" transform="translate(-218.528 -176.57)" fill="#fff"/>
          </g>
          <g id="Group_64325" data-name="Group 64325" transform="translate(63.694 8.353)">
            <path id="Path_61225" data-name="Path 61225" d="M225.029,149.31s8.793,3.052,11.089,8.333,11.115,30.267,10.569,34.832-2.026,9.879-6,10.109-8.557-3.821-8.557-3.821l-3.578-5.821.191-6.1-4.058-16.232Z" transform="translate(-224.68 -149.31)" fill="#1794c9"/>
          </g>
          <g id="Group_64326" data-name="Group 64326" transform="translate(19.714)">
            <path id="Path_61226" data-name="Path 61226" d="M160.066,145.972c.007.033,15.91,21.352,15.91,21.352l2.466-20.579.33-8.367-17.816,5.66Z" transform="translate(-157.81 -136.61)" fill="#ae7461"/>
          </g>
          <g id="Group_64328" data-name="Group 64328" transform="translate(39.063 6.617)" opacity="0.3">
            <g id="Group_64327" data-name="Group 64327">
              <path id="Path_61227" data-name="Path 61227" d="M205.369,146.92a4.037,4.037,0,0,0-3.446.4c-6.143,2.9-12.818,6.412-14.621,12.963l-.072,3.959c.566,2.381,3.032,3.953,5.472,4.157a13.43,13.43,0,0,0,7.024-1.8,37.35,37.35,0,0,0,5.59-3.466,4.791,4.791,0,0,0,2.164-2.828c.243-1.644-1.131-3.071-1.447-4.709-.3-1.519.362-3.045.664-4.564S206.757,147.611,205.369,146.92Z" transform="translate(-187.23 -146.67)"/>
            </g>
          </g>
          <g id="Group_64330" data-name="Group 64330" transform="translate(10.65 41.066)">
            <g id="Group_64329" data-name="Group 64329">
              <path id="Path_61228" data-name="Path 61228" d="M144.03,199.05a1.63,1.63,0,0,1,.178.381c.112.289.263.664.447,1.118.381.973.914,2.394,1.559,4.15,1.3,3.512,2.953,8.412,4.821,13.805.934,2.7,1.855,5.255,2.69,7.583.427,1.164.809,2.276,1.223,3.288a15.644,15.644,0,0,0,1.388,2.7,10.277,10.277,0,0,0,3.1,3.058c.888.546,1.434.756,1.414.789a1.8,1.8,0,0,1-.395-.145,9.776,9.776,0,0,1-1.085-.533,9.959,9.959,0,0,1-3.229-3.039,16.011,16.011,0,0,1-1.447-2.723c-.427-1.019-.822-2.131-1.256-3.288-.855-2.322-1.782-4.88-2.723-7.577-1.835-5.387-3.5-10.26-4.722-13.838-.605-1.736-1.1-3.157-1.453-4.183-.158-.467-.283-.848-.382-1.144A1.855,1.855,0,0,1,144.03,199.05Z" transform="translate(-144.029 -199.05)" fill="#263238"/>
            </g>
          </g>
          <g id="Group_64332" data-name="Group 64332" transform="translate(18.239 11.233)">
            <g id="Group_64331-2" data-name="Group 64331">
              <path id="Path_61229-2" data-name="Path 61229" d="M175.122,173.881c-.007.007-.066-.059-.171-.2-.125-.158-.276-.355-.467-.6-.408-.526-1-1.289-1.776-2.236a73.024,73.024,0,0,0-6.86-7.3l.263-.112c-.072,3.012-.151,6.393-.23,9.957-.007.316-.013.625-.02.914l-.02.7-.309-.631c-2.789-5.729-5.294-10.878-7.123-14.634-.881-1.848-1.6-3.348-2.111-4.42-.23-.5-.414-.9-.559-1.21a2.071,2.071,0,0,1-.171-.427,2.042,2.042,0,0,1,.237.4c.158.3.362.691.612,1.177.539,1.065,1.289,2.552,2.21,4.374,1.855,3.742,4.393,8.879,7.215,14.588l-.322.072c.007-.289.013-.605.02-.914.092-3.565.184-6.945.263-9.958l.007-.349.25.237a66.384,66.384,0,0,1,6.794,7.412c.756.967,1.328,1.749,1.71,2.3.171.257.316.46.428.625A1.064,1.064,0,0,1,175.122,173.881Z" transform="translate(-155.567 -153.69)" fill="#263238"/>
            </g>
          </g>
          <g id="Group_64334" data-name="Group 64334" transform="translate(39.727 47.492)">
            <g id="Group_64333" data-name="Group 64333">
              <path id="Path_61230" data-name="Path 61230" d="M212.167,208.82c.066.066-5.235,5.742-11.838,12.674S188.305,234,188.24,233.931s5.235-5.742,11.845-12.674S212.1,208.754,212.167,208.82Z" transform="translate(-188.239 -208.819)" fill="#263238"/>
            </g>
          </g>
          <g id="Group_64336" data-name="Group 64336" transform="translate(49.333 62.369)">
            <g id="Group_64335" data-name="Group 64335">
              <path id="Path_61231" data-name="Path 61231" d="M207.307,245.166a17.287,17.287,0,0,1-.506-2.059c-.3-1.276-.743-3.025-1.361-4.92s-1.283-3.578-1.789-4.782a17.762,17.762,0,0,1-.8-1.966,10.39,10.39,0,0,1,1.019,1.868,38.922,38.922,0,0,1,1.894,4.775,40.2,40.2,0,0,1,1.269,4.979A10.422,10.422,0,0,1,207.307,245.166Z" transform="translate(-202.844 -231.439)" fill="#263238"/>
            </g>
          </g>
          <g id="Group_64338" data-name="Group 64338" transform="translate(0.62 34.118)">
            <g id="Group_64337" data-name="Group 64337">
              <path id="Path_61232" data-name="Path 61232" d="M137.428,194.342a40.449,40.449,0,0,1-4.42-2.782,40.084,40.084,0,0,1-4.229-3.071,40.412,40.412,0,0,1,4.42,2.782A39.247,39.247,0,0,1,137.428,194.342Z" transform="translate(-128.778 -188.485)" fill="#263238"/>
            </g>
          </g>
          <g id="Group_64340" data-name="Group 64340" transform="translate(63.152 26.722)">
            <g id="Group_64339" data-name="Group 64339">
              <path id="Path_61233" data-name="Path 61233" d="M240.4,212.137a1.053,1.053,0,0,1-.23.02c-.184,0-.408.007-.677.013a5.814,5.814,0,0,1-1.085-.092,8.944,8.944,0,0,1-1.434-.316,9.64,9.64,0,0,1-3.394-1.966,11.749,11.749,0,0,1-2.914-4.1v-.02c-.618-2.5-1.3-5.275-2.026-8.195-1.342-5.564-2.558-10.6-3.453-14.292-.421-1.8-.763-3.275-1.006-4.341q-.158-.73-.257-1.184a1.923,1.923,0,0,1-.066-.421,1.8,1.8,0,0,1,.132.4c.085.3.191.691.322,1.171.276,1.059.651,2.526,1.112,4.314.914,3.69,2.164,8.714,3.545,14.265.71,2.927,1.388,5.7,1.993,8.2l-.007-.02a11.561,11.561,0,0,0,2.8,4.019,9.492,9.492,0,0,0,3.275,1.98A13.526,13.526,0,0,0,240.4,212.137Z" transform="translate(-223.855 -177.24)" fill="#263238"/>
            </g>
          </g>
          <g id="Group_64342" data-name="Group 64342" transform="translate(8.279 61.985)">
            <g id="Group_64341" data-name="Group 64341">
              <path id="Path_61234" data-name="Path 61234" d="M147.6,230.9a12.447,12.447,0,0,1-1.3.289,8.972,8.972,0,0,0-2.874,1.289,9.208,9.208,0,0,0-2.249,2.21,12.949,12.949,0,0,1-.743,1.1,3.294,3.294,0,0,1,.539-1.236,7.909,7.909,0,0,1,5.281-3.6A3.182,3.182,0,0,1,147.6,230.9Z" transform="translate(-140.423 -230.855)" fill="#263238"/>
            </g>
          </g>
          <g id="Group_64344" data-name="Group 64344" transform="translate(9.211 61.266)">
            <g id="Group_64343" data-name="Group 64343">
              <path id="Path_61235" data-name="Path 61235" d="M148.2,229.774a13.744,13.744,0,0,1-6.36,1.585c-.013-.1,1.44-.3,3.19-.737S148.16,229.682,148.2,229.774Z" transform="translate(-141.84 -229.763)" fill="#263238"/>
            </g>
          </g>
          <g id="Group_64345" data-name="Group 64345" transform="translate(6.94 23.388)">
            <path id="Path_61236" data-name="Path 61236" d="M144.96,173.525c.3-.427.71-.7.96-1.026s.789-.467,1.052-.158c.3.355-.026.875-.342,1.217,1.072.046,1.881-1.414,2.914-1.125a1.291,1.291,0,0,1,.651,1.743A3.307,3.307,0,0,1,148.7,175.6a5.346,5.346,0,0,0-1.684,1.236c-.224.289-.368.73-.125,1.006.408.467,1.375-.086,1.736.421.25.342-.053.8-.335,1.112-1.033,1.131-2.072,2.262-3.1,3.394a2.284,2.284,0,0,1-.954.73.808.808,0,0,1-1.013-.414.936.936,0,0,1,.513-.98,7.949,7.949,0,0,0,1.039-.579c.3-.256.467-.763.191-1.046-.342-.355-.934-.059-1.329.25-1.2.947-2.414,1.894-3.617,2.841a1.855,1.855,0,0,1-.881.467.654.654,0,0,1-.75-.506.9.9,0,0,1,.158-.493,8.993,8.993,0,0,1,2.664-2.9,4.622,4.622,0,0,0,1.158-.947,1.2,1.2,0,0,0,.118-1.394,12.6,12.6,0,0,1-2.341,1.743c-.3.178-.73.316-.954.053s.007-.684.243-.954q1.875-2.2,3.749-4.393a1.828,1.828,0,0,1,1.184-.8Z" transform="translate(-138.388 -172.17)" fill="#fff"/>
          </g>
          <g id="Group_64346" data-name="Group 64346" transform="translate(34.577 32.319)">
            <path id="Path_61237" data-name="Path 61237" d="M186.98,187.1c.3-.428.71-.7.96-1.026s.789-.467,1.052-.158c.3.355-.026.875-.342,1.217,1.072.046,1.881-1.414,2.914-1.125a1.291,1.291,0,0,1,.651,1.743,3.307,3.307,0,0,1-1.493,1.427,5.346,5.346,0,0,0-1.684,1.237c-.224.289-.368.73-.125,1.006.408.467,1.375-.085,1.736.421.25.342-.053.8-.335,1.112-1.033,1.131-2.072,2.262-3.1,3.394a2.284,2.284,0,0,1-.954.73.8.8,0,0,1-1.013-.414.936.936,0,0,1,.513-.98,7.94,7.94,0,0,0,1.039-.579.769.769,0,0,0,.191-1.052c-.342-.355-.934-.059-1.329.25-1.2.947-2.414,1.894-3.617,2.841a1.858,1.858,0,0,1-.881.467.654.654,0,0,1-.75-.506.9.9,0,0,1,.158-.493,8.994,8.994,0,0,1,2.664-2.9,4.621,4.621,0,0,0,1.158-.947,1.2,1.2,0,0,0,.118-1.394,12.594,12.594,0,0,1-2.341,1.743c-.3.178-.73.316-.954.053s.006-.684.243-.954q1.874-2.2,3.749-4.393a1.828,1.828,0,0,1,1.184-.8Z" transform="translate(-180.408 -185.75)" fill="#fff"/>
          </g>
          <g id="Group_64347" data-name="Group 64347" transform="translate(24.054 58.502)">
            <path id="Path_61238" data-name="Path 61238" d="M170.98,226.915c.3-.428.71-.7.96-1.026s.789-.467,1.052-.158c.3.355-.026.875-.342,1.217,1.072.046,1.881-1.414,2.914-1.125a1.291,1.291,0,0,1,.651,1.743,3.307,3.307,0,0,1-1.493,1.427,5.346,5.346,0,0,0-1.684,1.236c-.224.289-.368.73-.125,1.006.408.467,1.375-.086,1.736.421.25.342-.053.8-.336,1.111-1.033,1.131-2.072,2.263-3.1,3.394a2.285,2.285,0,0,1-.954.73.808.808,0,0,1-1.013-.414.936.936,0,0,1,.513-.98,7.95,7.95,0,0,0,1.039-.579.769.769,0,0,0,.191-1.052c-.342-.355-.934-.059-1.329.25q-1.815,1.421-3.617,2.841a1.856,1.856,0,0,1-.881.467.654.654,0,0,1-.75-.507.9.9,0,0,1,.158-.493,8.995,8.995,0,0,1,2.664-2.9,4.618,4.618,0,0,0,1.158-.947,1.2,1.2,0,0,0,.118-1.394,12.591,12.591,0,0,1-2.341,1.743c-.3.178-.73.316-.954.053s.007-.684.243-.954q1.874-2.2,3.749-4.393a1.828,1.828,0,0,1,1.184-.8Z" transform="translate(-164.408 -225.56)" fill="#fff"/>
          </g>
          <g id="Group_64348" data-name="Group 64348" transform="translate(55.465 56.2)">
            <path id="Path_61239" data-name="Path 61239" d="M218.74,223.415c.3-.428.71-.7.96-1.026s.789-.467,1.052-.158c.3.355-.026.875-.342,1.217,1.072.046,1.881-1.414,2.913-1.125a1.291,1.291,0,0,1,.651,1.743,3.307,3.307,0,0,1-1.493,1.427,5.346,5.346,0,0,0-1.684,1.236c-.224.289-.368.73-.125,1.006.408.467,1.375-.085,1.736.421.25.342-.053.8-.335,1.112-1.033,1.131-2.072,2.263-3.1,3.394a2.285,2.285,0,0,1-.954.73.8.8,0,0,1-1.013-.414.936.936,0,0,1,.513-.98,7.931,7.931,0,0,0,1.039-.579.769.769,0,0,0,.191-1.052c-.342-.355-.934-.059-1.328.25-1.2.947-2.414,1.894-3.617,2.841a1.856,1.856,0,0,1-.881.467.654.654,0,0,1-.75-.506.9.9,0,0,1,.158-.493,8.994,8.994,0,0,1,2.664-2.9,4.618,4.618,0,0,0,1.158-.947,1.2,1.2,0,0,0,.118-1.394,12.6,12.6,0,0,1-2.341,1.743c-.3.178-.73.316-.954.053s.007-.684.243-.954q1.875-2.2,3.749-4.393a1.828,1.828,0,0,1,1.184-.8Z" transform="translate(-212.168 -222.06)" fill="#fff"/>
          </g>
          <g id="Group_64350" data-name="Group 64350" transform="translate(37.832 31.714)">
            <g id="Group_64349" data-name="Group 64349">
              <path id="Path_61240" data-name="Path 61240" d="M197.566,214.189c-.013.007-.072-.086-.178-.27-.125-.217-.276-.487-.46-.809-.395-.7-.94-1.73-1.6-3.019-1.315-2.565-3.032-6.163-4.722-10.227s-3.032-7.82-3.92-10.563c-.447-1.368-.789-2.486-1.013-3.262-.1-.355-.178-.651-.25-.894a1.621,1.621,0,0,1-.066-.316,1.169,1.169,0,0,1,.132.3c.086.237.184.526.309.875.283.809.658,1.9,1.111,3.223.947,2.716,2.322,6.452,4.005,10.51s3.361,7.662,4.617,10.253c.618,1.256,1.125,2.289,1.5,3.065.158.335.3.612.4.835C197.533,214.084,197.579,214.183,197.566,214.189Z" transform="translate(-185.358 -184.83)" fill="#263238"/>
            </g>
          </g>
          <g id="Group_64351" data-name="Group 64351" transform="translate(77.117 42.744)">
            <path id="Path_61241" data-name="Path 61241" d="M253.7,209.848c.007.493-2.269,1.519-2.762,1.473l-.572-.178c-.368.375-.816.585-1.1.868s-.855.342-1.059-.007c-.237-.395.164-.862.526-1.151-1.052-.211-2.078,1.111-3.052.664a1.3,1.3,0,0,1-.375-1.822,3.233,3.233,0,0,1,1.7-1.177,5.307,5.307,0,0,0,1.855-.96.831.831,0,0,0,.283-.973c-.335-.526-1.368-.132-1.651-.684-.191-.375.171-.783.506-1.046,1.2-.96,2.835-2.3,4.025-3.256C252,201.593,253.653,207.6,253.7,209.848Z" transform="translate(-245.088 -201.6)" fill="#fff"/>
          </g>
          <g id="Group_64353" data-name="Group 64353" transform="translate(39.899 48.821)" opacity="0.3">
            <g id="Group_64352" data-name="Group 64352">
              <path id="Path_61242" data-name="Path 61242" d="M188.5,234.254c9.543-5.2,18.047-13.575,22.664-23.414Z" transform="translate(-188.5 -210.84)"/>
            </g>
          </g>
          <g id="Group_64355" data-name="Group 64355" transform="translate(8.283 60.801)" opacity="0.3">
            <g id="Group_64354" data-name="Group 64354">
              <path id="Path_61243" data-name="Path 61243" d="M140.43,235.168c1.868-4.012,5.544-5.117,9.116-5.064a.864.864,0,0,0-.612-.973,2.467,2.467,0,0,0-1.256.02,14.04,14.04,0,0,0-4.933,1.69,4.94,4.94,0,0,0-2.256,4.2" transform="translate(-140.43 -229.055)"/>
            </g>
          </g>
          <g id="Group_64357" data-name="Group 64357" transform="translate(18.346 11.345)" opacity="0.3">
            <g id="Group_64356-2" data-name="Group 64356">
              <path id="Path_61244-2" data-name="Path 61244" d="M155.73,153.86a90.447,90.447,0,0,0,11.194,25.1,14.477,14.477,0,0,0,2.21-9.622,11.175,11.175,0,0,0,5.439,3.828,52.509,52.509,0,0,0-8.458-9.556s-.283,11.168-.27,10.878c-3.44-6.926-6.787-13.733-10.115-20.632" transform="translate(-155.73 -153.86)"/>
            </g>
          </g>
        </g>
        <g id="Group_64535" data-name="Group 64535" transform="translate(59.814 34.356)">
          <g id="Group_64530" data-name="Group 64530">
            <path id="Path_61265" data-name="Path 61265" d="M223.568,154.781l-4.479-7.057-.309-6.939,1.756-4.749s1.4-.335,1.631,1.335a9.12,9.12,0,0,1-.52,3.7l.96,3.367s.316.362.612-1.039S223,131.61,223,130.893s.053-2.414,1.111-2.256,1.394,1.559,1.4,2.276.776,7.682.776,7.682.25.625.5.539-.217-7.478-.27-8.649-.309-3.749,1.059-3.755,1.368,1.3,1.447,2.723.973,9.425.973,9.425.21.5.4-.171.441-9.366.592-9.773.947-.941,1.572.04.474,3.275.388,7.333c-.079,3.65-.191,5.17.23,5.452s1.96-1.96,1.96-1.96,1.868-4.814,3.453-4.643.52,1.4.25,2.519c-.23.947-3,6.6-3.058,6.649s-2.782,10.1-2.782,10.1l6,11.49a10.767,10.767,0,0,1,1.164,6.524,7.278,7.278,0,0,1-5.216,6.314A5.444,5.444,0,0,1,229.06,177a8.735,8.735,0,0,1-2.124-4.4c-.776-4.433-3.368-17.817-3.368-17.817Z" transform="translate(-218.78 -126.73)" fill="#ae7461"/>
          </g>
          <g id="Group_64532" data-name="Group 64532" transform="translate(3.664 17.366)">
            <g id="Group_64531" data-name="Group 64531">
              <path id="Path_61266" data-name="Path 61266" d="M229.948,158.755c-.059-.007.007-.533-.138-1.355a5.436,5.436,0,0,0-1.46-2.821,3.79,3.79,0,0,0-2.263-1.151,2.336,2.336,0,0,0-1.539.349l-.059.04-.026-.059c-.092-.191-.125-.289-.105-.3s.092.072.21.237l-.092-.02a2.2,2.2,0,0,1,1.631-.533,3.854,3.854,0,0,1,2.479,1.184,5.142,5.142,0,0,1,1.454,3.025A2.78,2.78,0,0,1,229.948,158.755Z" transform="translate(-224.352 -153.134)" fill="#77574a"/>
            </g>
          </g>
          <g id="Group_64534" data-name="Group 64534" transform="translate(10.841 17.645)">
            <g id="Group_64533" data-name="Group 64533">
              <path id="Path_61267" data-name="Path 61267" d="M237.465,153.566c.059.079-.546.6-1.138,1.368a14.41,14.41,0,0,1-1.046,1.44,4.148,4.148,0,0,1,2.184-2.808Z" transform="translate(-235.264 -153.558)" fill="#77574a"/>
            </g>
          </g>
        </g>
        <g id="Group_64536" data-name="Group 64536" transform="translate(12.081 111.239)">
          <path id="Path_61268" data-name="Path 61268" d="M146.208,247.227a12.18,12.18,0,0,0,3.21,7.932,61.682,61.682,0,0,0,4.657,4.545l11.326,5.084s2.953.447,5.932-2.44a9.686,9.686,0,0,0,2.3-2.96s3.4,1.519,4.722,1.46c2.236-.1,1.881-1.677,1.881-1.677s-7.478-4.117-9.254-5.709-6.893-2.637-10.523-2.164l-2.1-.414-.763-2.828s-4.1-6.117-7.866-3.973S146.208,247.227,146.208,247.227Z" transform="translate(-146.205 -243.627)" fill="#ae7461"/>
        </g>
        <g id="Group_94956" data-name="Group 94956" transform="translate(-6.857 -13.783) rotate(-5)">
          <path id="Path_78135" data-name="Path 78135" d="M401.042,32.872a3.59,3.59,0,0,1,4.1-3.085,4.6,4.6,0,0,1,6.084-1.858c.983.546,1.727,1.448,2.688,2.034.924.564,2,.807,2.976,1.276a3.283,3.283,0,0,1,2.029,2.35,2.846,2.846,0,0,1-1.93,2.742,8.3,8.3,0,0,1-3.563.32,1.248,1.248,0,0,1,.37,1.605,2.535,2.535,0,0,1-1.38,1.114,5.484,5.484,0,0,1-5.619-1.037L404.55,36.61A3.6,3.6,0,0,1,401.042,32.872Z" transform="translate(-370.76 -23.949)" fill="#263238"/>
          <path id="Path_78136" data-name="Path 78136" d="M428.618,51.077a1.192,1.192,0,0,0,1.583-.027,1.6,1.6,0,0,0,.383-1.614,2.507,2.507,0,0,0-1.073-1.335,6.009,6.009,0,0,0-1.605-.676,11.069,11.069,0,0,0-2.647-.5,2.209,2.209,0,0,0-.943.113.9.9,0,0,0-.573.708c-.036.446.356.8.717,1.069a27.519,27.519,0,0,0,4.289,2.6" transform="translate(-392.726 -34.65)" fill="#1794c9"/>
          <path id="Path_78137" data-name="Path 78137" d="M400.432,49.337c2.129-2.377,7.427-2.056,8.695-.514a4.04,4.04,0,0,1,5.3,1.723l5.642,1.191a5.883,5.883,0,0,1,2.715,1.073,2.019,2.019,0,0,1,.492,2.629,3.062,3.062,0,0,1,1.326,4.889,2.138,2.138,0,0,1-.293,3.094,21.351,21.351,0,0,1,3.675,6.25,4.338,4.338,0,0,1,.3,2.967,1.737,1.737,0,0,1-2.422,1.033,2.5,2.5,0,0,1,.135,2.7c.952.018,1.249,1.488.6,2.187a3.477,3.477,0,0,1-2.665.762,4.594,4.594,0,0,0-2.765.492.869.869,0,0,0,.316.6,3.919,3.919,0,0,1,.911,5.335c-.113.158-.216.307-.311.442a8.556,8.556,0,0,1-2.755,1.966c-2.147,1.141-3.432.934-5.836,1.3.668,1.547-3.215,5.01-7.712,1.664a86.185,86.185,0,0,1-24.573,3.5c-1.317.014-2.9-.153-3.5-1.33a3.275,3.275,0,0,1-3.021-.965,9.617,9.617,0,0,1-1.786-2.773,5.744,5.744,0,0,1-4.171-5.146,7.1,7.1,0,0,1-2.715-5.028,4.163,4.163,0,0,1-2.426-5.606,25.166,25.166,0,0,1,2.688-7.8c-1.515-.316-2.1-2.35-1.484-3.77a7.936,7.936,0,0,1,3.279-3.179c-1.127.311-2.124-1.1-1.863-2.241a4.464,4.464,0,0,1,2.277-2.539,21.37,21.37,0,0,1,4.668-2.124c.523-1.993,3.049-4.275,4.907-5.173,7.477-3.626,12.74-4.564,22.364,2.386" transform="translate(-363.223 -33.135)" fill="#263238"/>
          <path id="Path_78138" data-name="Path 78138" d="M439.794,72.3c.1-1.578.365-3.143-1.2-3.382L422.626,64.1c-5.15-.78-8.875,5.434-9.439,10.611-.622,5.75-1.159,12.8-.672,17.132a13.184,13.184,0,0,0,8.663,11.058c0-.009-.2,5.285-.2,5.285.663,4.068,4.636,7.869,6.287,9.5,5.651-1.055,11.95-12.7,11.95-12.7Z" transform="translate(-396.8 -44.046)" fill="#ae7461"/>
          <g id="Group_94937" data-name="Group 94937" transform="translate(24.302 55.351)">
            <g id="Group_94936" data-name="Group 94936" transform="translate(0)">
              <g id="Group_94935" data-name="Group 94935">
                <g id="Group_94934" data-name="Group 94934">
                  <g id="Group_94933" data-name="Group 94933">
                    <g id="Group_94932" data-name="Group 94932">
                      <path id="Path_78139" data-name="Path 78139" d="M430.287,145.959a28.566,28.566,0,0,0,10.634-3.509s-2.007,5.461-10.711,6.129Z" transform="translate(-430.21 -142.45)" fill="#6f4439"/>
                    </g>
                  </g>
                </g>
              </g>
            </g>
          </g>
          <g id="Group_94940" data-name="Group 94940" transform="translate(18.332 29.171)">
            <g id="Group_94939" data-name="Group 94939" transform="translate(0)">
              <g id="Group_94938" data-name="Group 94938">
                <path id="Path_78140" data-name="Path 78140" d="M458.121,85.545c.2.28,1.033.036,2.025.068.992,0,1.817.266,2.025-.009.09-.135-.027-.41-.383-.685a2.927,2.927,0,0,0-3.26-.045C458.162,85.135,458.036,85.405,458.121,85.545Z" transform="translate(-458.095 -84.399)" fill="#263238"/>
              </g>
            </g>
          </g>
          <path id="Path_78141" data-name="Path 78141" d="M427.856,74.837a5.925,5.925,0,0,1,1.439-3.725,21.707,21.707,0,0,0,1.605-1.547c.974-1.281.839-3.058,1.254-4.609a6.547,6.547,0,0,1,4.054-4.4c1.623-.577,3.463-.5,4.988-1.308,1.127-.6,1.984-1.633,3.143-2.165,2.259-1.033,4.879.131,7.013,1.4.424,1.7-.649,3.161-1.687,4.568a6.055,6.055,0,0,1-4.456,2.426c-1.353.081-2.931-.225-3.883.74-1,1.015-.613,2.8-1.439,3.964-1.177,1.664-3.847,1.028-5.606,2.056-1.357.794-1.93,2.417-2.616,3.833S429.8,78.967,428.23,78.9A18.141,18.141,0,0,1,427.856,74.837Z" transform="translate(-415.365 -40.014)" fill="#263238"/>
          <path id="Path_78142" data-name="Path 78142" d="M402.166,67.506a30.7,30.7,0,0,1,11.595,2.1,5.582,5.582,0,0,1,2.855,1.971,5.465,5.465,0,0,1,.6,3c-.041,3.243-1.348,7.211-2.589,10.21l-4.05,2.422c-3.116-.74-1.682-6.124-1.529-8.821a6.377,6.377,0,0,1-3.721-5.628A7.068,7.068,0,0,1,402.166,67.506Z" transform="translate(-369.558 -45.951)" fill="#263238"/>
          <g id="Group_94947" data-name="Group 94947" transform="translate(40.972 38.325)">
            <g id="Group_94946" data-name="Group 94946">
              <g id="Group_94945" data-name="Group 94945">
                <g id="Group_94944" data-name="Group 94944">
                  <g id="Group_94943" data-name="Group 94943">
                    <g id="Group_94942" data-name="Group 94942">
                      <g id="Group_94941" data-name="Group 94941">
                        <path id="Path_78143" data-name="Path 78143" d="M404.828,106.466c.126-1.853,2.4-2.214,4-1.254.875.528,1.533,1.565,1.421,3.531-.307,5.249-5.511,3.86-5.515,3.712C404.729,112.36,404.684,108.635,404.828,106.466Z" transform="translate(-404.722 -104.696)" fill="#ae7461"/>
                      </g>
                    </g>
                  </g>
                </g>
              </g>
            </g>
          </g>
          <g id="Group_94955" data-name="Group 94955" transform="translate(42.692 40.084)">
            <g id="Group_94954" data-name="Group 94954" transform="translate(0)">
              <g id="Group_94953" data-name="Group 94953">
                <g id="Group_94952" data-name="Group 94952">
                  <g id="Group_94951" data-name="Group 94951">
                    <g id="Group_94950" data-name="Group 94950">
                      <g id="Group_94949" data-name="Group 94949">
                        <g id="Group_94948" data-name="Group 94948">
                          <path id="Path_78144" data-name="Path 78144" d="M407.726,112.7c.023-.014.09.068.239.149a.922.922,0,0,0,.681.054,2.254,2.254,0,0,0,1.164-1.971,3.021,3.021,0,0,0-.18-1.326,1.072,1.072,0,0,0-.645-.744.465.465,0,0,0-.555.221c-.077.144-.05.248-.081.257-.014.014-.108-.095-.054-.311a.571.571,0,0,1,.226-.316.7.7,0,0,1,.514-.1,1.287,1.287,0,0,1,.906.87,3.069,3.069,0,0,1,.23,1.484,2.383,2.383,0,0,1-1.466,2.192.973.973,0,0,1-.83-.189C407.731,112.824,407.708,112.706,407.726,112.7Z" transform="translate(-407.721 -108.597)" fill="#6f4439"/>
                        </g>
                      </g>
                    </g>
                  </g>
                </g>
              </g>
            </g>
          </g>
          <path id="Path_78145" data-name="Path 78145" d="M399.4,91.9l.013.068a.633.633,0,0,0,.072.2,1.208,1.208,0,0,0,.609.546,3.253,3.253,0,0,0,1.3.271,4.609,4.609,0,0,0,.843-.054,3.056,3.056,0,0,0,.92-.275l-.063-.032a2.613,2.613,0,0,0,4.158,1.664l-.09-.014a1.071,1.071,0,0,0,.69.46,1.5,1.5,0,0,0,.852-.072,1.4,1.4,0,0,0,.685-.555,1.822,1.822,0,0,0,.266-.866,2.69,2.69,0,0,0-.568-1.75A7.852,7.852,0,0,0,407.7,90.14l-.009.122a1.839,1.839,0,0,0,.834-1.245,2.68,2.68,0,0,0-.149-1.547,4.252,4.252,0,0,0-.916-1.312,12.5,12.5,0,0,0-1.24-1.051l.009.117a1.984,1.984,0,0,0,.519-1.524,2.879,2.879,0,0,0-.591-1.56,7.063,7.063,0,0,0-2.557-1.79l.041.09a3.488,3.488,0,0,0-3.784-4.307l.081.09a3.007,3.007,0,0,0-.708-2.557,2.963,2.963,0,0,0-2.219-1.091l.068.068a2.958,2.958,0,0,0-1.191-2.291,2.883,2.883,0,0,0-2.2-.609l.059.05a2.933,2.933,0,0,0-.424-1.348,3.693,3.693,0,0,0-.8-.965,3,3,0,0,0-1.795-.776l-.2-.014c-.063,0-.126.009-.185.014-.117.014-.23.014-.334.036a3.767,3.767,0,0,0-.5.14c-.122.054-.221.095-.293.126a.579.579,0,0,0-.095.045s.036-.009.1-.032.171-.063.3-.113a3.34,3.34,0,0,1,.5-.126c.1-.023.212-.018.329-.032.059,0,.117-.009.18-.009s.126.009.194.018a2.986,2.986,0,0,1,1.745.78,3.728,3.728,0,0,1,.771.952,2.785,2.785,0,0,1,.4,1.3v.059l.059-.009a2.771,2.771,0,0,1,2.106.6,2.834,2.834,0,0,1,1.132,2.2V72.7h.068a2.836,2.836,0,0,1,2.111,1.051,2.868,2.868,0,0,1,.672,2.431l-.023.1.1-.014A3.334,3.334,0,0,1,403.5,80.4l-.014.063.059.027a6.937,6.937,0,0,1,2.5,1.745,2.689,2.689,0,0,1,.559,1.47,1.814,1.814,0,0,1-.473,1.4l-.063.063.072.054a6.216,6.216,0,0,1,2.115,2.3,2.572,2.572,0,0,1,.144,1.457,1.7,1.7,0,0,1-.762,1.145l-.09.054.081.068a7.74,7.74,0,0,1,1.362,1.321,2.557,2.557,0,0,1,.55,1.66,1.4,1.4,0,0,1-.861,1.3,1.152,1.152,0,0,1-1.389-.334l-.036-.054-.054.041a2.547,2.547,0,0,1-2.647.248A2.574,2.574,0,0,1,403.2,92.6l-.009-.059-.054.027a3.1,3.1,0,0,1-.893.28,4.481,4.481,0,0,1-.83.063,3.183,3.183,0,0,1-1.281-.248,1.239,1.239,0,0,1-.609-.514A1.685,1.685,0,0,1,399.4,91.9Z" transform="translate(-356.122 -45.505)" fill="#455a64"/>
          <path id="Path_78146" data-name="Path 78146" d="M395.547,82.813a1.788,1.788,0,0,0,.2-.316,2.687,2.687,0,0,0,.28-1.037,2.648,2.648,0,0,0-.428-1.646,2.8,2.8,0,0,0-1.9-1.213l.045.063a3.605,3.605,0,0,0-.474-2.593,3.476,3.476,0,0,0-1.028-1.091A8.352,8.352,0,0,0,390.8,74.3a2.714,2.714,0,0,1-.686-.41,1.751,1.751,0,0,1-.478-.645c-.234-.505-.307-1.1-.6-1.642a3.186,3.186,0,0,0-3.2-1.587l.09.09a4.21,4.21,0,0,0-4.658-4.771l.086.086a3.7,3.7,0,0,0-5.745-3.459l.086.009a5.027,5.027,0,0,0-1.835-1.118,7.706,7.706,0,0,0-1.885-.433,8.852,8.852,0,0,0-3.112.207,6.319,6.319,0,0,0-1.849.767,3.725,3.725,0,0,0-.428.311,1.516,1.516,0,0,0-.14.117c.009.014.2-.149.586-.392a6.381,6.381,0,0,1,1.849-.726,8.782,8.782,0,0,1,3.085-.176,7.463,7.463,0,0,1,1.854.442,4.887,4.887,0,0,1,1.781,1.1l.041.041.045-.032A3.55,3.55,0,0,1,381.2,65.41l-.009.1.1-.014a4.052,4.052,0,0,1,4.483,4.591l-.014.1.1-.018a3.043,3.043,0,0,1,3.04,1.506c.28.505.356,1.1.6,1.628a1.98,1.98,0,0,0,.519.694,3.107,3.107,0,0,0,.722.428,8.2,8.2,0,0,1,1.416.658,3.384,3.384,0,0,1,1,1.046,3.518,3.518,0,0,1,.478,2.507l-.009.054.054.009a2.721,2.721,0,0,1,1.849,1.154,2.608,2.608,0,0,1,.442,1.6,2.791,2.791,0,0,1-.248,1.028C395.62,82.7,395.543,82.809,395.547,82.813Z" transform="translate(-332.264 -42.033)" fill="#455a64"/>
          <path id="Path_78147" data-name="Path 78147" d="M438.387,84.594a.523.523,0,0,0,.018-.428.991.991,0,0,0-.307-.433,1.755,1.755,0,0,0-.649-.325,3.006,3.006,0,0,1-.821-.343,1.625,1.625,0,0,1-.591-.843,3.152,3.152,0,0,1-.131-1.2c.018-.433.086-.893.086-1.384a14.062,14.062,0,0,0-.667-3.1,4.349,4.349,0,0,1-.072-1.727,2.1,2.1,0,0,1,.952-1.475,7.683,7.683,0,0,1,1.84-.622,3.2,3.2,0,0,0,.943-.437,2.1,2.1,0,0,0,.663-.83,10.2,10.2,0,0,0,.555-2.065,3.524,3.524,0,0,1,.365-1,1.6,1.6,0,0,1,.776-.676,5.877,5.877,0,0,1,1.452-.2,2.351,2.351,0,0,0,.735-.185,1.432,1.432,0,0,0,.582-.492,5.157,5.157,0,0,0,.55-1.339,3.257,3.257,0,0,1,.658-1.186,3.166,3.166,0,0,1,2.286-1.091,3.226,3.226,0,0,1,2.228.807l.068.063.041-.086a4.99,4.99,0,0,1,3.121-2.692,4.659,4.659,0,0,1,1.754-.153,4.16,4.16,0,0,1,1.443.4,3.665,3.665,0,0,1,1.533,1.412,3.993,3.993,0,0,1,.262.5c.027.054.045.095.063.131s.022.045.022.041,0-.018-.014-.045-.032-.081-.054-.135a3.208,3.208,0,0,0-.243-.505,3.664,3.664,0,0,0-1.533-1.461,4.192,4.192,0,0,0-1.47-.424,4.674,4.674,0,0,0-1.795.14,5.1,5.1,0,0,0-3.211,2.742l.108-.023a3.378,3.378,0,0,0-2.323-.852,3.306,3.306,0,0,0-2.4,1.136,3.372,3.372,0,0,0-.69,1.236,4.919,4.919,0,0,1-.532,1.3,1.544,1.544,0,0,1-1.2.609,5.98,5.98,0,0,0-1.493.207,1.743,1.743,0,0,0-.852.744,3.591,3.591,0,0,0-.383,1.042,9.9,9.9,0,0,1-.541,2.034,1.946,1.946,0,0,1-.613.771,2.935,2.935,0,0,1-.893.415,7.724,7.724,0,0,0-1.872.645,2.007,2.007,0,0,0-.686.69,2.577,2.577,0,0,0-.325.888,4.439,4.439,0,0,0,.081,1.781,14.511,14.511,0,0,1,.685,3.076c0,.478-.059.938-.077,1.38a3.248,3.248,0,0,0,.149,1.236,1.728,1.728,0,0,0,.631.875,3.108,3.108,0,0,0,.843.338,1.7,1.7,0,0,1,.636.3,1.017,1.017,0,0,1,.307.41A.575.575,0,0,1,438.387,84.594Z" transform="translate(-425.323 -42.398)" fill="#455a64"/>
          <path id="Path_78148" data-name="Path 78148" d="M432.709,71.771a.376.376,0,0,0,.054-.1c.036-.072.086-.171.144-.293.126-.271.311-.649.541-1.141s.505-1.109.884-1.781a4.679,4.679,0,0,1,1.759-1.885c.424-.23.915-.383,1.407-.6a3.421,3.421,0,0,0,.717-.419,1.83,1.83,0,0,0,.537-.685c.248-.546.257-1.164.455-1.727a1.476,1.476,0,0,1,.505-.717,2.894,2.894,0,0,1,.843-.392,5.1,5.1,0,0,0,.929-.356,1.683,1.683,0,0,0,.717-.744,7.709,7.709,0,0,0,.451-2.038,2.58,2.58,0,0,1,.347-.965,1.305,1.305,0,0,1,.834-.55c.69-.144,1.434.1,2.2-.023a1.846,1.846,0,0,0,1.01-.537,4.982,4.982,0,0,0,.654-.9,10.713,10.713,0,0,1,.577-.906,2,2,0,0,1,.771-.658,3.084,3.084,0,0,1,1.984.018,4.548,4.548,0,0,0,1.993.171,5.348,5.348,0,0,0,1.736-.789,9.1,9.1,0,0,1,1.547-.857,5.431,5.431,0,0,1,3.116-.1,5.771,5.771,0,0,1,2.309,1.191,6.323,6.323,0,0,1,1.272,1.506,7.771,7.771,0,0,1,.546,1.127c.05.126.09.23.122.3s.045.1.045.1a.551.551,0,0,0-.032-.108q-.041-.115-.108-.311a6.494,6.494,0,0,0-.523-1.15,6.369,6.369,0,0,0-1.267-1.542,5.9,5.9,0,0,0-2.336-1.231,5.48,5.48,0,0,0-3.188.086,9.421,9.421,0,0,0-1.574.861A5.279,5.279,0,0,1,453,54.4a4.521,4.521,0,0,1-1.93-.176,6.734,6.734,0,0,0-1.024-.18,2.207,2.207,0,0,0-1.06.167,2.182,2.182,0,0,0-.834.708,9.858,9.858,0,0,0-.586.92,4.507,4.507,0,0,1-.631.875,1.688,1.688,0,0,1-.924.492c-.717.117-1.457-.126-2.21.027a1.466,1.466,0,0,0-.929.613,2.731,2.731,0,0,0-.374,1.024,7.743,7.743,0,0,1-.433,2,1.564,1.564,0,0,1-.654.681,5.563,5.563,0,0,1-.9.347,2.937,2.937,0,0,0-.884.415,1.617,1.617,0,0,0-.55.785c-.2.6-.212,1.209-.442,1.718a2.148,2.148,0,0,1-1.182,1.046c-.483.216-.974.374-1.411.613a4.728,4.728,0,0,0-1.781,1.939c-.379.685-.636,1.3-.866,1.8s-.392.879-.514,1.15c-.054.126-.1.225-.131.3A.393.393,0,0,0,432.709,71.771Z" transform="translate(-429.833 -37.707)" fill="#455a64"/>
          <path id="Path_78149" data-name="Path 78149" d="M467.563,83.038a.322.322,0,0,0-.095-.018.537.537,0,0,0-.28.063,1.123,1.123,0,0,0-.523.929,2.8,2.8,0,0,0,.113.785,3.238,3.238,0,0,1,.135.911,2.051,2.051,0,0,1-.37.97c-.2.316-.465.627-.672,1.006A1.5,1.5,0,0,0,465.741,89c.167.446.492.821.649,1.276a1.958,1.958,0,0,1-.144,1.443c-.2.478-.5.947-.7,1.479a2.261,2.261,0,0,0-.167.852,2.169,2.169,0,0,0,.2.87,10.05,10.05,0,0,0,1,1.5,2.432,2.432,0,0,1,.555,1.664,7.978,7.978,0,0,1-.636,1.772,2.707,2.707,0,0,0-.194.965,2.109,2.109,0,0,0,.248.943,8,8,0,0,0,1.132,1.484,4.214,4.214,0,0,1,.915,1.488,12.894,12.894,0,0,0,.546,1.637,1.914,1.914,0,0,0,.532.663,2.354,2.354,0,0,0,.744.356,5.737,5.737,0,0,1,.726.262,2.691,2.691,0,0,1,.609.415,5.476,5.476,0,0,1,.861,1.123c.239.392.465.776.717,1.118a3.615,3.615,0,0,0,1.831,1.348,3.868,3.868,0,0,0,1.714.167,3.281,3.281,0,0,0,1.046-.307,2.942,2.942,0,0,0,.329-.189,4.024,4.024,0,0,1-1.384.433,3.811,3.811,0,0,1-1.678-.189,3.513,3.513,0,0,1-1.768-1.33c-.243-.338-.464-.722-.7-1.118a5.341,5.341,0,0,0-.875-1.154,2.832,2.832,0,0,0-.64-.442,6.946,6.946,0,0,0-.744-.271,2.284,2.284,0,0,1-.7-.338,1.689,1.689,0,0,1-.487-.618,13.085,13.085,0,0,1-.532-1.619,4.457,4.457,0,0,0-.943-1.538,8.076,8.076,0,0,1-1.109-1.457,1.976,1.976,0,0,1-.23-.875,2.561,2.561,0,0,1,.185-.906,8.068,8.068,0,0,0,.645-1.808,2,2,0,0,0-.126-.952,3.689,3.689,0,0,0-.455-.816,10.1,10.1,0,0,1-.988-1.47,2.032,2.032,0,0,1-.189-.807,2.233,2.233,0,0,1,.158-.8c.19-.514.478-.979.69-1.475a2.092,2.092,0,0,0,.14-1.542c-.176-.487-.505-.857-.663-1.276a1.4,1.4,0,0,1,.117-1.227c.2-.365.456-.676.658-1A2.15,2.15,0,0,0,467,85.712a3.291,3.291,0,0,0-.149-.934,2.57,2.57,0,0,1-.122-.762,1.1,1.1,0,0,1,.478-.906A.684.684,0,0,1,467.563,83.038Z" transform="translate(-459.099 -54.471)" fill="#455a64"/>
          <path id="Path_78150" data-name="Path 78150" d="M406.358,120.137a2.764,2.764,0,0,1,.785.455,3.554,3.554,0,0,1,1.276,2.1,3.733,3.733,0,0,1-.041,1.723,4.208,4.208,0,0,1-.961,1.727,4.287,4.287,0,0,1-1.826,1.2,3.974,3.974,0,0,1-2.341.05,4.3,4.3,0,0,1-2-1.222,3.868,3.868,0,0,1-.956-1.966,4.092,4.092,0,0,1,1.033-3.454,3.68,3.68,0,0,1,1.2-.771,3.723,3.723,0,0,1,1.037-.271,2.37,2.37,0,0,1,.676.023.853.853,0,0,1,.226.072,2.762,2.762,0,0,0-.893-.018,3.982,3.982,0,0,0-2.138,1.064,3.942,3.942,0,0,0-.952,3.324,3.7,3.7,0,0,0,.915,1.862,4.059,4.059,0,0,0,1.912,1.159,3.766,3.766,0,0,0,2.223-.045,4.215,4.215,0,0,0,2.688-2.782,3.623,3.623,0,0,0,.063-1.651,3.573,3.573,0,0,0-1.186-2.065C406.651,120.281,406.344,120.159,406.358,120.137Z" transform="translate(-359.972 -74.604)" fill="#e0e0e0"/>
          <path id="Path_82816" data-name="Path 82816" d="M293.047,83.449A8.177,8.177,0,0,0,291.059,83c-.314-.047-.609-.123-.652-.34a1.611,1.611,0,0,1,.253-.925l1.041-2.358a41.264,41.264,0,0,0,2.378-6.183,41.4,41.4,0,0,0-2.869,5.977q-.524,1.243-1,2.374a1.825,1.825,0,0,0-.22,1.229.791.791,0,0,0,.5.484,2.13,2.13,0,0,0,.532.1,8.032,8.032,0,0,0,2.031.095" transform="translate(-268.913 -39.447)" fill="#263238"/>
          <path id="Path_82817" data-name="Path 82817" d="M268.838,64.747c.106.341,1.346.238,2.786.478,1.445.211,2.593.688,2.8.4.092-.14-.1-.465-.555-.811a4.914,4.914,0,0,0-4.255-.666c-.542.191-.821.442-.776.6" transform="translate(-239.434 -34.499)" fill="#263238"/>
          <path id="Path_82818" data-name="Path 82818" d="M287.522,98.593a.737.737,0,0,0-.935-.4l-3.4,1.247-.378.138a8.287,8.287,0,0,0,.752,1.991,2.129,2.129,0,0,0,1.471,1.04,2.394,2.394,0,0,0,1.432-.357,2.792,2.792,0,0,0,1.5-1.715,4.088,4.088,0,0,0-.446-1.943" transform="translate(-259.491 -52.771)" fill="#6f4439"/>
          <path id="Path_82819" data-name="Path 82819" d="M275.838,82.826a1.178,1.178,0,0,0,1.084,1.237,1.127,1.127,0,0,0,1.26-1.009,1.179,1.179,0,0,0-1.082-1.238,1.128,1.128,0,0,0-1.261,1.009" transform="translate(-246.435 -44.049)" fill="#263238"/>
          <path id="Path_82820" data-name="Path 82820" d="M299.332,82.826a1.178,1.178,0,0,0,1.083,1.237,1.127,1.127,0,0,0,1.26-1.009,1.179,1.179,0,0,0-1.082-1.237,1.128,1.128,0,0,0-1.261,1.009" transform="translate(-280.879 -44.049)" fill="#263238"/>
          <path id="Path_82821" data-name="Path 82821" d="M296.948,72.8c.113.178,1.013-.434,2.17-.305,1.157.11,1.921.894,2.066.742.071-.066-.029-.375-.36-.728a2.626,2.626,0,0,0-3.382-.35c-.394.279-.551.561-.494.64" transform="translate(-279.292 -38.65)" fill="#263238"/>
          <path id="Path_82822" data-name="Path 82822" d="M271.4,74.45c.158.182,1.149-.589,2.54-.576,1.391-.008,2.4.765,2.556.583.075-.081-.083-.407-.525-.757a3.371,3.371,0,0,0-2.043-.691,3.284,3.284,0,0,0-2.024.685c-.431.349-.582.675-.5.756" transform="translate(-242.696 -39.35)" fill="#263238"/>
          <path id="Path_82823" data-name="Path 82823" d="M283.317,101.854c-.01.011.1.147.372.276a2.111,2.111,0,0,0,1.263.1,3.34,3.34,0,0,0,1.662-.882,2.05,2.05,0,0,0,.568-1,2.665,2.665,0,0,0-.035-1.225,5.131,5.131,0,0,0-.428-1.115.829.829,0,0,0-.494-.462,1,1,0,0,0-.614.1l-1.687.681a7.668,7.668,0,0,0-1.522.716,7.676,7.676,0,0,0,1.614-.473l1.715-.608c.346-.144.508-.125.667.21a5.079,5.079,0,0,1,.391,1.036,1.935,1.935,0,0,1-.419,1.908,3.261,3.261,0,0,1-1.476.865,2.209,2.209,0,0,1-1.156.013c-.268-.077-.4-.17-.422-.141" transform="translate(-258.548 -52.442)" fill="#263238"/>
        </g>
      </g>
    </g>
  </g>
</svg>
