<svg xmlns="http://www.w3.org/2000/svg" xmlns:xlink="http://www.w3.org/1999/xlink" width="16" height="16" viewBox="0 0 16 16">
  <defs>
    <clipPath id="clip-path">
      <rect id="Rectangle_19521" data-name="Rectangle 19521" width="16" height="16" rx="2" transform="translate(341 365)" fill="#fff" stroke="#707070" stroke-width="1"/>
    </clipPath>
  </defs>
  <g id="Mask_Group_847" data-name="Mask Group 847" transform="translate(-341 -365)" clip-path="url(#clip-path)">
    <path id="google-plus" d="M0,0V16H16V0ZM9.327,8.673A3.2,3.2,0,0,1,5.979,11.5a3.53,3.53,0,1,1,0-7.06,3.349,3.349,0,0,1,2.371.921L7.337,6.375a1.863,1.863,0,0,0-1.358-.53A2.12,2.12,0,0,0,3.9,7.971a2.1,2.1,0,0,0,2.078,2.1,1.774,1.774,0,0,0,1.9-1.4h-1.9V7.255h3.34a4.137,4.137,0,0,1,.06.715A4.659,4.659,0,0,1,9.327,8.673Zm4.239-.44H12.33V9.47h-.879V8.234H10.214V7.354h1.237V6.117h.879V7.354h1.237Z" transform="translate(341 365)" fill="#dd4b39"/>
  </g>
</svg>
