<svg xmlns="http://www.w3.org/2000/svg" xmlns:xlink="http://www.w3.org/1999/xlink" width="296.79" height="242.064" viewBox="0 0 296.79 242.064">
  <g id="Mask_Group_610" transform="translate(-364.938 -1764.352)" >
    <path id="Path_86438" d="M509.452,1861.032h26.122s3.524-23.889,23.917-24.094,25.913,17.915,24.238,24.094-2.353,19.58-21.163,24.214-16.861,2.024-16.861,2.024v59.536h28.259v-36.275s38.133-11.753,37.926-49.5-32.4-55.73-63.132-50.707C505.224,1819.659,509.452,1861.032,509.452,1861.032Z" transform="translate(-0.112 -0.045)" fill="#fff"/>
    <g id="Group_116422" transform="translate(509.34 1809.268)">
      <rect id="Rectangle_19301" width="28.978" height="25.98" transform="translate(36.852 142.995)" fill="#fff"/>
      <g id="Labyrinth" transform="translate(0 0)">
        <g id="Group_21255" data-name="Group 21255" transform="translate(0 0)">
          <g id="Group_21228" data-name="Group 21228" transform="translate(5.735 19.312)">
            <path id="Path_30017" data-name="Path 30017" d="M237.09,101.846c-1.244-6-7.352-25.495-33.715-24.384-13.089.549-20.324,6.746-24.089,11.848a29.559,29.559,0,0,0-5.094,11.069l-.028.166h-14.6v-.2A60.428,60.428,0,0,1,160.2,91.4l.4.085a57.38,57.38,0,0,0-.63,8.665h13.864a30.322,30.322,0,0,1,5.122-11.057c3.818-5.179,11.15-11.469,24.408-12.026,10.814-.456,19.459,2.5,25.7,8.77a32.2,32.2,0,0,1,8.427,15.937Z" transform="translate(-159.56 -77.016)" fill="#6ea21f"/>
          </g>
          <g id="Group_21229" data-name="Group 21229" transform="translate(0 23.184)">
            <path id="Path_30018" data-name="Path 30018" d="M204.394,201.158H182.535V138.9l.238.04c20.643,3.636,29.6-5.51,33.109-11.287a24.431,24.431,0,0,0,1.939-22.02c-1.806-4.3-7.478-14.264-21.293-14.034-6.762.117-15.848,2.25-20.748,11.747a28.131,28.131,0,0,0-2.973,11.481v.2h-27.43l0-.2c-.024-2.311,0-10.144,0-10.224v-.222l3.381.356v5.05l19.782-.028a32.957,32.957,0,0,1,4.856-11.59c3.579-5.3,10.422-11.574,22.739-11.574.133,0,.263,0,.4,0,9.008.1,16.446,3.264,21.5,9.162,5.45,6.354,7.094,14.749,6.31,20.247,0,.105-.517,12.761-10.031,21.2-6.637,5.886-15.981,8.362-27.777,7.36V163.9H190.6V148.46l.218.02a42.909,42.909,0,0,0,11-.832c5.555-1.139,13.21-3.939,18.162-10.818,8.9-12.37,9-19.362,9.073-24.468,0-.412.012-.812.02-1.2l-.044-1.018h6.06l.016.186c.012.125.97,12.741-9.542,26.888-6.54,8.807-14.2,14.474-21.576,15.965l-.081-.4c7.271-1.47,14.85-7.082,21.33-15.807,9.724-13.089,9.55-24.828,9.473-26.428h-5.264l.024.614c-.008.4-.016.8-.02,1.2-.073,5.163-.17,12.228-9.146,24.7-5.033,6.989-12.8,9.829-18.421,10.984a44.353,44.353,0,0,1-10.887.852V164.32h-4.88V144.141l.218.02c11.78,1.038,21.1-1.4,27.692-7.239,9.384-8.314,9.9-20.808,9.9-20.934.776-5.433-.848-13.695-6.213-19.948-4.981-5.817-12.313-8.936-21.2-9.033-12.382-.133-19.225,6.116-22.788,11.38A32.16,32.16,0,0,0,168.905,110l-.028.17-20.526.028v-5.09l-2.573-.271c0,1.264-.02,7.514,0,9.8h26.63a28.769,28.769,0,0,1,3.01-11.453c2.755-5.345,8.649-11.764,21.107-11.978.166,0,.331,0,.493,0,13.691,0,19.362,9.962,21.18,14.288a24.839,24.839,0,0,1-1.967,22.388c-3,4.941-9.917,12.309-24.509,12.313a51.9,51.9,0,0,1-8.778-.8v61.371H204.4v.4Z" transform="translate(-145.363 -86.6)" fill="#6ea21f"/>
          </g>
          <g id="Group_21230" data-name="Group 21230" transform="translate(0.952)">
            <path id="Path_30019" data-name="Path 30019" d="M211.454,166.749h-.4V130.384l.154-.04A56.316,56.316,0,0,0,230.15,120.22c8.633-6.993,18.922-19.851,18.922-41.407,0-16.934-6.851-30.54-19.811-39.347a59.775,59.775,0,0,0-31.328-9.853c-11.453,0-39.068,2.917-48.153,29.914a55.456,55.456,0,0,0-1.66,7.518l-.4-.053a56.352,56.352,0,0,1,1.672-7.587c9.17-27.252,37-30.2,48.537-30.2a60.209,60.209,0,0,1,31.554,9.921c13.077,8.883,19.988,22.6,19.988,39.678,0,21.721-10.378,34.685-19.084,41.73a57.174,57.174,0,0,1-18.934,10.148Z" transform="translate(-147.72 -29.21)" fill="#6ea21f"/>
          </g>
          <g id="Group_21233" data-name="Group 21233" transform="translate(6.971 4.062)">
            <g id="Group_21231" data-name="Group 21231">
              <path id="Path_30020" data-name="Path 30020" d="M217.33,149.364h-.4l.028-16.252.17-.028a36.471,36.471,0,0,0,10.463-3.914,48.845,48.845,0,0,0,19.083-18.995c8.475-14.822,6.936-26.23,6.92-26.343-1-14.628-6.754-26.02-17.1-33.869-10.81-8.2-23.261-9.946-29.724-10.257a57.693,57.693,0,0,0-21.984,3.8c-11.04,4.331-18.364,11.667-21.778,21.8l-.384-.129c3.45-10.257,10.859-17.674,22.012-22.049a58.162,58.162,0,0,1,22.15-3.83c6.508.311,19.051,2.072,29.946,10.338,10.443,7.922,16.252,19.411,17.258,34.148.016.1,1.58,11.634-6.973,26.585a49.287,49.287,0,0,1-19.261,19.16,38,38,0,0,1-10.406,3.919Z" transform="translate(-162.62 -39.264)" fill="#6ea21f"/>
            </g>
            <g id="Group_21232" data-name="Group 21232" transform="translate(38.466 117.044)">
              <path id="Path_30021" data-name="Path 30021" d="M274.051,341.963H257.84v-.4h15.807l.02-12.559.4,0Z" transform="translate(-257.84 -329)" fill="#6ea21f"/>
            </g>
          </g>
          <g id="Group_21234" data-name="Group 21234" transform="translate(41.094 105.517)">
            <path id="Path_30022" data-name="Path 30022" d="M251.433,318.963H247.09V290.41h4.545v24.961h-.4V290.814h-3.737v27.745h3.939Z" transform="translate(-247.09 -290.41)" fill="#6ea21f"/>
          </g>
          <g id="Group_21235" data-name="Group 21235" transform="translate(10.15 14.49)">
            <path id="Path_30023" data-name="Path 30023" d="M177.729,88.607H170.49l.008-.21a23.478,23.478,0,0,1,5.959-15.436,20.245,20.245,0,0,1,5.357-4.258l-3.85-3.317.263-.307,4.318,3.721-.287.129c-.109.048-10.814,5.118-11.352,19.269h6.661c.323-1.414,2.872-11.622,9.812-14.309l-2.266-2.367c-.848.259-6.5,2.347-9.643,12.769l-.388-.117c3.458-11.477,9.78-13.02,10.047-13.076l.113-.024,2.86,2.985-.295.105c-7.433,2.606-9.853,14.159-9.877,14.276l-.032.162h-.17Z" transform="translate(-170.49 -65.08)" fill="#6ea21f"/>
          </g>
          <g id="Group_21236" data-name="Group 21236" transform="translate(20.553 8.27)">
            <path id="Path_30024" data-name="Path 30024" d="M205.253,62.4l-9.013-8.378.275-.295,8.738,8.12a18.088,18.088,0,0,1,3.729-2.408,31.374,31.374,0,0,1,11.905-3.086c10.9-.768,18.667,1.289,22.113,3.333l2.993-5.033c-2.311-1.014-23.661-9.885-41.1.214l-.2-.351c18.55-10.742,41.447-.246,41.678-.141l.2.093-3.434,5.773-.174-.109c-3.3-2.044-11.053-4.153-22.049-3.377-10.471.739-15.472,5.462-15.525,5.51Z" transform="translate(-196.24 -49.682)" fill="#6ea21f"/>
          </g>
          <g id="Group_21237" data-name="Group 21237" transform="translate(57.265 13.973)">
            <path id="Path_30025" data-name="Path 30025" d="M287.524,178.531l-.4-.008.618-34.422h.2c11.586-.085,27.773-16.631,32.406-29.619,6.468-18.118,1.212-30.807-4.339-38.26a43.862,43.862,0,0,0-13.581-11.885l-2.945,5.336c1.983.84,17.007,7.756,17.128,23.972l6.375.053,0,.4-6.775-.057v-.2c0-17.14-16.914-23.818-17.084-23.883l-.218-.085,3.353-6.076.174.085a43.852,43.852,0,0,1,13.884,12.083c5.611,7.534,10.931,20.356,4.4,38.648-2.61,7.312-8.023,14.927-14.846,20.893-6.318,5.518-12.927,8.867-17.738,8.988Z" transform="translate(-287.12 -63.8)" fill="#6ea21f"/>
          </g>
          <g id="Group_21238" data-name="Group 21238" transform="translate(48.766 90.78)">
            <path id="Path_30026" data-name="Path 30026" d="M271.594,292.053H266.08l0-.206.642-35.549-.016-2.367h4.977v33.639h-.4V254.334h-4.165l.012,1.967-.638,35.347h5.1Z" transform="translate(-266.08 -253.93)" fill="#6ea21f"/>
          </g>
          <g id="Group_21239" data-name="Group 21239" transform="translate(86.125 81.86)">
            <path id="Path_30027" data-name="Path 30027" d="M361.857,235.526c-.343-.424-2.565-2.662-3.119-3.22h0l-.057-.057-.057-.057h0a.181.181,0,0,1-.053-.2l.154-.137c.044-.008.073-.012.17.069l.012-.012.113.117,0,0c.206.194.59.586,1.361,1.365,1.014,1.034,1.616,1.664,1.79,1.878Z" transform="translate(-358.561 -231.85)" fill="#6ea21f"/>
          </g>
          <g id="Group_21240" data-name="Group 21240" transform="translate(74.111 6.838)">
            <rect id="Rectangle_14913" data-name="Rectangle 14913" width="4.011" height="0.404" transform="translate(0 3.15) rotate(-51.741)" fill="#6ea21f"/>
          </g>
          <g id="Group_21241" data-name="Group 21241" transform="translate(74.947 49.321)">
            <path id="Path_30028" data-name="Path 30028" d="M330.89,151.3" transform="translate(-330.89 -151.3)" fill="none" stroke="#e8505b" stroke-width="1"/>
          </g>
          <g id="Group_21242" data-name="Group 21242" transform="translate(74.386 49.377)">
            <path id="Path_30029" data-name="Path 30029" d="M330.4,151.868c-.323,0-.63,0-.9-.012l.012-.4c.642.02,1.47.012,2.274,0s1.644-.02,2.294,0l-.012.4c-.642-.02-1.47-.008-2.274,0C331.326,151.864,330.849,151.868,330.4,151.868Z" transform="translate(-329.5 -151.44)" fill="#6ea21f"/>
          </g>
          <g id="Group_21243" data-name="Group 21243" transform="translate(12.332 46.618)">
            <rect id="Rectangle_14914" data-name="Rectangle 14914" width="0.404" height="4.621" fill="#6ea21f"/>
          </g>
          <g id="Group_21244" data-name="Group 21244" transform="translate(49.739 23.697)">
            <rect id="Rectangle_14915" data-name="Rectangle 14915" width="0.404" height="3.975" fill="#6ea21f"/>
          </g>
          <g id="Group_21245" data-name="Group 21245" transform="translate(86.246 73.268)">
            <rect id="Rectangle_14916" data-name="Rectangle 14916" width="0.404" height="5.054" transform="matrix(0.401, -0.916, 0.916, 0.401, 0, 0.37)" fill="#6ea21f"/>
          </g>
          <g id="Group_21246" data-name="Group 21246" transform="translate(66.962 80.309)">
            <rect id="Rectangle_14917" data-name="Rectangle 14917" width="0.404" height="4.856" transform="matrix(0.795, -0.607, 0.607, 0.795, 0, 0.245)" fill="#6ea21f"/>
          </g>
          <g id="Group_21247" data-name="Group 21247" transform="translate(95.767 34.367)">
            <rect id="Rectangle_14918" data-name="Rectangle 14918" width="4.92" height="0.404" transform="matrix(0.964, -0.268, 0.268, 0.964, 0, 1.318)" fill="#6ea21f"/>
          </g>
          <g id="Group_21254" data-name="Group 21254" transform="translate(37.099 143.147)">
            <g id="Group_21248" data-name="Group 21248">
              <path id="Path_30030" data-name="Path 30030" d="M265.114,409.66H237.2V388.424h.4v20.833H264.71V383.964H237.4v-.4h27.712Z" transform="translate(-237.2 -383.56)" fill="#6ea21f"/>
            </g>
            <g id="Group_21249" data-name="Group 21249" transform="translate(0.202 4.815)">
              <path id="Path_30031" data-name="Path 30031" d="M262.067,412.366H241.493V399.855h16.575v7.465H245.836v-3.6h8.015v.4H246.24v2.791h11.424v-6.657H241.9v11.7h19.766V395.884H237.7v-.4h24.367Z" transform="translate(-237.7 -395.48)" fill="#6ea21f"/>
            </g>
            <g id="Group_21250" data-name="Group 21250" transform="translate(8.774 21.499)">
              <rect id="Rectangle_14919" data-name="Rectangle 14919" width="0.404" height="4.395" fill="#6ea21f"/>
            </g>
            <g id="Group_21251" data-name="Group 21251" transform="translate(24.367 11.82)">
              <rect id="Rectangle_14920" data-name="Rectangle 14920" width="3.345" height="0.404" fill="#6ea21f"/>
            </g>
            <g id="Group_21252" data-name="Group 21252" transform="translate(11.671 9.392)">
              <rect id="Rectangle_14921" data-name="Rectangle 14921" width="0.404" height="3.66" fill="#6ea21f"/>
            </g>
            <g id="Group_21253" data-name="Group 21253" transform="translate(0.202 15.375)">
              <rect id="Rectangle_14922" data-name="Rectangle 14922" width="3.995" height="0.404" fill="#6ea21f"/>
            </g>
          </g>
        </g>
      </g>
      <g id="Line" transform="translate(16.569 21.134)">
        <path id="Path_30128" data-name="Path 30128" d="M260.912,106.214a2.479,2.479,0,0,0-1.919-.57l-5.013-.073a3.671,3.671,0,0,1-2.206-.6A3.549,3.549,0,0,1,250.4,103.2l-.2-.65c-.408-1.309-.832-2.662-1.341-3.943a20.726,20.726,0,0,0-1-2.19c-.186-.351-.392-.687-.606-1.03s-.432-.683-.646-.994a29.113,29.113,0,0,0-13.981-10.919,33.917,33.917,0,0,0-15.815-1.664,37.151,37.151,0,0,0-7.009,1.6l-1.6.578c-.339.133-.671.271-1,.412-.178.077-.36.149-.537.226a22.974,22.974,0,0,0-2.872,1.479,20.329,20.329,0,0,0-4.6,3.8,19.368,19.368,0,0,0-1.689,2.161c-.424.642-.844,1.337-1.321,2.19-.6,1.079-1.131,2.1-1.64,3.094-.166.319-.327.63-.485.937-.117.222-.234.44-.343.654a20.42,20.42,0,0,1-1.531,2.622,8.227,8.227,0,0,1-3.931,3.167,3.345,3.345,0,0,1-.545.158l-.174.044c-.085.012-.162.024-.234.036-.117.02-.222.036-.311.044-.307.02-.461.032-.461.032a.15.15,0,0,0,.012.3h0s.158,0,.465-.016c.1,0,.218-.024.355-.044.069-.012.141-.02.238-.036.057-.012.117-.028.178-.04a4,4,0,0,0,.59-.166,8.494,8.494,0,0,0,4.12-3.268,21.017,21.017,0,0,0,1.571-2.666l.343-.65c.166-.311.331-.63.5-.957.509-.978,1.034-1.992,1.632-3.054.473-.84.889-1.527,1.309-2.157a18.925,18.925,0,0,1,1.66-2.109,20.1,20.1,0,0,1,4.516-3.708,22.928,22.928,0,0,1,2.82-1.446c.178-.073.36-.149.541-.222.327-.137.654-.275.986-.4l1.592-.57a36.468,36.468,0,0,1,6.924-1.567,33.453,33.453,0,0,1,15.593,1.66A28.635,28.635,0,0,1,246.2,94.673c.2.291.424.63.634.978s.412.667.59,1a20.183,20.183,0,0,1,.974,2.141c.5,1.268.9,2.553,1.329,3.91l.206.662a4.058,4.058,0,0,0,1.576,2.028,4.177,4.177,0,0,0,2.484.687l5.038.073a2.039,2.039,0,0,1,1.543.432,1.936,1.936,0,0,1,.473,1.539l-.024.667c-.012.4-.028.808-.053,1.212-.02.226-.04.452-.057.683-.032.4-.065.808-.109,1.212a47.107,47.107,0,0,1-1.491,7.57,54.793,54.793,0,0,1-6.56,14.523A47.992,47.992,0,0,1,247,141.408a32.563,32.563,0,0,1-7.158,5.708,43.626,43.626,0,0,1-8.2,3.632l-.578.19c-.5.166-1.018.335-1.531.485l-1.058.319a4.066,4.066,0,0,0-1.071.473,3.871,3.871,0,0,0-1.495,1.761,3.752,3.752,0,0,0-.283,1.131c-.02.271-.02.529-.016.78v.327c0,8.257-.19,16.046-.376,23.58-.073,2.965-.145,5.858-.2,8.673a8.168,8.168,0,0,0,.19,1.882,3.071,3.071,0,0,0,.917,1.7,1.828,1.828,0,0,0,1.939.178,2.2,2.2,0,0,0,.776-.6,2.864,2.864,0,0,0,.461-.832,9.594,9.594,0,0,0,.424-3.05l.016-.44c.024-1.091.016-2.173.012-3.22l0-.456c0-1.01-.012-1.967,0-2.929l0-.149a16.63,16.63,0,0,1,.242-2.929,1.771,1.771,0,0,1,.238-.614,1.476,1.476,0,0,1,.533-.376,1.356,1.356,0,0,1,1.224-.028,1.428,1.428,0,0,1,.513,1.119,8.088,8.088,0,0,1,.016.99c0,.145,0,.287,0,.428l-.234,18.793a5.68,5.68,0,0,0-.012,1.333,2.141,2.141,0,0,0,.469,1.232,1.064,1.064,0,0,0,.622.331c.206.024.392.048.574.053.364.02.715.028,1.079.028h.246c1.184,0,2.206-.032,3.038-.061l2.291-.1c.477-.024.719-.044.719-.044a.151.151,0,0,0,.137-.158.164.164,0,0,0-.153-.145s-.242,0-.719.02l-2.371.077c-.869.024-1.947.053-3.191.04-.368,0-.7-.008-1.054-.032l-.17-.012a1.034,1.034,0,0,1-.768-.25,1.838,1.838,0,0,1-.372-1.026,5.451,5.451,0,0,1,.02-1.277l.287-18.8c0-.141,0-.283.008-.424a8.181,8.181,0,0,0-.02-1.038,2.776,2.776,0,0,0-.178-.776,1.391,1.391,0,0,0-.537-.675,1.411,1.411,0,0,0-.844-.21,2.318,2.318,0,0,0-.8.206,1.9,1.9,0,0,0-.7.5,2.232,2.232,0,0,0-.327.792,17.209,17.209,0,0,0-.258,2.981l0,.19c-.016.978-.012,1.951-.008,2.977v.42c0,1.042.008,2.121-.016,3.2l-.012.412a9.551,9.551,0,0,1-.4,2.929,1.955,1.955,0,0,1-1,1.171,1.35,1.35,0,0,1-1.438-.121,2.639,2.639,0,0,1-.751-1.442,7.632,7.632,0,0,1-.174-1.765q.085-4.127.206-8.475c.194-7.595.4-15.448.4-23.786v-.331c0-.246,0-.5.016-.735a3.25,3.25,0,0,1,.246-.978,3.327,3.327,0,0,1,1.3-1.527,3.674,3.674,0,0,1,.941-.412l1.058-.319c.517-.149,1.042-.323,1.547-.489l.582-.19a44.135,44.135,0,0,0,8.3-3.672,35,35,0,0,0,3.822-2.626,33.394,33.394,0,0,0,3.45-3.167,48.3,48.3,0,0,0,5.813-7.494,55.262,55.262,0,0,0,6.621-14.66,47.235,47.235,0,0,0,1.507-7.651c.044-.412.077-.824.109-1.232.016-.226.036-.452.057-.679.024-.408.04-.816.052-1.224.008-.226.016-.448.024-.671A2.471,2.471,0,0,0,260.912,106.214Z" transform="translate(-186.379 -81.526)" fill="#1794c9" stroke="#1794c9" stroke-width="1"/>
      </g>
    </g>
    <g id="Character" transform="translate(415.827 1842.779)">
      <g id="Group_21484" data-name="Group 21484">
        <g id="Group_21264" data-name="Group 21264" transform="translate(113.04 2.184)">
          <g id="Group_21256" data-name="Group 21256" transform="translate(0 5.382)">
            <path id="Path_30032" data-name="Path 30032" d="M189.187,138.06l-3.908.971-1.619,1.44,2.155.547,4.745-1.362Z" transform="translate(-183.66 -138.06)" fill="#455a64"/>
          </g>
          <g id="Group_21262" data-name="Group 21262" transform="translate(2.11)">
            <g id="Group_21257" data-name="Group 21257" transform="translate(0.001)">
              <path id="Path_30033" data-name="Path 30033" d="M203.136,140.442l-5.884-7.2h-6.029l-3.819,4.41a1.725,1.725,0,0,0,.234.715,2.716,2.716,0,0,0-2.088.223l3.484,9.2,6.61,6.621,8.363-2.322Zm-9.111,3.372-3.093-1.474a8.556,8.556,0,0,0-2.222-3.417,3.122,3.122,0,0,0,.324,0,3.837,3.837,0,0,0,1.172-.4c2.646-1.329,3.383-1.619,3.383-1.619L195.275,140Z" transform="translate(-185.55 -133.24)" fill="#ffbe9d"/>
            </g>
            <g id="Group_21259" data-name="Group 21259" transform="translate(9.375 0.105)">
              <g id="Group_21258" data-name="Group 21258">
                <path id="Path_30034" data-name="Path 30034" d="M197.557,138.22c-.134.1-1.038-.916-2.032-2.267a8,8,0,0,1-1.563-2.613c.134-.1,1.038.916,2.032,2.267A7.884,7.884,0,0,1,197.557,138.22Z" transform="translate(-193.945 -133.334)" fill="#eb996e"/>
              </g>
            </g>
            <g id="Group_21261" data-name="Group 21261" transform="translate(0 4.811)">
              <g id="Group_21260" data-name="Group 21260">
                <path id="Path_30035" data-name="Path 30035" d="M194.025,143.312a14.122,14.122,0,0,1-3.394-.971l-.123-.045-.045-.145a9.38,9.38,0,0,0-.726-1.786,4.63,4.63,0,0,0-2.657-2.4c-.9-.167-1.5.212-1.53.1-.011-.033.1-.145.357-.279a2.194,2.194,0,0,1,1.239-.223,4.547,4.547,0,0,1,3.093,2.523,7.6,7.6,0,0,1,.737,1.92l-.167-.19A15.739,15.739,0,0,1,194.025,143.312Z" transform="translate(-185.549 -137.549)" fill="#eb996e"/>
              </g>
            </g>
          </g>
          <g id="Group_21263" data-name="Group 21263" transform="translate(5.103 1.48)">
            <path id="Path_30036" data-name="Path 30036" d="M189.6,140.176l13.778-3.662a.989.989,0,0,0,.692-1.251h0a.994.994,0,0,0-1.172-.67l-14.672,3.975A6.88,6.88,0,0,1,189.6,140.176Z" transform="translate(-188.23 -134.565)" fill="#455a64"/>
          </g>
        </g>
        <g id="Group_21265" data-name="Group 21265" transform="translate(13.967 177.227)">
          <path id="Path_30037" data-name="Path 30037" d="M95.053,294.521l8.352-4.511.313,3.1L99.508,308.9a33.637,33.637,0,0,1-3.238-7.079s-1.34-5.873-1.34-6.3a3.911,3.911,0,0,1,.123-1" transform="translate(-94.929 -290.01)" fill="#ffbe9d"/>
        </g>
        <g id="Group_21286" data-name="Group 21286" transform="translate(82.424 345.347)">
          <g id="Group_21284" data-name="Group 21284">
            <g id="Group_21269" data-name="Group 21269" transform="translate(0 0.223)">
              <g id="Group_21268" data-name="Group 21268">
                <g id="Group_21267" data-name="Group 21267">
                  <g id="Group_21266" data-name="Group 21266">
                    <path id="Path_30038" data-name="Path 30038" d="M156.24,441.26l1.418,33.6,18.144-.4-1.351-33.675Z" transform="translate(-156.24 -440.78)" fill="#455a64"/>
                  </g>
                </g>
              </g>
            </g>
            <g id="Group_21274" data-name="Group 21274" transform="translate(8.488)">
              <g id="Group_21273" data-name="Group 21273">
                <g id="Group_21272" data-name="Group 21272">
                  <g id="Group_21271" data-name="Group 21271">
                    <g id="Group_21270" data-name="Group 21270">
                      <path id="Path_30039" data-name="Path 30039" d="M165.682,473.418c.156-.011-.134-7.369-.625-16.436s-1.027-16.413-1.172-16.4.134,7.369.625,16.436S165.537,473.429,165.682,473.418Z" transform="translate(-163.842 -440.58)" fill="#263238"/>
                    </g>
                  </g>
                </g>
              </g>
            </g>
            <g id="Group_21278" data-name="Group 21278" transform="translate(1.329 31.52)">
              <g id="Group_21277" data-name="Group 21277">
                <g id="Group_21276" data-name="Group 21276">
                  <g id="Group_21275" data-name="Group 21275">
                    <path id="Path_30040" data-name="Path 30040" d="M157.43,469.279l18.144-.469.089,2.378-18.144.4Z" transform="translate(-157.43 -468.81)" fill="#263238"/>
                  </g>
                </g>
              </g>
            </g>
            <g id="Group_21283" data-name="Group 21283" transform="translate(1.242 18.141)">
              <g id="Group_21282" data-name="Group 21282">
                <g id="Group_21281" data-name="Group 21281">
                  <g id="Group_21280" data-name="Group 21280">
                    <g id="Group_21279" data-name="Group 21279">
                      <path id="Path_30041" data-name="Path 30041" d="M175.248,461.821a2.717,2.717,0,0,0-.5-.715,13.062,13.062,0,0,0-4.712-3.484,9.642,9.642,0,0,0-11.188,2.624,8.729,8.729,0,0,0-1.239,2.032,2.163,2.163,0,0,0-.246.837,18.737,18.737,0,0,1,1.775-2.613,9.631,9.631,0,0,1,6.666-3.1,11.1,11.1,0,0,1,7.023,2.367C174.388,460.928,175.17,461.888,175.248,461.821Z" transform="translate(-157.353 -456.827)" fill="#263238"/>
                    </g>
                  </g>
                </g>
              </g>
            </g>
          </g>
          <g id="Group_21285" data-name="Group 21285" transform="translate(0.435 14.27)" opacity="0.3">
            <path id="Path_30042" data-name="Path 30042" d="M156.63,453.36l.268,2.992h18.189l-.112-2.992Z" transform="translate(-156.63 -453.36)"/>
          </g>
        </g>
        <g id="Group_21331" data-name="Group 21331" transform="translate(0 348.071)">
          <g id="Group_21326" data-name="Group 21326">
            <g id="Group_21320" data-name="Group 21320">
              <g id="Group_21290" data-name="Group 21290" transform="translate(0.19)">
                <g id="Group_21289" data-name="Group 21289">
                  <g id="Group_21288" data-name="Group 21288">
                    <g id="Group_21287" data-name="Group 21287">
                      <path id="Path_30043" data-name="Path 30043" d="M103.648,443.344,103,463.5s-20.277,7.671-20.411,11.467l39.615-.5.927-31.442Z" transform="translate(-82.59 -443.02)" fill="#455a64"/>
                    </g>
                  </g>
                </g>
              </g>
              <g id="Group_21295" data-name="Group 21295" transform="translate(30.663 18.493)">
                <g id="Group_21294" data-name="Group 21294">
                  <g id="Group_21293" data-name="Group 21293">
                    <g id="Group_21292" data-name="Group 21292">
                      <g id="Group_21291" data-name="Group 21291">
                        <path id="Path_30044" data-name="Path 30044" d="M111.8,459.635a1.635,1.635,0,0,1,1.172,1.842,1.574,1.574,0,0,1-1.809,1.184,1.71,1.71,0,0,1-1.228-1.954,1.628,1.628,0,0,1,2.021-1.016" transform="translate(-109.882 -459.583)" fill="#e0e0e0"/>
                      </g>
                    </g>
                  </g>
                </g>
              </g>
              <g id="Group_21299" data-name="Group 21299" transform="translate(0 28.897)">
                <g id="Group_21298" data-name="Group 21298">
                  <g id="Group_21297" data-name="Group 21297">
                    <g id="Group_21296" data-name="Group 21296">
                      <path id="Path_30045" data-name="Path 30045" d="M122.225,471.446l-.045-2.546-38.443,1.262a3.018,3.018,0,0,0-1.318,2Z" transform="translate(-82.42 -468.9)" fill="#263238"/>
                    </g>
                  </g>
                </g>
              </g>
              <g id="Group_21304" data-name="Group 21304" transform="translate(20.242 20.416)">
                <g id="Group_21303" data-name="Group 21303">
                  <g id="Group_21302" data-name="Group 21302">
                    <g id="Group_21301" data-name="Group 21301">
                      <g id="Group_21300" data-name="Group 21300">
                        <path id="Path_30046" data-name="Path 30046" d="M100.55,461.5c.011.19.994.257,1.965.871.994.581,1.507,1.418,1.686,1.329.179-.045-.134-1.206-1.329-1.921S100.505,461.322,100.55,461.5Z" transform="translate(-100.549 -461.305)" fill="#263238"/>
                      </g>
                    </g>
                  </g>
                </g>
              </g>
              <g id="Group_21309" data-name="Group 21309" transform="translate(16.088 22.363)">
                <g id="Group_21308" data-name="Group 21308">
                  <g id="Group_21307" data-name="Group 21307">
                    <g id="Group_21306" data-name="Group 21306">
                      <g id="Group_21305" data-name="Group 21305">
                        <path id="Path_30047" data-name="Path 30047" d="M96.83,463.128c-.045.19.815.5,1.5,1.318.7.793.893,1.675,1.094,1.664.19.022.29-1.117-.581-2.11S96.83,462.95,96.83,463.128Z" transform="translate(-96.828 -463.049)" fill="#263238"/>
                      </g>
                    </g>
                  </g>
                </g>
              </g>
              <g id="Group_21314" data-name="Group 21314" transform="translate(12.179 24.193)">
                <g id="Group_21313" data-name="Group 21313">
                  <g id="Group_21312" data-name="Group 21312">
                    <g id="Group_21311" data-name="Group 21311">
                      <g id="Group_21310" data-name="Group 21310">
                        <path id="Path_30048" data-name="Path 30048" d="M94.972,468.018c.179.034.424-.949-.1-2s-1.452-1.463-1.53-1.3c-.112.167.5.726.916,1.6C94.7,467.18,94.782,468.007,94.972,468.018Z" transform="translate(-93.328 -464.687)" fill="#263238"/>
                      </g>
                    </g>
                  </g>
                </g>
              </g>
              <g id="Group_21319" data-name="Group 21319" transform="translate(20.481 15.148)">
                <g id="Group_21318" data-name="Group 21318">
                  <g id="Group_21317" data-name="Group 21317">
                    <g id="Group_21316" data-name="Group 21316">
                      <g id="Group_21315" data-name="Group 21315">
                        <path id="Path_30049" data-name="Path 30049" d="M100.771,457.327c.089.179.971-.112,2.077-.067,1.105.022,1.976.38,2.077.212.112-.145-.748-.849-2.054-.882C101.564,456.535,100.67,457.182,100.771,457.327Z" transform="translate(-100.763 -456.587)" fill="#263238"/>
                      </g>
                    </g>
                  </g>
                </g>
              </g>
            </g>
            <g id="Group_21325" data-name="Group 21325" transform="translate(19.674 8.173)">
              <g id="Group_21324" data-name="Group 21324">
                <g id="Group_21323" data-name="Group 21323">
                  <g id="Group_21322" data-name="Group 21322">
                    <g id="Group_21321" data-name="Group 21321">
                      <path id="Path_30050" data-name="Path 30050" d="M100.04,453.667a3.839,3.839,0,0,0,2-.056,8.864,8.864,0,0,0,2.077-.692,9.684,9.684,0,0,0,1.139-.636,2.429,2.429,0,0,0,.592-.48.848.848,0,0,0,.067-1.038,1.08,1.08,0,0,0-.871-.424,2.83,2.83,0,0,0-.748.123,7.706,7.706,0,0,0-1.239.458,7.2,7.2,0,0,0-1.82,1.251c-.9.882-1.206,1.619-1.139,1.653.089.067.525-.558,1.452-1.3a7.674,7.674,0,0,1,1.764-1.05,8.487,8.487,0,0,1,1.139-.38c.424-.123.782-.134.893.056.045.067.045.1-.033.223a2.188,2.188,0,0,1-.435.357,11.644,11.644,0,0,1-1.038.625,12.157,12.157,0,0,1-1.92.793A13.546,13.546,0,0,0,100.04,453.667Z" transform="translate(-100.04 -450.34)" fill="#263238"/>
                    </g>
                  </g>
                </g>
              </g>
            </g>
          </g>
          <g id="Group_21330" data-name="Group 21330" transform="translate(20.723 11.791)" opacity="0.3">
            <g id="Group_21329" data-name="Group 21329">
              <g id="Group_21328" data-name="Group 21328">
                <g id="Group_21327" data-name="Group 21327">
                  <path id="Path_30051" data-name="Path 30051" d="M120.643,453.58l-.145,4.645-19.517.3.179-4.21Z" transform="translate(-100.98 -453.58)"/>
                </g>
              </g>
            </g>
          </g>
        </g>
        <g id="Group_21343" data-name="Group 21343" transform="translate(29.119)">
          <g id="Group_21337" data-name="Group 21337" transform="translate(2.546 1.172)">
            <g id="Group_21336" data-name="Group 21336">
              <g id="Group_21335" data-name="Group 21335">
                <g id="Group_21334" data-name="Group 21334">
                  <g id="Group_21333" data-name="Group 21333">
                    <g id="Group_21332" data-name="Group 21332">
                      <path id="Path_30052" data-name="Path 30052" d="M111.283,155.018,120.9,195.65l22.845-3.037-1.675-12.963s8.33.134,9.055-7.715c.234-2.613-1.787-14.158-3.785-24.62A18.431,18.431,0,0,0,125.5,132.72h0A18.429,18.429,0,0,0,111.283,155.018Z" transform="translate(-110.78 -132.333)" fill="#ffbe9d"/>
                    </g>
                  </g>
                </g>
              </g>
            </g>
          </g>
          <g id="Group_21338" data-name="Group 21338">
            <path id="Path_30053" data-name="Path 30053" d="M132.629,131.4c1.965.715,1.057,2.168,1.481,3.05a5.092,5.092,0,0,0,2.879,2.68c1.7.681,5.566,2.54,6.593,4.472s1.182,2.368.992,3.451,1.989,5.966,2.213,6.948c.424,1.842,1.239,7.258,1.239,7.258l-1.641.871s-.86-5.94-2.8-5.907-2.4,2.054-2.5,2.6a8.506,8.506,0,0,0-1.239,2.747c-.424,2.6-.235,6.376-.435,8.754-.3,3.673-4.332,9.111-4.332,9.111l-17.865,1.653s-8.1-18.312-8.62-23.09,1.306-11.177,4-15.476a20.726,20.726,0,0,1,4.723-4.812,35.19,35.19,0,0,1,4.064-2.423,19.4,19.4,0,0,1,9.96-1.965Z" transform="translate(-108.499 -131.284)" fill="#523730"/>
          </g>
          <g id="Group_21340" data-name="Group 21340" transform="translate(31.404 22.979)">
            <g id="Group_21339" data-name="Group 21339">
              <path id="Path_30054" data-name="Path 30054" d="M143.207,163.606c.033.011-.033.29-.38.659a2.754,2.754,0,0,1-1.92.793,3.725,3.725,0,0,1-2.769-1.34,6.5,6.5,0,0,1-1.407-3.473,11.173,11.173,0,0,1,1.016-6.6,3.983,3.983,0,0,1,1.4-1.519,1.243,1.243,0,0,1,.715-.257,4.848,4.848,0,0,0-1.742,1.954,11.852,11.852,0,0,0-.8,6.32,6.292,6.292,0,0,0,1.239,3.2,3.387,3.387,0,0,0,2.367,1.284,2.737,2.737,0,0,0,1.764-.547C143.028,163.818,143.162,163.583,143.207,163.606Z" transform="translate(-136.625 -151.864)" fill="#eb996e"/>
            </g>
          </g>
          <g id="Group_21342" data-name="Group 21342" transform="translate(33.821 27.038)">
            <g id="Group_21341" data-name="Group 21341">
              <path id="Path_30055" data-name="Path 30055" d="M140.811,160.48c.056.056-.38.335-1,0a2.555,2.555,0,0,1-1.016-2.166,3.482,3.482,0,0,1,.759-2.233c.391-.48.759-.625.793-.569a5.709,5.709,0,0,0-.971,2.791,2.6,2.6,0,0,0,.67,1.831C140.431,160.457,140.8,160.4,140.811,160.48Z" transform="translate(-138.79 -155.5)" fill="#eb996e"/>
            </g>
          </g>
        </g>
        <g id="Group_21359" data-name="Group 21359" transform="translate(17.228 165.324)">
          <g id="Group_21354" data-name="Group 21354">
            <g id="Group_21344" data-name="Group 21344">
              <path id="Path_30056" data-name="Path 30056" d="M106.235,279.35,97.85,314.3v163.23l25.156.737,2.211-97.04,12.662-60.071,11.646,61.734L161.2,475.8l22.421-.648s-3.807-39.325-3.138-50.312-3.919-45.611-3.919-45.611.715-57.815-.48-64.76c-1.351-7.838-2.49-33.184-2.49-34.178Z" transform="translate(-97.85 -279.35)" fill="#263238"/>
            </g>
            <g id="Group_21346" data-name="Group 21346" transform="translate(12.74 42.128)">
              <g id="Group_21345" data-name="Group 21345">
                <path id="Path_30057" data-name="Path 30057" d="M136.526,317.1a38.889,38.889,0,0,1-4.075.893c-2.523.525-5.985,1.318-9.748,2.412s-7.112,2.278-9.524,3.193-3.886,1.507-3.919,1.429a4.282,4.282,0,0,1,.983-.547c.648-.324,1.6-.759,2.78-1.261a87.121,87.121,0,0,1,9.513-3.372,89.422,89.422,0,0,1,9.837-2.256c1.273-.212,2.311-.357,3.026-.424A3.618,3.618,0,0,1,136.526,317.1Z" transform="translate(-109.26 -317.08)" fill="#455a64"/>
              </g>
            </g>
            <g id="Group_21348" data-name="Group 21348" transform="translate(40.017 39.057)">
              <g id="Group_21347" data-name="Group 21347">
                <path id="Path_30058" data-name="Path 30058" d="M158.835,314.341a3.681,3.681,0,0,1-.916.435c-.6.246-1.485.569-2.59.916a51.736,51.736,0,0,1-17.91,2.267c-1.161-.067-2.1-.145-2.736-.246a3.974,3.974,0,0,1-.994-.19c.011-.089,1.44,0,3.74.022a68.318,68.318,0,0,0,8.977-.5,67.52,67.52,0,0,0,8.821-1.742A33.746,33.746,0,0,1,158.835,314.341Z" transform="translate(-133.69 -314.33)" fill="#455a64"/>
              </g>
            </g>
            <g id="Group_21350" data-name="Group 21350" transform="translate(40.005 42.506)">
              <g id="Group_21349" data-name="Group 21349">
                <path id="Path_30059" data-name="Path 30059" d="M156.994,340.678c-.112.112-5.426-5-11.858-11.422s-11.568-11.724-11.456-11.836,5.426,5,11.858,11.422S157.117,340.566,156.994,340.678Z" transform="translate(-133.678 -317.418)" fill="#455a64"/>
              </g>
            </g>
            <g id="Group_21351" data-name="Group 21351" transform="translate(6.878)">
              <path id="Path_30060" data-name="Path 30060" d="M104.01,285.592l10.752-.38,1.317-5.717-10.563-.145Z" transform="translate(-104.01 -279.35)" fill="#455a64"/>
            </g>
            <g id="Group_21352" data-name="Group 21352" transform="translate(21.371 0.19)">
              <path id="Path_30061" data-name="Path 30061" d="M117.984,279.52l-.994,6.052h37.762l.1-5.549Z" transform="translate(-116.99 -279.52)" fill="#455a64"/>
            </g>
            <g id="Group_21353" data-name="Group 21353" transform="translate(62.471 0.737)">
              <path id="Path_30062" data-name="Path 30062" d="M153.8,280.01v5.5h13.5l-.234-5.315Z" transform="translate(-153.8 -280.01)" fill="#455a64"/>
            </g>
          </g>
          <g id="Group_21356" data-name="Group 21356" transform="translate(8.142 99.641)">
            <g id="Group_21355" data-name="Group 21355">
              <path id="Path_30063" data-name="Path 30063" d="M113.268,395.644c-.156.045-2.1-5.974-4.332-13.443s-3.93-13.566-3.785-13.611,2.1,5.974,4.332,13.443S113.425,395.6,113.268,395.644Z" transform="translate(-105.142 -368.59)" fill="#455a64"/>
            </g>
          </g>
          <g id="Group_21358" data-name="Group 21358" transform="translate(58.089 105.167)">
            <g id="Group_21357" data-name="Group 21357">
              <path id="Path_30064" data-name="Path 30064" d="M160.343,389.54a78.287,78.287,0,0,1-5.471-7.838,78.8,78.8,0,0,1-4.991-8.162,78.285,78.285,0,0,1,5.471,7.838A78.782,78.782,0,0,1,160.343,389.54Z" transform="translate(-149.875 -373.538)" fill="#455a64"/>
            </g>
          </g>
        </g>
        <g id="Group_21483" data-name="Group 21483" transform="translate(5.366 19.848)">
          <g id="Group_21391" data-name="Group 21391">
            <g id="Group_21360" data-name="Group 21360" transform="translate(0 49.776)">
              <path id="Path_30065" data-name="Path 30065" d="M110.41,193.64s-14.582,6.085-16.425,12.539c-2.043,7.146-4.142,22.856-4.142,22.856v41.413s-3.126,13.946-2.546,19.819,6.945,16.3,6.945,16.3l10.283-4.991L107.742,287l.592-44.45-1.172-22.03Z" transform="translate(-87.226 -193.64)" fill="#e32726"/>
            </g>
            <g id="Group_21361" data-name="Group 21361" transform="translate(17.669 31.163)">
              <path id="Path_30066" data-name="Path 30066" d="M108.566,195.583l9.692-7.749.469-6.6,24.966-4.265,2.8,5.65,11.221,3.026,7.5-2.244,1.831,4.276,9.323,28.617-7.045,41.994s4.176,22.287,3.64,33.921l-67.351-.927c-1.742-2.121-2.01-5.929-1.664-10.429l-.9-56.431Z" transform="translate(-103.05 -176.97)" fill="#e32726"/>
            </g>
            <g id="Group_21363" data-name="Group 21363" transform="translate(22.023 46.931)">
              <g id="Group_21362" data-name="Group 21362">
                <path id="Path_30067" data-name="Path 30067" d="M163.828,191.1a1.925,1.925,0,0,1-.569.156c-.447.089-.994.212-1.664.346-1.53.3-3.618.715-6.141,1.217-5.181,1.038-12.338,2.535-20.187,4.377s-14.928,3.7-20.031,5.08c-2.49.681-4.533,1.228-6.041,1.641-.659.179-1.206.313-1.652.435a2.269,2.269,0,0,1-.592.112,1.944,1.944,0,0,1,.558-.223c.435-.145.971-.324,1.619-.536,1.407-.458,3.461-1.083,6-1.82,5.08-1.485,12.137-3.394,20.009-5.248s15.04-3.283,20.243-4.209c2.6-.469,4.712-.826,6.186-1.038.681-.1,1.239-.179,1.686-.246A2.268,2.268,0,0,1,163.828,191.1Z" transform="translate(-106.95 -191.092)" fill="#263238"/>
              </g>
            </g>
            <g id="Group_21365" data-name="Group 21365" transform="translate(34.986 76.405)">
              <g id="Group_21364" data-name="Group 21364">
                <path id="Path_30068" data-name="Path 30068" d="M118.56,252.483a12.627,12.627,0,0,1,1.451-1.329c1.027-.882,2.4-2.066,4.053-3.495,3.405-2.959,8.039-7.135,12.952-11.97s9.145-9.413,12.159-12.773c1.452-1.63,2.646-2.981,3.551-4a12.626,12.626,0,0,1,1.34-1.429,12.332,12.332,0,0,1-1.172,1.574c-.782.994-1.943,2.412-3.417,4.131-2.937,3.439-7.146,8.073-12.059,12.918s-9.614,8.988-13.086,11.869c-1.742,1.44-3.171,2.59-4.176,3.35A14.422,14.422,0,0,1,118.56,252.483Z" transform="translate(-118.559 -217.489)" fill="#263238"/>
              </g>
            </g>
            <g id="Group_21367" data-name="Group 21367" transform="translate(37.208 96.124)">
              <g id="Group_21366" data-name="Group 21366">
                <path id="Path_30069" data-name="Path 30069" d="M163.292,235.15a2.45,2.45,0,0,1-.335.458c-.29.335-.637.737-1.061,1.228-.927,1.072-2.3,2.568-4.042,4.388a175.9,175.9,0,0,1-14.448,13.388,175.167,175.167,0,0,1-15.866,11.679c-2.11,1.373-3.852,2.445-5.069,3.149q-.837.486-1.407.8a1.793,1.793,0,0,1-.514.246c-.011-.022.145-.134.447-.346.368-.246.815-.536,1.351-.9,1.184-.759,2.881-1.887,4.958-3.305,4.165-2.825,9.8-6.9,15.721-11.791s10.965-9.669,14.526-13.231c1.775-1.775,3.2-3.238,4.176-4.254.458-.458.826-.849,1.139-1.161A2.382,2.382,0,0,1,163.292,235.15Z" transform="translate(-120.549 -235.149)" fill="#263238"/>
              </g>
            </g>
            <g id="Group_21369" data-name="Group 21369" transform="translate(66.635 124.474)">
              <g id="Group_21368" data-name="Group 21368">
                <path id="Path_30070" data-name="Path 30070" d="M146.911,276.574c-.145-.112,2.523-3.171,4.645-7.637,2.155-4.444,2.87-8.441,3.048-8.4a9.418,9.418,0,0,1-.391,2.624,30.183,30.183,0,0,1-2.144,6.029,29.791,29.791,0,0,1-3.361,5.438A9.016,9.016,0,0,1,146.911,276.574Z" transform="translate(-146.905 -260.54)" fill="#263238"/>
              </g>
            </g>
            <g id="Group_21370" data-name="Group 21370" transform="translate(80.174)">
              <path id="Path_30071" data-name="Path 30071" d="M159.03,188.564l25.212-1.027,12.338-5.873,1.362-17.251-1.117-12.2,10.607-3.149s8.81,22.61,8.519,30.839c-.1,2.769-.268,5.5-.435,7.905a14.7,14.7,0,0,1-7.838,11.925l-37.829,19.819L159.03,188.564" transform="translate(-159.03 -149.06)" fill="#e32726"/>
            </g>
            <g id="Group_21372" data-name="Group 21372" transform="translate(17.452 77.556)">
              <g id="Group_21371" data-name="Group 21371">
                <path id="Path_30072" data-name="Path 30072" d="M105.25,228.658a22.758,22.758,0,0,1-1.463-5c-.659-2.8-1.061-5.1-.893-5.136a23.526,23.526,0,0,1,1.463,5A23.655,23.655,0,0,1,105.25,228.658Z" transform="translate(-102.856 -218.52)" fill="#263238"/>
              </g>
            </g>
            <g id="Group_21374" data-name="Group 21374" transform="translate(18.417 79.41)">
              <g id="Group_21373" data-name="Group 21373">
                <path id="Path_30073" data-name="Path 30073" d="M104.937,220.18a2.971,2.971,0,0,1,.078.67q.033.754.1,1.943c.067,1.764.145,4.176.257,7.135.156,6.1.38,14.381.625,23.548a81,81,0,0,1-.324,13c-.257,2-.826,3.83-1.117,5.549a14.943,14.943,0,0,0-.19,2.523c-.056.815-.112,1.608-.156,2.367a26.577,26.577,0,0,0,.19,7.068,5.157,5.157,0,0,0,.7,1.753,6.075,6.075,0,0,1,.435.514c-.011.011-.056-.022-.145-.089a2.35,2.35,0,0,1-.38-.346,4.605,4.605,0,0,1-.837-1.775,24.165,24.165,0,0,1-.38-7.146c.045-.748.078-1.541.123-2.356a14.727,14.727,0,0,1,.156-2.579c.279-1.775.826-3.584,1.061-5.549a83.931,83.931,0,0,0,.279-12.907c-.179-9.156-.335-17.452-.458-23.548-.033-2.959-.056-5.382-.067-7.135,0-.793.011-1.44.011-1.943A3.647,3.647,0,0,1,104.937,220.18Z" transform="translate(-103.72 -220.18)" fill="#263238"/>
              </g>
            </g>
            <g id="Group_21376" data-name="Group 21376" transform="translate(81.715 41.658)">
              <g id="Group_21375" data-name="Group 21375">
                <path id="Path_30074" data-name="Path 30074" d="M166.718,205.921a14.094,14.094,0,0,1-1.184-2.769c-.659-1.742-1.507-4.165-2.378-6.867s-1.6-5.17-2.077-6.967a16.389,16.389,0,0,1-.659-2.948,15.821,15.821,0,0,1,1.05,2.825c.636,1.954,1.4,4.31,2.233,6.9s1.586,4.946,2.222,6.911A15.347,15.347,0,0,1,166.718,205.921Z" transform="translate(-160.41 -186.37)" fill="#263238"/>
              </g>
            </g>
            <g id="Group_21378" data-name="Group 21378" transform="translate(5.775 126.338)">
              <g id="Group_21377" data-name="Group 21377">
                <path id="Path_30075" data-name="Path 30075" d="M98.9,270.1a10.582,10.582,0,0,1-6.476-7.894,30.123,30.123,0,0,0,2.669,4.41C96.889,268.842,98.988,269.948,98.9,270.1Z" transform="translate(-92.398 -262.209)" fill="#263238"/>
              </g>
            </g>
            <g id="Group_21380" data-name="Group 21380" transform="translate(4.828 151.379)">
              <g id="Group_21379" data-name="Group 21379">
                <path id="Path_30076" data-name="Path 30076" d="M106.959,284.64a6.766,6.766,0,0,1-1.574,2.01A14.735,14.735,0,0,1,94.04,290.7a6.644,6.644,0,0,1-2.49-.547c.022-.1.971.1,2.512.145a16.4,16.4,0,0,0,11.054-3.942A24.479,24.479,0,0,1,106.959,284.64Z" transform="translate(-91.55 -284.636)" fill="#263238"/>
              </g>
            </g>
            <g id="Group_21382" data-name="Group 21382" transform="translate(118.849 6.474)">
              <g id="Group_21381" data-name="Group 21381">
                <path id="Path_30077" data-name="Path 30077" d="M205.528,154.9c.022.179-2.769.581-6.029,1.686-3.272,1.083-5.75,2.434-5.828,2.289a22.334,22.334,0,0,1,11.858-3.975Z" transform="translate(-193.668 -154.858)" fill="#263238"/>
              </g>
            </g>
            <g id="Group_21384" data-name="Group 21384" transform="translate(126.57 1.877)">
              <g id="Group_21383" data-name="Group 21383">
                <path id="Path_30078" data-name="Path 30078" d="M201.428,150.852c.022.078-.234.19-.324.525-.112.346.067.782.558.692a.5.5,0,0,0,.3-.837c-.2-.29-.469-.3-.48-.38-.045-.067.335-.257.77.1a1.014,1.014,0,0,1,.357.871.983.983,0,0,1-.849.826.959.959,0,0,1-1.038-1.44C201.026,150.718,201.439,150.773,201.428,150.852Z" transform="translate(-200.583 -150.741)" fill="#263238"/>
              </g>
            </g>
            <g id="Group_21386" data-name="Group 21386" transform="translate(32.999 36.786)">
              <g id="Group_21385" data-name="Group 21385">
                <path id="Path_30079" data-name="Path 30079" d="M145.007,182.022a4.17,4.17,0,0,1-1.094.279c-.837.156-1.853.346-3.026.569-2.7.491-6.163,1.128-9.982,1.82-3.819.726-7.269,1.373-9.971,1.876-1.172.212-2.188.391-3.026.547a3.708,3.708,0,0,1-1.128.123,4.219,4.219,0,0,1,1.083-.346c.7-.19,1.719-.435,2.992-.726,2.535-.581,6.052-1.329,9.949-2.054s7.447-1.3,10.027-1.652c1.284-.179,2.334-.313,3.059-.391A5.3,5.3,0,0,1,145.007,182.022Z" transform="translate(-116.78 -182.006)" fill="#263238"/>
              </g>
            </g>
            <g id="Group_21388" data-name="Group 21388" transform="translate(15.366 53.639)">
              <g id="Group_21387" data-name="Group 21387">
                <path id="Path_30080" data-name="Path 30080" d="M101.627,219.654c-.045.011-.123-.3-.257-.86a17.149,17.149,0,0,1-.313-2.423,48.251,48.251,0,0,1,.279-8.039c.324-3.126.748-5.929,1.027-7.95a27.764,27.764,0,0,1,.514-3.283,15.5,15.5,0,0,1-.112,3.327c-.167,2.043-.525,4.857-.849,7.972a68.041,68.041,0,0,0-.447,7.961C101.5,218.382,101.727,219.632,101.627,219.654Z" transform="translate(-100.987 -197.1)" fill="#263238"/>
              </g>
            </g>
            <g id="Group_21390" data-name="Group 21390" transform="translate(43.513 65.575)">
              <g id="Group_21389" data-name="Group 21389">
                <path id="Path_30081" data-name="Path 30081" d="M126.2,239.176c-.145-.078,3.439-7.157,7.995-15.833s8.374-15.632,8.519-15.554-3.439,7.157-7.995,15.833S126.346,239.255,126.2,239.176Z" transform="translate(-126.196 -207.789)" fill="#263238"/>
              </g>
            </g>
          </g>
          <g id="Group_21393" data-name="Group 21393" transform="translate(90.471 57.022)">
            <g id="Group_21392" data-name="Group 21392">
              <path id="Path_30082" data-name="Path 30082" d="M173.8,200.13a14.529,14.529,0,0,1-.96,2.456c-.625,1.5-1.452,3.584-2.211,5.929s-1.318,4.522-1.686,6.108a15.669,15.669,0,0,1-.659,2.557,9.775,9.775,0,0,1,.257-2.635,46.128,46.128,0,0,1,1.53-6.208,44.876,44.876,0,0,1,2.389-5.929A10.505,10.505,0,0,1,173.8,200.13Z" transform="translate(-168.253 -200.129)" fill="#263238"/>
            </g>
          </g>
          <g id="Group_21482" data-name="Group 21482" transform="translate(1.769 8.129)">
            <g id="Group_21395" data-name="Group 21395" transform="translate(2.546 62.378)">
              <g id="Group_21394" data-name="Group 21394">
                <path id="Path_30083" data-name="Path 30083" d="M100.759,212.21a10.987,10.987,0,0,1-1.429.391c-.882.223-2.11.536-3.439.938s-2.535.793-3.394,1.094a10.271,10.271,0,0,1-1.407.458,8.14,8.14,0,0,1,1.351-.614c.849-.335,2.043-.77,3.383-1.161s2.568-.692,3.473-.871A8.459,8.459,0,0,1,100.759,212.21Z" transform="translate(-91.09 -212.206)" fill="#e0e0e0"/>
              </g>
            </g>
            <g id="Group_21397" data-name="Group 21397" transform="translate(18.111 64.636)">
              <g id="Group_21396" data-name="Group 21396">
                <path id="Path_30084" data-name="Path 30084" d="M140.537,214.23c.022.067-7.916,2.4-17.72,5.225s-17.776,5.069-17.787,5,7.916-2.4,17.72-5.225S140.514,214.163,140.537,214.23Z" transform="translate(-105.03 -214.229)" fill="#e0e0e0"/>
              </g>
            </g>
            <g id="Group_21399" data-name="Group 21399" transform="translate(54.175 55.212)">
              <g id="Group_21398" data-name="Group 21398">
                <path id="Path_30085" data-name="Path 30085" d="M169.1,205.79c.022.056-7.068,2.68-15.844,5.851s-15.9,5.694-15.922,5.639,7.068-2.68,15.844-5.851S169.074,205.723,169.1,205.79Z" transform="translate(-137.33 -205.789)" fill="#e0e0e0"/>
              </g>
            </g>
            <g id="Group_21401" data-name="Group 21401" transform="translate(13.89 43.769)">
              <g id="Group_21400" data-name="Group 21400">
                <path id="Path_30086" data-name="Path 30086" d="M170.343,195.54s-.235.078-.692.2c-.514.134-1.184.324-2,.536-1.809.48-4.31,1.139-7.369,1.943-6.23,1.63-14.828,3.852-24.363,6.219s-18.189,4.388-24.475,5.773c-3.093.67-5.616,1.217-7.447,1.608-.837.168-1.507.313-2.032.413-.469.089-.715.134-.715.134s.234-.067.7-.179c.525-.123,1.195-.268,2.021-.458,1.82-.413,4.343-.983,7.425-1.686,6.275-1.429,14.917-3.484,24.453-5.84,9.491-2.389,18.077-4.556,24.374-6.152,3.071-.782,5.572-1.407,7.392-1.876q1.239-.3,2.01-.5C170.1,195.585,170.343,195.54,170.343,195.54Z" transform="translate(-101.25 -195.54)" fill="#e0e0e0"/>
              </g>
            </g>
            <g id="Group_21403" data-name="Group 21403" transform="translate(21.583 30.872)">
              <g id="Group_21402" data-name="Group 21402">
                <path id="Path_30087" data-name="Path 30087" d="M155.583,183.99c.011.067-10.6,2.747-23.693,6.007s-23.738,5.84-23.749,5.784,10.6-2.747,23.693-6.007S155.571,183.934,155.583,183.99Z" transform="translate(-108.14 -183.989)" fill="#e0e0e0"/>
              </g>
            </g>
            <g id="Group_21405" data-name="Group 21405" transform="translate(91.598 31.331)">
              <g id="Group_21404" data-name="Group 21404">
                <path id="Path_30088" data-name="Path 30088" d="M172.19,184.4c.011,0,.022.067.045.212.022.19.045.391.078.6.067.525.123,1.284.179,2.222a61.84,61.84,0,0,1-.022,7.336,60.4,60.4,0,0,1-.927,7.28c-.179.927-.346,1.664-.469,2.177-.056.2-.1.4-.156.581q-.05.2-.067.2c-.011,0,0-.078.022-.212.034-.19.067-.391.112-.592.123-.659.246-1.373.4-2.188.313-1.842.67-4.41.86-7.269a68.994,68.994,0,0,0,.089-7.313c-.045-.815-.078-1.552-.112-2.222q-.017-.318-.033-.6A1.044,1.044,0,0,1,172.19,184.4Z" transform="translate(-170.846 -184.4)" fill="#e0e0e0"/>
              </g>
            </g>
            <g id="Group_21407" data-name="Group 21407" transform="translate(104.309 30.527)">
              <g id="Group_21406" data-name="Group 21406">
                <path id="Path_30089" data-name="Path 30089" d="M188.148,203.8c-.011,0-.022-.067-.045-.212-.022-.2-.056-.4-.089-.614-.067-.525-.167-1.3-.324-2.233a58.235,58.235,0,0,0-1.63-7.258,59.377,59.377,0,0,0-2.557-6.99c-.38-.871-.7-1.574-.938-2.054-.089-.19-.179-.38-.257-.558-.056-.134-.078-.2-.078-.2s.045.056.123.179c.1.167.19.346.3.536.257.469.6,1.161,1,2.032a50.159,50.159,0,0,1,2.635,6.99,48.7,48.7,0,0,1,1.563,7.3c.134.949.212,1.719.246,2.255.011.212.022.413.045.614A1.047,1.047,0,0,1,188.148,203.8Z" transform="translate(-182.23 -183.68)" fill="#e0e0e0"/>
              </g>
            </g>
            <g id="Group_21409" data-name="Group 21409" transform="translate(115.675 24.318)">
              <g id="Group_21408" data-name="Group 21408">
                <path id="Path_30090" data-name="Path 30090" d="M201.287,195.873a5.443,5.443,0,0,1-.29-.726c-.223-.6-.469-1.262-.748-2-.648-1.686-1.6-3.975-2.825-6.431s-2.49-4.6-3.45-6.13c-.424-.659-.8-1.251-1.15-1.8a5.268,5.268,0,0,1-.413-.67,4.536,4.536,0,0,1,.48.614c.3.4.715,1,1.217,1.753a62.906,62.906,0,0,1,3.517,6.108,59.323,59.323,0,0,1,2.769,6.487c.3.849.536,1.541.67,2.032A3.637,3.637,0,0,1,201.287,195.873Z" transform="translate(-192.409 -178.12)" fill="#e0e0e0"/>
              </g>
            </g>
            <g id="Group_21411" data-name="Group 21411" transform="translate(116.703 16.74)">
              <g id="Group_21410" data-name="Group 21410">
                <path id="Path_30091" data-name="Path 30091" d="M210.827,173.73a5.145,5.145,0,0,1-.692-.1c-.581-.1-1.195-.212-1.865-.335-1.574-.279-3.752-.636-6.163-.971s-4.611-.558-6.2-.715c-.681-.067-1.3-.123-1.887-.179a5.235,5.235,0,0,1-.692-.089,5.484,5.484,0,0,1,.692,0c.447.011,1.094.056,1.887.112,1.6.112,3.8.324,6.219.648s4.6.715,6.163,1.038c.782.156,1.418.3,1.853.4A5.546,5.546,0,0,1,210.827,173.73Z" transform="translate(-193.33 -171.332)" fill="#e0e0e0"/>
              </g>
            </g>
            <g id="Group_21413" data-name="Group 21413" transform="translate(117.729 3.744)">
              <g id="Group_21412" data-name="Group 21412">
                <path id="Path_30092" data-name="Path 30092" d="M208.04,159.857a2.73,2.73,0,0,1-.558.011c-.357-.011-.871-.022-1.507-.011a33.111,33.111,0,0,0-4.946.424,31.425,31.425,0,0,0-4.824,1.206c-.6.2-1.094.38-1.429.5a2.105,2.105,0,0,1-.525.167,2.937,2.937,0,0,1,.491-.257c.324-.156.8-.346,1.407-.569a27.225,27.225,0,0,1,4.835-1.273,26.7,26.7,0,0,1,4.991-.357,15.2,15.2,0,0,1,1.519.089A1.8,1.8,0,0,1,208.04,159.857Z" transform="translate(-194.25 -159.693)" fill="#e0e0e0"/>
              </g>
            </g>
            <g id="Group_21415" data-name="Group 21415" transform="translate(18.591 83.371)">
              <g id="Group_21414" data-name="Group 21414">
                <path id="Path_30093" data-name="Path 30093" d="M130.147,231.01c.011.067-5.5,1.351-12.316,2.881s-12.349,2.724-12.371,2.657,5.5-1.351,12.316-2.881S130.136,230.943,130.147,231.01Z" transform="translate(-105.46 -231.008)" fill="#e0e0e0"/>
              </g>
            </g>
            <g id="Group_21417" data-name="Group 21417" transform="translate(43.289 85.647)">
              <g id="Group_21416" data-name="Group 21416">
                <path id="Path_30094" data-name="Path 30094" d="M135.385,233.575a33.271,33.271,0,0,1-3.908-.134,31.164,31.164,0,0,1-3.9-.368,33.271,33.271,0,0,1,3.908.134A37.2,37.2,0,0,1,135.385,233.575Z" transform="translate(-127.58 -233.046)" fill="#e0e0e0"/>
              </g>
            </g>
            <g id="Group_21419" data-name="Group 21419" transform="translate(58.485 72.429)">
              <g id="Group_21418" data-name="Group 21418">
                <path id="Path_30095" data-name="Path 30095" d="M169.785,221.21c.011.067-6.376,1.764-14.27,3.807S141.2,228.669,141.19,228.6s6.376-1.764,14.27-3.807S169.763,221.143,169.785,221.21Z" transform="translate(-141.19 -221.208)" fill="#e0e0e0"/>
              </g>
            </g>
            <g id="Group_21421" data-name="Group 21421" transform="translate(19.205 101.982)">
              <g id="Group_21420" data-name="Group 21420">
                <path id="Path_30096" data-name="Path 30096" d="M120.391,247.68c.011.067-3.2.692-7.168,1.4s-7.2,1.228-7.213,1.161,3.193-.692,7.168-1.4S120.38,247.625,120.391,247.68Z" transform="translate(-106.01 -247.676)" fill="#e0e0e0"/>
              </g>
            </g>
            <g id="Group_21423" data-name="Group 21423" transform="translate(39.124 93.42)">
              <g id="Group_21422" data-name="Group 21422">
                <path id="Path_30097" data-name="Path 30097" d="M156.409,240.01c.011.067-7.269,1.273-16.257,2.7s-16.291,2.535-16.3,2.479,7.269-1.273,16.257-2.7S156.409,239.943,156.409,240.01Z" transform="translate(-123.85 -240.007)" fill="#e0e0e0"/>
              </g>
            </g>
            <g id="Group_21425" data-name="Group 21425" transform="translate(71.65 94.461)">
              <g id="Group_21424" data-name="Group 21424">
                <path id="Path_30098" data-name="Path 30098" d="M165.541,240.962a2.051,2.051,0,0,1-.491.067c-.447.045-.893.078-1.351.123-1.139.1-2.713.257-4.444.469s-3.294.458-4.433.648c-.447.078-.893.145-1.34.212a3.061,3.061,0,0,1-.5.056,2.463,2.463,0,0,1,.48-.145c.313-.078.771-.179,1.329-.29,1.128-.223,2.691-.491,4.433-.715s3.316-.346,4.466-.4c.569-.034,1.038-.045,1.362-.045A2.465,2.465,0,0,1,165.541,240.962Z" transform="translate(-152.98 -240.94)" fill="#e0e0e0"/>
              </g>
            </g>
            <g id="Group_21427" data-name="Group 21427" transform="translate(17.563 115.908)">
              <g id="Group_21426" data-name="Group 21426">
                <path id="Path_30099" data-name="Path 30099" d="M132.945,260.15a1.164,1.164,0,0,1-.268.134c-.246.1-.5.212-.782.324-.681.279-1.686.659-2.925,1.094a77.647,77.647,0,0,1-20.154,4.131c-1.318.089-2.389.134-3.126.145-.313,0-.592.011-.849.011a1.315,1.315,0,0,1-.3-.011,1,1,0,0,1,.29-.034c.257-.011.536-.033.849-.056.737-.034,1.8-.112,3.115-.212a86.007,86.007,0,0,0,20.12-4.131c1.251-.413,2.255-.77,2.948-1.027.29-.1.558-.2.8-.29A1.308,1.308,0,0,1,132.945,260.15Z" transform="translate(-104.54 -260.148)" fill="#e0e0e0"/>
              </g>
            </g>
            <g id="Group_21429" data-name="Group 21429" transform="translate(42.675 109.579)">
              <g id="Group_21428" data-name="Group 21428">
                <path id="Path_30100" data-name="Path 30100" d="M168.521,254.48s-.134.056-.4.156q-.5.168-1.172.4c-1.016.346-2.512.826-4.355,1.4-3.685,1.139-8.832,2.59-14.571,3.919s-11,2.3-14.806,2.9c-1.909.3-3.45.525-4.522.659-.48.056-.882.112-1.228.156a4.075,4.075,0,0,1-.435.033s.145-.033.424-.089l1.228-.2c1.172-.19,2.691-.436,4.511-.737,3.807-.647,9.044-1.63,14.783-2.959s10.875-2.758,14.571-3.852l4.377-1.329c.458-.145.849-.257,1.184-.368C168.376,254.513,168.521,254.48,168.521,254.48Z" transform="translate(-127.03 -254.48)" fill="#e0e0e0"/>
              </g>
            </g>
            <g id="Group_21431" data-name="Group 21431" transform="translate(17.575 128.494)">
              <g id="Group_21430" data-name="Group 21430">
                <path id="Path_30101" data-name="Path 30101" d="M153.913,271.42s-.167.045-.491.1c-.391.067-.86.145-1.418.246-1.239.212-3.026.48-5.248.782-4.444.6-10.607,1.262-17.441,1.641s-13.041.38-17.519.257c-2.244-.056-4.053-.134-5.3-.212-.569-.034-1.038-.067-1.44-.089-.324-.022-.5-.045-.5-.045s.179-.011.5,0c.4.011.871.022,1.44.045,1.251.045,3.071.1,5.3.134,4.477.078,10.674.045,17.508-.324s12.986-1,17.429-1.574c2.222-.279,4.02-.525,5.259-.7l1.429-.2C153.746,271.431,153.913,271.42,153.913,271.42Z" transform="translate(-104.55 -271.42)" fill="#e0e0e0"/>
              </g>
            </g>
            <g id="Group_21433" data-name="Group 21433" transform="translate(69.193 125.655)">
              <g id="Group_21432" data-name="Group 21432">
                <path id="Path_30102" data-name="Path 30102" d="M166.412,269.115a3.836,3.836,0,0,1-.614.022c-.536-.011-1.083-.011-1.675-.022-1.418-.022-3.372-.033-5.527.011s-4.109.123-5.527.19c-.592.034-1.139.056-1.675.078a2.192,2.192,0,0,1-.614,0,3.957,3.957,0,0,1,.614-.089c.391-.045.96-.1,1.675-.156,1.407-.112,3.372-.223,5.527-.257s4.12,0,5.538.067c.7.034,1.284.067,1.675.089A2.95,2.95,0,0,1,166.412,269.115Z" transform="translate(-150.78 -268.878)" fill="#e0e0e0"/>
              </g>
            </g>
            <g id="Group_21435" data-name="Group 21435" transform="translate(0.29 81.303)">
              <g id="Group_21434" data-name="Group 21434">
                <path id="Path_30103" data-name="Path 30103" d="M106.968,229.16c.011.067-3.986.826-8.932,1.708s-8.955,1.552-8.966,1.485,3.986-.826,8.932-1.708S106.957,229.094,106.968,229.16Z" transform="translate(-89.07 -229.156)" fill="#e0e0e0"/>
              </g>
            </g>
            <g id="Group_21437" data-name="Group 21437" transform="translate(0.904 98.818)">
              <g id="Group_21436" data-name="Group 21436">
                <path id="Path_30104" data-name="Path 30104" d="M106.3,244.851c.011.067-3.718.48-8.33.927s-8.341.759-8.352.692,3.718-.48,8.33-.927S106.3,244.784,106.3,244.851Z" transform="translate(-89.62 -244.842)" fill="#e0e0e0"/>
              </g>
            </g>
            <g id="Group_21439" data-name="Group 21439" transform="translate(1.798 112.88)">
              <g id="Group_21438" data-name="Group 21438">
                <path id="Path_30105" data-name="Path 30105" d="M107.715,257.463c0,.067-3.863.234-8.642.38s-8.642.212-8.653.145,3.863-.234,8.642-.38S107.715,257.4,107.715,257.463Z" transform="translate(-90.42 -257.437)" fill="#e0e0e0"/>
              </g>
            </g>
            <g id="Group_21441" data-name="Group 21441" transform="translate(0.357 126.326)">
              <g id="Group_21440" data-name="Group 21440">
                <path id="Path_30106" data-name="Path 30106" d="M104.594,273.4a3.505,3.505,0,0,1-.636.011c-.4-.011-.994-.045-1.719-.1a35.7,35.7,0,0,1-5.605-.96,36.481,36.481,0,0,1-5.393-1.831c-.67-.29-1.206-.536-1.563-.726a2.733,2.733,0,0,1-.547-.313,3.881,3.881,0,0,1,.592.223c.368.167.916.391,1.586.659a45.047,45.047,0,0,0,5.382,1.753,43.16,43.16,0,0,0,5.572,1.027c.715.089,1.306.145,1.708.179A3.692,3.692,0,0,1,104.594,273.4Z" transform="translate(-89.13 -269.479)" fill="#e0e0e0"/>
              </g>
            </g>
            <g id="Group_21443" data-name="Group 21443" transform="translate(0 135.081)">
              <g id="Group_21442" data-name="Group 21442">
                <path id="Path_30107" data-name="Path 30107" d="M105.558,277.32a3.786,3.786,0,0,1-.569.458c-.38.29-.938.681-1.63,1.15a46.6,46.6,0,0,1-5.75,3.238,44.168,44.168,0,0,1-6.152,2.378c-.8.246-1.463.424-1.932.536a3.378,3.378,0,0,1-.715.145,5.118,5.118,0,0,1,.692-.234c.447-.134,1.105-.335,1.9-.6a53.562,53.562,0,0,0,11.847-5.594c.715-.447,1.284-.826,1.675-1.083A4.284,4.284,0,0,1,105.558,277.32Z" transform="translate(-88.81 -277.319)" fill="#e0e0e0"/>
              </g>
            </g>
            <g id="Group_21445" data-name="Group 21445" transform="translate(27.914 50.848)">
              <g id="Group_21444" data-name="Group 21444">
                <path id="Path_30108" data-name="Path 30108" d="M114.435,289.507s0-.313.011-.893c.022-.636.056-1.485.089-2.557.078-2.278.179-5.471.3-9.39.223-7.928.413-18.881.324-30.985s-.435-23.057-.77-30.984c-.179-3.919-.324-7.112-.435-9.379-.056-1.061-.089-1.909-.123-2.546-.022-.581-.022-.893-.022-.893s.034.3.078.893q.067.955.167,2.546c.145,2.211.324,5.415.5,9.379.38,7.928.748,18.881.837,30.984s-.134,23.068-.4,31c-.134,3.964-.268,7.168-.38,9.39l-.134,2.546C114.469,289.206,114.435,289.507,114.435,289.507Z" transform="translate(-113.81 -201.88)" fill="#e0e0e0"/>
              </g>
            </g>
            <g id="Group_21447" data-name="Group 21447" transform="translate(44.658 46.862)">
              <g id="Group_21446" data-name="Group 21446">
                <path id="Path_30109" data-name="Path 30109" d="M132.439,227.508c-.067.011-.927-6.521-1.932-14.582s-1.764-14.6-1.7-14.616.927,6.521,1.932,14.593C131.736,220.954,132.5,227.5,132.439,227.508Z" transform="translate(-128.806 -198.31)" fill="#e0e0e0"/>
              </g>
            </g>
            <g id="Group_21449" data-name="Group 21449" transform="translate(45.198 80.493)">
              <g id="Group_21448" data-name="Group 21448">
                <path id="Path_30110" data-name="Path 30110" d="M130.585,237.217a41.985,41.985,0,0,1-.759-4.377,40.032,40.032,0,0,1-.525-4.41,41.976,41.976,0,0,1,.759,4.377A40.342,40.342,0,0,1,130.585,237.217Z" transform="translate(-129.29 -228.43)" fill="#e0e0e0"/>
              </g>
            </g>
            <g id="Group_21451" data-name="Group 21451" transform="translate(50.796 88.074)">
              <g id="Group_21450" data-name="Group 21450">
                <path id="Path_30111" data-name="Path 30111" d="M134.568,260.432c-.067,0-.168-5.639-.223-12.606s-.056-12.606.011-12.606.167,5.639.223,12.606S134.635,260.432,134.568,260.432Z" transform="translate(-134.304 -235.22)" fill="#e0e0e0"/>
              </g>
            </g>
            <g id="Group_21453" data-name="Group 21453" transform="translate(47.583 115.318)">
              <g id="Group_21452" data-name="Group 21452">
                <path id="Path_30112" data-name="Path 30112" d="M134.546,282.431c-.067.011-.815-5.091-1.675-11.389s-1.507-11.422-1.44-11.422.815,5.092,1.675,11.4C133.965,277.306,134.613,282.42,134.546,282.431Z" transform="translate(-131.426 -259.62)" fill="#e0e0e0"/>
              </g>
            </g>
            <g id="Group_21455" data-name="Group 21455" transform="translate(65.306 43.278)">
              <g id="Group_21454" data-name="Group 21454">
                <path id="Path_30113" data-name="Path 30113" d="M154.736,241.873c-.067.011-1.775-10.451-3.83-23.37s-3.673-23.4-3.606-23.4,1.775,10.451,3.841,23.37C153.184,231.377,154.8,241.861,154.736,241.873Z" transform="translate(-147.298 -195.1)" fill="#e0e0e0"/>
              </g>
            </g>
            <g id="Group_21457" data-name="Group 21457" transform="translate(67.625 99.686)">
              <g id="Group_21456" data-name="Group 21456">
                <path id="Path_30114" data-name="Path 30114" d="M151.748,266.433c-.067.011-.648-4.645-1.3-10.4s-1.128-10.406-1.072-10.418.648,4.645,1.3,10.4S151.815,266.433,151.748,266.433Z" transform="translate(-149.376 -245.62)" fill="#e0e0e0"/>
              </g>
            </g>
            <g id="Group_21459" data-name="Group 21459" transform="translate(83.318 29.677)">
              <g id="Group_21458" data-name="Group 21458">
                <path id="Path_30115" data-name="Path 30115" d="M199.45,182.92a42.438,42.438,0,0,1-4.5,3.551,52.777,52.777,0,0,1-5.315,3.249,58.116,58.116,0,0,1-6.967,3.093,59.154,59.154,0,0,1-7.347,2.066,52.883,52.883,0,0,1-6.163.893,42.876,42.876,0,0,1-5.728.145,2.741,2.741,0,0,1,.4-.022c.335-.011.7-.022,1.139-.022.994-.011,2.423-.089,4.176-.257a55.58,55.58,0,0,0,6.13-.938,55.1,55.1,0,0,0,14.247-5.136,54.839,54.839,0,0,0,5.326-3.193c1.463-.994,2.613-1.854,3.372-2.479.346-.268.636-.5.893-.7A3.513,3.513,0,0,1,199.45,182.92Z" transform="translate(-163.43 -182.919)" fill="#e0e0e0"/>
              </g>
            </g>
            <g id="Group_21461" data-name="Group 21461" transform="translate(119.434 0.782)">
              <g id="Group_21460" data-name="Group 21460">
                <path id="Path_30116" data-name="Path 30116" d="M195.78,185.959a1.425,1.425,0,0,1,.011-.29c.022-.257.056-.536.078-.837.089-.86.19-1.887.313-3.093.257-2.613.558-6.219.737-10.216s.212-7.615.19-10.239c-.011-1.206-.022-2.244-.034-3.1,0-.313,0-.581-.011-.849a1.168,1.168,0,0,1,.011-.29,1.009,1.009,0,0,1,.034.29c.011.257.033.536.056.849.045.737.078,1.8.112,3.1.067,2.624.056,6.253-.123,10.25s-.5,7.615-.8,10.217c-.145,1.306-.279,2.356-.391,3.082-.045.3-.089.581-.123.837C195.8,185.858,195.78,185.959,195.78,185.959Z" transform="translate(-195.776 -157.04)" fill="#e0e0e0"/>
              </g>
            </g>
            <g id="Group_21463" data-name="Group 21463" transform="translate(91.759)">
              <g id="Group_21462" data-name="Group 21462">
                <path id="Path_30117" data-name="Path 30117" d="M208.037,156.34s.067.268.167.782.268,1.273.5,2.244c.458,1.943,1.262,4.712,2.177,8.162a37.315,37.315,0,0,1,1.5,12.4,17.154,17.154,0,0,1-7.124,13.12,63.42,63.42,0,0,1-6.644,4.366c-2.2,1.318-4.332,2.568-6.376,3.741-4.087,2.345-7.816,4.388-10.965,6.063s-5.717,2.992-7.5,3.886c-.849.424-1.541.759-2.054,1.016-.469.234-.726.335-.726.335s.234-.134.7-.38c.514-.268,1.195-.625,2.032-1.061,1.764-.916,4.321-2.255,7.459-3.953s6.845-3.752,10.931-6.108c2.043-1.183,4.176-2.434,6.376-3.752a63.626,63.626,0,0,0,6.621-4.355,17.012,17.012,0,0,0,7.057-12.963,37.487,37.487,0,0,0-1.452-12.349c-.893-3.45-1.675-6.23-2.1-8.173S208.037,156.34,208.037,156.34Z" transform="translate(-170.99 -156.34)" fill="#e0e0e0"/>
              </g>
            </g>
            <g id="Group_21465" data-name="Group 21465" transform="translate(5.17 50.48)">
              <g id="Group_21464" data-name="Group 21464">
                <path id="Path_30118" data-name="Path 30118" d="M93.44,269.414s.011-.234.045-.692c.045-.514.089-1.172.156-1.976.145-1.786.346-4.254.592-7.258.491-6.13,1.105-14.6,1.63-23.973s.871-17.865,1.072-24.017c.089-3.015.168-5.482.223-7.28q.033-1.206.067-1.976c.022-.458.034-.692.034-.692s.011.234.011.692c0,.514-.011,1.172-.022,1.976-.034,1.8-.089,4.265-.156,7.28-.156,6.152-.48,14.649-1,24.017s-1.172,17.843-1.7,23.973c-.279,3-.5,5.471-.659,7.258-.078.8-.145,1.463-.2,1.965C93.474,269.18,93.44,269.414,93.44,269.414Z" transform="translate(-93.44 -201.55)" fill="#e0e0e0"/>
              </g>
            </g>
            <g id="Group_21467" data-name="Group 21467" transform="translate(4.539 122.196)">
              <g id="Group_21466" data-name="Group 21466">
                <path id="Path_30119" data-name="Path 30119" d="M96.442,293.984a1.015,1.015,0,0,1-.1-.268c-.078-.246-.156-.5-.246-.793-.212-.692-.5-1.7-.815-2.948a81.422,81.422,0,0,1-1.842-9.937,78.757,78.757,0,0,1-.558-10.083c.011-1.3.045-2.334.089-3.059.022-.3.034-.581.056-.826a1.009,1.009,0,0,1,.034-.29,1.165,1.165,0,0,1,.011.29c0,.257-.011.525-.011.826-.022.726-.034,1.764-.022,3.059a88.611,88.611,0,0,0,2.389,19.986c.3,1.251.558,2.267.748,2.97.078.29.145.558.212.8A2.027,2.027,0,0,1,96.442,293.984Z" transform="translate(-92.875 -265.78)" fill="#e0e0e0"/>
              </g>
            </g>
            <g id="Group_21469" data-name="Group 21469" transform="translate(14.689 69.941)">
              <g id="Group_21468" data-name="Group 21468">
                <path id="Path_30120" data-name="Path 30120" d="M102.518,296.067s-.011-.268-.011-.782c0-.569.011-1.318.011-2.244.022-2.021.045-4.824.078-8.263.056-6.979.089-16.614.011-27.255s-.246-20.277-.4-27.255c-.078-3.439-.145-6.242-.19-8.262-.022-.927-.034-1.675-.045-2.244-.011-.514,0-.782,0-.782s.022.268.045.782c.022.569.056,1.318.089,2.244.067,2.021.156,4.824.268,8.251.2,6.967.4,16.6.469,27.255s.011,20.277-.078,27.255c-.056,3.439-.112,6.242-.145,8.263-.022.927-.045,1.675-.056,2.244C102.54,295.788,102.518,296.067,102.518,296.067Z" transform="translate(-101.966 -218.98)" fill="#e0e0e0"/>
              </g>
            </g>
            <g id="Group_21471" data-name="Group 21471" transform="translate(28.312 36.087)">
              <g id="Group_21470" data-name="Group 21470">
                <path id="Path_30121" data-name="Path 30121" d="M114.907,202.74c-.067,0-.279-3.149-.48-7.034s-.3-7.034-.246-7.046.279,3.149.469,7.034C114.863,199.58,114.974,202.729,114.907,202.74Z" transform="translate(-114.166 -188.66)" fill="#e0e0e0"/>
              </g>
            </g>
            <g id="Group_21473" data-name="Group 21473" transform="translate(44.407 31.163)">
              <g id="Group_21472" data-name="Group 21472">
                <path id="Path_30122" data-name="Path 30122" d="M129.763,198.609c-.067,0-.38-3.2-.7-7.168s-.525-7.179-.469-7.191.38,3.2.7,7.168S129.819,198.6,129.763,198.609Z" transform="translate(-128.582 -184.25)" fill="#e0e0e0"/>
              </g>
            </g>
            <g id="Group_21475" data-name="Group 21475" transform="translate(59.755 28.271)">
              <g id="Group_21474" data-name="Group 21474">
                <path id="Path_30123" data-name="Path 30123" d="M146.149,194.813c-.067.022-.96-2.914-2.021-6.543s-1.854-6.588-1.8-6.61.96,2.914,2.021,6.543S146.2,194.791,146.149,194.813Z" transform="translate(-142.328 -181.66)" fill="#e0e0e0"/>
              </g>
            </g>
            <g id="Group_21477" data-name="Group 21477" transform="translate(30.984 25.107)">
              <g id="Group_21476" data-name="Group 21476">
                <path id="Path_30124" data-name="Path 30124" d="M143.2,178.83a.906.906,0,0,1-.268.067c-.246.045-.5.089-.782.145-.815.145-1.764.313-2.87.5-2.423.424-5.773,1.05-9.446,1.82s-6.99,1.541-9.39,2.121c-1.094.268-2.032.491-2.836.692-.279.067-.536.123-.77.179a.739.739,0,0,1-.279.045.829.829,0,0,1,.257-.089c.234-.067.491-.145.759-.223.793-.212,1.731-.469,2.814-.759,2.389-.625,5.694-1.418,9.379-2.188s7.034-1.362,9.468-1.753l2.892-.435c.279-.034.547-.067.793-.1A1.053,1.053,0,0,1,143.2,178.83Z" transform="translate(-116.56 -178.826)" fill="#e0e0e0"/>
              </g>
            </g>
            <g id="Group_21479" data-name="Group 21479" transform="translate(35.627 26.797)">
              <g id="Group_21478" data-name="Group 21478">
                <path id="Path_30125" data-name="Path 30125" d="M120.8,186.727a43.553,43.553,0,0,1,.1-6.387,20.542,20.542,0,0,1,.067,3.193A22.184,22.184,0,0,1,120.8,186.727Z" transform="translate(-120.718 -180.34)" fill="#e0e0e0"/>
              </g>
            </g>
            <g id="Group_21481" data-name="Group 21481" transform="translate(51.002 24.508)">
              <g id="Group_21480" data-name="Group 21480">
                <path id="Path_30126" data-name="Path 30126" d="M135.573,184.074a38.041,38.041,0,0,1-1.072-5.784,38.055,38.055,0,0,1,1.072,5.784Z" transform="translate(-134.488 -178.29)" fill="#e0e0e0"/>
              </g>
            </g>
          </g>
        </g>
      </g>
    </g>
  </g>
</svg>
