<svg xmlns="http://www.w3.org/2000/svg" xmlns:xlink="http://www.w3.org/1999/xlink" width="1622" height="256" viewBox="0 0 1622 256">
  <defs>
    <clipPath id="clip-path">
      <rect id="Rectangle_19551" data-name="Rectangle 19551" width="1622" height="256" transform="translate(-128 3272)" fill="#fff" stroke="#707070" stroke-width="1"/>
    </clipPath>
    <clipPath id="clip-path-2">
      <rect id="Rectangle_19571" data-name="Rectangle 19571" width="1636" height="256" transform="translate(-135 3287)" fill="#fff" stroke="#707070" stroke-width="1"/>
    </clipPath>
  </defs>
  <g id="Mask_Group_870" data-name="Mask Group 870" transform="translate(128 -3272)" clip-path="url(#clip-path)">
    <g id="Group_117519" data-name="Group 117519" transform="translate(0 -15)">
      <g id="Mask_Group_905" data-name="Mask Group 905" clip-path="url(#clip-path-2)">
        <g id="Group_119050" data-name="Group 119050">
          <g id="Group_117307" data-name="Group 117307" transform="translate(0.138 94.34)">
            <g id="Group_116425" data-name="Group 116425" transform="translate(-37.567 3325.746)" opacity="0.45">
              <g id="Group_114247" data-name="Group 114247" transform="translate(43.389 0.117)">
                <path id="Path_84400" data-name="Path 84400" d="M16.464,21.185c7.325.543,13.836,4.341,20.619,6.918,8.139,2.984,16.956,2.984,25.231,5.426a.839.839,0,0,0,.407-1.628c-8.275-2.442-16.957-2.713-25.231-5.426C30.436,24.17,23.925,20.1,16.464,19.557c-1.085-.136-1.085,1.492,0,1.628Z" transform="translate(-15.65 -19.549)" fill="#fff"/>
              </g>
              <g id="Group_114248" data-name="Group 114248" transform="translate(4.149)">
                <path id="Path_84401" data-name="Path 84401" d="M52.133,19.938C46.3,29.7,38.568,38.522,31.379,47.2c-3.391,4.205-7.325,7.868-11.123,11.8-3.12,3.256-4.748,6.918-7.325,10.445-.678.95.814,1.763,1.492.814,2.849-3.934,5.019-7.868,8.41-11.53,3.8-4.07,7.732-7.868,11.259-12.209,6.783-8.275,13.972-16.685,19.534-25.774.543-.814-.95-1.763-1.492-.814Z" transform="translate(-12.757 -19.541)" fill="#fff"/>
              </g>
              <g id="Group_114249" data-name="Group 114249" transform="translate(53.159 12.339)">
                <path id="Path_84402" data-name="Path 84402" d="M53.265,20.717C47.974,27.228,42.277,33.6,37.8,40.794c-3.527,5.562-6.918,11.395-10.445,16.956-3.256,4.883-6.647,11.53-10.717,15.6a.863.863,0,0,0,1.221,1.221C21.115,71.315,23.421,66.7,26,62.9c3.934-5.562,7.461-11.395,10.852-17.092,5.155-8.546,11.395-16.007,17.635-23.739.678-.95-.543-2.17-1.221-1.357Z" transform="translate(-16.37 -20.45)" fill="#fff"/>
              </g>
              <g id="Group_114250" data-name="Group 114250" transform="translate(4.186 50.317)">
                <path id="Path_84403" data-name="Path 84403" d="M13.574,25.013C30.259,26.641,46.13,35.052,61.866,39.935a.839.839,0,0,0,.407-1.628C46.4,33.288,30.395,24.878,13.574,23.25c-1.085,0-1.085,1.628,0,1.763Z" transform="translate(-12.76 -23.25)" fill="#fff"/>
              </g>
              <g id="Group_114251" data-name="Group 114251" transform="translate(0 49.914)">
                <path id="Path_84404" data-name="Path 84404" d="M16.5,23.487c-6.783,6.647-4.883,22.518,4.477,26.181,1.085.407,1.492-1.221.407-1.628-8.139-3.12-9.5-17.635-3.8-23.2.95-.95-.271-2.17-1.085-1.357Z" transform="translate(-12.451 -23.22)" fill="#fff"/>
              </g>
              <g id="Group_114252" data-name="Group 114252" transform="translate(7.966 74.598)">
                <path id="Path_84405" data-name="Path 84405" d="M13.87,26.8c8.275.407,15.871,4.07,23.332,7.054a98.588,98.588,0,0,0,24.146,6.1c1.085.136,1.085-1.628,0-1.763A108.632,108.632,0,0,1,35.3,31.28c-6.918-2.849-13.972-5.833-21.569-6.24-.95,0-.95,1.763.136,1.763Z" transform="translate(-13.039 -25.04)" fill="#fff"/>
              </g>
              <g id="Group_114253" data-name="Group 114253" transform="translate(88.054 12.383)">
                <path id="Path_84406" data-name="Path 84406" d="M20.67,21.083c-.814,3.8-2.306,7.868-1.492,11.8.543,2.984,2.577,6.918,5.426,8.139.95.407,1.9-1.085.814-1.492-2.577-1.085-3.934-4.476-4.612-7.054-.95-3.256.814-7.6,1.492-10.852a.858.858,0,1,0-1.628-.543Z" transform="translate(-18.943 -20.454)" fill="#fff"/>
              </g>
              <g id="Group_114254" data-name="Group 114254" transform="translate(55.465 31.33)">
                <path id="Path_84407" data-name="Path 84407" d="M54.52,22.117c-3.8,3.391-5.969,8.41-9.224,12.48-3.12,3.934-5.969,7.732-8.817,11.8-3.391,4.883-7.325,9.36-10.31,14.65-3.391,5.7-4.748,12.751-9.36,17.635A.863.863,0,0,0,18.029,79.9c3.12-3.391,4.883-7.732,6.783-11.937a75.718,75.718,0,0,1,9.224-15.193c3.8-5.019,6.783-10.852,11.123-15.329,4.07-4.205,6.24-10.038,10.581-13.972a.914.914,0,1,0-1.221-1.357Z" transform="translate(-16.54 -21.85)" fill="#fff"/>
              </g>
              <g id="Group_114255" data-name="Group 114255" transform="translate(51.634 65.374)">
                <path id="Path_84408" data-name="Path 84408" d="M17.238,25.174c.136,3.8-1.492,7.6-.814,11.53a37.609,37.609,0,0,0,3.8,11.395c.543.95,2.035.136,1.492-.814a37.971,37.971,0,0,1-3.8-12.073c-.407-3.256,1.221-6.647,1.085-10.038a.885.885,0,0,0-1.763,0Z" transform="translate(-16.258 -24.36)" fill="#fff"/>
              </g>
              <g id="Group_114256" data-name="Group 114256" transform="translate(6.199 53.182)">
                <path id="Path_84409" data-name="Path 84409" d="M13.473,24.259c-.136,2.984-.678,5.969-.543,8.953.271,3.256,1.221,6.511,1.085,9.767-.136,1.085,1.628,1.085,1.763,0,.136-2.984-.543-5.969-.95-8.817-.407-3.256.271-6.511.407-9.767,0-1.221-1.763-1.221-1.763-.136Z" transform="translate(-12.908 -23.461)" fill="#fff"/>
              </g>
              <g id="Group_114257" data-name="Group 114257" transform="translate(9.38 54.704)">
                <path id="Path_84410" data-name="Path 84410" d="M14.731,23.8h0a5.311,5.311,0,0,0-1.085,1.357,182.759,182.759,0,0,0,18.449,7.732c8,2.577,15.329,7.054,23.875,7.19,1.085,0,1.085-1.628,0-1.763-7.6-.136-14.243-3.8-21.3-6.376-6.918-2.577-13.565-5.29-20.212-8.275-.814-.407-1.763.678-1.085,1.357h0c.95.678,2.035-.543,1.357-1.221Z" transform="translate(-13.143 -23.573)" fill="#fff"/>
              </g>
              <g id="Group_114258" data-name="Group 114258" transform="translate(10.098 59.205)">
                <path id="Path_84411" data-name="Path 84411" d="M13.8,25.6c6.511,1.9,12.751,5.562,19.127,7.868C40.247,36.043,47.979,37.4,55.3,40.113c1.085.407,1.492-1.221.407-1.628-6.511-2.442-13.294-3.934-19.941-5.833C28.31,30.481,21.663,26.14,14.2,23.97c-.95-.407-1.492,1.221-.407,1.628Z" transform="translate(-13.196 -23.905)" fill="#fff"/>
              </g>
              <g id="Group_114259" data-name="Group 114259" transform="translate(9.284 62.902)">
                <path id="Path_84412" data-name="Path 84412" d="M13.735,25.836c7.054,1.492,13.837,5.833,20.483,8.41,7.19,2.713,14.65,4.07,21.84,6.511,1.085.407,1.492-1.357.407-1.628-7.19-2.442-14.65-3.8-21.84-6.511-6.918-2.577-13.294-6.918-20.483-8.41-.95-.271-1.492,1.357-.407,1.628Z" transform="translate(-13.136 -24.178)" fill="#fff"/>
              </g>
              <g id="Group_114260" data-name="Group 114260" transform="translate(12.819 69.107)">
                <path id="Path_84413" data-name="Path 84413" d="M13.988,26.328c8.275,2.984,17.092,5.426,25.231,8.953,4.748,2.035,10.852,2.713,15.193,5.426.95.543,1.763-.95.814-1.492-4.748-3.12-11.53-3.934-16.685-6.1-7.732-3.256-16.143-5.562-24.01-8.41a.858.858,0,1,0-.543,1.628Z" transform="translate(-13.396 -24.635)" fill="#fff"/>
              </g>
              <g id="Group_114261" data-name="Group 114261" transform="translate(52.552 20.125)">
                <path id="Path_84414" data-name="Path 84414" d="M17.88,71.97c8.275-7.6,12.616-18.449,19.805-26.859a118.939,118.939,0,0,0,15.6-22.79c.543-.95-.95-1.9-1.492-.814a133.261,133.261,0,0,1-16.685,24.01c-6.783,8-10.717,18.177-18.584,25.367-.678.678.543,1.9,1.357,1.085Z" transform="translate(-16.325 -21.024)" fill="#fff"/>
              </g>
              <g id="Group_114262" data-name="Group 114262" transform="translate(52.462 25.959)">
                <path id="Path_84415" data-name="Path 84415" d="M52.825,21.938c-4.07,9.5-12.073,16.821-18.042,24.96-3.12,4.341-5.833,8.817-9.089,13.023-3.12,4.07-4.341,11.395-8.953,13.972-.95.543-.136,2.035.814,1.492,2.849-1.628,4.341-5.019,5.833-7.732,3.12-5.7,7.19-10.717,10.445-16.278C39.667,41.336,49.705,33.74,54.318,22.752c.407-.95-1.085-1.9-1.492-.814Z" transform="translate(-16.319 -21.454)" fill="#fff"/>
              </g>
              <g id="Group_114263" data-name="Group 114263" transform="translate(53.892 29.899)">
                <path id="Path_84416" data-name="Path 84416" d="M52.721,22.086a66.185,66.185,0,0,0-6.647,9.5C42.411,37.415,38.206,42.57,34,48a99,99,0,0,0-9.36,13.023c-2.713,5.019-4.07,10.581-8,14.922-.678.814.407,2.035,1.221,1.221l.95-.95a.863.863,0,0,0-1.221-1.221,6.268,6.268,0,0,1-.95.95l1.221,1.221c2.442-2.713,3.934-5.969,5.562-9.224,1.357-2.577,2.306-5.426,3.663-8,1.357-2.442,3.663-4.748,5.29-7.054,3.527-5.155,8-9.36,11.53-14.515,3.391-4.883,5.833-10.31,9.767-14.922,1.085-1.085-.136-2.306-.95-1.356Z" transform="translate(-16.424 -21.745)" fill="#fff"/>
              </g>
            </g>
            <g id="Group_116427" data-name="Group 116427" transform="translate(77.467 3234.729) rotate(-45)" opacity="0.45">
              <g id="Group_114247-2" data-name="Group 114247" transform="translate(23.707 0.064)">
                <path id="Path_84400-2" data-name="Path 84400" d="M16.095,20.443c4,.3,7.56,2.372,11.266,3.78,4.447,1.631,9.265,1.631,13.786,2.965a.458.458,0,1,0,.222-.889c-4.521-1.334-9.265-1.482-13.786-2.965-3.854-1.26-7.412-3.484-11.488-3.78-.593-.074-.593.815,0,.889Z" transform="translate(-15.65 -19.549)" fill="#fff"/>
              </g>
              <g id="Group_114248-2" data-name="Group 114248" transform="translate(2.267)">
                <path id="Path_84401-2" data-name="Path 84401" d="M34.272,19.758c-3.187,5.337-7.412,10.154-11.34,14.9-1.853,2.3-4,4.3-6.078,6.448-1.7,1.779-2.594,3.78-4,5.707-.371.519.445.964.815.445a62.069,62.069,0,0,1,4.6-6.3c2.075-2.224,4.225-4.3,6.152-6.671,3.706-4.521,7.634-9.117,10.673-14.083.3-.445-.519-.964-.815-.445Z" transform="translate(-12.757 -19.541)" fill="#fff"/>
              </g>
              <g id="Group_114249-2" data-name="Group 114249" transform="translate(29.046 6.742)">
                <path id="Path_84402-2" data-name="Path 84402" d="M36.529,20.6a110.592,110.592,0,0,0-8.45,10.97c-1.927,3.039-3.78,6.226-5.707,9.265-1.779,2.668-3.632,6.3-5.855,8.524a.472.472,0,0,0,.667.667c1.779-1.779,3.039-4.3,4.447-6.374,2.149-3.039,4.077-6.226,5.93-9.339A117.557,117.557,0,0,1,37.2,21.337c.371-.519-.3-1.186-.667-.741Z" transform="translate(-16.37 -20.45)" fill="#fff"/>
              </g>
              <g id="Group_114250-2" data-name="Group 114250" transform="translate(2.287 27.493)">
                <path id="Path_84403-2" data-name="Path 84403" d="M13.2,24.214c9.117.889,17.789,5.485,26.386,8.153a.458.458,0,0,0,.222-.889C31.141,28.735,22.4,24.139,13.2,23.25c-.593,0-.593.889,0,.964Z" transform="translate(-12.76 -23.25)" fill="#fff"/>
              </g>
              <g id="Group_114251-2" data-name="Group 114251" transform="translate(0 27.273)">
                <path id="Path_84404-2" data-name="Path 84404" d="M14.664,23.366C10.958,27,12,35.67,17.11,37.671c.593.222.815-.667.222-.889-4.447-1.7-5.188-9.635-2.075-12.674.519-.519-.148-1.186-.593-.741Z" transform="translate(-12.451 -23.22)" fill="#fff"/>
              </g>
              <g id="Group_114252-2" data-name="Group 114252" transform="translate(4.353 40.76)">
                <path id="Path_84405-2" data-name="Path 84405" d="M13.493,26c4.521.222,8.672,2.224,12.748,3.854a53.868,53.868,0,0,0,13.193,3.335c.593.074.593-.889,0-.964A59.356,59.356,0,0,1,25.2,28.449c-3.78-1.556-7.634-3.187-11.785-3.409-.519,0-.519.964.074.964Z" transform="translate(-13.039 -25.04)" fill="#fff"/>
              </g>
              <g id="Group_114253-2" data-name="Group 114253" transform="translate(48.112 6.766)">
                <path id="Path_84406-2" data-name="Path 84406" d="M19.887,20.8c-.445,2.075-1.26,4.3-.815,6.448.3,1.631,1.408,3.78,2.965,4.447.519.222,1.038-.593.445-.815-1.408-.593-2.149-2.446-2.52-3.854-.519-1.779.445-4.151.815-5.93a.469.469,0,1,0-.889-.3Z" transform="translate(-18.943 -20.454)" fill="#fff"/>
              </g>
              <g id="Group_114254-2" data-name="Group 114254" transform="translate(30.306 17.118)">
                <path id="Path_84407-2" data-name="Path 84407" d="M37.292,22c-2.075,1.853-3.261,4.6-5.04,6.819-1.7,2.149-3.261,4.225-4.818,6.448-1.853,2.668-4,5.114-5.633,8-1.853,3.113-2.594,6.967-5.114,9.635a.472.472,0,0,0,.667.667,23.607,23.607,0,0,0,3.706-6.522,41.372,41.372,0,0,1,5.04-8.3c2.075-2.742,3.706-5.93,6.078-8.375,2.224-2.3,3.409-5.485,5.781-7.634A.5.5,0,1,0,37.292,22Z" transform="translate(-16.54 -21.85)" fill="#fff"/>
              </g>
              <g id="Group_114255-2" data-name="Group 114255" transform="translate(28.212 35.72)">
                <path id="Path_84408-2" data-name="Path 84408" d="M16.793,24.8c.074,2.075-.815,4.151-.445,6.3a20.549,20.549,0,0,0,2.075,6.226c.3.519,1.112.074.815-.445a20.747,20.747,0,0,1-2.075-6.6c-.222-1.779.667-3.632.593-5.485a.483.483,0,0,0-.964,0Z" transform="translate(-16.258 -24.36)" fill="#fff"/>
              </g>
              <g id="Group_114256-2" data-name="Group 114256" transform="translate(3.387 29.058)">
                <path id="Path_84409-2" data-name="Path 84409" d="M13.217,23.9c-.074,1.631-.371,3.261-.3,4.892a43.524,43.524,0,0,1,.593,5.337c-.074.593.889.593.964,0a25.911,25.911,0,0,0-.519-4.818,32.158,32.158,0,0,1,.222-5.337c0-.667-.964-.667-.964-.074Z" transform="translate(-12.908 -23.461)" fill="#fff"/>
              </g>
              <g id="Group_114257-2" data-name="Group 114257" transform="translate(5.125 29.89)">
                <path id="Path_84410-2" data-name="Path 84410" d="M14.011,23.7h0a2.9,2.9,0,0,0-.593.741A99.858,99.858,0,0,0,23.5,28.662c4.373,1.408,8.375,3.854,13.045,3.928.593,0,.593-.889,0-.964-4.151-.074-7.782-2.075-11.637-3.484-3.78-1.408-7.412-2.891-11.044-4.521-.445-.222-.964.371-.593.741h0c.519.371,1.112-.3.741-.667Z" transform="translate(-13.143 -23.573)" fill="#fff"/>
              </g>
              <g id="Group_114258-2" data-name="Group 114258" transform="translate(5.517 32.349)">
                <path id="Path_84411-2" data-name="Path 84411" d="M13.523,24.83c3.558,1.038,6.967,3.039,10.451,4.3,4,1.408,8.227,2.149,12.23,3.632.593.222.815-.667.222-.889-3.558-1.334-7.264-2.149-10.9-3.187-4.077-1.186-7.708-3.558-11.785-4.744-.519-.222-.815.667-.222.889Z" transform="translate(-13.196 -23.905)" fill="#fff"/>
              </g>
              <g id="Group_114259-2" data-name="Group 114259" transform="translate(5.073 34.369)">
                <path id="Path_84412-2" data-name="Path 84412" d="M13.463,25.084c3.854.815,7.56,3.187,11.192,4.6,3.928,1.482,8,2.224,11.933,3.558.593.222.815-.741.222-.889-3.928-1.334-8-2.075-11.933-3.558-3.78-1.408-7.264-3.78-11.192-4.6-.519-.148-.815.741-.222.889Z" transform="translate(-13.136 -24.178)" fill="#fff"/>
              </g>
              <g id="Group_114260-2" data-name="Group 114260" transform="translate(7.004 37.76)">
                <path id="Path_84413-2" data-name="Path 84413" d="M13.72,25.56c4.521,1.631,9.339,2.965,13.786,4.892,2.594,1.112,5.93,1.482,8.3,2.965.519.3.964-.519.445-.815-2.594-1.7-6.3-2.149-9.117-3.335-4.225-1.779-8.82-3.039-13.119-4.6a.469.469,0,1,0-.3.889Z" transform="translate(-13.396 -24.635)" fill="#fff"/>
              </g>
              <g id="Group_114261-2" data-name="Group 114261" transform="translate(28.714 10.996)">
                <path id="Path_84414-2" data-name="Path 84414" d="M17.175,48.861C21.7,44.71,24.068,38.781,28,34.185A64.987,64.987,0,0,0,36.52,21.733c.3-.519-.519-1.038-.815-.445a72.813,72.813,0,0,1-9.117,13.119c-3.706,4.373-5.855,9.932-10.154,13.86-.371.371.3,1.038.741.593Z" transform="translate(-16.325 -21.024)" fill="#fff"/>
              </g>
              <g id="Group_114262-2" data-name="Group 114262" transform="translate(28.664 14.183)">
                <path id="Path_84415-2" data-name="Path 84415" d="M36.266,21.719c-2.224,5.188-6.6,9.191-9.858,13.638-1.7,2.372-3.187,4.818-4.966,7.115-1.7,2.224-2.372,6.226-4.892,7.634-.519.3-.074,1.112.445.815,1.556-.889,2.372-2.742,3.187-4.225,1.7-3.113,3.928-5.855,5.707-8.894,3.187-5.485,8.672-9.635,11.192-15.639.222-.519-.593-1.038-.815-.445Z" transform="translate(-16.319 -21.454)" fill="#fff"/>
              </g>
              <g id="Group_114263-2" data-name="Group 114263" transform="translate(29.446 16.337)">
                <path id="Path_84416-2" data-name="Path 84416" d="M36.256,21.931a36.163,36.163,0,0,0-3.632,5.188c-2,3.187-4.3,6-6.6,8.968A54.09,54.09,0,0,0,20.914,43.2c-1.482,2.742-2.224,5.781-4.373,8.153-.371.445.222,1.112.667.667l.519-.519a.472.472,0,0,0-.667-.667,3.425,3.425,0,0,1-.519.519l.667.667a21.724,21.724,0,0,0,3.039-5.04c.741-1.408,1.26-2.965,2-4.373a47.477,47.477,0,0,1,2.891-3.854c1.927-2.817,4.373-5.114,6.3-7.931,1.853-2.668,3.187-5.633,5.337-8.153.593-.593-.074-1.26-.519-.741Z" transform="translate(-16.424 -21.745)" fill="#fff"/>
              </g>
            </g>
            <g id="Group_116428" data-name="Group 116428" transform="matrix(0.883, -0.469, 0.469, 0.883, 643.755, 3372.293)" opacity="0.49">
              <g id="Group_115705" data-name="Group 115705" transform="translate(0.254 47.023)">
                <path id="Path_85762" data-name="Path 85762" d="M71.376,56.571c14.361-.1,28.62-.308,42.879-.308a.669.669,0,0,0,0-1.334c-14.361,0-28.62.1-42.879.308a.669.669,0,0,0,0,1.334Z" transform="translate(-70.76 -54.93)" fill="#fff"/>
              </g>
              <g id="Group_115706" data-name="Group 115706" transform="translate(0 47.592)">
                <path id="Path_85763" data-name="Path 85763" d="M71.195,56.262a27.418,27.418,0,0,1,2.667.923c.513.205,1.128.513,1.641.718a2.571,2.571,0,0,1,.718.41c.205.1.308.308.205.1.205.821,1.436.41,1.231-.308-.205-.821-1.744-1.334-2.462-1.641a24.1,24.1,0,0,0-3.8-1.436c-.615-.308-1.026,1.026-.205,1.231Z" transform="translate(-70.735 -54.986)" fill="#fff"/>
              </g>
              <g id="Group_115707" data-name="Group 115707" transform="translate(0.769 45.23)">
                <path id="Path_85764" data-name="Path 85764" d="M71.936,58.5c1.436-1.334,3.693-1.744,5.437-2.462.821-.308.41-1.539-.308-1.231-1.949.821-4.411,1.334-6.052,2.77-.616.513.308,1.436.923.923Z" transform="translate(-70.81 -54.755)" fill="#fff"/>
              </g>
              <g id="Group_115708" data-name="Group 115708" transform="translate(31.747 0.861)">
                <path id="Path_85765" data-name="Path 85765" d="M75.163,109c0-19.388.615-38.673.821-57.958H74.651v.513a.669.669,0,0,0,1.333,0v-.513a.669.669,0,0,0-1.333,0c-.1,19.285-.718,38.673-.821,57.958a.669.669,0,0,0,1.333,0Z" transform="translate(-73.83 -50.43)" fill="#fff"/>
              </g>
              <g id="Group_115709" data-name="Group 115709" transform="translate(29.914 0.276)">
                <path id="Path_85766" data-name="Path 85766" d="M74.868,56.805c.513-1.026,1.231-1.846,1.846-2.872a21.828,21.828,0,0,0,.821-2.77c.308-.821-1.026-1.128-1.231-.308a12.557,12.557,0,0,1-.923,2.77c-.513.923-1.128,1.641-1.641,2.564-.41.718.718,1.334,1.128.615Z" transform="translate(-73.651 -50.373)" fill="#fff"/>
              </g>
              <g id="Group_115710" data-name="Group 115710" transform="translate(32.449)">
                <path id="Path_85767" data-name="Path 85767" d="M75.453,51.1a1.013,1.013,0,0,0-.718-.718c-.513-.205-.923.41-.821.821.41,2.052,2.052,3.488,3.18,5.129.513.718,1.641,0,1.128-.615-1.026-1.539-2.667-2.872-3.077-4.821l-.821.821-.205-.205c.205.718,1.539.41,1.334-.41Z" transform="translate(-73.898 -50.346)" fill="#fff"/>
              </g>
              <g id="Group_115711" data-name="Group 115711" transform="translate(5.184 8.35)">
                <path id="Path_85768" data-name="Path 85768" d="M91.546,51.981c0,6.36-6.155,6.873-11.079,7.386a25.382,25.382,0,0,0-4.411.616c-2.052.513-3.693,1.846-4.1,3.18a2.869,2.869,0,0,0,1.026,2.872c2.257,2.052,5.129,3.077,7.9,4.1a14.874,14.874,0,0,0,1.949.616c2.052.513,4.616,1.231,5.232,2.872a2.551,2.551,0,0,1-.205,2.257c-1.128,2.257-3.488,3.077-5.744,3.59A1.957,1.957,0,0,0,80.57,80.7a1.835,1.835,0,0,0,.308,1.744c1.128,1.641,3.8,2.154,5.232,2.359h.718c1.744,0,3.283.1,3.9,1.026a1.18,1.18,0,0,1,.1,1.231,4.475,4.475,0,0,1-1.641,1.744,4.646,4.646,0,0,0-1.231,1.231.391.391,0,1,1-.718-.308,4.417,4.417,0,0,1,1.539-1.539,2.984,2.984,0,0,0,1.333-1.436c.1-.41,0-.513,0-.513-.41-.616-2.257-.616-3.18-.616h-.821c-1.641-.205-4.514-.718-5.847-2.667a2.757,2.757,0,0,1-.41-2.462,2.81,2.81,0,0,1,2.154-1.641c2.154-.513,4.206-1.231,5.232-3.18a1.921,1.921,0,0,0,.205-1.641c-.513-1.231-2.975-1.949-4.719-2.359a6.722,6.722,0,0,1-2.052-.718c-2.77-1.026-5.744-2.052-8.1-4.206a3.766,3.766,0,0,1-1.231-3.693c.513-1.949,2.77-3.283,4.616-3.8a28.235,28.235,0,0,1,4.514-.615c5.232-.513,10.668-1.026,10.361-7.078a.41.41,0,1,1,.821,0C91.546,51.673,91.546,51.776,91.546,51.981Z" transform="translate(-71.241 -51.16)" fill="#fff"/>
              </g>
            </g>
          </g>
          <g id="Group_117309" data-name="Group 117309" transform="translate(1172.897 3408.604) rotate(-16)" opacity="0.398">
            <g id="Group_114659" data-name="Group 114659" transform="translate(0 33.811)">
              <path id="Path_84784" data-name="Path 84784" d="M1.995.678,1.588.271C1.181.678.91,1.22.5,1.627,5.115,4.34,9.184,7.867,14.475,9.5a.839.839,0,1,0,.407-1.628C9.863,6.375,5.793,2.713,1.317.135.5-.407-.447.814.231,1.492L.638,1.9c.95.678,2.17-.543,1.357-1.221Z" transform="translate(0 0)" fill="#fff"/>
            </g>
            <g id="Group_114660" data-name="Group 114660" transform="translate(4.165 26.892)">
              <path id="Path_84785" data-name="Path 84785" d="M3.256.814C2.984,8.682.271,16.278,0,24.146c0,1.085,1.628,1.085,1.763,0C2.035,16.278,4.748,8.682,5.019.814a.885.885,0,0,0-1.763,0Z" transform="translate(0 0)" fill="#fff"/>
            </g>
            <g id="Group_114661" data-name="Group 114661" transform="translate(18.834 21.857)">
              <path id="Path_84786" data-name="Path 84786" d="M.117,1.237C2.287,4.9,3.779,8.969,6.086,12.632c.543.95,2.035.136,1.492-.814C5.407,8.155,3.915,4.086,1.609.423,1.066-.526-.426.288.117,1.237Z" transform="translate(0 0)" fill="#fff"/>
            </g>
            <g id="Group_114662" data-name="Group 114662" transform="translate(16.629 25.77)">
              <path id="Path_84787" data-name="Path 84787" d="M1.237,7.227c2.984-1.9,6.376-3.391,9.224-5.562.814-.678,0-2.171-.814-1.492C6.663,2.479,3.408,3.835.423,5.735c-.95.678-.136,2.17.814,1.492Z" transform="translate(0 0)" fill="#fff"/>
            </g>
            <g id="Group_114663" data-name="Group 114663" transform="translate(26.694 15.245)">
              <path id="Path_84788" data-name="Path 84788" d="M.4,1.744c3.256,2.306,5.7,5.969,10.038,5.562,1.085-.136,1.085-1.763,0-1.763C6.5,5.814,4.2,2.151,1.211.116.4-.426-.553,1.066.4,1.744Z" transform="translate(0 0)" fill="#fff"/>
            </g>
            <g id="Group_114664" data-name="Group 114664" transform="translate(34.521 10.76)">
              <path id="Path_84789" data-name="Path 84789" d="M.03,1.075C1.658,8.807,5.049,17.9,1.523,25.628c-.407.95.95,1.9,1.492.814,3.8-8.275.543-17.635-1.357-25.91C1.387-.417-.241-.01.03,1.075Z" fill="#fff"/>
            </g>
            <g id="Group_114665" data-name="Group 114665" transform="translate(38.621 0)">
              <path id="Path_84790" data-name="Path 84790" d="M1.628,2.068v-.95c-.136.271-.407.543-.543.814C5.29.576,4.883,6.68,4.205,9.122a.869.869,0,0,0,.814,1.085C7.19,9.936,8.682,8.172,9.9,6.544c.678-.95-.814-1.763-1.492-.814C7.6,6.816,6.376,8.308,5.019,8.579c.271.407.543.678.814,1.085C6.918,5.866,6.511-1.595.678.3A.86.86,0,0,0,0,1.118v.95a.814.814,0,1,0,1.628,0Z" fill="#fff"/>
            </g>
          </g>
          <g id="Group_117348" data-name="Group 117348" transform="translate(675.365 3324.799)">
            <path id="Path_83104" data-name="Path 83104" d="M526.188,231.89c-9.883-3.919-20.626-5.941-30.811-8.969-.418-.124-.651.488-.24.635,10.015,3.555,20.572,6.181,30.857,8.845A.273.273,0,0,0,526.188,231.89Zm-21.354-10.9a.261.261,0,0,0,.116-.5,36.085,36.085,0,0,0-3.826-1.007c-.387-.093-.62.488-.217.6A40.079,40.079,0,0,0,504.835,220.992Zm12.586,3.555c.31.054.418-.434.124-.534-2.866-.96-5.809-1.851-8.744-2.571-.325-.077-.511.41-.186.5C511.558,222.727,514.416,224,517.421,224.547Zm18.558.813c-11.362-4.3-23.259-7.141-34.955-10.363-.349-.093-.542.426-.194.527,11.688,3.377,23.391,6.6,34.97,10.325A.26.26,0,0,0,535.979,225.361ZM500.443,210.5a48.745,48.745,0,0,0,8.52,2.107c.263.054.364-.387.108-.465-2.8-.813-5.708-1.077-8.45-2.122A.256.256,0,0,0,500.443,210.5Z" transform="translate(-445.572 -184.072)" fill="#7fc1d8"/>
            <path id="Path_83105" data-name="Path 83105" d="M467.744,193.289a.96.96,0,0,0-.124-.031,12.464,12.464,0,0,0-1.6-3.78c.976-.736,1.975-1.456,3.013-2.114a.433.433,0,0,0,.2-.38,1.116,1.116,0,0,0,.271.333,1.383,1.383,0,0,0,.937.279c.465.48.806.4,1.309.116a.347.347,0,0,0,.085-.023c.163-.093.325-.186.48-.279a.556.556,0,0,0,.279-.449.809.809,0,0,0,.085-.062,1.343,1.343,0,0,1-.155-.248,1.844,1.844,0,0,1-.031-1.464,1.8,1.8,0,0,1,.527-.759c-.023-.031-.031-.062-.054-.093-.7-.945-2.262-1.355-3.075-.449a.44.44,0,0,0-.411.209c-.31.488-1.363,1.82-.844,2.393a.531.531,0,0,0,.1.085.163.163,0,0,0-.077.031,36.9,36.9,0,0,0-3.168,2.161,8.239,8.239,0,0,0-6.274-3.222,9.751,9.751,0,0,0-2.184.116,25.169,25.169,0,0,1-.6-5.917.6.6,0,0,0-.031-.17c.209,0,.41-.008.6-.015a.435.435,0,0,0,.356-.465,2.462,2.462,0,0,0,.256-.232,1.324,1.324,0,0,0,.418-1.2,1.722,1.722,0,0,0-1.859-1.131,1.424,1.424,0,0,0-1.1.627c-.016.016-.016.039-.031.054a.328.328,0,0,0-.132.31,1.229,1.229,0,0,0-.023.5c-.008.023-.008.046-.016.07a1.407,1.407,0,0,0,.047.759,1.01,1.01,0,0,0,.627.581.448.448,0,0,0-.062.217,19.688,19.688,0,0,0,.612,6.2,10.76,10.76,0,0,0-5.468,3.478c-1.417-.542-3.431-.147-4.825-.039a45.913,45.913,0,0,0-9.6,1.7c-2.06.627-6.9,2.417-4.2,4.934,9.132,15.1,32.135,23.7,48.068,14.189a.614.614,0,0,0,.147-.132.494.494,0,0,0,.519-.1C488.145,203.536,472.352,195.28,467.744,193.289Zm3.137-9a1.314,1.314,0,0,0-.24.225c-.031-.039-.062-.077-.093-.124A.978.978,0,0,1,470.881,184.289ZM469.1,186.6c0,.015.008.023.008.039a.17.17,0,0,0-.039-.023A.04.04,0,0,1,469.1,186.6Zm-12.137-8.915a.642.642,0,0,1,.108.108c.023.023.023.07.031.054,0,.093.031-.008-.008.108.008-.023,0-.008-.016.015-.046-.1-.093-.209-.147-.31A.106.106,0,0,1,456.962,177.682Zm-1.247.643c.008-.132.023-.263.031-.4.016-.008.023.008.031.016a.409.409,0,0,0,.232.07c.047.054.093.108.132.163.023.031.031.07.054.108A.377.377,0,0,0,455.715,178.325Zm1,8.528a.509.509,0,0,0,.232-.054,9.507,9.507,0,0,1,1.905-.147,7.231,7.231,0,0,1,5.763,2.788,38.353,38.353,0,0,0-3.524,3.176.3.3,0,0,0,.387.457c1.224-.968,2.424-1.96,3.648-2.92a14.84,14.84,0,0,1,1.851,8.458.554.554,0,0,0-.294.132c-5.639,5.081-13.872,2.006-17.9-3.578C449.961,191.206,452.679,187.7,456.715,186.853Zm23.329,22.159a.5.5,0,0,0-.178.325c-.039.008-.07.008-.108.015-9.062,3.114-17.489,4.508-26.83,1.417-8.605-2.843-15.181-8.512-20.572-15.63a.29.29,0,0,0-.178-.108c-.9-2.417,7.761-3.911,9.17-4.136,2.8-.449,5.739-.209,8.52-.519a10.623,10.623,0,0,0-1.619,4.113.4.4,0,0,0-.449.527c2.966,7.374,13.918,9.775,19.634,4.585a.559.559,0,0,0,.132-.178.5.5,0,0,0,.542-.488,19.952,19.952,0,0,0-.279-4.748C471.756,197.107,486.426,203.567,480.044,209.012ZM454.19,206.7a66,66,0,0,1-21-12.121c-.248-.209-.511.194-.287.4,5.886,5.337,13.183,10.735,21.16,12.261C454.383,207.308,454.484,206.812,454.19,206.7Zm26.078,1.231c-7.118.682-13.942,1.371-20.982-.372-.349-.085-.55.418-.2.534a39.236,39.236,0,0,0,21.276.364A.268.268,0,0,0,480.268,207.935ZM450.5,195.272a3.5,3.5,0,0,0,3.95,2.114c2.409-.387,3.005-3.509,1.541-5.2a3.083,3.083,0,0,0-1.634-.968,2.827,2.827,0,0,0-2.4.341.311.311,0,0,0-.046.4A2.538,2.538,0,0,0,450.5,195.272Zm2.223-2.9a.21.21,0,0,0,.186-.256,3.538,3.538,0,0,1,1.278-.046,2.224,2.224,0,0,1,1.216.775,2.625,2.625,0,0,1,.3,2.664,2.581,2.581,0,0,1-4.585-.984A1.792,1.792,0,0,1,452.726,192.367Z" transform="translate(-431.206 -176.522)" fill="#7fc1d8"/>
          </g>
          <g id="Group_117347" data-name="Group 117347" transform="translate(1290.039 3446.465)">
            <path id="Path_83113" data-name="Path 83113" d="M211.663,297.154c-.166-.014-.332-.036-.506-.051,7.44,1.7,14.728,3,21.958,5.569l.433-.368c-6.66-3.344-14.98-4.8-22.4-5.764.209.065.412.123.607.2A.218.218,0,0,1,211.663,297.154Z" transform="translate(-200.201 -294.276)" fill="#6ab0c9"/>
            <path id="Path_83114" data-name="Path 83114" d="M221.407,331.343a3.087,3.087,0,0,1,.144.318c4.42,3.091,9.007,5.966,13.673,8.689,5.677,3.308,11.47,6.414,17.277,9.477,5.627,2.969,11.557,4.738,17.48,6.977a.2.2,0,0,0,.137-.368c-6.046-2.846-12.4-4.572-18.354-7.721-5.439-2.875-10.863-5.793-16.179-8.892A174.249,174.249,0,0,1,206.751,319.1a.286.286,0,0,1-.39.087c-.246-.137-.5-.3-.751-.477a130.462,130.462,0,0,0,15.37,12.546A.3.3,0,0,1,221.407,331.343Z" transform="translate(-198.663 -300.433)" fill="#6ab0c9"/>
            <path id="Path_83115" data-name="Path 83115" d="M299.641,373.128c8.834,3.388,39.148,11.875,35.638-.484a.258.258,0,0,0-.361-.181c.13.563.246,1.134.332,1.7a.216.216,0,0,1-.426.072c-.029-.094-.051-.188-.072-.282-1.156,10.777-30.986.311-36.787-2.08-.311-.13-.455.332-.173.477.246.123.585.275,1,.448.036-.036.087-.065.123-.1C299.258,372.355,299.706,372.752,299.641,373.128Z" transform="translate(-224.22 -315.189)" fill="#6ab0c9"/>
            <path id="Path_83116" data-name="Path 83116" d="M339.283,360.741c-5.526-7.071-13.355-11.968-20.152-17.689-.2-.173-.426.166-.238.332,6.92,6.14,14.41,11.174,20.463,18.274a.24.24,0,0,0,.116.079q-.141-.358-.3-.715A.2.2,0,0,1,339.283,360.741Z" transform="translate(-230.102 -307.179)" fill="#6ab0c9"/>
            <path id="Path_83117" data-name="Path 83117" d="M302.6,360.457c-5.294-.917-10.257-3.012-15.479-4.334-.224-.058-.354.267-.13.34a148.239,148.239,0,0,0,14.85,4.4c2.745.563,6.241,1.127,8.978.267,6.335-1.986.527-8.111-2.21-10.495-.173-.152-.433.13-.267.3,1.936,2,7.245,5.959,3.705,9.007-1.726,1.481-4.839,1.04-6.862.859-.809-.072-1.611-.181-2.4-.311A.325.325,0,0,1,302.6,360.457Z" transform="translate(-221.231 -309.286)" fill="#6ab0c9"/>
            <path id="Path_83118" data-name="Path 83118" d="M275.166,353.184a4,4,0,0,0,1.365.571c.217.072.332-.26.123-.325a3.821,3.821,0,0,1-1.286-.534C275.195,352.75,275,353.039,275.166,353.184Z" transform="translate(-217.961 -309.915)" fill="#6ab0c9"/>
            <path id="Path_83119" data-name="Path 83119" d="M229.27,326.319c1.141.917,2.326,1.791,3.5,2.651A190.636,190.636,0,0,0,249.921,340.2c.238.137.484-.2.246-.354-6.84-4.536-14.208-8.588-20.47-13.948-.029.094-.058.181-.087.275A.245.245,0,0,1,229.27,326.319Z" transform="translate(-205.233 -302.429)" fill="#6ab0c9"/>
            <path id="Path_83120" data-name="Path 83120" d="M226.557,320.56c-.108-.094-.231-.188-.339-.289-2.254-2-8.639-7.924-4.175-10.69,2.564-1.589,6.768-.144,9.809-.072.159-.181.311-.361.477-.534-3.373-.072-8.263-1.864-11.217.39-2.246,1.712-1.091,4.507.188,6.443a24.705,24.705,0,0,0,5.222,5.5.23.23,0,0,1-.043-.159C226.5,320.95,226.528,320.755,226.557,320.56Z" transform="translate(-202.613 -297.523)" fill="#6ab0c9"/>
            <path id="Path_83121" data-name="Path 83121" d="M270.175,351.14c-3.041-1.64-6.349-3.084-9.527-4.457-.238-.1-.448.282-.217.412a48.635,48.635,0,0,0,9.52,4.464C270.2,351.624,270.428,351.277,270.175,351.14Z" transform="translate(-213.859 -308.196)" fill="#6ab0c9"/>
            <path id="Path_83122" data-name="Path 83122" d="M278.841,355.826c.534.2,1.055.433,1.589.643a5.047,5.047,0,0,0,1.5.469.237.237,0,0,0,.159-.426,6.911,6.911,0,0,0-1.452-.6c-.535-.2-1.076-.376-1.632-.527A.235.235,0,0,0,278.841,355.826Z" transform="translate(-218.957 -310.614)" fill="#6ab0c9"/>
            <path id="Path_83123" data-name="Path 83123" d="M234.88,305.025c-.159.181-.318.354-.477.534a21.378,21.378,0,0,0-5.294,11.044c-.029.195-.058.4-.079.592a.23.23,0,0,0,.043.159.3.3,0,0,0,.13.1.245.245,0,0,0,.34-.144c.029-.094.058-.181.087-.275,1.885-5.923,4.63-10.668,9.549-14.67,4.883-3.98,10.473-6.147,16.432-7.96-.094,0-.188-.007-.289,0a.249.249,0,0,1-.231-.4,36.379,36.379,0,0,0-16.577,7.591l-.433.368A31.282,31.282,0,0,0,234.88,305.025Z" transform="translate(-205.166 -293.573)" fill="#6ab0c9"/>
            <path id="Path_83124" data-name="Path 83124" d="M265.321,294.277c.1-.007.188,0,.289,0a22.167,22.167,0,0,1,3.077.289,3.324,3.324,0,0,0,2.333-.325c-.289-.007-.571-.022-.859-.022s-.275-.426-.022-.477a1.83,1.83,0,0,1,.21-.029,16.806,16.806,0,0,1-2.615-.079,4.141,4.141,0,0,0-2.564.166.209.209,0,0,0-.079.079A.249.249,0,0,0,265.321,294.277Z" transform="translate(-215.166 -293.436)" fill="#6ab0c9"/>
            <path id="Path_83125" data-name="Path 83125" d="M272.038,294.189c.289,0,.578.014.859.022a29.211,29.211,0,0,1,12.322,2.709c3.546,1.683,6.356,4.052,9.455,6.327a.3.3,0,0,1,.556-.036,4.464,4.464,0,0,0,.2.419.319.319,0,0,0,.137-.5c-4.839-6.031-15.6-10.95-23.359-9.455-.065.014-.137.014-.209.029C271.763,293.763,271.756,294.189,272.038,294.189Z" transform="translate(-217.051 -293.406)" fill="#6ab0c9"/>
            <path id="Path_83126" data-name="Path 83126" d="M303.462,306.951a.244.244,0,0,0-.014.145,5.631,5.631,0,0,0,2.181,3.034,23.259,23.259,0,0,1,1.914,1.762,14.17,14.17,0,0,1,1.286,1.878.206.206,0,0,1,.253.051c.1.123.2.26.289.39a.232.232,0,0,0,.18-.224c-.087-2.99-3.987-4.24-5.323-6.652a4.468,4.468,0,0,1-.2-.419A.308.308,0,0,0,303.462,306.951Z" transform="translate(-225.831 -297.11)" fill="#6ab0c9"/>
            <path id="Path_83127" data-name="Path 83127" d="M310.172,316.461a.23.23,0,0,0-.13.3c2.275,5.641,4.355,10.69,4.24,16.931a28.307,28.307,0,0,1-5.908,16.7.4.4,0,0,0,.173.585.415.415,0,0,0,.188.036.325.325,0,0,0,.209-.094c4.4-4.392,6.125-11.087,6.168-17.14.043-5.468-.982-12.337-4.4-16.866-.1-.13-.188-.267-.289-.39A.2.2,0,0,0,310.172,316.461Z" transform="translate(-227.181 -299.802)" fill="#6ab0c9"/>
            <path id="Path_83128" data-name="Path 83128" d="M233.946,357.208a34.589,34.589,0,0,1-5.258-11.239c-.831-3.048.036-6.638-1.25-9.505-.051-.108-.094-.217-.144-.318a.288.288,0,0,0-.426-.079.227.227,0,0,0-.079.238c.946,3.9.354,7.721,1.582,11.658,1.069,3.409,2.42,7.18,5.193,9.585A.307.307,0,0,1,233.946,357.208Z" transform="translate(-204.542 -305.236)" fill="#6ab0c9"/>
            <path id="Path_83129" data-name="Path 83129" d="M241.169,369.908c.123.094.253.181.376.274a7.545,7.545,0,0,0-5-4.825.315.315,0,0,0-.4.339.288.288,0,0,0,.181.231,9.109,9.109,0,0,1,2.976,2.116,19.515,19.515,0,0,1,1.445,2A.282.282,0,0,1,241.169,369.908Z" transform="translate(-207.142 -313.385)" fill="#6ab0c9"/>
            <path id="Path_83130" data-name="Path 83130" d="M254.136,377.726c.217.173.433.332.65.491a.227.227,0,0,0-.094-.289c-1.835-.975-3.85-1.575-5.713-2.506a36.791,36.791,0,0,1-5.656-3.518c-.123-.094-.253-.181-.376-.274a.263.263,0,0,0-.4.137.253.253,0,0,0,.043.26,18.818,18.818,0,0,0,5.4,3.85,21.168,21.168,0,0,0,5.894,2.434,1.336,1.336,0,0,1-.123-.159C253.573,377.9,253.861,377.509,254.136,377.726Z" transform="translate(-208.914 -315.114)" fill="#6ab0c9"/>
            <path id="Path_83131" data-name="Path 83131" d="M265.01,381.85a19.312,19.312,0,0,1-2.586.094,6.2,6.2,0,0,1-3.344-1.387c-.217-.159-.426-.318-.65-.491-.282-.217-.563.173-.39.426.036.058.079.1.123.159,1.82,2.441,5.461,2.665,8.155,1.7a.221.221,0,0,0,.13-.137c-.441.051-.881.108-1.329.188C264.75,382.471,264.685,381.965,265.01,381.85Z" transform="translate(-213.208 -317.454)" fill="#6ab0c9"/>
            <path id="Path_83132" data-name="Path 83132" d="M291.248,373.4c.065-.376-.383-.773-.737-.448-.036.036-.087.065-.123.1-2.983,2.723-7.042,4.348-10.9,5.41-3.908,1.069-8,.2-11.853,1.38a.287.287,0,0,0,.1.563c.448-.072.888-.137,1.329-.188,4.081-.47,8.017-.014,12.055-1.307,3.59-1.148,7.2-2.665,9.989-5.258A.371.371,0,0,0,291.248,373.4Z" transform="translate(-215.827 -315.463)" fill="#6ab0c9"/>
            <path id="Path_83133" data-name="Path 83133" d="M204.087,312.742a.272.272,0,0,0-.014-.325c-2.347-3.221-5.829-5.482-6.912-9.585-1.654-6.277,5.511-6.327,9.78-5.944.173.014.347.029.506.051a.217.217,0,0,0,.094-.419q-.293-.108-.607-.2c-3.835-1.141-10.047-.737-10.863,4.016-.7,4.088,3.431,9.621,6.869,12,.253.173.506.339.751.477A.282.282,0,0,0,204.087,312.742Z" transform="translate(-195.991 -294.068)" fill="#6ab0c9"/>
            <path id="Path_83134" data-name="Path 83134" d="M330.1,374.824a.247.247,0,0,0-.173.462c2.867,1.286,15.486.787,11.73-4.839-.13-.195-.506-.029-.433.2C342.911,375.958,333.319,375.814,330.1,374.824Z" transform="translate(-233.145 -314.776)" fill="#6ab0c9"/>
            <path id="Path_83135" data-name="Path 83135" d="M201.52,300.977a.264.264,0,0,0-.224-.477c-6.616,2.868,11.513,18.447,14.525,20.239a.19.19,0,0,0,.217-.311C213.7,318.334,196.146,303.866,201.52,300.977Z" transform="translate(-197.064 -295.369)" fill="#6ab0c9"/>
            <path id="Path_83136" data-name="Path 83136" d="M220.68,301.353c-5.15-1.51-11.318-3.655-16.714-2.5a.209.209,0,0,0,.072.412c5.771-.238,10.972,1.278,16.562,2.463C220.81,301.764,220.89,301.411,220.68,301.353Z" transform="translate(-198.16 -294.827)" fill="#6ab0c9"/>
            <path id="Path_83137" data-name="Path 83137" d="M231.583,304.3c.354.173.571-.4.217-.578-.686-.332-1.4-.563-2.109-.852-.238-.094-.441.274-.209.4C230.16,303.661,230.875,303.965,231.583,304.3Z" transform="translate(-205.263 -296.031)" fill="#6ab0c9"/>
            <path id="Path_83138" data-name="Path 83138" d="M220.989,307.267c.217-.072.094-.4-.116-.368-1.856.3-4.254,1.141-4.558,3.294-.289,2.044,1.213,4.42,2.434,5.923a.222.222,0,0,0,.368-.238c-.78-1.553-2.015-3.048-2.217-4.832C216.619,308.6,219.126,307.867,220.989,307.267Z" transform="translate(-201.626 -297.152)" fill="#6ab0c9"/>
            <path id="Path_83139" data-name="Path 83139" d="M228.762,327.625a52.167,52.167,0,0,1-5.843-5.013.21.21,0,0,0-.318.274,33.767,33.767,0,0,0,5.945,5.056C228.74,328.08,228.942,327.777,228.762,327.625Z" transform="translate(-203.367 -301.496)" fill="#6ab0c9"/>
            <path id="Path_83140" data-name="Path 83140" d="M246.883,344.7c.246.116.462-.289.224-.419-7.772-4.262-14.858-9.614-22.586-13.9-.231-.13-.469.188-.246.347C231.448,335.741,238.974,340.948,246.883,344.7Z" transform="translate(-203.821 -303.667)" fill="#6ab0c9"/>
            <path id="Path_83141" data-name="Path 83141" d="M258.929,351.67c-.217-.181-.527.159-.332.361a3.4,3.4,0,0,0,.91.657,1.852,1.852,0,0,0,1.026.339.237.237,0,0,0,.137-.39,2.856,2.856,0,0,0-.852-.426A4.008,4.008,0,0,1,258.929,351.67Z" transform="translate(-213.36 -309.572)" fill="#6ab0c9"/>
            <path id="Path_83142" data-name="Path 83142" d="M261.175,349.372a186.867,186.867,0,0,1-21.987-13.377.2.2,0,0,0-.238.332A114.091,114.091,0,0,0,261,349.69C261.2,349.776,261.362,349.466,261.175,349.372Z" transform="translate(-207.899 -305.222)" fill="#6ab0c9"/>
            <path id="Path_83143" data-name="Path 83143" d="M321.559,351.678c2.983,2.947,11.3,7.649,9.614,12.691a.289.289,0,0,0,.542.2c2.254-5.2-6.847-10.372-9.874-13.131C321.675,351.28,321.386,351.5,321.559,351.678Z" transform="translate(-230.847 -309.507)" fill="#6ab0c9"/>
            <path id="Path_83144" data-name="Path 83144" d="M327.335,352.691c-.166-.152-.441.072-.274.231,2.282,2.217,14.215,10.387,8.819,13.492a.284.284,0,0,0,.246.513C343.175,364.2,329.372,354.554,327.335,352.691Z" transform="translate(-232.375 -309.855)" fill="#6ab0c9"/>
            <path id="Path_83145" data-name="Path 83145" d="M298.343,367.61a250.344,250.344,0,0,1-24.522-9.058c-.282-.116-.441.318-.166.441,7.606,3.315,15.551,6.949,23.713,9.411A.974.974,0,0,1,298.343,367.61Z" transform="translate(-217.519 -311.492)" fill="#6ab0c9"/>
            <path id="Path_83146" data-name="Path 83146" d="M308.824,372.457a65.656,65.656,0,0,0,10.914,2.145c.253.029.274-.339.036-.39-3.857-.831-7.606-1.827-11.3-2.932A.958.958,0,0,1,308.824,372.457Z" transform="translate(-227.227 -315.032)" fill="#6ab0c9"/>
            <path id="Path_83147" data-name="Path 83147" d="M209.319,303.487c.217-.029.209-.4-.014-.4-1.567.051-3.048.621-2.86,2.449a9.1,9.1,0,0,0,2.774,5.114c.2.166.441-.094.361-.3C208.719,308.2,204.595,304.087,209.319,303.487Z" transform="translate(-198.89 -296.095)" fill="#6ab0c9"/>
            <path id="Path_83148" data-name="Path 83148" d="M212.168,307.646a1.55,1.55,0,0,0-.2,1.156c.051.181.347.26.4.036.144-.542.051-1.119.773-1.185.246-.022.231-.433-.014-.433A1.038,1.038,0,0,0,212.168,307.646Z" transform="translate(-200.417 -297.242)" fill="#6ab0c9"/>
            <path id="Path_83149" data-name="Path 83149" d="M215.282,317.114c-.253-.246-.513-.484-.766-.722-.231-.217-.607.087-.383.325.246.253.484.506.73.751.2.2.433.542.708.607.152.036.354-.072.3-.253C215.8,317.518,215.5,317.316,215.282,317.114Z" transform="translate(-201.01 -299.768)" fill="#6ab0c9"/>
            <path id="Path_83150" data-name="Path 83150" d="M270.724,366.059a12.283,12.283,0,0,0-3.633-1.726.255.255,0,0,0-.181.477q1.809.8,3.611,1.625C270.76,366.55,270.9,366.211,270.724,366.059Z" transform="translate(-215.643 -313.097)" fill="#6ab0c9"/>
            <path id="Path_83151" data-name="Path 83151" d="M264.957,370.91a17.145,17.145,0,0,0-5.143-2.868.27.27,0,0,0-.188.506,38.2,38.2,0,0,1,5.1,2.694A.2.2,0,0,0,264.957,370.91Z" transform="translate(-213.617 -314.127)" fill="#6ab0c9"/>
            <path id="Path_83152" data-name="Path 83152" d="M261.524,373.108c.173.094.462-.065.332-.282-.433-.708-1.343-1.069-1.965-1.6-.21-.181-.52.159-.325.361a5.948,5.948,0,0,0,.925.78A10,10,0,0,0,261.524,373.108Z" transform="translate(-213.629 -315.004)" fill="#6ab0c9"/>
            <path id="Path_83153" data-name="Path 83153" d="M260.635,378.418c.238.108.448-.282.217-.412-4.875-2.68-10.387-3.807-14.793-7.375-.209-.173-.433.166-.238.339C250.039,374.655,255.637,376.107,260.635,378.418Z" transform="translate(-209.809 -314.838)" fill="#6ab0c9"/>
            <path id="Path_83154" data-name="Path 83154" d="M261.615,365.182a.219.219,0,0,0,.2-.383,16.09,16.09,0,0,0-2.3-1.177c-.267-.123-.506.325-.238.462A15.342,15.342,0,0,0,261.615,365.182Z" transform="translate(-213.533 -312.899)" fill="#6ab0c9"/>
            <path id="Path_83155" data-name="Path 83155" d="M262.478,297.46c.26.051.332-.347.1-.441a1.6,1.6,0,0,0-1-.123,3,3,0,0,0-1.105.549c-.173.13-.029.469.188.4A4.236,4.236,0,0,1,262.478,297.46Z" transform="translate(-213.876 -294.366)" fill="#6ab0c9"/>
            <path id="Path_83156" data-name="Path 83156" d="M252.014,298.407c-6.349,1.546-13.5,6.717-16.346,12.72-.159.332.354.585.556.289,3.85-5.576,9.209-10.611,15.869-12.554C252.375,298.783,252.3,298.335,252.014,298.407Z" transform="translate(-207.001 -294.792)" fill="#6ab0c9"/>
            <path id="Path_83157" data-name="Path 83157" d="M248.71,306.268a4.617,4.617,0,0,0-1.726,1.481c-.145.188.123.419.3.275a12.625,12.625,0,0,1,1.676-1.228C249.274,306.608,249.057,306.109,248.71,306.268Z" transform="translate(-210.141 -296.969)" fill="#6ab0c9"/>
            <path id="Path_83158" data-name="Path 83158" d="M234.708,320.812c1.315-1.806,2.21-3.9,3.431-5.771a23.346,23.346,0,0,1,4.875-5.41c.209-.173-.058-.477-.274-.318a26.244,26.244,0,0,0-8.465,11.282A.246.246,0,0,0,234.708,320.812Z" transform="translate(-206.618 -297.811)" fill="#6ab0c9"/>
            <path id="Path_83159" data-name="Path 83159" d="M233.5,319.974a24.163,24.163,0,0,1-1.033,2.976.236.236,0,0,0,.412.217,6.744,6.744,0,0,0,1.2-3.135C234.14,319.657,233.57,319.613,233.5,319.974Z" transform="translate(-206.116 -300.715)" fill="#6ab0c9"/>
            <path id="Path_83160" data-name="Path 83160" d="M309.871,348.141c4.384-4.666,2.658-12.142,2.535-17.906-.007-.289-.433-.347-.455-.043-.571,6.363,1.055,11.759-2.434,17.624C309.387,348.04,309.669,348.358,309.871,348.141Z" transform="translate(-227.509 -303.565)" fill="#6ab0c9"/>
            <path id="Path_83161" data-name="Path 83161" d="M306.77,357.043c-.108.289-.217.578-.354.859-.152.3-.383.556-.535.859-.094.181.152.4.325.3a2.957,2.957,0,0,0,1.083-1.827C307.377,356.9,306.893,356.711,306.77,357.043Z" transform="translate(-226.503 -311.03)" fill="#6ab0c9"/>
            <path id="Path_83162" data-name="Path 83162" d="M307.657,337.758a.275.275,0,0,0-.542.094,17.675,17.675,0,0,1-4.825,14.713.235.235,0,0,0,.253.39C306.95,350.838,308.907,342.077,307.657,337.758Z" transform="translate(-225.49 -305.663)" fill="#6ab0c9"/>
            <path id="Path_83163" data-name="Path 83163" d="M299.972,354.571a8.331,8.331,0,0,0,2.528-6.84.286.286,0,0,0-.563.1c.282,2.528-1.127,4.363-2.29,6.443C299.525,354.477,299.77,354.766,299.972,354.571Z" transform="translate(-224.768 -308.428)" fill="#6ab0c9"/>
            <path id="Path_83164" data-name="Path 83164" d="M281.513,297.359c-.339-.051-.383.469-.051.527,5.475.968,10.871,3.561,14.07,8.227.152.217.484-.014.376-.246C293.561,300.746,286.706,298.132,281.513,297.359Z" transform="translate(-219.664 -294.502)" fill="#6ab0c9"/>
            <path id="Path_83165" data-name="Path 83165" d="M303.728,311.817a2.378,2.378,0,0,0-.78-1.257c-.238-.231-.643.1-.4.339a4.2,4.2,0,0,1,.766,1.047A.219.219,0,0,0,303.728,311.817Z" transform="translate(-225.562 -298.148)" fill="#6ab0c9"/>
            <path id="Path_83166" data-name="Path 83166" d="M305.842,313.423c-.224-.209-.592.087-.368.311a24.292,24.292,0,0,1,1.755,1.907,15.064,15.064,0,0,1,1.264,2.16.25.25,0,0,0,.469-.152C308.839,315.979,306.961,314.484,305.842,313.423Z" transform="translate(-226.376 -298.944)" fill="#6ab0c9"/>
            <path id="Path_83167" data-name="Path 83167" d="M294.4,307.136a33.366,33.366,0,0,0-5.67-3.749c-.253-.144-.52.224-.267.376,1.936,1.177,3.806,2.463,5.713,3.676A.189.189,0,0,0,294.4,307.136Z" transform="translate(-221.642 -296.168)" fill="#6ab0c9"/>
            <path id="Path_83168" data-name="Path 83168" d="M299.776,311.642c-.217-.173-.448.173-.246.347a14.952,14.952,0,0,1,5.063,7.924c.058.238.455.253.448-.014C305.034,316.662,302.123,313.549,299.776,311.642Z" transform="translate(-224.723 -298.457)" fill="#6ab0c9"/>
            <path id="Path_83169" data-name="Path 83169" d="M249.416,312.082a2.938,2.938,0,0,0-.881,1.055.247.247,0,0,0,.332.3,2.715,2.715,0,0,0,.975-.845.25.25,0,0,0,.058-.065C250.03,312.27,249.749,311.771,249.416,312.082Z" transform="translate(-210.579 -298.565)" fill="#6ab0c9"/>
            <path id="Path_83170" data-name="Path 83170" d="M238.95,325.4a17.091,17.091,0,0,1,1.871-5.338,26.665,26.665,0,0,1,3.611-4.449c.181-.188-.079-.5-.267-.311-2.658,2.658-5.706,5.973-5.656,9.989C238.51,325.533,238.885,325.67,238.95,325.4Z" transform="translate(-207.799 -299.469)" fill="#6ab0c9"/>
            <path id="Path_83171" data-name="Path 83171" d="M241.321,327.491c1.343-2.658,1.712-5.706,4.175-7.685.238-.188-.058-.527-.3-.354-2.463,1.791-3.481,5.07-4.348,7.859A.255.255,0,0,0,241.321,327.491Z" transform="translate(-208.443 -300.625)" fill="#6ab0c9"/>
            <path id="Path_83172" data-name="Path 83172" d="M248.984,319.858c-2.319,2.376-5.172,5.793-5.244,9.3-.007.267.383.39.477.108a22.758,22.758,0,0,1,1.8-4.832,23.9,23.9,0,0,1,3.351-4.132C249.612,320.039,249.244,319.591,248.984,319.858Z" transform="translate(-209.251 -300.729)" fill="#6ab0c9"/>
            <path id="Path_83173" data-name="Path 83173" d="M246.3,330.226a7.214,7.214,0,0,0-.715,1.965.229.229,0,0,0,.412.152,7.514,7.514,0,0,0,.8-1.928A.267.267,0,0,0,246.3,330.226Z" transform="translate(-209.765 -303.585)" fill="#6ab0c9"/>
            <path id="Path_83174" data-name="Path 83174" d="M293.7,351.754c3.077-2.954,2.362-9.238,1.827-13.052-.043-.282-.455-.2-.433.079.383,4.218.888,9.036-1.734,12.662A.233.233,0,0,0,293.7,351.754Z" transform="translate(-223.02 -305.936)" fill="#6ab0c9"/>
            <path id="Path_83175" data-name="Path 83175" d="M296.558,354.311a4.443,4.443,0,0,0,1.6-2.8c.058-.3-.455-.419-.52-.116a8.743,8.743,0,0,1-1.416,2.615A.229.229,0,0,0,296.558,354.311Z" transform="translate(-223.816 -309.46)" fill="#6ab0c9"/>
            <path id="Path_83176" data-name="Path 83176" d="M291.345,354.963a4,4,0,0,0,1.4-2.615c.058-.325-.441-.361-.506-.05a4.793,4.793,0,0,1-.477,1.293c-.217.383-.52.693-.751,1.062A.229.229,0,0,0,291.345,354.963Z" transform="translate(-222.367 -309.701)" fill="#6ab0c9"/>
            <path id="Path_83177" data-name="Path 83177" d="M269.468,378.139a27.414,27.414,0,0,0,18.686-3.937c.376-.245-.079-.773-.448-.527-5.446,3.539-11.867,4.124-18.187,3.965A.251.251,0,0,0,269.468,378.139Z" transform="translate(-216.337 -315.679)" fill="#6ab0c9"/>
            <path id="Path_83178" data-name="Path 83178" d="M271.085,376.2c-.26.26.087.7.376.448.332-.289.5-.152.859-.007a.244.244,0,0,0,.3-.332A.918.918,0,0,0,271.085,376.2Z" transform="translate(-216.82 -316.297)" fill="#6ab0c9"/>
            <path id="Path_83179" data-name="Path 83179" d="M276.3,375.461a30.555,30.555,0,0,0,10.82-2.492c.376-.166.1-.737-.274-.571a34.376,34.376,0,0,1-10.625,2.615C275.915,375.035,276.009,375.475,276.3,375.461Z" transform="translate(-218.219 -315.334)" fill="#6ab0c9"/>
            <path id="Path_83180" data-name="Path 83180" d="M283.038,372.691c.679-.2,1.394-.065,2.066-.246.2-.058.289-.383.043-.448a4.259,4.259,0,0,0-2.268.181C282.583,372.272,282.742,372.777,283.038,372.691Z" transform="translate(-220.077 -315.207)" fill="#6ab0c9"/>
            <path id="Path_83181" data-name="Path 83181" d="M230.664,341.13c-1.531,4.24.9,9.216,2.788,12.944a.184.184,0,0,0,.332-.159c-1.611-3.944-3.994-8.285-2.737-12.647C231.112,341.022,230.751,340.885,230.664,341.13Z" transform="translate(-205.486 -306.623)" fill="#6ab0c9"/>
            <path id="Path_83182" data-name="Path 83182" d="M235.375,352.246c-.4-3.084-1.871-5.786-1.539-8.978.036-.325-.441-.361-.5-.051-.556,3.012.737,6.313,1.669,9.137C235.079,352.579,235.4,352.449,235.375,352.246Z" transform="translate(-206.325 -307.179)" fill="#6ab0c9"/>
            <path id="Path_83183" data-name="Path 83183" d="M236.489,358.671a8.2,8.2,0,0,0,1.777,4.045.209.209,0,0,0,.347-.224,16.57,16.57,0,0,1-1.726-3.886A.2.2,0,0,0,236.489,358.671Z" transform="translate(-207.237 -311.466)" fill="#6ab0c9"/>
            <path id="Path_83184" data-name="Path 83184" d="M239.566,356.416a19.745,19.745,0,0,1-2.319-10.813.214.214,0,0,0-.426-.043,18.712,18.712,0,0,0,2.42,11.008C239.364,356.755,239.682,356.611,239.566,356.416Z" transform="translate(-207.31 -307.838)" fill="#6ab0c9"/>
            <path id="Path_83185" data-name="Path 83185" d="M240.445,349.234a10.064,10.064,0,0,0,.2-1.322c-.007-.267-.4-.325-.426-.043a10.925,10.925,0,0,0-.152,1.372C240.076,349.465,240.423,349.436,240.445,349.234Z" transform="translate(-208.231 -308.479)" fill="#6ab0c9"/>
            <path id="Path_83186" data-name="Path 83186" d="M242.447,358.095a22.205,22.205,0,0,1-1.69-5.034c-.043-.289-.484-.209-.448.079a13.213,13.213,0,0,0,1.8,5.114A.187.187,0,0,0,242.447,358.095Z" transform="translate(-208.298 -309.922)" fill="#6ab0c9"/>
            <path id="Path_83187" data-name="Path 83187" d="M242.828,366.1a5.282,5.282,0,0,0,1.257,1.12c.188.094.376-.145.289-.318a5.975,5.975,0,0,0-1.221-1.307c-.433-.419-.888-.8-1.336-1.206-.188-.166-.462.137-.3.325C241.954,365.186,242.373,365.656,242.828,366.1Z" transform="translate(-208.621 -313.105)" fill="#6ab0c9"/>
            <path id="Path_83188" data-name="Path 83188" d="M246.091,364.881c.3-.65-.108-1.141-.578-1.56-.246-.224-.657.087-.412.347a1.487,1.487,0,0,1,.571,1.12A.218.218,0,0,0,246.091,364.881Z" transform="translate(-209.608 -312.8)" fill="#6ab0c9"/>
            <path id="Path_83189" data-name="Path 83189" d="M253.99,370.585a20.457,20.457,0,0,1-6.4-3.655c-.246-.188-.506.2-.275.39,1.943,1.574,4.038,3.286,6.558,3.77C254.163,371.149,254.271,370.672,253.99,370.585Z" transform="translate(-210.219 -313.81)" fill="#6ab0c9"/>
            <path id="Path_83190" data-name="Path 83190" d="M251.821,372.109c-.231-.2-.506.195-.274.39a4.475,4.475,0,0,0,1.011.563c.159.072.368-.13.267-.289C252.6,372.419,252.117,372.369,251.821,372.109Z" transform="translate(-211.395 -315.246)" fill="#6ab0c9"/>
            <path id="Path_83191" data-name="Path 83191" d="M255.551,374.3a29.308,29.308,0,0,0,6.674,2.427c.267.058.376-.4.108-.477a51.29,51.29,0,0,1-6.631-2.355C255.442,373.793,255.305,374.182,255.551,374.3Z" transform="translate(-212.495 -315.753)" fill="#6ab0c9"/>
            <path id="Path_83192" data-name="Path 83192" d="M269.358,306.722c-.2.231.152.506.376.339a2.51,2.51,0,0,1,1.748-.534,2.049,2.049,0,0,1,1.632,1.17c.144.231.549.152.484-.152C273.229,305.7,270.456,305.429,269.358,306.722Z" transform="translate(-216.35 -296.881)" fill="#6ab0c9"/>
            <path id="Path_83193" data-name="Path 83193" d="M275.669,308.775c-.181.2.137.462.34.311a2.136,2.136,0,0,1,1.394-.477,8.224,8.224,0,0,1,1.257.325.239.239,0,0,0,.2-.39A2.259,2.259,0,0,0,275.669,308.775Z" transform="translate(-218.103 -297.453)" fill="#6ab0c9"/>
            <path id="Path_83194" data-name="Path 83194" d="M299.825,325.305a4.737,4.737,0,0,1,.13,2.181.236.236,0,0,0,.1.188.184.184,0,0,1,.152-.029.7.7,0,0,1,.116.036c.014-.014.036-.014.051-.036,1.011-1.661-.361-3.561-1.849-4.283-.224-.108-.426.267-.2.39A3.4,3.4,0,0,1,299.825,325.305Z" transform="translate(-224.382 -301.719)" fill="#6ab0c9"/>
            <path id="Path_83195" data-name="Path 83195" d="M300.722,329.337a.253.253,0,0,0,.051.433,2.168,2.168,0,0,1,1.351,1.286,10.779,10.779,0,0,1,.224,1.719.243.243,0,0,0,.462.043,2.859,2.859,0,0,0-.2-2.239A2.244,2.244,0,0,0,301,329.344c-.043-.007-.072-.029-.116-.036A.2.2,0,0,0,300.722,329.337Z" transform="translate(-225.048 -303.374)" fill="#6ab0c9"/>
            <path id="Path_83196" data-name="Path 83196" d="M303.563,339.787a1.963,1.963,0,0,0,.563-1.582,1.314,1.314,0,0,0-1.033-1.091.247.247,0,0,0-.173.462.821.821,0,0,1,.621.9c-.051.4-.311.715-.368,1.105A.239.239,0,0,0,303.563,339.787Z" transform="translate(-225.643 -305.54)" fill="#6ab0c9"/>
            <path id="Path_83197" data-name="Path 83197" d="M255.723,325.07a.239.239,0,0,0,.39.274,3.8,3.8,0,0,1,1.322-1.213,2.6,2.6,0,0,1,1.777.13.444.444,0,0,1,.072-.173c.058-.058.116-.123.181-.181-.014-.022-.014-.043-.043-.058C258,322.838,256.554,323.828,255.723,325.07Z" transform="translate(-212.567 -301.744)" fill="#6ab0c9"/>
            <path id="Path_83198" data-name="Path 83198" d="M260.619,324.132a.252.252,0,0,0,.4.152,3.078,3.078,0,0,1,1.011-.679,1.958,1.958,0,0,1,1.2.116c.188.043.426-.181.246-.347-.852-.809-1.921-.274-2.629.412-.058.058-.123.116-.181.181A.216.216,0,0,0,260.619,324.132Z" transform="translate(-213.938 -301.615)" fill="#6ab0c9"/>
            <path id="Path_83199" data-name="Path 83199" d="M244.539,354.146a.239.239,0,0,0-.166.448,1.91,1.91,0,0,1,1.033.925,2.938,2.938,0,0,1-.022,1.459.229.229,0,0,0,.412.152,1.862,1.862,0,0,0,.181-1.885A2.018,2.018,0,0,0,244.539,354.146Z" transform="translate(-209.386 -310.27)" fill="#6ab0c9"/>
            <path id="Path_83200" data-name="Path 83200" d="M246.283,358.538c-.289.014-.253.47.022.5a1.223,1.223,0,0,1,.809.368,2.728,2.728,0,0,1,.354.78.219.219,0,0,0,.4-.014,1.172,1.172,0,0,0-.368-1.2A1.475,1.475,0,0,0,246.283,358.538Z" transform="translate(-209.902 -311.492)" fill="#6ab0c9"/>
            <path id="Path_83201" data-name="Path 83201" d="M255.922,335.6a.2.2,0,0,0-.051-.116,7.568,7.568,0,0,1-.953-.91,4.412,4.412,0,0,1-.527-1.228.235.235,0,0,0-.462.079,2.959,2.959,0,0,0,1.683,2.427.4.4,0,0,0,.051-.116A.252.252,0,0,1,255.922,335.6Z" transform="translate(-212.08 -304.447)" fill="#6ab0c9"/>
            <path id="Path_83202" data-name="Path 83202" d="M257.593,339.219c.195.051.4-.173.246-.347-.282-.311-.686-.477-.939-.823a1.518,1.518,0,0,1-.145-1.264.206.206,0,0,0-.2-.246.235.235,0,0,0-.26.144.543.543,0,0,0-.029.116A1.891,1.891,0,0,0,257.593,339.219Z" transform="translate(-212.703 -305.383)" fill="#6ab0c9"/>
            <path id="Path_83203" data-name="Path 83203" d="M254.09,303.382a1.84,1.84,0,0,1,2.355-.722.155.155,0,0,0,.058,0c-.137-.022-.26-.188-.144-.318.043-.043.087-.094.13-.145a2.1,2.1,0,0,0-2.8.9C253.52,303.367,253.9,303.649,254.09,303.382Z" transform="translate(-212.003 -295.78)" fill="#6ab0c9"/>
            <path id="Path_83204" data-name="Path 83204" d="M257.739,302.88a.2.2,0,0,1-.079.036A.16.16,0,0,0,257.739,302.88Z" transform="translate(-213.117 -296.037)" fill="#6ab0c9"/>
            <path id="Path_83205" data-name="Path 83205" d="M257.517,302.406h.051a.116.116,0,0,0,.079-.036,8.664,8.664,0,0,0,1-1c.152-.2-.13-.433-.311-.282a7.135,7.135,0,0,0-.831.852c-.043.051-.087.094-.13.144C257.257,302.211,257.38,302.384,257.517,302.406Z" transform="translate(-213.024 -295.527)" fill="#6ab0c9"/>
            <path id="Path_83206" data-name="Path 83206" d="M270.18,296.673a.081.081,0,0,0-.051-.058,2.3,2.3,0,0,0-2.3-.159.212.212,0,0,0,.181.383,2.233,2.233,0,0,1,1.9.2.227.227,0,0,0,.274-.094A.208.208,0,0,1,270.18,296.673Z" transform="translate(-215.908 -294.186)" fill="#6ab0c9"/>
            <path id="Path_83207" data-name="Path 83207" d="M271.118,296.567a.193.193,0,0,0,0,.274.254.254,0,0,0,.339.043,2.224,2.224,0,0,1,2.037-.39c.209.065.4-.231.188-.354A2.017,2.017,0,0,0,271.118,296.567Z" transform="translate(-216.838 -294.086)" fill="#6ab0c9"/>
            <path id="Path_83208" data-name="Path 83208" d="M309.3,326.278a1.488,1.488,0,0,0-.022-2.152c-.181-.181-.484.065-.311.26.571.628.238,1.235-.173,1.835a.2.2,0,0,1,.231-.087C309.122,326.184,309.209,326.228,309.3,326.278Z" transform="translate(-227.316 -301.919)" fill="#6ab0c9"/>
            <path id="Path_83209" data-name="Path 83209" d="M309.28,327.071a2.416,2.416,0,0,0-.274-.137.175.175,0,0,0-.231.087.193.193,0,0,0,.043.282,2.209,2.209,0,0,1,.787.823,9.29,9.29,0,0,1,.289.968.215.215,0,0,0,.39-.014,1.684,1.684,0,0,0-.26-1.264A1.936,1.936,0,0,0,309.28,327.071Z" transform="translate(-227.3 -302.712)" fill="#6ab0c9"/>
            <path id="Path_83210" data-name="Path 83210" d="M348.948,372.963c-.087-.563-.2-1.127-.332-1.7a16.368,16.368,0,0,0-1.25-3.619.209.209,0,0,0-.376.181c.116.238.209.477.3.715a37.75,37.75,0,0,1,1.156,4.211c.022.094.051.188.072.282A.216.216,0,0,0,348.948,372.963Z" transform="translate(-237.918 -313.992)" fill="#6ab0c9"/>
            <path id="Path_83211" data-name="Path 83211" d="M306.614,372.429c.072.13.137.253.2.383a.718.718,0,0,0,1.3-.058c.036-.072.065-.123.1-.2a1.354,1.354,0,0,0,.065-.152.964.964,0,0,0-.347-1.177.921.921,0,0,0-.39-.13.985.985,0,0,0-1.011.8A.8.8,0,0,0,306.614,372.429Z" transform="translate(-226.686 -314.981)" fill="#6ab0c9"/>
          </g>
        </g>
      </g>
    </g>
  </g>
</svg>
