<svg xmlns="http://www.w3.org/2000/svg" xmlns:xlink="http://www.w3.org/1999/xlink" width="137" height="115" viewBox="0 0 137 115">
  <defs>
    <linearGradient id="linear-gradient" y1="0.5" x2="0.995" y2="0.5" gradientUnits="objectBoundingBox">
      <stop offset="0" stop-color="#ffe8cb"/>
      <stop offset="0.711" stop-color="#fcc279"/>
      <stop offset="1" stop-color="#f99d27"/>
    </linearGradient>
    <clipPath id="clip-path">
      <rect id="Rectangle_12874" data-name="Rectangle 12874" width="137" height="115" rx="5" transform="translate(1810 1293)" stroke="#e3c59f" stroke-width="1" fill="url(#linear-gradient)"/>
    </clipPath>
    <clipPath id="clip-path-2">
      <rect id="Rectangle_19139" data-name="Rectangle 19139" width="34.613" height="13.652" fill="none"/>
    </clipPath>
  </defs>
  <g id="Group_16096" data-name="Group 16096" transform="translate(-1024 -364)">
    <g id="Group_117210" data-name="Group 117210" transform="matrix(0.956, -0.292, 0.292, 0.956, 1044.455, 376.742)" opacity="0.65">
      <g id="Icon_2" transform="matrix(0.875, 0.485, -0.485, 0.875, 13.574, 0)">
        <path id="Path_78084" data-name="Path 78084" d="M6.15,1.511l-2.156.645L3.351,0,1.513.548,2.156,2.7,0,3.347.548,5.185,2.7,4.543,3.349,6.7,5.187,6.15,4.543,3.994,6.7,3.349Z" transform="translate(0 1.735) rotate(-15.009)" fill="#ad6d19"/>
      </g>
      <g id="Icon_1" transform="translate(0 5.805) rotate(-15.009)">
        <g id="Group_94811" data-name="Group 94811" transform="translate(0 0)">
          <g id="Group_94810" data-name="Group 94810">
            <g id="Group_94809" data-name="Group 94809">
              <g id="Group_94808" data-name="Group 94808">
                <path id="Path_78085" data-name="Path 78085" d="M7.229,5.648A2.859,2.859,0,0,0,9.7,3.71,2.773,2.773,0,0,0,8.119.128,2.77,2.77,0,0,0,4.647,1.935a2.854,2.854,0,0,0,.739,3.078C1.29,4.252,0,8.543,0,8.543l9.192,3.233S10.887,7.569,7.229,5.648Z" transform="translate(0.067 0.064)" fill="#ad6d19"/>
                <g id="Group_94807" data-name="Group 94807">
                  <path id="Path_78086" data-name="Path 78086" d="M7.3,5.713c.027.013.058.031.116.064a3.182,3.182,0,0,1,.318.181A4.07,4.07,0,0,1,9.643,8.943a6.331,6.331,0,0,1-.338,2.91l-.013.04-.043-.016L.053,8.658,0,8.641.018,8.59a6.27,6.27,0,0,1,1.476-2.4A4.237,4.237,0,0,1,3.367,5.079a4.4,4.4,0,0,1,1.059-.15,5.563,5.563,0,0,1,1.046.091l-.05.1a2.8,2.8,0,0,1-.839-1.4,3.021,3.021,0,0,1,.036-1.573,2.986,2.986,0,0,1,2-2.04A2.585,2.585,0,0,1,9.1.687a2.831,2.831,0,0,1,.883,2.046,3.056,3.056,0,0,1-.535,1.753A2.9,2.9,0,0,1,8.417,5.4a2.648,2.648,0,0,1-.819.278,2.1,2.1,0,0,1-.3.031c-.007,0,.1-.011.3-.05a2.8,2.8,0,0,0,.8-.293,2.874,2.874,0,0,0,1-.918A2.989,2.989,0,0,0,9.9,2.73,2.756,2.756,0,0,0,9.035.748,2.493,2.493,0,0,0,6.642.2,2.879,2.879,0,0,0,4.719,2.174a2.929,2.929,0,0,0-.031,1.518,2.679,2.679,0,0,0,.805,1.344l.145.127-.2-.034a5.506,5.506,0,0,0-1.016-.087,4.252,4.252,0,0,0-1.03.148,4.122,4.122,0,0,0-1.824,1.08A6.206,6.206,0,0,0,.127,8.623L.09,8.552,9.274,11.8l-.056.025A6.282,6.282,0,0,0,9.57,8.952a4.117,4.117,0,0,0-.816-2.026,4.261,4.261,0,0,0-1.034-.953c-.127-.094-.248-.154-.318-.2C7.348,5.744,7.32,5.729,7.3,5.713Z" fill="#ad6d19"/>
                </g>
              </g>
            </g>
          </g>
        </g>
      </g>
    </g>
    <g id="Mask_Group_6" data-name="Mask Group 6" transform="translate(-786 -929)" clip-path="url(#clip-path)">
      <g id="Group_16095" data-name="Group 16095" transform="translate(1832.44 1271.605) rotate(14)">
        <g id="Character_1" transform="translate(0 43.39) rotate(-23.003)">
          <g id="Group_95022" data-name="Group 95022" transform="translate(0 0)">
            <path id="Path_78154" data-name="Path 78154" d="M108.326,62.784a5.856,5.856,0,0,0-2.577.618,14.6,14.6,0,0,1-5.809,1.2c-8.506,0-16.672-5.043-16.672-15.47,0-6.218,6.368-12.531,12.642-13.571,3.168-.528,7.789,1.024,10.276,2.227a7.22,7.22,0,0,0,3.139.735h1.537l.1-34.3A4.321,4.321,0,0,0,106.982,0H5.316C2.082,0,0,1.893,0,4.225V39.6l4.093-.217a8.06,8.06,0,0,0,2.772-.5c1.77-.651,3.619-1.787,5.65-1.787,8.713,0,14.8,4.922,14.445,12.926C26.654,57.084,21.428,62.6,13.7,63.085A15.737,15.737,0,0,1,6.33,61.611a8.827,8.827,0,0,0-3.34-.751L.007,60.92V95.561a5.469,5.469,0,0,0,5.706,5.194h99.554a5.469,5.469,0,0,0,5.706-5.194V62.769Z" transform="translate(0 11.181)" fill="#fff"/>
            <g id="Group_95021" data-name="Group 95021" transform="translate(7.677 0)">
              <g id="Group_95013" data-name="Group 95013" transform="translate(23.781 0)">
                <g id="Group_94991" data-name="Group 94991" transform="translate(3.889 7.427)">
                  <g id="Group_94975" data-name="Group 94975" transform="translate(17.592 47.713)">
                    <g id="Group_94974" data-name="Group 94974" transform="translate(0 0)">
                      <g id="Group_94973" data-name="Group 94973" transform="translate(0 0)">
                        <g id="Group_94972" data-name="Group 94972">
                          <g id="Group_94971" data-name="Group 94971">
                            <g id="Group_94970" data-name="Group 94970">
                              <g id="Group_94969" data-name="Group 94969">
                                <g id="Group_94968" data-name="Group 94968">
                                  <g id="Group_94967" data-name="Group 94967">
                                    <path id="Path_78156" data-name="Path 78156" d="M12.77,4.357A23.987,23.987,0,0,1,0,0S2.8,7.594,12.747,7.109Z" fill="#ff9a6c"/>
                                  </g>
                                </g>
                              </g>
                            </g>
                          </g>
                        </g>
                      </g>
                    </g>
                  </g>
                  <g id="Group_94966" data-name="Group 94966" transform="translate(6.269 0)">
                    <g id="Group_94965" data-name="Group 94965" transform="translate(0 0)">
                      <g id="Group_94964" data-name="Group 94964">
                        <g id="Group_94963" data-name="Group 94963">
                          <g id="Group_94962" data-name="Group 94962">
                            <g id="Group_94961" data-name="Group 94961">
                              <g id="Group_94960" data-name="Group 94960">
                                <g id="Group_94959" data-name="Group 94959">
                                  <path id="Path_78155" data-name="Path 78155" d="M.533,61.022l-.507-41.6C-.436,9.075,5.2.178,15.551,0l.957.04A18.51,18.51,0,0,1,34.242,17.808c.351,8.968.623,18.878.367,23.675-.528,9.925-10.527,11.055-10.527,11.055-.022,0-.061,6.04-.055,8.957l-3.151,6.3-2.689-1.475Z" fill="#ffbf9d"/>
                                  <path id="Path_82808" data-name="Path 82808" d="M2.791,1.319a1.4,1.4,0,0,1-1.4,1.357A1.336,1.336,0,0,1,0,1.355,1.4,1.4,0,0,1,1.4,0a1.337,1.337,0,0,1,1.389,1.32" transform="translate(26.717 25.927)" fill="#263238"/>
                                  <path id="Path_82809" data-name="Path 82809" d="M5.515,1.586c-.181.174-1.207-.652-2.709-.71C1.306.8.166,1.524.016,1.333-.06,1.248.129.926.624.6A3.839,3.839,0,0,1,2.868,0,3.682,3.682,0,0,1,5.015.8c.448.374.59.709.5.792" transform="translate(25.989 21.457)" fill="#263238"/>
                                  <path id="Path_82810" data-name="Path 82810" d="M2.792,1.321a1.4,1.4,0,0,1-1.4,1.353A1.336,1.336,0,0,1,0,1.354,1.4,1.4,0,0,1,1.4,0a1.337,1.337,0,0,1,1.389,1.32" transform="translate(13.43 25.656)" fill="#263238"/>
                                  <path id="Path_82811" data-name="Path 82811" d="M5.516,1.584C5.335,1.758,4.308.933,2.807.875,1.308.8.167,1.523.016,1.332-.06,1.247.129.925.625.6A3.828,3.828,0,0,1,2.869,0,3.687,3.687,0,0,1,5.016.8c.446.374.59.709.5.792" transform="translate(11.246 21.2)" fill="#263238"/>
                                  <path id="Path_82812" data-name="Path 82812" d="M.17,12.547a9.944,9.944,0,0,1,2.458-.339c.385-.024.751-.084.826-.345a1.956,1.956,0,0,0-.209-1.149L2.232,7.747A50.2,50.2,0,0,1,0,0,50.432,50.432,0,0,1,2.85,7.549q.5,1.562.965,2.984a2.224,2.224,0,0,1,.132,1.514.962.962,0,0,1-.66.535,2.606,2.606,0,0,1-.66.063,9.782,9.782,0,0,1-2.474-.1" transform="translate(21.507 22.004)" fill="#263238"/>
                                  <path id="Path_82813" data-name="Path 82813" d="M6.875,1.739c-.219.375-1.662-.088-3.432-.2-1.772-.147-3.265.1-3.432-.3C-.061,1.046.253.709.89.428A5.982,5.982,0,0,1,6.118.81c.59.375.852.75.754.924" transform="translate(10.568 16.366)" fill="#263238"/>
                                  <path id="Path_87524" data-name="Path 87524" d="M33.505,7.657c-.974-.713-3.616-.18-3.974.973a2.482,2.482,0,0,0-4.4.762,2.037,2.037,0,0,0-3.4-.574A1.6,1.6,0,0,0,20,8.123a1.574,1.574,0,0,0-2.57-1.4,2.562,2.562,0,0,0-3.79-.63,1.422,1.422,0,0,0-2.745.1,2.31,2.31,0,0,0-2.663-.69A1.539,1.539,0,0,0,6.32,4.1c.22-.792-.935-1.141-1.526-1.706-.264-.252-.433-.6-.718-.826S3.3,1.285,3.111,1.6A1.32,1.32,0,0,0,.635.741,4,4,0,0,0,.419,1.863C.242,3.086-.443,4.536.444,5.4.6,5.548.8,5.673.87,5.88c.114.354-.234.692-.264,1.056-.03.432.366.76.544,1.155a3.961,3.961,0,0,1-.024,1.9c-.045.639.318,1.452.956,1.385a2.244,2.244,0,0,0,.7,2.779,2.188,2.188,0,0,0,1.282,2.875,1.125,1.125,0,0,0-.082,1.477,3.273,3.273,0,0,0,1.307.945.932.932,0,0,0-.224,1.308,2.119,2.119,0,0,0,1.25.764.944.944,0,0,1,.556.294c.228.331-.078.782-.015,1.178.1.607.952.783,1.208,1.343.228.5-.069,1.2.33,1.572.264.243.668.2,1,.316.6.21.863.883,1.244,1.389a5.336,5.336,0,0,0,3.09,1.663q.885.224,1.781.4c1.188.22,2.4.366,3.6.511.6.073,1.333.082,1.646-.432.836,1.023,1.7.8,2.28-.4a5.032,5.032,0,0,0,3.217-.611l1.056-.462c1.056-.458,2.223-1.047,2.533-2.152a2.313,2.313,0,0,0,1.662-3.168c.481.132.945-.347,1.02-.841a4.478,4.478,0,0,0-.189-1.476c-.364-2,1.724-4.032,1.452-6.042a9.873,9.873,0,0,1,.4-4.162,2.473,2.473,0,0,0,.2-.848c-.02-.292-.289-.594-.569-.508.36-.805-1.471-1.857-2.343-1.724" transform="translate(0.865 27.59)" fill="#263238"/>
                                  <path id="Path_87530" data-name="Path 87530" d="M2.983.565A2.607,2.607,0,0,0,5.817,2.137c2.012-.05,2.883.05,2.508,1.8S6.9,7.764,3.587,6.539-.582,2.124.357.946,2.4-.252,2.983.565Z" transform="translate(16.824 37.361)" fill="#ffbf9d"/>
                                  <path id="Path_82814" data-name="Path 82814" d="M6.042,1.646c-.322.333-1.535-.054-3.007-.11-1.469-.1-2.724.158-3-.207C-.088,1.152.118.815.671.506a4.741,4.741,0,0,1,2.461-.5,4.661,4.661,0,0,1,2.376.75c.511.364.672.721.528.883" transform="translate(25.715 16.984)" fill="#263238"/>
                                  <path id="Path_82815" data-name="Path 82815" d="M.228,0c.23-.015.24,1.522,1.56,2.607s2.956.908,2.968,1.123c.022.1-.363.3-1.056.322A3.829,3.829,0,0,1,1.222,3.2,3.335,3.335,0,0,1,.013,1.015C-.048.374.121-.009.227,0" transform="translate(18.761 38.421)" fill="#263238"/>
                                  <g id="Group_118733" data-name="Group 118733" transform="translate(2.07 17.483)">
                                    <g id="Group_112265" data-name="Group 112265" clip-path="url(#clip-path-2)">
                                      <path id="Path_82929" data-name="Path 82929" d="M.623,8.967A11.282,11.282,0,0,1,.211,7.491a6.223,6.223,0,0,1,.66-4.025A6.133,6.133,0,0,1,12.286,7.583a5.764,5.764,0,0,1-.631,1.724A5.789,5.789,0,0,1,10.6,10.715a6.189,6.189,0,0,1-9.126-.474A11.485,11.485,0,0,1,.622,8.967a2.468,2.468,0,0,0,.162.366,2.855,2.855,0,0,0,.236.424A4.327,4.327,0,0,0,1.4,10.3a6.295,6.295,0,0,0,9.361.576,5.965,5.965,0,0,0,1.1-1.452,5.983,5.983,0,0,0,.66-1.789A6.33,6.33,0,1,0,.119,7.512a4.423,4.423,0,0,0,.168.642,2.911,2.911,0,0,0,.168.454,2.376,2.376,0,0,0,.172.362" transform="translate(21.951 0.004)" fill="#263238"/>
                                      <path id="Path_82930" data-name="Path 82930" d="M.627,8.969A11.343,11.343,0,0,1,.214,7.493a6.23,6.23,0,0,1,.66-4.025A6.137,6.137,0,0,1,12.3,7.585a5.764,5.764,0,0,1-.631,1.724,5.789,5.789,0,0,1-1.056,1.407,6.189,6.189,0,0,1-9.126-.474A11.485,11.485,0,0,1,.633,8.969,2.422,2.422,0,0,0,.8,9.335a2.855,2.855,0,0,0,.236.424,4.326,4.326,0,0,0,.374.54,6.285,6.285,0,0,0,6.438,2.21,6.35,6.35,0,0,0,2.922-1.629,5.964,5.964,0,0,0,1.1-1.452,5.983,5.983,0,0,0,.66-1.789A6.332,6.332,0,1,0,.118,7.51a4.322,4.322,0,0,0,.168.642,2.832,2.832,0,0,0,.168.454,2.367,2.367,0,0,0,.172.362" transform="translate(5.672 0.957)" fill="#263238"/>
                                      <path id="Path_82931" data-name="Path 82931" d="M0,.81A5.677,5.677,0,0,1,1.906.25,5.648,5.648,0,0,1,3.86.612C3.876.588,3.7.426,3.353.267A3.254,3.254,0,0,0,.471.415c-.33.194-.488.372-.47.4" transform="translate(18.182 5.145)" fill="#263238"/>
                                      <path id="Path_82932" data-name="Path 82932" d="M0,2.978A21.386,21.386,0,0,0,2.935,1.6,21.307,21.307,0,0,0,5.756,0,21.437,21.437,0,0,0,2.823,1.382,21.373,21.373,0,0,0,0,2.978" transform="translate(0 8.18)" fill="#263238"/>
                                    </g>
                                  </g>
                                  <path id="Path_87525" data-name="Path 87525" d="M.858,6.618a13.941,13.941,0,0,1-.6-3.3A13.956,13.956,0,0,1,.718,0a2.811,2.811,0,0,0-.4.924,7.91,7.91,0,0,0,.1,4.784,2.815,2.815,0,0,0,.43.9" transform="translate(7.125 40.446)" fill="#c7ad53"/>
                                  <path id="Path_87526" data-name="Path 87526" d="M.794,5.289c.033-.03-.2-.25-.355-.708A4.591,4.591,0,0,1,.284,2.7C.4,1.193.812.025.742,0A6.254,6.254,0,0,0,.033,2.68,4,4,0,0,0,.274,4.647c.219.478.507.66.519.64" transform="translate(5.723 39.528)" fill="#c7ad53"/>
                                  <path id="Path_87527" data-name="Path 87527" d="M.928,5.595A9.422,9.422,0,0,1,.256,2.823,9.438,9.438,0,0,1,.691,0,2.045,2.045,0,0,0,.3.77,5.657,5.657,0,0,0,.475,4.862,2.069,2.069,0,0,0,.928,5.6" transform="translate(4.025 37.93)" fill="#c7ad53"/>
                                  <path id="Path_87528" data-name="Path 87528" d="M0,6.4A1.645,1.645,0,0,0,.887,5.83,5.09,5.09,0,0,0,2,3.551a7.774,7.774,0,0,0,.211-2.523A2.9,2.9,0,0,0,2.008,0a12.816,12.816,0,0,1-.252,3.491,5.624,5.624,0,0,1-1,2.218A6.072,6.072,0,0,1,0,6.392" transform="translate(30.89 46.655)" fill="#c7ad53"/>
                                  <path id="Path_87529" data-name="Path 87529" d="M.006,5.215a1.98,1.98,0,0,0,.717-.5A4.976,4.976,0,0,0,2.238.857,1.98,1.98,0,0,0,2.056,0a6.347,6.347,0,0,0,0,.861A5.694,5.694,0,0,1,.592,4.586c-.352.4-.615.594-.59.628" transform="translate(29.526 47.497)" fill="#c7ad53"/>
                                </g>
                              </g>
                            </g>
                          </g>
                        </g>
                      </g>
                    </g>
                  </g>
                  <g id="Group_94982" data-name="Group 94982" transform="translate(0 25.923)">
                    <g id="Group_94981" data-name="Group 94981" transform="translate(0 0)">
                      <g id="Group_94980" data-name="Group 94980">
                        <g id="Group_94979" data-name="Group 94979">
                          <g id="Group_94978" data-name="Group 94978">
                            <g id="Group_94977" data-name="Group 94977">
                              <g id="Group_94976" data-name="Group 94976">
                                <path id="Path_78157" data-name="Path 78157" d="M6.8.408C6.637.33.07-1.891,0,4.906s6.775,5.46,6.786,5.266S6.8.408,6.8.408Z" fill="#ffbf9d"/>
                              </g>
                            </g>
                          </g>
                        </g>
                      </g>
                    </g>
                  </g>
                  <g id="Group_94990" data-name="Group 94990" transform="translate(1.727 28.099)">
                    <g id="Group_94989" data-name="Group 94989" transform="translate(0 0)">
                      <g id="Group_94988" data-name="Group 94988" transform="translate(0 0)">
                        <g id="Group_94987" data-name="Group 94987">
                          <g id="Group_94986" data-name="Group 94986">
                            <g id="Group_94985" data-name="Group 94985">
                              <g id="Group_94984" data-name="Group 94984">
                                <g id="Group_94983" data-name="Group 94983">
                                  <path id="Path_78158" data-name="Path 78158" d="M3.01,5.393c-.028-.022-.118.083-.317.173a1.188,1.188,0,0,1-.885.011A2.924,2.924,0,0,1,.478,2.936,3.93,3.93,0,0,1,.822,1.244a1.362,1.362,0,0,1,.9-.9.607.607,0,0,1,.7.329c.09.189.045.329.083.339.017.017.145-.111.1-.4A.783.783,0,0,0,2.334.185.879.879,0,0,0,1.683.007,1.665,1.665,0,0,0,.436,1.049,4.068,4.068,0,0,0,.007,2.942,3.072,3.072,0,0,0,1.7,5.892a1.282,1.282,0,0,0,1.085-.166C2.994,5.562,3.032,5.412,3.01,5.393Z" transform="translate(0 0)" fill="#ff9a6c"/>
                                </g>
                              </g>
                            </g>
                          </g>
                        </g>
                      </g>
                    </g>
                  </g>
                </g>
                <g id="Group_95012" data-name="Group 95012" transform="translate(0 0)">
                  <g id="Group_94996" data-name="Group 94996">
                    <g id="Group_94995" data-name="Group 94995">
                      <g id="Group_94994" data-name="Group 94994">
                        <g id="Group_94993" data-name="Group 94993">
                          <g id="Group_94992" data-name="Group 94992">
                            <path id="Path_78159" data-name="Path 78159" d="M58.127,15.829a1.6,1.6,0,0,0-.746-.947,4.947,4.947,0,0,0-2.539-.44,14.358,14.358,0,0,1-6.2-1.63,7.225,7.225,0,0,0,1.848-1.263,4.264,4.264,0,0,0,1.275-4.225.946.946,0,0,0-.528-.66c-.44-.139-.829.289-1.141.628a3.678,3.678,0,0,1-3.473,1.424,6.064,6.064,0,0,1-2.577-.792c-.028-.033-.055-.067-.083-.1-.351-.367-.69-.723-1.024-1.063h0a22.475,22.475,0,0,0-6.959-5.281A23.072,23.072,0,0,0,23.663.379a9.337,9.337,0,0,0-7.129,7.18A7.168,7.168,0,0,0,9.324,6.8l-.061-.028c-2.64.907-4.169,3.674-4.977,6.346-.045.145-.083.294-.123.44a10.414,10.414,0,0,1-3.579,3.4c-.256.145-.552.323-.585.618a.848.848,0,0,0,.445.708,5.261,5.261,0,0,0,2.122.907,12.412,12.412,0,0,1-.891,1.836c-.3.5-.66,1.1-.407,1.625a1.108,1.108,0,0,0,1.158.518,3.239,3.239,0,0,0,1.23-.54c-.3.7-.6,1.4-.9,2.1a6.246,6.246,0,0,0,2.867-.156c.528,2.516.9,7.17,1.525,8.879a10.3,10.3,0,0,1,3.151.173c1.175.407.7,2.483,2.244,1.909.785-.294,2.015-3.234,2.283-4.025a38.7,38.7,0,0,0,1.857-16.4,12.458,12.458,0,0,1,3.885-2.739l-.117.106c2.79-.935,5.941-1.848,8.567-.512,2.032,1.035,3.212,3.168,4.721,4.885a14.234,14.234,0,0,0,10.442,5.227c.356,3.006.417,7.921.528,10.716l2.433-5.588v.022c.2-.329.362-.66.517-.985l.055-.1v-.011a17.035,17.035,0,0,1,.807-1.584c.011,0,.017.017.028.022a1.749,1.749,0,0,0,2.584-2.31,3.816,3.816,0,0,0-.836-.857,2.772,2.772,0,0,0,2.627.713,2.169,2.169,0,0,0,1.559-2.132A1.836,1.836,0,0,0,53.4,18.5a6.269,6.269,0,0,0,3.557-.741C57.659,17.362,58.355,16.7,58.127,15.829Z" fill="#263238"/>
                          </g>
                        </g>
                      </g>
                    </g>
                  </g>
                  <g id="Group_95001" data-name="Group 95001" transform="translate(4.863 8.72)">
                    <g id="Group_95000" data-name="Group 95000" transform="translate(0 0)">
                      <g id="Group_94999" data-name="Group 94999" transform="translate(0 0)">
                        <g id="Group_94998" data-name="Group 94998">
                          <g id="Group_94997" data-name="Group 94997">
                            <path id="Path_78160" data-name="Path 78160" d="M14.774,0a9.011,9.011,0,0,0-1.007.9A7.129,7.129,0,0,0,12.2,4.186a12.48,12.48,0,0,0-.284,2.527c-.017.924.05,1.9.106,2.933a26.309,26.309,0,0,1,.038,3.262,11.628,11.628,0,0,1-.246,1.716,3.616,3.616,0,0,1-.718,1.659,1.5,1.5,0,0,1-1.409.457,2.213,2.213,0,0,1-1.253-.729,5.178,5.178,0,0,1-.924-2.539l.206.028a8.276,8.276,0,0,1-1.236,2.071A2.964,2.964,0,0,1,4.535,16.6a1.941,1.941,0,0,1-1.024-.189,1.662,1.662,0,0,1-.69-.7,1.731,1.731,0,0,1-.2-.884,1.241,1.241,0,0,1,.329-.768l.106.1A6.523,6.523,0,0,1,.9,15.744,6.362,6.362,0,0,1,.239,16,1.056,1.056,0,0,1,0,16.051a1.453,1.453,0,0,1,.223-.1c.15-.061.367-.145.646-.284a6.672,6.672,0,0,0,2.082-1.6l.106.1a1.269,1.269,0,0,0-.083,1.475,1.471,1.471,0,0,0,.623.613,1.738,1.738,0,0,0,.924.161,2.758,2.758,0,0,0,1.809-.98,8.483,8.483,0,0,0,1.188-2.026l.145-.317.061.345a5.016,5.016,0,0,0,.885,2.426,2.013,2.013,0,0,0,1.125.651,1.27,1.27,0,0,0,1.2-.384,3.4,3.4,0,0,0,.668-1.553,11,11,0,0,0,.239-1.681,27.114,27.114,0,0,0-.023-3.234c-.05-1.035-.106-2.021-.083-2.951a12.276,12.276,0,0,1,.317-2.555A7.1,7.1,0,0,1,13.707.842,4.007,4.007,0,0,1,14.774,0Z" fill="#455a64"/>
                          </g>
                        </g>
                      </g>
                    </g>
                  </g>
                  <g id="Group_95006" data-name="Group 95006" transform="translate(20.003 3.202)">
                    <g id="Group_95005" data-name="Group 95005" transform="translate(0 0)">
                      <g id="Group_95004" data-name="Group 95004" transform="translate(0 0)">
                        <g id="Group_95003" data-name="Group 95003">
                          <g id="Group_95002" data-name="Group 95002">
                            <path id="Path_78161" data-name="Path 78161" d="M30.3,15.549a.427.427,0,0,1-.078.067c-.055.04-.151.106-.251.178a4.429,4.429,0,0,1-.424.264,6.026,6.026,0,0,1-.607.312,8.845,8.845,0,0,1-4.264.718,11.3,11.3,0,0,1-5.979-2.283,19.505,19.505,0,0,1-5.088-6c-.713-1.213-1.286-2.456-1.921-3.6A13.45,13.45,0,0,0,9.5,2.146,6.789,6.789,0,0,0,6.652.376,4.9,4.9,0,0,0,5.143.187,5.512,5.512,0,0,0,3.757.438,5.78,5.78,0,0,0,.528,3.1,6.691,6.691,0,0,0,0,4.591a.85.85,0,0,1,.011-.106c.011-.073.028-.184.05-.306a5,5,0,0,1,.4-1.119,5.711,5.711,0,0,1,1.13-1.5A5.809,5.809,0,0,1,3.714.277,5.572,5.572,0,0,1,5.145,0a5.109,5.109,0,0,1,1.57.184,6.976,6.976,0,0,1,2.944,1.8A13.2,13.2,0,0,1,11.9,5.085c.646,1.158,1.219,2.393,1.926,3.6a19.462,19.462,0,0,0,5.017,5.941,11.193,11.193,0,0,0,5.862,2.293,8.985,8.985,0,0,0,4.225-.635A14.461,14.461,0,0,0,30.3,15.549Z" fill="#455a64"/>
                          </g>
                        </g>
                      </g>
                    </g>
                  </g>
                  <g id="Group_95011" data-name="Group 95011" transform="translate(40.71 14.382)">
                    <g id="Group_95010" data-name="Group 95010" transform="translate(0 0)">
                      <g id="Group_95009" data-name="Group 95009" transform="translate(0)">
                        <g id="Group_95008" data-name="Group 95008">
                          <g id="Group_95007" data-name="Group 95007">
                            <path id="Path_78162" data-name="Path 78162" d="M10.547,0a1.585,1.585,0,0,1-.362.246A7.88,7.88,0,0,1,9.122.776,10.393,10.393,0,0,1,7.442,1.3,11.937,11.937,0,0,1,5.3,1.569,11.791,11.791,0,0,1,3.15,1.4a10.088,10.088,0,0,1-1.7-.462A7.776,7.776,0,0,1,.367.454,1.538,1.538,0,0,1,0,.226C.022.186.568.477,1.5.776a11.866,11.866,0,0,0,1.681.407A12.58,12.58,0,0,0,5.3,1.334,13.35,13.35,0,0,0,7.4,1.1,12.532,12.532,0,0,0,9.055.627C9.99.276,10.524-.033,10.547,0Z" fill="#455a64"/>
                          </g>
                        </g>
                      </g>
                    </g>
                  </g>
                </g>
              </g>
              <g id="Group_95020" data-name="Group 95020" transform="translate(0 64.274)">
                <g id="Group_95017" data-name="Group 95017" transform="translate(0 0)">
                  <path id="Path_78163" data-name="Path 78163" d="M87.284,34.234S70.149,8.21,65.089,7.075L60.574,5.789h0L46.913,2.082s.1,5.266-7.509,5.432C30.637,7.71,23.278,0,23.278,0S5.053,5.677,1.232,8.767,3.7,47.572,3.7,47.572H70.4l-.05-.4Z" transform="translate(11.262 0)" fill="#18a94f"/>
                  <g id="Group_95014" data-name="Group 95014" transform="translate(0 8.734)">
                    <path id="Path_78164" data-name="Path 78164" d="M12.308,0A19.934,19.934,0,0,0,4.943,11.941C3.34,19.962,0,38.817,0,38.817l27.878.017S26.6,27.184,26.6,26.31,21.776,6.337,21.482,5.9,12.308,0,12.308,0Z" transform="translate(0 0)" fill="#18a94f"/>
                  </g>
                  <g id="Group_95016" data-name="Group 95016" transform="translate(16.565 9.184)">
                    <g id="Group_95015" data-name="Group 95015" transform="translate(0 0)">
                      <path id="Path_78165" data-name="Path 78165" d="M0,0A42.314,42.314,0,0,1,3.991,3.134a41.708,41.708,0,0,1,3.24,3.908A13.233,13.233,0,0,0,0,0Z" transform="translate(0 0)" fill="#263238"/>
                    </g>
                  </g>
                </g>
                <g id="Group_95018" data-name="Group 95018" transform="translate(24.071 23.003)">
                  <path id="Path_78166" data-name="Path 78166" d="M.348,24.581a5.981,5.981,0,0,1-.028-.969c0-.668.011-1.559.017-2.632.017-2.227.022-5.294-.022-8.689S.183,5.822.1,3.6C.071,2.527.043,1.637.021.969A5.651,5.651,0,0,1,.021,0,6.282,6.282,0,0,1,.132.962c.05.618.111,1.52.178,2.627.132,2.221.251,5.294.3,8.695s0,6.469-.067,8.695C.505,22.092.466,22.993.433,23.611A6.015,6.015,0,0,1,.348,24.581Z" transform="translate(0 0)" fill="#263238"/>
                </g>
                <path id="Path_78167" data-name="Path 78167" d="M12.621,0l3.351,10.143L.05,10.037,0,9.641Z" transform="translate(81.611 37.53)" fill="#ffbf9d"/>
                <g id="Group_95019" data-name="Group 95019" transform="translate(77.821 20.58)">
                  <path id="Path_78168" data-name="Path 78168" d="M.006,0C.084-.011.952,5.967,1.942,13.355S3.668,26.737,3.59,26.748s-.947-5.967-1.937-13.355S-.072.005.006,0Z" transform="translate(0 0)" fill="#263238"/>
                </g>
              </g>
            </g>
          </g>
        </g>
      </g>
    </g>
    <g id="Group_119623" data-name="Group 119623" transform="translate(1056.724 445.441) rotate(173)">
      <g id="Group_119616" data-name="Group 119616" transform="translate(-0.012 0.004)">
        <g id="Group_119612" data-name="Group 119612">
          <g id="Group_119609" data-name="Group 119609">
            <g id="Group_119608" data-name="Group 119608">
              <path id="Path_88496" data-name="Path 88496" d="M28.154,20.135a14.62,14.62,0,1,1-8.012-19.04A14.62,14.62,0,0,1,28.154,20.135Z" transform="translate(0.012 -0.004)" fill="#f99d25"/>
            </g>
          </g>
          <g id="Group_119611" data-name="Group 119611" transform="translate(3.473 3.463)">
            <g id="Group_119610" data-name="Group 119610" transform="translate(0 0)">
              <path id="Path_88497" data-name="Path 88497" d="M21.456,15.35a11.129,11.129,0,1,1-.044-8.523,11.145,11.145,0,0,1,.044,8.523Z" transform="translate(0.014 -0.002)" fill="#f99d25"/>
            </g>
          </g>
        </g>
        <g id="Group_119615" data-name="Group 119615" transform="translate(3.375 3.36)">
          <g id="Group_119614" data-name="Group 119614" transform="translate(0 0)">
            <g id="Group_119613" data-name="Group 119613">
              <path id="Path_88498" data-name="Path 88498" d="M21.576,15.454a1,1,0,0,1,.05-.177c.041-.126.094-.292.166-.5.036-.113.076-.233.126-.368a4.622,4.622,0,0,0,.108-.458A8.24,8.24,0,0,0,22.24,12.8a10.623,10.623,0,0,0-.036-3.19,11.07,11.07,0,0,0-1.427-3.963,10.958,10.958,0,0,0-3.528-3.658A11.117,11.117,0,0,0,11.705.243a11.53,11.53,0,0,0-1.571.041C9.869.31,9.609.364,9.344.4a5.389,5.389,0,0,0-.79.17,13.452,13.452,0,0,0-1.562.508,12.607,12.607,0,0,0-1.486.772A10.609,10.609,0,0,0,2.9,4.057a11.7,11.7,0,0,0-1.845,3A11.67,11.67,0,0,0,.267,10.49,10.653,10.653,0,0,0,.581,13.9,12.4,12.4,0,0,0,1.1,15.486a11.748,11.748,0,0,0,.758,1.454,11.341,11.341,0,0,0,.921,1.313,11.276,11.276,0,0,0,1.091,1.126,11.075,11.075,0,0,0,5.18,2.639,10.929,10.929,0,0,0,5.081-.139,11.085,11.085,0,0,0,3.8-1.827A10.5,10.5,0,0,0,20.188,17.8a8.129,8.129,0,0,0,.651-.964c.089-.144.177-.278.243-.4s.121-.243.17-.354c.1-.2.177-.359.233-.476.058-.094.089-.148.089-.148a.85.85,0,0,1-.067.166c-.054.121-.126.278-.215.485-.05.108-.1.224-.161.354s-.148.26-.233.408a8,8,0,0,1-.637.992A10.469,10.469,0,0,1,18,20.162a11.206,11.206,0,0,1-14.28-.624A11.767,11.767,0,0,1,2.6,18.386a11.937,11.937,0,0,1-.947-1.338,12.574,12.574,0,0,1-.771-1.482,12.43,12.43,0,0,1-.532-1.621,10.959,10.959,0,0,1-.323-3.479,12.007,12.007,0,0,1,.8-3.505A11.784,11.784,0,0,1,2.719,3.9,10.786,10.786,0,0,1,5.386,1.647,12.784,12.784,0,0,1,6.9.862,12.916,12.916,0,0,1,8.5.346,6.433,6.433,0,0,1,9.3.169c.266-.041.539-.089.808-.117a11.465,11.465,0,0,1,7.244,1.764,11.216,11.216,0,0,1,4.977,7.767,10.417,10.417,0,0,1,0,3.227,7.969,7.969,0,0,1-.237,1.152c-.045.166-.076.319-.121.458s-.094.256-.135.368c-.081.211-.139.372-.189.5A.753.753,0,0,1,21.576,15.454Z" transform="translate(-0.007 -0.003)" fill="#263238"/>
            </g>
          </g>
        </g>
      </g>
      <g id="Group_119618" data-name="Group 119618" transform="translate(4.128 3.508)" opacity="0.3">
        <g id="Group_119617" data-name="Group 119617" transform="translate(0 0)">
          <path id="Path_88499" data-name="Path 88499" d="M20.69,15.387a6.822,6.822,0,0,1,.237-1.351,11.918,11.918,0,0,0,.117-3.644,11.513,11.513,0,0,0-.584-2.429,11.159,11.159,0,0,0-1.315-2.527,10.025,10.025,0,0,0-.965-1.194A10.462,10.462,0,0,0,17,3.155a10.633,10.633,0,0,0-1.373-.925,11.253,11.253,0,0,0-1.543-.718,11.635,11.635,0,0,0-1.638-.467,10.858,10.858,0,0,0-1.644-.2A10.476,10.476,0,0,0,9.211.9,10.233,10.233,0,0,0,7.7,1.164,11.092,11.092,0,0,0,5.051,2.215,11.57,11.57,0,0,0,3.013,3.668a11.972,11.972,0,0,0-2.3,2.827A6.677,6.677,0,0,1,.007,7.671,3.325,3.325,0,0,1,.42,6.342,10.461,10.461,0,0,1,2.606,3.227,11.253,11.253,0,0,1,4.7,1.6,11.4,11.4,0,0,1,7.5.4,10.455,10.455,0,0,1,9.127.089a10.42,10.42,0,0,1,1.719-.08,10.942,10.942,0,0,1,1.772.2,12.686,12.686,0,0,1,1.772.5,12.535,12.535,0,0,1,1.665.781A10.943,10.943,0,0,1,17.527,2.5a10.828,10.828,0,0,1,1.252,1.185,10.49,10.49,0,0,1,1.015,1.3,11.109,11.109,0,0,1,1.849,5.337,10.412,10.412,0,0,1-.391,3.783,3.377,3.377,0,0,1-.563,1.281Z" transform="translate(-0.007 -0.002)"/>
        </g>
      </g>
      <g id="Group_119622" data-name="Group 119622" transform="translate(8.132 7.239)" opacity="0.3">
        <g id="Group_119621" data-name="Group 119621">
          <g id="Group_119620" data-name="Group 119620">
            <g id="Group_119619" data-name="Group 119619">
              <path id="Path_88500" data-name="Path 88500" d="M5.139,13.986,4.43,15.794l-1.612-.633L3.51,13.4A8.221,8.221,0,0,1,0,10.534L1.66,8.913a7.012,7.012,0,0,0,2.681,2.375L5.4,8.595C3.774,7.459,2.01,6.076,2.914,3.769,3.587,2.06,5.4,1.077,8.063,1.791L8.772,0l1.616.633-.693,1.76a7.87,7.87,0,0,1,2.887,2.266L11,6.329A7.044,7.044,0,0,0,8.86,4.519L7.783,7.265c1.625,1.122,3.362,2.492,2.468,4.767C9.588,13.7,7.792,14.673,5.139,13.986ZM6.324,6.221l.9-2.289c-.929-.144-1.454.193-1.66.727C5.337,5.221,5.7,5.718,6.324,6.221ZM7.572,11.2c.22-.565-.126-1.054-.723-1.571l-.875,2.227C6.849,12,7.37,11.715,7.572,11.2Z"/>
            </g>
          </g>
        </g>
      </g>
    </g>
  </g>
</svg>
