<svg xmlns="http://www.w3.org/2000/svg" xmlns:xlink="http://www.w3.org/1999/xlink" width="189" height="147" viewBox="0 0 189 147">
  <defs>
    <clipPath id="clip-path">
      <rect id="Rectangle_20222" data-name="Rectangle 20222" width="189" height="147" transform="translate(-18.825 -5.256)" fill="#fff" stroke="#707070" stroke-width="1"/>
    </clipPath>
    <clipPath id="clip-path-2">
      <rect id="Rectangle_20330" data-name="Rectangle 20330" width="90.059" height="121.717" fill="none"/>
    </clipPath>
    <clipPath id="clip-path-4">
      <rect id="Rectangle_20328" data-name="Rectangle 20328" width="33.862" height="17.64" fill="none"/>
    </clipPath>
  </defs>
  <g id="Earn_banner_illustration_right" data-name="Earn banner illustration right" transform="translate(18.825 5.256)" clip-path="url(#clip-path)" style="mix-blend-mode: normal;isolation: isolate">
    <g id="Character_3" transform="translate(13.898 41.406)">
      <g id="Group_130729" data-name="Group 130729" transform="translate(0 0)">
        <g id="Group_130668" data-name="Group 130668" transform="translate(0 14.198)">
          <path id="Path_89082" data-name="Path 89082" d="M12.634,31.14a13.159,13.159,0,0,1,5.09,1.015,6.664,6.664,0,0,0,2.549.534l3.343-.2.165-28.058A4.565,4.565,0,0,1,28.464,0l3.711.014h79.754a4.483,4.483,0,0,1,4.532,4.433V32.326h1.992a6.108,6.108,0,0,0,2.663-.623c2.106-1.02,6.034-2.332,8.715-1.888,5.316.883,10.722,6.237,10.722,11.51a14.065,14.065,0,0,1-14.14,14.385,12.361,12.361,0,0,1-4.924-1.015,4.967,4.967,0,0,0-2.186-.524l-2.838-.009V81.77a4.486,4.486,0,0,1-4.532,4.433H28.625a4.562,4.562,0,0,1-4.683-4.433L23.8,53.056l-2.927.2a6.647,6.647,0,0,0-2.752.623,13.228,13.228,0,0,1-7.648,1.01A12.274,12.274,0,0,1,.081,44.454C-.769,37.24,5.18,31.14,12.634,31.14Z" transform="translate(0 0)" fill="#e0e0e0"/>
        </g>
        <g id="Group_130972" data-name="Group 130972" transform="translate(38.69 -21.317)">
          <g id="Group_130971" data-name="Group 130971" clip-path="url(#clip-path-2)">
            <g id="Group_130970" data-name="Group 130970">
              <g id="Group_130969" data-name="Group 130969" clip-path="url(#clip-path-2)">
                <path id="Path_89766" data-name="Path 89766" d="M38.965,27.777a3.045,3.045,0,0,0,.152-6.057A3.167,3.167,0,0,0,35.4,16.994a3.791,3.791,0,0,0-6.2-1.976,4.263,4.263,0,0,0-5.175.884,3.031,3.031,0,0,0-1.661,5.554" transform="translate(-12.01 -8.041)" fill="#263238"/>
                <path id="Path_89767" data-name="Path 89767" d="M32.555,34.167A12.919,12.919,0,0,0,17.683,24.9l-.657.125c-7.007,1.763-9.425,8.7-7.469,15.655l4.9,25.256L28.9,77.083l3.737-9.3-1.471-8.405s6.611-2.356,5.4-9.183c-.586-3.3-2.344-9.988-4.006-16.026" transform="translate(-5.086 -14.095)" fill="#c17560"/>
                <path id="Path_89768" data-name="Path 89768" d="M48.393,104.34a16.82,16.82,0,0,1-9.422-.913s2.952,4.652,9.631,2.745Z" transform="translate(-22.261 -59.079)" fill="#7c4236"/>
                <path id="Path_89769" data-name="Path 89769" d="M60.058,61.1a.99.99,0,0,1-.751,1.16.947.947,0,0,1-1.17-.686.99.99,0,0,1,.75-1.16.948.948,0,0,1,1.171.686" transform="translate(-33.196 -34.491)" fill="#263238"/>
                <path id="Path_89770" data-name="Path 89770" d="M56.991,54.289c-.1.15-.937-.256-1.983-.053-1.048.187-1.713.871-1.851.765-.066-.046.013-.3.3-.606a2.718,2.718,0,0,1,1.453-.769,2.608,2.608,0,0,1,1.608.2c.369.186.522.394.473.463" transform="translate(-30.352 -30.606)" fill="#263238"/>
                <path id="Path_89771" data-name="Path 89771" d="M37.913,65.783a.99.99,0,0,1-.751,1.159.946.946,0,0,1-1.17-.686.991.991,0,0,1,.75-1.16.947.947,0,0,1,1.171.686" transform="translate(-20.546 -37.167)" fill="#263238"/>
                <path id="Path_89772" data-name="Path 89772" d="M33.082,59.312c-.1.15-.938-.255-1.984-.053s-1.713.872-1.851.765c-.066-.046.012-.3.3-.605A2.718,2.718,0,0,1,31,58.648a2.613,2.613,0,0,1,1.609.2c.368.186.521.394.473.462" transform="translate(-16.694 -33.475)" fill="#263238"/>
                <path id="Path_89773" data-name="Path 89773" d="M47.669,65.175a7.026,7.026,0,0,1,1.641-.63c.262-.078.505-.18.515-.371a1.387,1.387,0,0,0-.329-.758L48.319,61.53a35.521,35.521,0,0,1-2.788-4.985,35.706,35.706,0,0,1,3.183,4.75q.6,1,1.147,1.9A1.573,1.573,0,0,1,50.2,64.22a.683.683,0,0,1-.365.475,1.845,1.845,0,0,1-.442.149,6.967,6.967,0,0,1-1.722.331" transform="translate(-26.004 -32.299)" fill="#263238"/>
                <path id="Path_89774" data-name="Path 89774" d="M31.617,50.794c-.087.292-1.039.175-2.15.349-1.115.149-2.006.535-2.16.278-.068-.123.082-.4.44-.687a3.373,3.373,0,0,1,1.591-.664,3.25,3.25,0,0,1,1.692.186c.413.176.624.4.587.537" transform="translate(-15.589 -28.58)" fill="#263238"/>
                <path id="Path_89775" data-name="Path 89775" d="M55.039,45.554c-.175.28-1.086.2-2.127.383-1.046.156-1.888.525-2.137.315-.112-.1-.019-.369.323-.667a3.439,3.439,0,0,1,1.652-.718,3.389,3.389,0,0,1,1.785.156c.414.175.581.4.506.531" transform="translate(-28.977 -25.6)" fill="#263238"/>
                <path id="Path_89776" data-name="Path 89776" d="M10.034,75.024a1.882,1.882,0,0,0-2.335-1.4c-1.247.363-2.523,1.353-1.94,3.962,1.036,4.628,5.468,2.634,5.446,2.5-.015-.091-.721-3.127-1.171-5.06" transform="translate(-3.206 -42.013)" fill="#c17560"/>
                <path id="Path_89777" data-name="Path 89777" d="M12.039,80.612c-.024-.01-.068.075-.19.167a.824.824,0,0,1-.6.147,2.044,2.044,0,0,1-1.323-1.583,2.729,2.729,0,0,1-.033-1.2.954.954,0,0,1,.468-.754.421.421,0,0,1,.525.114c.091.116.082.214.108.217s.082-.1,0-.283a.527.527,0,0,0-.247-.249.622.622,0,0,0-.472-.018,1.16,1.16,0,0,0-.682.906A2.809,2.809,0,0,0,9.6,79.424a2.145,2.145,0,0,0,1.623,1.736.884.884,0,0,0,.71-.287c.118-.147.119-.256.1-.26" transform="translate(-5.437 -44.057)" fill="#7c4236"/>
                <path id="Path_89778" data-name="Path 89778" d="M21.785,21.919a1.753,1.753,0,0,0-.226-.3,3.055,3.055,0,0,0-2.569-.879,11.752,11.752,0,0,0-1.763-.375,4.269,4.269,0,0,0-3.489-1.45,4.271,4.271,0,0,0-3.451,2.47c-.186.063-.37.132-.555.2a4.216,4.216,0,0,0-5.955,2.98A3.136,3.136,0,0,0,.839,26.23a3.137,3.137,0,0,0,.381,3.356A2.906,2.906,0,0,0,.082,32.159a1.693,1.693,0,0,0,2.009,1.368A62.66,62.66,0,0,0,3.65,40.666c.393,1.616,2.653,2.189,3.006,3.269,1.8,5.512,3.054,2.037,1.537-9.793.1-.113.2-.232.3-.365a6.556,6.556,0,0,0,.373-.849c.2-.347.684-.343,1.082-.376a3.025,3.025,0,0,0,2.679-2.718,1.27,1.27,0,0,0,1.7-.161,6.8,6.8,0,0,0,1.01-1.6,1.951,1.951,0,0,1,1.446-1.1,4.668,4.668,0,0,0,1.055.03c.6-.171.764-.944.741-1.568a2.891,2.891,0,0,1,.194-1.55,3.5,3.5,0,0,1,1.119-.563c.237-.018.48-.015.712-.025a2.192,2.192,0,0,0,.331-.042,3.429,3.429,0,0,1,.455.09c2.246.6,4.855,4.527,4.855,4.527a8.292,8.292,0,0,0-4.464-5.951" transform="translate(-0.03 -10.797)" fill="#263238"/>
                <path id="Path_89779" data-name="Path 89779" d="M1.474,34.959s.007-.027.03-.076a2.217,2.217,0,0,1,.114-.211,2.6,2.6,0,0,1,.626-.667,3.008,3.008,0,0,1,1.322-.558,2.769,2.769,0,0,1,1.851.317l-.118.063a3.746,3.746,0,0,1,1.482-2.7A4.733,4.733,0,0,1,8.356,30.3a5.756,5.756,0,0,1,1.863-.22,9.469,9.469,0,0,1,3.4.873l-.129.068a4.225,4.225,0,0,1,1.682-2.6,4.086,4.086,0,0,1,3.914-.432,2.859,2.859,0,0,1,.385.191.513.513,0,0,1,.123.084c-.007.013-.183-.09-.53-.217a4.243,4.243,0,0,0-1.556-.253,3.969,3.969,0,0,0-2.244.756,4.092,4.092,0,0,0-1.592,2.508l-.022.114-.107-.046a9.417,9.417,0,0,0-3.331-.847,5.6,5.6,0,0,0-1.8.209,4.573,4.573,0,0,0-1.514.788,3.606,3.606,0,0,0-1.441,2.56l-.006.129L5.338,33.9a2.657,2.657,0,0,0-1.752-.327,2.988,2.988,0,0,0-1.29.506,3.2,3.2,0,0,0-.822.882" transform="translate(-0.842 -15.81)" fill="#455a64"/>
                <path id="Path_89780" data-name="Path 89780" d="M18.735,29.8a1.091,1.091,0,0,1-.045.2,3.963,3.963,0,0,0-.074.571c-.016.252-.017.562-.029.926a2.945,2.945,0,0,1-.238,1.233.978.978,0,0,1-.588.473,3.511,3.511,0,0,1-.8.1,1.591,1.591,0,0,0-.78.208,2.133,2.133,0,0,0-.578.654c-.164.26-.31.549-.47.838a3.332,3.332,0,0,1-.556.876,2.214,2.214,0,0,1-.955.536,1.759,1.759,0,0,1-.57.071.81.81,0,0,1-.563-.244l.165-.06a2.9,2.9,0,0,1-.161.844,2.841,2.841,0,0,1-.441.767,3.275,3.275,0,0,1-1.5,1,3.943,3.943,0,0,1-.741.169,1.6,1.6,0,0,0-.677.129.973.973,0,0,0-.425.491,4.74,4.74,0,0,1-.375.615,3.719,3.719,0,0,1-2.183,1.578,3.414,3.414,0,0,1-2.363-.521,3.529,3.529,0,0,1-1.355-1.579l.088.035a1.866,1.866,0,0,1-1.583-.075A1.8,1.8,0,0,1,0,38,1.3,1.3,0,0,1,.022,37.8q.013-.065.018-.064a2.054,2.054,0,0,0,.164.971,1.694,1.694,0,0,0,.78.825,1.762,1.762,0,0,0,1.481.046l.061-.027.027.061a3.413,3.413,0,0,0,1.317,1.5,3.268,3.268,0,0,0,2.243.481,3.559,3.559,0,0,0,2.062-1.514,4.636,4.636,0,0,0,.359-.593,1.168,1.168,0,0,1,.5-.574,1.069,1.069,0,0,1,.379-.121l.365-.031a3.762,3.762,0,0,0,.7-.16,3.089,3.089,0,0,0,1.413-.934,2.647,2.647,0,0,0,.411-.71,2.715,2.715,0,0,0,.152-.783l.014-.225.152.165a.955.955,0,0,0,.942.121,2.04,2.04,0,0,0,.88-.486,3.222,3.222,0,0,0,.53-.83c.163-.289.31-.575.483-.844a2.269,2.269,0,0,1,.632-.7,1.733,1.733,0,0,1,.855-.223,3.432,3.432,0,0,0,.771-.083.853.853,0,0,0,.522-.405,2.911,2.911,0,0,0,.249-1.178c.021-.361.032-.674.058-.927a3.178,3.178,0,0,1,.105-.575.813.813,0,0,1,.078-.187" transform="translate(0 -17.022)" fill="#455a64"/>
                <path id="Path_89781" data-name="Path 89781" d="M43.679,82.387a2.6,2.6,0,0,0,1.57,2.96,1.871,1.871,0,0,0,2.344-1.241,3.371,3.371,0,0,0,.029-1.608c-1.11-.064-2.833-.047-3.943-.111" transform="translate(-24.929 -47.061)" fill="#7c4236"/>
                <path id="Path_89782" data-name="Path 89782" d="M47.24,84.372c.006,0-.01.035-.047.09a1.179,1.179,0,0,1-.187.223,1.778,1.778,0,0,1-.96.475,2.3,2.3,0,0,1-1.559-.315,2.42,2.42,0,0,1-1.049-1.634,2.479,2.479,0,0,1-.027-.524,1.115,1.115,0,0,1,.135-.52.456.456,0,0,1,.238-.187.818.818,0,0,1,.265-.034l.455.014c.59.029,1.116.088,1.557.132.881.1,1.427.122,1.427.154a6.161,6.161,0,0,1-1.44,0c-.443-.024-.97-.066-1.552-.084l-.446-.006c-.151,0-.259.024-.32.127a.937.937,0,0,0-.1.415,2.3,2.3,0,0,0,.025.475,2.258,2.258,0,0,0,.941,1.5A2.2,2.2,0,0,0,46.024,85a1.833,1.833,0,0,0,.924-.384c.192-.149.273-.264.291-.249" transform="translate(-24.795 -46.809)" fill="#263238"/>
                <path id="Path_89783" data-name="Path 89783" d="M112.734,22.766s5.432-.675,13.6-7.171S138.92-.132,139.832,0s5.09-1.348,11.141,15.927,2.691,20.838,1.179,20.664-11.526-4.009-18.02-3.884-15.066,2.7-15.066,2.7Z" transform="translate(-64.396 0)" fill="#455a64"/>
                <path id="Path_89784" data-name="Path 89784" d="M88.447,77.27l2.9-.62L89.78,72.832l-2.454,1.223Z" transform="translate(-49.882 -41.603)" fill="#455a64"/>
                <path id="Path_89785" data-name="Path 89785" d="M90.283,58.157l1.073,3.225L92.023,63a4.525,4.525,0,0,0,5.684,2.548l11.78-3.312-5.061-14.916-11.7,4.935a4.526,4.526,0,0,0-2.441,5.9" transform="translate(-51.376 -27.033)" fill="#263238"/>
                <path id="Path_89786" data-name="Path 89786" d="M100.584,80.2l3.946,7,1.8-.582,12.315,9.194,3.058-6.656s-7.166-2.74-8.572-5.2.075-3.088.075-3.088l-3.47-3.627Z" transform="translate(-57.455 -44.124)" fill="#263238"/>
                <path id="Path_89787" data-name="Path 89787" d="M186.272,16.795c3.206,9.351,4.139,17.5,2.084,18.208s-6.319-6.306-9.525-15.657-4.139-17.5-2.084-18.207,6.319,6.305,9.525,15.657" transform="translate(-100.338 -0.622)" fill="#263238"/>
                <path id="Path_89788" data-name="Path 89788" d="M181.591,30.655s4.9-2.432,6.837,4.055-3.022,7.056-3.022,7.056a41.808,41.808,0,0,1-3.816-11.111" transform="translate(-103.728 -17.256)" fill="#fafafa"/>
                <path id="Path_89789" data-name="Path 89789" d="M171.741,12.8a7.016,7.016,0,0,0,.069,1.211c.075.777.177,1.906.345,3.294.132.689.277,1.441.432,2.247l.245,1.252.129.655c.049.22.12.438.18.661.252.891.516,1.826.791,2.795l.209.733c.067.247.173.484.259.729l.554,1.482.556,1.482c.1.241.172.49.283.721s.217.462.324.69l1.24,2.628c.1.208.191.418.3.617l.334.579.638,1.107,1.151,1.981c.783,1.155,1.445,2.07,1.9,2.7a7.069,7.069,0,0,0,.744.959,7.084,7.084,0,0,0-.616-1.046L180.011,37.5l-1.1-1.99-.616-1.106-.322-.578c-.1-.2-.191-.409-.289-.616l-1.21-2.619-.319-.687c-.109-.229-.184-.476-.279-.716l-.55-1.472-.552-1.471c-.086-.244-.192-.478-.26-.723L174.3,24.8c-.28-.96-.551-1.886-.808-2.769-.062-.221-.135-.437-.186-.655s-.091-.435-.136-.648q-.135-.639-.262-1.24l-.478-2.225c-.2-1.364-.355-2.474-.469-3.264a7.149,7.149,0,0,0-.223-1.2" transform="translate(-98.095 -7.312)" fill="#263238"/>
                <path id="Path_89790" data-name="Path 89790" d="M117.359,82.107a2.636,2.636,0,0,1-.53.168l-1.461.383c-1.234.319-2.937.77-4.812,1.287s-3.574.991-4.813,1.3c-.619.154-1.123.27-1.472.343a2.645,2.645,0,0,1-.548.09,2.633,2.633,0,0,1,.527-.174l1.453-.411,4.8-1.361c1.877-.518,3.588-.945,4.834-1.225.623-.14,1.128-.248,1.479-.314a2.671,2.671,0,0,1,.549-.083" transform="translate(-59.248 -46.899)" fill="#455a64"/>
                <path id="Path_89791" data-name="Path 89791" d="M108.511,76.427a6.418,6.418,0,0,1-1.15.49c-.723.271-1.732.616-2.861.953s-2.163.6-2.915.771a6.379,6.379,0,0,1-1.231.221,7.566,7.566,0,0,1,1.192-.374c.741-.209,1.765-.5,2.89-.832s2.139-.657,2.873-.888a7.524,7.524,0,0,1,1.2-.341" transform="translate(-57.324 -43.654)" fill="#455a64"/>
                <path id="Path_89792" data-name="Path 89792" d="M105.25,68.481a32.914,32.914,0,0,1-3.633,1.215,32.814,32.814,0,0,1-3.7,1,32.972,32.972,0,0,1,3.634-1.215,32.9,32.9,0,0,1,3.7-1" transform="translate(-55.932 -39.115)" fill="#455a64"/>
                <path id="Path_89793" data-name="Path 89793" d="M102.393,60.83A26.37,26.37,0,0,1,99.3,62.306a26.187,26.187,0,0,1-3.184,1.272A26.314,26.314,0,0,1,99.209,62.1a26.25,26.25,0,0,1,3.184-1.272" transform="translate(-54.902 -34.745)" fill="#455a64"/>
                <path id="Path_89794" data-name="Path 89794" d="M36.511,129.809l-7.155-12.066-18.492-.764.019,1.682a28.476,28.476,0,0,0-6.716,12.068c-1.239,5.269,3.973,25.38,5.44,32.35,1.8,8.57,4.3,19.418,4.3,19.418-.371,1.921-2.837,3.475-2.667,6.04l41.1-.451-2.112-8.33Z" transform="translate(-2.273 -66.821)" fill="#ea1c2d"/>
                <path id="Path_89795" data-name="Path 89795" d="M64.431,270.685c0,.062-8.179.111-18.267.111s-18.268-.05-18.268-.111,8.178-.112,18.268-.112,18.267.05,18.267.112" transform="translate(-15.935 -154.556)" fill="#fff"/>
                <path id="Path_89796" data-name="Path 89796" d="M58.249,246.634c0,.062-8.105.112-18.1.112s-18.1-.05-18.1-.112,8.1-.111,18.1-.111,18.1.05,18.1.111" transform="translate(-12.593 -140.819)" fill="#fff"/>
                <path id="Path_89797" data-name="Path 89797" d="M52.773,220.487c0,.062-7.932.111-17.715.111s-17.716-.05-17.716-.111,7.931-.111,17.716-.111,17.715.05,17.715.111" transform="translate(-9.906 -125.883)" fill="#fff"/>
                <path id="Path_89798" data-name="Path 89798" d="M46.807,194.176c0,.062-8.17.112-18.247.112s-18.248-.05-18.248-.112,8.168-.111,18.248-.111,18.247.05,18.247.111" transform="translate(-5.89 -110.854)" fill="#fff"/>
                <path id="Path_89799" data-name="Path 89799" d="M39.354,161.534c0,.062-7.731.111-17.266.111s-17.267-.05-17.267-.111,7.729-.111,17.267-.111,17.266.05,17.266.111" transform="translate(-2.754 -92.208)" fill="#fff"/>
                <path id="Path_89800" data-name="Path 89800" d="M37.649,131.638c0,.062-5.711.111-12.753.111s-12.755-.05-12.755-.111,5.709-.111,12.755-.111,12.753.05,12.753.111" transform="translate(-6.936 -75.131)" fill="#fff"/>
                <g id="Group_130968" data-name="Group 130968" transform="translate(7.136 70.429)" opacity="0.3">
                  <g id="Group_130967" data-name="Group 130967">
                    <g id="Group_130966" data-name="Group 130966" clip-path="url(#clip-path-4)">
                      <path id="Path_89801" data-name="Path 89801" d="M16.643,164.254a32.992,32.992,0,0,0,6.746,8.043c4.13,3.427,16.695,9.578,16.695,9.578l1.047-2.17,9.374,2.189-1.737-5.768Z" transform="translate(-16.643 -164.254)"/>
                    </g>
                  </g>
                </g>
                <path id="Path_89802" data-name="Path 89802" d="M71.776,124.812,68.508,142.58,40.481,129.257l-4.516,15.8c11.014,5.387,33.313,14.354,36.184,14.094,4.08-.369,6.9-2.806,8.171-8.784.786-3.7.415-28.515.415-28.515Z" transform="translate(-20.544 -69.606)" fill="#c17560"/>
                <path id="Path_89803" data-name="Path 89803" d="M29.12,130.3s-10.482-6.475-15.054,1.684c-3.267,7.957.349,14.313,8.418,18.26,3.891,1.9,9.19,4.253,14.543,6.484l7.8-17.307Z" transform="translate(-7.351 -73.038)" fill="#ea1c2d"/>
                <path id="Path_89804" data-name="Path 89804" d="M29,130.224s.1.048.289.152l.831.468,3.165,1.811,11.465,6.614.069.04-.033.073L37.007,156.7l-.044.1-.1-.041c-2.743-1.143-5.574-2.357-8.452-3.645q-1.913-.857-3.769-1.726c-1.237-.58-2.453-1.16-3.626-1.8-.578-.331-1.145-.674-1.693-1.034-.532-.385-1.081-.737-1.566-1.167a15.931,15.931,0,0,1-2.654-2.714l-.533-.761a7.986,7.986,0,0,1-.466-.792,12.362,12.362,0,0,1-.761-1.637c-.1-.279-.173-.568-.26-.849l-.124-.422c-.035-.142-.052-.287-.079-.43q-.074-.429-.147-.853c-.026-.285-.036-.57-.054-.852a11.914,11.914,0,0,1,.032-1.668c.043-.546.16-1.075.234-1.6.135-.512.262-1.019.4-1.512l.516-1.418v0l0-.006a8.57,8.57,0,0,1,2.48-2.807,7.586,7.586,0,0,1,3.116-1.227,12.345,12.345,0,0,1,5.332.519,19.484,19.484,0,0,1,3.164,1.281c.348.179.608.325.782.428s.256.164.256.164-.092-.046-.268-.142-.441-.233-.792-.4a20.53,20.53,0,0,0-3.169-1.234,12.336,12.336,0,0,0-5.283-.476,7.458,7.458,0,0,0-3.048,1.219,8.424,8.424,0,0,0-2.419,2.763l0-.009-.506,1.406c-.138.488-.261.989-.393,1.5-.071.519-.184,1.042-.226,1.58a11.688,11.688,0,0,0-.027,1.642c.019.277.029.557.055.837q.073.416.147.837c.027.14.044.283.079.422l.123.414c.086.276.155.559.256.833a12.27,12.27,0,0,0,.751,1.608,7.82,7.82,0,0,0,.46.777l.526.748a15.766,15.766,0,0,0,2.623,2.673c.479.424,1.024.772,1.55,1.153.543.356,1.106.7,1.679,1.023,1.161.63,2.378,1.21,3.613,1.788s2.493,1.153,3.766,1.724c2.876,1.287,5.7,2.5,8.445,3.647l-.142.056,7.818-17.3.036.113-11.427-6.681-3.141-1.852-.818-.49c-.184-.112-.275-.175-.275-.175" transform="translate(-7.231 -72.961)" fill="#263238"/>
                <path id="Path_89805" data-name="Path 89805" d="M116.043,107.557l.632-6.62s-2.529-5.095-2.48-5.6.2-3.317.2-3.317l6.325-5.693a2.06,2.06,0,0,1,2.1,2.027s1.972-.415,2,1.946c0,0,2.134.078,2.189,1.8,0,0,1.286-.17,1.241,1.633-.032,1.3-.6,6.267-.6,6.267L125,104.6l-.218,4.6Z" transform="translate(-65.229 -49.309)" fill="#c17560"/>
                <path id="Path_89806" data-name="Path 89806" d="M115.363,176.681c-.073.024-.539-1.583-1.5-3.386s-2.065-3.061-2.008-3.107a4.242,4.242,0,0,1,.748.8,14.048,14.048,0,0,1,1.457,2.2,15.375,15.375,0,0,1,1.032,2.431,4.415,4.415,0,0,1,.268,1.06" transform="translate(-63.894 -97.214)" fill="#7c4236"/>
                <path id="Path_89807" data-name="Path 89807" d="M24.963,128.422a3.74,3.74,0,0,1-.278.6c-.192.381-.479.926-.841,1.6-.724,1.341-1.755,3.176-2.912,5.192l-2.968,5.158-.9,1.561a3.738,3.738,0,0,1-.355.56,3.759,3.759,0,0,1,.278-.6c.192-.381.479-.926.842-1.6.723-1.341,1.755-3.176,2.912-5.193l2.968-5.157.9-1.562a3.735,3.735,0,0,1,.355-.56" transform="translate(-9.542 -73.357)" fill="#fff"/>
                <path id="Path_89808" data-name="Path 89808" d="M43.172,137.151a.715.715,0,0,1-.068.193l-.235.536c-.208.464-.521,1.13-.915,1.948-.789,1.638-1.92,3.88-3.239,6.32s-2.578,4.615-3.516,6.171c-.469.779-.855,1.4-1.13,1.832l-.32.491a.721.721,0,0,1-.124.163.725.725,0,0,1,.086-.187l.284-.512,1.068-1.867c.9-1.576,2.137-3.76,3.457-6.2s2.469-4.666,3.294-6.284l.978-1.916.273-.518a.718.718,0,0,1,.109-.174" transform="translate(-19.206 -78.343)" fill="#fff"/>
                <path id="Path_89809" data-name="Path 89809" d="M65.782,149.63a4.9,4.9,0,0,1-.258.709c-.178.452-.452,1.1-.805,1.891-.705,1.586-1.752,3.746-3.041,6.061s-2.58,4.341-3.558,5.774c-.489.717-.895,1.29-1.185,1.679a4.842,4.842,0,0,1-.468.592,4.926,4.926,0,0,1,.4-.642l1.125-1.716c.943-1.454,2.206-3.487,3.494-5.8s2.352-4.452,3.092-6.018l.869-1.859a4.864,4.864,0,0,1,.337-.674" transform="translate(-32.255 -85.471)" fill="#fff"/>
              </g>
            </g>
          </g>
        </g>
      </g>
    </g>
    <g id="Group_130770" data-name="Group 130770" transform="translate(0.828 58.763) rotate(16)" opacity="0.536">
      <g id="Icon_2" transform="translate(13.477 0) rotate(29)">
        <path id="Path_89124" data-name="Path 89124" d="M6.106,1.5l-2.141.64L3.328,0,1.5.545l.638,2.141L0,3.323.545,5.148,2.685,4.51l.64,2.141L5.15,6.106,4.51,3.966l2.141-.64Z" transform="matrix(0.966, -0.259, 0.259, 0.966, 0, 1.721)" fill="#ad6d19"/>
      </g>
      <g id="Icon_1" transform="matrix(0.966, -0.259, 0.259, 0.966, 0, 5.764)">
        <g id="Group_130734" data-name="Group 130734">
          <g id="Group_130733" data-name="Group 130733">
            <g id="Group_130732" data-name="Group 130732">
              <g id="Group_130731" data-name="Group 130731">
                <path id="Path_89125" data-name="Path 89125" d="M7.177,5.624A2.835,2.835,0,0,0,9.631,3.7,2.753,2.753,0,0,0,8.062.142,2.751,2.751,0,0,0,4.615,1.936a2.834,2.834,0,0,0,.734,3.056C1.28,4.237,0,8.5,0,8.5l9.127,3.21S10.81,7.531,7.177,5.624Z" transform="translate(0.067 0.047)" fill="#ad6d19"/>
                <g id="Group_130730" data-name="Group 130730">
                  <path id="Path_89126" data-name="Path 89126" d="M7.244,5.671c.027.013.058.031.116.06a3.16,3.16,0,0,1,.316.18,4.041,4.041,0,0,1,1.9,2.967,6.286,6.286,0,0,1-.336,2.89l-.013.04-.042-.016L.053,8.6,0,8.578l.018-.051A6.225,6.225,0,0,1,1.483,6.142a4.207,4.207,0,0,1,1.863-1.1A4.364,4.364,0,0,1,4.4,4.893a5.523,5.523,0,0,1,1.036.089l-.049.1A2.78,2.78,0,0,1,4.55,3.688a3,3,0,0,1,.036-1.563A2.963,2.963,0,0,1,6.571.1,2.566,2.566,0,0,1,9.034.68,2.811,2.811,0,0,1,9.907,2.71a3.034,3.034,0,0,1-.531,1.74,2.878,2.878,0,0,1-1.018.914,2.629,2.629,0,0,1-.814.276,2.08,2.08,0,0,1-.3.031c-.007,0,.1-.011.293-.049a2.776,2.776,0,0,0,.8-.291,2.854,2.854,0,0,0,.989-.911,2.968,2.968,0,0,0,.5-1.707A2.736,2.736,0,0,0,8.971.745,2.475,2.475,0,0,0,6.6.2,2.859,2.859,0,0,0,4.686,2.156a2.908,2.908,0,0,0-.031,1.507A2.66,2.66,0,0,0,5.455,5l.144.129-.193-.033a5.467,5.467,0,0,0-1.011-.087,4.222,4.222,0,0,0-1.022.147A4.093,4.093,0,0,0,1.56,6.224,6.162,6.162,0,0,0,.124,8.56L.089,8.489,9.211,11.71l-.056.024A6.238,6.238,0,0,0,9.5,8.887a4.088,4.088,0,0,0-.814-2.014,4.231,4.231,0,0,0-1.027-.942c-.129-.093-.247-.153-.313-.2S7.269,5.686,7.244,5.671Z" fill="#ad6d19"/>
                </g>
              </g>
            </g>
          </g>
        </g>
      </g>
    </g>
    <g id="Group_130751" data-name="Group 130751" transform="matrix(0.839, -0.545, 0.545, 0.839, 91.383, 6.192)">
      <g id="Group_130744" data-name="Group 130744" transform="translate(0 0)">
        <g id="Group_130740" data-name="Group 130740">
          <g id="Group_130737" data-name="Group 130737">
            <g id="Group_130736" data-name="Group 130736">
              <path id="Path_89127" data-name="Path 89127" d="M20.237,14.472A10.511,10.511,0,1,1,14.479.787,10.5,10.5,0,0,1,20.237,14.472Z" transform="translate(0 0)" fill="#e5c399"/>
            </g>
          </g>
          <g id="Group_130739" data-name="Group 130739" transform="translate(2.498 2.491)">
            <g id="Group_130738" data-name="Group 130738" transform="translate(0 0)">
              <path id="Path_89128" data-name="Path 89128" d="M15.423,11.032A8.01,8.01,0,1,1,11.035.6,8,8,0,0,1,15.423,11.032Z" fill="#e5c399"/>
            </g>
          </g>
        </g>
        <g id="Group_130743" data-name="Group 130743" transform="translate(2.414 2.416)">
          <g id="Group_130742" data-name="Group 130742" transform="translate(0 0)">
            <g id="Group_130741" data-name="Group 130741">
              <path id="Path_89129" data-name="Path 89129" d="M15.507,11.108a.717.717,0,0,1,.035-.126c.029-.09.068-.21.119-.361.026-.081.055-.168.09-.265s.048-.21.077-.329a5.923,5.923,0,0,0,.155-.826,7.636,7.636,0,0,0-.026-2.294,7.956,7.956,0,0,0-1.026-2.849A7.877,7.877,0,0,0,12.4,1.429,7.991,7.991,0,0,0,8.413.174,8.287,8.287,0,0,0,7.284.2c-.19.019-.377.058-.568.084A3.873,3.873,0,0,0,6.148.41,9.672,9.672,0,0,0,5.025.774a9.069,9.069,0,0,0-1.068.555A7.625,7.625,0,0,0,2.083,2.916,8.408,8.408,0,0,0,.757,5.071,8.388,8.388,0,0,0,.189,7.539,7.657,7.657,0,0,0,.415,9.988,8.912,8.912,0,0,0,.786,11.13a8.437,8.437,0,0,0,.545,1.045A8.143,8.143,0,0,0,2,13.121a8.107,8.107,0,0,0,.784.81,7.963,7.963,0,0,0,3.723,1.9,7.855,7.855,0,0,0,3.652-.1,7.967,7.967,0,0,0,2.729-1.313,7.55,7.55,0,0,0,1.626-1.62,5.847,5.847,0,0,0,.468-.7c.061-.1.126-.2.174-.29s.087-.174.123-.252c.071-.145.129-.258.168-.342.042-.068.061-.106.065-.106a.61.61,0,0,1-.048.119c-.039.087-.09.2-.155.348-.035.077-.074.161-.116.255s-.106.187-.168.294a5.752,5.752,0,0,1-.458.713,7.524,7.524,0,0,1-1.623,1.655,8.059,8.059,0,0,1-6.465,1.471,8.094,8.094,0,0,1-3.8-1.92,8.464,8.464,0,0,1-.8-.826,8.585,8.585,0,0,1-.681-.961,9.051,9.051,0,0,1-.558-1.068,8.936,8.936,0,0,1-.381-1.165,7.878,7.878,0,0,1-.232-2.5A8.632,8.632,0,0,1,.6,5,8.473,8.473,0,0,1,1.954,2.8,7.753,7.753,0,0,1,3.87,1.184,9.188,9.188,0,0,1,4.961.619,9.284,9.284,0,0,1,6.106.248,4.617,4.617,0,0,1,6.684.123c.194-.029.387-.065.581-.084a8.239,8.239,0,0,1,5.207,1.268,8.062,8.062,0,0,1,3.578,5.581,7.489,7.489,0,0,1,0,2.32,5.732,5.732,0,0,1-.171.829c-.032.119-.055.229-.087.329s-.068.184-.1.265c-.058.152-.1.268-.136.358A.542.542,0,0,1,15.507,11.108Z" transform="translate(0)" fill="#263238"/>
            </g>
          </g>
        </g>
      </g>
      <g id="Group_130746" data-name="Group 130746" transform="translate(2.964 2.519)" opacity="0.3">
        <g id="Group_130745" data-name="Group 130745" transform="translate(0 0)">
          <path id="Path_89130" data-name="Path 89130" d="M14.87,11.059a4.9,4.9,0,0,1,.171-.971,8.565,8.565,0,0,0,.084-2.62,8.274,8.274,0,0,0-.419-1.745,8.022,8.022,0,0,0-.945-1.816,7.211,7.211,0,0,0-.694-.858,7.53,7.53,0,0,0-.845-.781,7.652,7.652,0,0,0-.987-.665,8.1,8.1,0,0,0-1.11-.516A8.359,8.359,0,0,0,8.947.752,7.807,7.807,0,0,0,7.766.61,7.532,7.532,0,0,0,6.618.645,7.354,7.354,0,0,0,5.531.839a7.97,7.97,0,0,0-1.9.755A8.315,8.315,0,0,0,2.166,2.636,8.6,8.6,0,0,0,.514,4.668a4.8,4.8,0,0,1-.507.845,2.39,2.39,0,0,1,.3-.955A7.518,7.518,0,0,1,1.872,2.32,8.085,8.085,0,0,1,3.379,1.152,8.2,8.2,0,0,1,5.392.29,7.511,7.511,0,0,1,6.556.061,7.489,7.489,0,0,1,7.8.006,7.873,7.873,0,0,1,9.07.152,9.115,9.115,0,0,1,10.341.51a9.011,9.011,0,0,1,1.2.561A8.065,8.065,0,0,1,13.5,2.649a7.543,7.543,0,0,1,.729.936A7.984,7.984,0,0,1,15.554,7.42a7.483,7.483,0,0,1-.281,2.72A2.427,2.427,0,0,1,14.87,11.059Z" transform="translate(0 0)"/>
        </g>
      </g>
      <g id="Group_130750" data-name="Group 130750" transform="translate(5.846 5.203)" opacity="0.3">
        <g id="Group_130749" data-name="Group 130749" transform="translate(0 0)">
          <g id="Group_130748" data-name="Group 130748" transform="translate(0 0)">
            <g id="Group_130747" data-name="Group 130747">
              <path id="Path_89131" data-name="Path 89131" d="M3.694,10.053l-.51,1.3L2.026,10.9l.5-1.265A5.909,5.909,0,0,1,0,7.572L1.194,6.407A5.039,5.039,0,0,0,3.12,8.114l.758-1.936C2.713,5.362,1.445,4.368,2.094,2.71,2.578,1.481,3.884.774,5.8,1.287L6.3,0,7.465.455l-.5,1.265A5.657,5.657,0,0,1,9.046,3.349l-1.139,1.2a5.064,5.064,0,0,0-1.539-1.3L5.594,5.22c1.168.807,2.416,1.79,1.774,3.426C6.891,9.849,5.6,10.546,3.694,10.053Zm.852-5.581.645-1.645c-.668-.1-1.045.139-1.194.523C3.836,3.752,4.1,4.11,4.546,4.471Zm.9,3.578c.158-.406-.09-.758-.519-1.129l-.629,1.6C4.923,8.623,5.3,8.42,5.442,8.049Z" transform="translate(0 0)"/>
            </g>
          </g>
        </g>
      </g>
    </g>
    <g id="Group_130767" data-name="Group 130767" transform="matrix(0.839, -0.545, 0.545, 0.839, 0.096, 14.707)">
      <g id="Group_130760" data-name="Group 130760" transform="translate(0 0)">
        <g id="Group_130756" data-name="Group 130756" transform="translate(0)">
          <g id="Group_130753" data-name="Group 130753">
            <g id="Group_130752" data-name="Group 130752">
              <path id="Path_89132" data-name="Path 89132" d="M35.412,25.323A18.392,18.392,0,1,1,25.335,1.377,18.37,18.37,0,0,1,35.412,25.323Z" transform="translate(0)" fill="#e5c399"/>
            </g>
          </g>
          <g id="Group_130755" data-name="Group 130755" transform="translate(4.371 4.359)">
            <g id="Group_130754" data-name="Group 130754" transform="translate(0 0)">
              <path id="Path_89133" data-name="Path 89133" d="M26.988,19.3A14.017,14.017,0,1,1,19.31,1.049,14,14,0,0,1,26.988,19.3Z" transform="translate(0 0)" fill="#e5c399"/>
            </g>
          </g>
        </g>
        <g id="Group_130759" data-name="Group 130759" transform="translate(4.224 4.227)">
          <g id="Group_130758" data-name="Group 130758" transform="translate(0 0)">
            <g id="Group_130757" data-name="Group 130757" transform="translate(0 0)">
              <path id="Path_89134" data-name="Path 89134" d="M27.135,19.436a1.256,1.256,0,0,1,.062-.22c.051-.158.119-.367.209-.632.045-.141.1-.294.158-.463s.085-.367.135-.576A10.363,10.363,0,0,0,27.97,16.1a13.361,13.361,0,0,0-.045-4.014A13.922,13.922,0,0,0,26.13,7.1a13.783,13.783,0,0,0-4.437-4.6A13.983,13.983,0,0,0,14.721.3a14.5,14.5,0,0,0-1.976.051c-.333.034-.66.1-.994.147a6.778,6.778,0,0,0-.994.215,16.925,16.925,0,0,0-1.965.638,15.869,15.869,0,0,0-1.869.971A13.343,13.343,0,0,0,3.645,5.1a14.712,14.712,0,0,0-2.32,3.771,14.677,14.677,0,0,0-.994,4.319,13.4,13.4,0,0,0,.4,4.285,15.6,15.6,0,0,0,.649,2A14.763,14.763,0,0,0,2.33,21.3a14.249,14.249,0,0,0,1.163,1.654,14.185,14.185,0,0,0,1.372,1.417A13.933,13.933,0,0,0,11.379,27.7a13.745,13.745,0,0,0,6.39-.175,13.941,13.941,0,0,0,4.776-2.3,13.211,13.211,0,0,0,2.845-2.834,10.231,10.231,0,0,0,.819-1.219c.107-.181.22-.35.3-.508s.152-.3.215-.44c.124-.254.226-.452.294-.6.073-.119.107-.186.113-.186a1.068,1.068,0,0,1-.085.209c-.068.152-.158.35-.271.61-.062.135-.13.282-.2.446s-.186.327-.294.514a10.065,10.065,0,0,1-.8,1.248,13.166,13.166,0,0,1-2.84,2.9,14.1,14.1,0,0,1-11.313,2.574,14.164,14.164,0,0,1-6.644-3.359,14.81,14.81,0,0,1-1.406-1.445,15.022,15.022,0,0,1-1.191-1.682,15.839,15.839,0,0,1-.977-1.869A15.636,15.636,0,0,1,.444,17.54a13.784,13.784,0,0,1-.406-4.375,15.1,15.1,0,0,1,1.01-4.409,14.826,14.826,0,0,1,2.371-3.85A13.567,13.567,0,0,1,6.773,2.072a16.078,16.078,0,0,1,1.908-.988,16.246,16.246,0,0,1,2-.649A8.078,8.078,0,0,1,11.7.215c.339-.051.677-.113,1.016-.147a14.418,14.418,0,0,1,9.111,2.219,14.107,14.107,0,0,1,6.26,9.766,13.1,13.1,0,0,1-.006,4.059,10.031,10.031,0,0,1-.3,1.451c-.056.209-.1.4-.152.576s-.119.322-.169.463c-.1.265-.175.469-.237.627A.948.948,0,0,1,27.135,19.436Z" transform="translate(0)" fill="#263238"/>
            </g>
          </g>
        </g>
      </g>
      <g id="Group_130762" data-name="Group 130762" transform="translate(5.186 4.408)" opacity="0.3">
        <g id="Group_130761" data-name="Group 130761" transform="translate(0 0)">
          <path id="Path_89135" data-name="Path 89135" d="M26.02,19.352a8.577,8.577,0,0,1,.3-1.7,14.988,14.988,0,0,0,.147-4.584,14.478,14.478,0,0,0-.734-3.054,14.036,14.036,0,0,0-1.654-3.178,12.617,12.617,0,0,0-1.214-1.5,13.176,13.176,0,0,0-1.479-1.366,13.389,13.389,0,0,0-1.727-1.163,14.168,14.168,0,0,0-1.942-.9,14.627,14.627,0,0,0-2.061-.587,13.662,13.662,0,0,0-2.066-.248,13.179,13.179,0,0,0-2.01.062,12.868,12.868,0,0,0-1.9.339A13.947,13.947,0,0,0,6.347,2.789,14.551,14.551,0,0,0,3.79,4.612,15.055,15.055,0,0,0,.9,8.169,8.406,8.406,0,0,1,.013,9.648,4.182,4.182,0,0,1,.532,7.977,13.156,13.156,0,0,1,3.276,4.059,14.148,14.148,0,0,1,5.912,2.015,14.341,14.341,0,0,1,9.435.508a13.142,13.142,0,0,1,2.038-.4,13.1,13.1,0,0,1,2.168-.1,13.776,13.776,0,0,1,2.23.254,15.95,15.95,0,0,1,2.224.627,15.768,15.768,0,0,1,2.094.982,14.113,14.113,0,0,1,3.427,2.761,13.2,13.2,0,0,1,1.276,1.637,13.971,13.971,0,0,1,2.326,6.712,13.1,13.1,0,0,1-.491,4.759A4.246,4.246,0,0,1,26.02,19.352Z" transform="translate(0 0)"/>
        </g>
      </g>
      <g id="Group_130766" data-name="Group 130766" transform="translate(10.229 9.105)" opacity="0.3">
        <g id="Group_130765" data-name="Group 130765" transform="translate(0 0)">
          <g id="Group_130764" data-name="Group 130764">
            <g id="Group_130763" data-name="Group 130763">
              <path id="Path_89136" data-name="Path 89136" d="M6.464,17.59l-.892,2.275-2.027-.8.869-2.213A10.34,10.34,0,0,1,0,13.249l2.089-2.038A8.818,8.818,0,0,0,5.459,14.2l1.327-3.387C4.748,9.382,2.529,7.644,3.664,4.742,4.511,2.591,6.8,1.355,10.144,2.252L11.031,0l2.032.8-.869,2.213A9.9,9.9,0,0,1,15.829,5.86l-1.993,2.1a8.861,8.861,0,0,0-2.693-2.275L9.789,9.134c2.044,1.411,4.228,3.133,3.1,6C12.058,17.235,9.8,18.454,6.464,17.59Zm1.49-9.766L9.083,4.945c-1.169-.181-1.829.243-2.089.914C6.712,6.565,7.169,7.192,7.954,7.824Zm1.569,6.26c.277-.711-.158-1.327-.909-1.976l-1.1,2.8C8.615,15.09,9.269,14.734,9.523,14.085Z" transform="translate(0 0)"/>
            </g>
          </g>
        </g>
      </g>
    </g>
    <g id="Group_130769" data-name="Group 130769" transform="translate(5.68 113.744) rotate(30)" opacity="0.585" style="mix-blend-mode: normal;isolation: isolate">
      <g id="Group_130760-2" data-name="Group 130760" transform="translate(0 0)">
        <g id="Group_130756-2" data-name="Group 130756" transform="translate(0 0)">
          <g id="Group_130753-2" data-name="Group 130753">
            <g id="Group_130752-2" data-name="Group 130752">
              <path id="Path_89132-2" data-name="Path 89132" d="M17.611,12.594A9.147,9.147,0,1,1,12.6.685,9.136,9.136,0,0,1,17.611,12.594Z" transform="translate(0 0)" fill="#e5c399"/>
            </g>
          </g>
          <g id="Group_130755-2" data-name="Group 130755" transform="translate(2.174 2.168)">
            <g id="Group_130754-2" data-name="Group 130754" transform="translate(0 0)">
              <path id="Path_89133-2" data-name="Path 89133" d="M13.421,9.6A6.971,6.971,0,1,1,9.6.521,6.961,6.961,0,0,1,13.421,9.6Z" transform="translate(0 0)" fill="#e5c399"/>
            </g>
          </g>
        </g>
        <g id="Group_130759-2" data-name="Group 130759" transform="translate(2.101 2.102)">
          <g id="Group_130758-2" data-name="Group 130758" transform="translate(0 0)">
            <g id="Group_130757-2" data-name="Group 130757">
              <path id="Path_89134-2" data-name="Path 89134" d="M13.494,9.666a.624.624,0,0,1,.031-.109c.025-.079.059-.182.1-.314.022-.07.048-.146.079-.23s.042-.182.067-.286a5.154,5.154,0,0,0,.135-.719,6.644,6.644,0,0,0-.022-2,6.924,6.924,0,0,0-.893-2.479,6.854,6.854,0,0,0-2.207-2.288A6.954,6.954,0,0,0,7.321.152a7.211,7.211,0,0,0-.983.025C6.173.194,6.01.227,5.844.25A3.371,3.371,0,0,0,5.35.357a8.417,8.417,0,0,0-.977.317,7.892,7.892,0,0,0-.929.483A6.636,6.636,0,0,0,1.813,2.538,7.317,7.317,0,0,0,.659,4.413,7.3,7.3,0,0,0,.165,6.561a6.663,6.663,0,0,0,.2,2.131,7.755,7.755,0,0,0,.323.994,7.342,7.342,0,0,0,.474.91,7.086,7.086,0,0,0,.578.823,7.054,7.054,0,0,0,.682.7,6.929,6.929,0,0,0,3.24,1.651,6.836,6.836,0,0,0,3.178-.087,6.933,6.933,0,0,0,2.375-1.143,6.57,6.57,0,0,0,1.415-1.409,5.088,5.088,0,0,0,.407-.606c.053-.09.109-.174.152-.253s.076-.152.107-.219c.062-.126.112-.225.146-.3s.053-.093.056-.093a.531.531,0,0,1-.042.1c-.034.076-.079.174-.135.3-.031.067-.065.14-.1.222s-.093.163-.146.255a5.006,5.006,0,0,1-.4.62,6.548,6.548,0,0,1-1.412,1.44,7.013,7.013,0,0,1-5.626,1.28,7.044,7.044,0,0,1-3.3-1.67,7.365,7.365,0,0,1-.7-.719,7.47,7.47,0,0,1-.592-.837,7.877,7.877,0,0,1-.486-.929A7.776,7.776,0,0,1,.221,8.723a6.855,6.855,0,0,1-.2-2.176,7.512,7.512,0,0,1,.5-2.193A7.373,7.373,0,0,1,1.7,2.44,6.747,6.747,0,0,1,3.368,1.03,8,8,0,0,1,4.317.539a8.079,8.079,0,0,1,1-.323,4.017,4.017,0,0,1,.5-.109c.168-.025.337-.056.505-.073a7.17,7.17,0,0,1,4.531,1.1,7.016,7.016,0,0,1,3.113,4.857,6.517,6.517,0,0,1,0,2.019,4.988,4.988,0,0,1-.149.721c-.028.1-.048.2-.076.286s-.059.16-.084.23c-.051.132-.087.233-.118.312A.471.471,0,0,1,13.494,9.666Z" transform="translate(0 0)" fill="#263238"/>
            </g>
          </g>
        </g>
      </g>
      <g id="Group_130762-2" data-name="Group 130762" transform="translate(2.579 2.192)" opacity="0.3">
        <g id="Group_130761-2" data-name="Group 130761" transform="translate(0 0)">
          <path id="Path_89135-2" data-name="Path 89135" d="M12.94,9.624a4.266,4.266,0,0,1,.149-.845,7.454,7.454,0,0,0,.073-2.28A7.2,7.2,0,0,0,12.8,4.98,6.98,6.98,0,0,0,11.974,3.4a6.275,6.275,0,0,0-.6-.747,6.553,6.553,0,0,0-.736-.679A6.659,6.659,0,0,0,9.776,1.4,7.046,7.046,0,0,0,8.81.946,7.274,7.274,0,0,0,7.786.654,6.794,6.794,0,0,0,6.758.531a6.554,6.554,0,0,0-1,.031A6.4,6.4,0,0,0,4.813.73a6.936,6.936,0,0,0-1.656.657,7.236,7.236,0,0,0-1.272.907A7.487,7.487,0,0,0,.447,4.062,4.18,4.18,0,0,1,.006,4.8a2.08,2.08,0,0,1,.258-.831A6.542,6.542,0,0,1,1.629,2.019,7.036,7.036,0,0,1,2.94,1,7.132,7.132,0,0,1,4.692.253a6.536,6.536,0,0,1,1.013-.2A6.517,6.517,0,0,1,6.783.006,6.851,6.851,0,0,1,7.892.132,7.932,7.932,0,0,1,9,.444,7.841,7.841,0,0,1,10.04.932a7.019,7.019,0,0,1,1.7,1.373,6.565,6.565,0,0,1,.634.814,6.948,6.948,0,0,1,1.157,3.338,6.512,6.512,0,0,1-.244,2.367A2.112,2.112,0,0,1,12.94,9.624Z" transform="translate(0 0)"/>
        </g>
      </g>
      <g id="Group_130766-2" data-name="Group 130766" transform="translate(5.087 4.528)" opacity="0.3">
        <g id="Group_130765-2" data-name="Group 130765" transform="translate(0 0)">
          <g id="Group_130764-2" data-name="Group 130764" transform="translate(0 0)">
            <g id="Group_130763-2" data-name="Group 130763">
              <path id="Path_89136-2" data-name="Path 89136" d="M3.214,8.748,2.771,9.879l-1.008-.4.432-1.1A5.142,5.142,0,0,1,0,6.589L1.039,5.575A4.385,4.385,0,0,0,2.715,7.061l.66-1.684C2.361,4.666,1.258,3.8,1.822,2.358,2.243,1.289,3.38.674,5.045,1.12L5.486,0,6.5.4,6.064,1.5A4.923,4.923,0,0,1,7.872,2.914L6.881,3.958A4.407,4.407,0,0,0,5.542,2.827L4.868,4.542c1.016.7,2.1,1.558,1.544,2.981C6,8.571,4.874,9.177,3.214,8.748Zm.741-4.857.561-1.432c-.581-.09-.91.121-1.039.455C3.338,3.265,3.565,3.577,3.956,3.891ZM4.736,7c.138-.354-.079-.66-.452-.983L3.737,7.414C4.284,7.5,4.61,7.327,4.736,7Z" transform="translate(0 0)"/>
            </g>
          </g>
        </g>
      </g>
    </g>
  </g>
</svg>
