<svg xmlns="http://www.w3.org/2000/svg" xmlns:xlink="http://www.w3.org/1999/xlink" width="268" height="145" viewBox="0 0 268 145">
  <defs>
    <clipPath id="clip-path">
      <rect id="Rectangle_19535" data-name="Rectangle 19535" width="268" height="145" transform="translate(0 1834)" fill="#fff" stroke="#707070" stroke-width="1"/>
    </clipPath>
  </defs>
  <g id="Mask_Group_854" data-name="Mask Group 854" transform="translate(0 -1834)" clip-path="url(#clip-path)">
    <g id="Group_117441" data-name="Group 117441" transform="translate(0 99)">
      <g id="Group_95280" data-name="Group 95280" transform="translate(162.212 1725.234)">
        <g id="Group_95279" data-name="Group 95279">
          <path id="Path_78263" data-name="Path 78263" d="M531.914,200.868a2.955,2.955,0,0,1-3.558.151,1.651,1.651,0,0,1-2.155-.739l-2.3-.526a2.4,2.4,0,0,1-1.1-.458.825.825,0,0,1-.183-1.079,1.253,1.253,0,0,1-.509-2.008.873.873,0,0,1,.142-1.262,8.734,8.734,0,0,1-1.46-2.581,1.783,1.783,0,0,1-.1-1.216.71.71,0,0,1,1-.405,1.021,1.021,0,0,1-.037-1.1c-.39-.014-.5-.617-.229-.9a1.416,1.416,0,0,1,1.1-.293,1.877,1.877,0,0,0,1.135-.181.354.354,0,0,0-.125-.249,1.6,1.6,0,0,1-.336-2.188c.047-.064.091-.124.129-.178a3.471,3.471,0,0,1,1.14-.783,6.054,6.054,0,0,1,2.395-.492c-.263-.638,1.35-2.027,3.164-.627a35.322,35.322,0,0,1,10.072-1.265c.539,0,1.187.083,1.421.568a1.339,1.339,0,0,1,1.228.415,3.933,3.933,0,0,1,.712,1.146,2.35,2.35,0,0,1,1.67,2.133,2.9,2.9,0,0,1,1.075,2.076,1.7,1.7,0,0,1,.955,2.31,10.267,10.267,0,0,1-1.151,3.17,1.121,1.121,0,0,1,.582,1.552,3.256,3.256,0,0,1-1.362,1.279c.463-.119.86.466.746.929a1.821,1.821,0,0,1-.948,1.023,8.726,8.726,0,0,1-1.923.836A4.147,4.147,0,0,1,541.048,202c-3.09,1.423-5.247,1.77-9.134-1.136" transform="translate(-518.296 -172.297)" fill="#725e57"/>
        </g>
      </g>
      <g id="rocket" transform="translate(-48.137 1736.344)">
        <g id="Character" transform="translate(0 0)">
          <g id="Group_87532" data-name="Group 87532" transform="translate(114.619 53.806)">
            <g id="Group_87438" data-name="Group 87438" transform="translate(0 33.792)">
              <g id="Group_87435" data-name="Group 87435" transform="translate(0)">
                <g id="Group_87434" data-name="Group 87434" opacity="0.8">
                  <g id="Group_87433" data-name="Group 87433">
                    <g id="Group_87432" data-name="Group 87432">
                      <path id="Path_74024" data-name="Path 74024" d="M366.951,265.889c-5.013-4.644-13.9-4.1-18.31,1.121-1.741,2.06-2.917,4.757-5.3,6.006-3.664,1.919-8.093-.5-12.213-.15a9.4,9.4,0,0,0-8.194,10.121c.273,2.165,1.3,4.48.283,6.412-1.3,2.465-5.058,2.561-6.64,4.858-1.426,2.073-.314,5.131,1.754,6.562s4.748,1.6,7.259,1.49,5.067-.465,7.519.091c2.7.615,5.036,2.269,7.606,3.3,6.184,2.479,13.425,1.1,19.158-2.306s10.162-8.608,14.026-14.036" transform="translate(-315.932 -262.724)" fill="#f9cfcf" opacity="0.988"/>
                    </g>
                  </g>
                </g>
              </g>
              <g id="Group_87437" data-name="Group 87437" transform="translate(16.579 6.811)">
                <g id="Group_87436" data-name="Group 87436">
                  <path id="Path_74025" data-name="Path 74025" d="M385.537,280.349c-4.078-4-11.666-3.436-15.107,1.121-2.1,2.784-3.308,7.041-6.767,7.505-2.347.319-4.566-1.449-6.927-1.267-3.14.242-5.045,4.069-4.238,7.114s3.486,5.241,6.3,6.667a25.262,25.262,0,0,0,29.785-6" transform="translate(-314.109 -320.648) rotate(7)" fill="#e32726" opacity="0.221"/>
                </g>
              </g>
            </g>
            <g id="Group_87531" data-name="Group 87531" transform="translate(39.062)">
              <g id="Group_87494" data-name="Group 87494" transform="translate(83.561 15.544)">
                <g id="Group_87440" data-name="Group 87440" transform="translate(14.743 25.588)">
                  <g id="Group_87439" data-name="Group 87439">
                    <path id="Path_74026" data-name="Path 74026" d="M622.642,291.166l-5.272-7.474,6.858-4.862,4.8,9.756-6.075,2.516" transform="translate(-617.37 -278.83)" fill="#ffbf9d"/>
                  </g>
                </g>
                <g id="Group_87485" data-name="Group 87485" transform="translate(19.719 34.009)">
                  <g id="Group_87474" data-name="Group 87474" transform="translate(0)">
                    <g id="Group_87444" data-name="Group 87444">
                      <g id="Group_87443" data-name="Group 87443">
                        <g id="Group_87442" data-name="Group 87442">
                          <g id="Group_87441" data-name="Group 87441">
                            <path id="Path_74027" data-name="Path 74027" d="M634.688,297.31l3.732,6.731s8.093-1.531,8.9-.355l-12.792,7.7-6.243-10.249Z" transform="translate(-628.29 -297.31)" fill="#455a64"/>
                          </g>
                        </g>
                      </g>
                    </g>
                    <g id="Group_87449" data-name="Group 87449" transform="translate(5.682 8.393)" opacity="0.6">
                      <g id="Group_87448" data-name="Group 87448" transform="translate(0)">
                        <g id="Group_87447" data-name="Group 87447">
                          <g id="Group_87446" data-name="Group 87446">
                            <g id="Group_87445" data-name="Group 87445">
                              <path id="Path_74028" data-name="Path 74028" d="M640.914,315.893a.612.612,0,0,0,0,.816.587.587,0,0,0,.807.009.647.647,0,0,0,0-.861.607.607,0,0,0-.839.082" transform="translate(-640.759 -315.728)" fill="#fff"/>
                            </g>
                          </g>
                        </g>
                      </g>
                    </g>
                    <g id="Group_87453" data-name="Group 87453" transform="translate(5.655 6.02)" opacity="0.6">
                      <g id="Group_87452" data-name="Group 87452">
                        <g id="Group_87451" data-name="Group 87451">
                          <g id="Group_87450" data-name="Group 87450">
                            <path id="Path_74029" data-name="Path 74029" d="M641.288,318.577l-.588-1.057,12.486-6.99s.72-.1.9.346Z" transform="translate(-640.7 -310.521)" fill="#fff"/>
                          </g>
                        </g>
                      </g>
                    </g>
                    <g id="Group_87458" data-name="Group 87458" transform="translate(9.492 6.526)">
                      <g id="Group_87457" data-name="Group 87457" transform="translate(0)">
                        <g id="Group_87456" data-name="Group 87456">
                          <g id="Group_87455" data-name="Group 87455">
                            <g id="Group_87454" data-name="Group 87454">
                              <path id="Path_74030" data-name="Path 74030" d="M649.927,311.644c.036.064-.26.278-.447.665s-.191.747-.264.756-.2-.406.036-.87S649.9,311.58,649.927,311.644Z" transform="translate(-649.12 -311.63)" fill="#263238"/>
                            </g>
                          </g>
                        </g>
                      </g>
                    </g>
                    <g id="Group_87463" data-name="Group 87463" transform="translate(11.498 6.28)">
                      <g id="Group_87462" data-name="Group 87462" transform="translate(0)">
                        <g id="Group_87461" data-name="Group 87461">
                          <g id="Group_87460" data-name="Group 87460">
                            <g id="Group_87459" data-name="Group 87459">
                              <path id="Path_74031" data-name="Path 74031" d="M653.995,311.1c.05.05-.155.319-.21.711s.055.706-.009.743-.314-.3-.242-.779S653.959,311.04,653.995,311.1Z" transform="translate(-653.522 -311.091)" fill="#263238"/>
                            </g>
                          </g>
                        </g>
                      </g>
                    </g>
                    <g id="Group_87468" data-name="Group 87468" transform="translate(13.326 6.067)">
                      <g id="Group_87467" data-name="Group 87467">
                        <g id="Group_87466" data-name="Group 87466">
                          <g id="Group_87465" data-name="Group 87465">
                            <g id="Group_87464" data-name="Group 87464">
                              <path id="Path_74032" data-name="Path 74032" d="M657.91,311.994c-.05.046-.324-.214-.369-.652s.164-.752.223-.715-.014.328.032.688S657.965,311.948,657.91,311.994Z" transform="translate(-657.533 -310.624)" fill="#263238"/>
                            </g>
                          </g>
                        </g>
                      </g>
                    </g>
                    <g id="Group_87473" data-name="Group 87473" transform="translate(7.982 5.058)">
                      <g id="Group_87472" data-name="Group 87472" transform="translate(0)">
                        <g id="Group_87471" data-name="Group 87471">
                          <g id="Group_87470" data-name="Group 87470">
                            <g id="Group_87469" data-name="Group 87469">
                              <path id="Path_74033" data-name="Path 74033" d="M647.1,308.451c.009.073-.328.16-.67.4s-.547.515-.611.478.064-.415.469-.688S647.1,308.387,647.1,308.451Z" transform="translate(-645.806 -308.41)" fill="#263238"/>
                            </g>
                          </g>
                        </g>
                      </g>
                    </g>
                  </g>
                  <g id="Group_87479" data-name="Group 87479" transform="translate(6.064 3.477)">
                    <g id="Group_87478" data-name="Group 87478" transform="translate(0)">
                      <g id="Group_87477" data-name="Group 87477">
                        <g id="Group_87476" data-name="Group 87476">
                          <g id="Group_87475" data-name="Group 87475">
                            <path id="Path_74034" data-name="Path 74034" d="M644.031,305.218c.018.027-.21.214-.643.383a3.418,3.418,0,0,1-.793.2,4.138,4.138,0,0,1-.488.027,1.114,1.114,0,0,1-.283-.032.315.315,0,0,1-.228-.314.387.387,0,0,1,.187-.305.937.937,0,0,1,.26-.109,2.748,2.748,0,0,1,.478-.1,2.676,2.676,0,0,1,.825.032,1.27,1.27,0,0,1,.688.292c-.014.036-.278-.073-.715-.114a2.945,2.945,0,0,0-.766.023,2.786,2.786,0,0,0-.438.109c-.155.046-.273.114-.273.2,0,.032,0,.041.059.064a.687.687,0,0,0,.21.023c.16,0,.31,0,.456-.009a4.011,4.011,0,0,0,.761-.137A5.837,5.837,0,0,1,644.031,305.218Z" transform="translate(-641.596 -304.94)" fill="#263238"/>
                          </g>
                        </g>
                      </g>
                    </g>
                  </g>
                  <g id="Group_87484" data-name="Group 87484" transform="translate(7.524 1.525)">
                    <g id="Group_87483" data-name="Group 87483" transform="translate(0)">
                      <g id="Group_87482" data-name="Group 87482">
                        <g id="Group_87481" data-name="Group 87481">
                          <g id="Group_87480" data-name="Group 87480">
                            <path id="Path_74035" data-name="Path 74035" d="M645.748,303.027c-.018.023-.273-.128-.542-.515a2.442,2.442,0,0,1-.333-.752,2.667,2.667,0,0,1-.073-.488.614.614,0,0,1,.214-.57.343.343,0,0,1,.374.018.941.941,0,0,1,.2.2,1.584,1.584,0,0,1,.26.433,1.68,1.68,0,0,1,.123.825c-.05.483-.264.715-.282.7a6.566,6.566,0,0,0,.1-.706,1.728,1.728,0,0,0-.16-.725,1.642,1.642,0,0,0-.232-.365c-.1-.123-.219-.205-.26-.159a.428.428,0,0,0-.1.346,2.727,2.727,0,0,0,.05.442,2.839,2.839,0,0,0,.26.715C645.57,302.8,645.775,303,645.748,303.027Z" transform="translate(-644.8 -300.656)" fill="#263238"/>
                          </g>
                        </g>
                      </g>
                    </g>
                  </g>
                </g>
                <g id="Group_87487" data-name="Group 87487" transform="translate(0.489)">
                  <g id="Group_87486" data-name="Group 87486">
                    <path id="Path_74036" data-name="Path 74036" d="M586.09,234.041l16.378,25.738,8.955-6.088L596.339,222.68" transform="translate(-586.09 -222.68)" fill="#263238"/>
                  </g>
                </g>
                <g id="Group_87490" data-name="Group 87490" transform="translate(0.804 5.714)">
                  <g id="Group_87489" data-name="Group 87489" transform="translate(0)">
                    <g id="Group_87488" data-name="Group 87488">
                      <path id="Path_74037" data-name="Path 74037" d="M587.793,235.219c.068.032-.419,1.075-.656,2.456s-.137,2.529-.214,2.534a7.132,7.132,0,0,1,.87-4.99Z" transform="translate(-586.782 -235.218)" fill="#455a64"/>
                    </g>
                  </g>
                </g>
                <g id="Group_87493" data-name="Group 87493" transform="translate(0 5.787)">
                  <g id="Group_87492" data-name="Group 87492" transform="translate(0)">
                    <g id="Group_87491" data-name="Group 87491">
                      <path id="Path_74038" data-name="Path 74038" d="M585.151,235.38c.073,0,0,1.13.187,2.5s.529,2.438.46,2.461a8.477,8.477,0,0,1-.647-4.958Z" transform="translate(-585.017 -235.38)" fill="#455a64"/>
                    </g>
                  </g>
                </g>
              </g>
              <g id="Group_87521" data-name="Group 87521" transform="translate(0)">
                <g id="Group_87496" data-name="Group 87496" transform="translate(0 23.359)">
                  <g id="Group_87495" data-name="Group 87495">
                    <path id="Path_74039" data-name="Path 74039" d="M421.833,243.3,410.6,239.83c-13.553,17.257-12.646,36.219,9.169,47.439l12.1-13.571Z" transform="translate(-401.651 -239.83)" fill="#263238"/>
                  </g>
                </g>
                <g id="Group_87502" data-name="Group 87502" transform="translate(11.207 5.008)">
                  <g id="Group_87498" data-name="Group 87498" transform="translate(0.056 0.094)">
                    <g id="Group_87497" data-name="Group 87497">
                      <path id="Path_74040" data-name="Path 74040" d="M436.384,218.739c-7.191,4.192-10.764,13.033-9.889,21.678.962,9.488,7.232,18.738,18.72,21.295l77.255-15.444A23.477,23.477,0,0,0,540.411,216.7h0a23.476,23.476,0,0,0-28.044-16.273Z" transform="translate(-426.365 -199.766)" fill="#e0e0e0"/>
                    </g>
                  </g>
                  <g id="Group_87501" data-name="Group 87501">
                    <g id="Group_87500" data-name="Group 87500">
                      <g id="Group_87499" data-name="Group 87499">
                        <path id="Path_74041" data-name="Path 74041" d="M436.317,218.627s.242-.068.715-.187l2.11-.52c1.859-.456,4.6-1.121,8.125-1.982,7.063-1.713,17.28-4.188,29.9-7.246l20.652-4.995q5.571-1.347,11.507-2.78,1.483-.355,2.989-.72c.51-.1,1.021-.2,1.531-.292.255-.046.51-.1.77-.141l.784-.073c.524-.041,1.048-.1,1.577-.132.529,0,1.062.009,1.59.009a11.731,11.731,0,0,1,1.595.114l.8.082.4.041.4.077c.529.1,1.057.214,1.59.319.529.123,1.044.305,1.568.456.26.082.524.15.784.242l.761.31.766.31a5.881,5.881,0,0,1,.752.342c.492.255.98.51,1.476.766s.939.592,1.413.889c.232.155.474.3.7.46l.661.519.665.52.333.26.305.292a23.745,23.745,0,0,1,7.091,11.634,23.433,23.433,0,0,1-.693,14.081,23.724,23.724,0,0,1-8.959,11.415,22.9,22.9,0,0,1-5.591,2.762,47.321,47.321,0,0,1-6,1.408q-6,1.2-11.848,2.37c-7.792,1.554-15.362,3.067-22.639,4.521-14.56,2.9-27.967,5.578-39.728,7.925l-.018,0-.018,0a27.786,27.786,0,0,1-5.865-2.083,22.969,22.969,0,0,1-8.617-7.515,26.736,26.736,0,0,1-2.5-4.639c-.169-.392-.292-.8-.442-1.189a11.248,11.248,0,0,1-.387-1.185c-.109-.4-.223-.788-.333-1.176q-.123-.595-.246-1.176a11.508,11.508,0,0,1-.205-1.162c-.05-.387-.1-.766-.155-1.144s-.055-.756-.087-1.13-.05-.743-.045-1.107a24.693,24.693,0,0,1,1.126-7.906,22.623,22.623,0,0,1,2.743-5.783,18.625,18.625,0,0,1,3.062-3.573c.237-.214.456-.424.674-.6s.433-.328.624-.478.369-.283.533-.406.328-.21.465-.3c.556-.328.843-.506.843-.506s-.278.191-.829.547c-.137.091-.292.191-.46.3s-.337.26-.529.41-.4.31-.62.483-.428.392-.665.6a18.624,18.624,0,0,0-3.031,3.577,22.434,22.434,0,0,0-2.711,5.769,24.765,24.765,0,0,0-1.1,7.87c0,.365.014.734.046,1.1s.046.747.087,1.121.1.756.155,1.139a10.211,10.211,0,0,0,.205,1.153c.082.387.164.775.251,1.167.109.387.219.775.333,1.171a11.441,11.441,0,0,0,.387,1.176c.146.387.273.788.442,1.18a26.744,26.744,0,0,0,2.5,4.607,25.845,25.845,0,0,0,3.7,4.161,25.343,25.343,0,0,0,4.872,3.286,27.672,27.672,0,0,0,5.828,2.06h-.036l39.719-7.961c7.278-1.458,14.847-2.971,22.639-4.53q5.844-1.169,11.848-2.37a47.332,47.332,0,0,0,5.974-1.4,22.753,22.753,0,0,0,5.532-2.734,23.482,23.482,0,0,0,8.872-11.3,23.219,23.219,0,0,0,.688-13.94,23.5,23.5,0,0,0-7.018-11.52l-.305-.287-.328-.26-.656-.515-.656-.515c-.223-.164-.465-.305-.693-.46-.469-.292-.921-.615-1.4-.88s-.975-.506-1.458-.761a5.5,5.5,0,0,0-.747-.337l-.756-.31-.756-.305c-.255-.091-.519-.159-.775-.242-.52-.15-1.03-.328-1.554-.451-.529-.1-1.053-.214-1.577-.319l-.392-.077-.4-.041-.793-.082a12.3,12.3,0,0,0-1.581-.114l-1.577-.014c-.524.023-1.044.087-1.563.128l-.775.068c-.255.041-.51.1-.766.141l-1.518.287q-1.5.362-2.989.715-5.933,1.429-11.507,2.766c-7.423,1.782-14.341,3.445-20.652,4.963-12.628,3.026-22.849,5.478-29.917,7.173-3.532.843-6.275,1.495-8.139,1.937-.93.219-1.641.387-2.119.5S436.317,218.627,436.317,218.627Z" transform="translate(-426.243 -199.56)" fill="#263238"/>
                      </g>
                    </g>
                  </g>
                </g>
                <g id="Group_87504" data-name="Group 87504" transform="translate(19.923 59.888)">
                  <g id="Group_87503" data-name="Group 87503" transform="translate(0)">
                    <path id="Path_74042" data-name="Path 74042" d="M455.56,327.154l-10.19,23.172s48.077-4.639,46.026-30.336Z" transform="translate(-445.37 -319.99)" fill="#e32726"/>
                  </g>
                </g>
                <g id="Group_87506" data-name="Group 87506" transform="translate(5.163)">
                  <g id="Group_87505" data-name="Group 87505">
                    <path id="Path_74043" data-name="Path 74043" d="M465.481,203.878s-23.113-22.434-52.5-12.983L429.1,212.645Z" transform="translate(-412.98 -188.571)" fill="#e32726"/>
                  </g>
                </g>
                <g id="Group_87508" data-name="Group 87508" transform="translate(99.867 4.392)">
                  <g id="Group_87507" data-name="Group 87507" transform="translate(0)">
                    <path id="Path_74044" data-name="Path 74044" d="M620.8,199.262c9.921,7.319,15.986,35.8,11.206,44.855,28.117-8.225,34.014-32.364,34.014-32.364C645.7,192.833,620.8,199.262,620.8,199.262Z" transform="translate(-620.8 -198.21)" fill="#e32726"/>
                  </g>
                </g>
                <g id="Group_87511" data-name="Group 87511" transform="translate(8.57 56.456)">
                  <g id="Group_87510" data-name="Group 87510" transform="translate(0)">
                    <g id="Group_87509" data-name="Group 87509">
                      <path id="Path_74045" data-name="Path 74045" d="M427.545,312.459c.05.041-1.495,1.891-3.454,4.129s-3.582,4.015-3.632,3.974,1.495-1.891,3.454-4.129S427.495,312.413,427.545,312.459Z" transform="translate(-420.457 -312.458)" fill="#455a64"/>
                    </g>
                  </g>
                </g>
                <g id="Group_87514" data-name="Group 87514" transform="translate(20.415 17.936)">
                  <g id="Group_87513" data-name="Group 87513">
                    <g id="Group_87512" data-name="Group 87512">
                      <path id="Path_74046" data-name="Path 74046" d="M571.121,227.93s-.055.1-.173.305-.3.5-.533.884-.529.87-.87,1.435c-.173.283-.36.588-.556.916-.219.314-.451.647-.7,1-.5.706-1.039,1.495-1.659,2.347q-.991,1.23-2.147,2.661c-.405.46-.843.921-1.285,1.4s-.884,1-1.39,1.472c-1.012.957-2.051,2-3.258,2.962a44.265,44.265,0,0,1-8.417,5.555,42.6,42.6,0,0,1-5.177,2.215c-.907.333-1.85.62-2.775.957a28.025,28.025,0,0,1-2.939.752c-7.966,1.764-16.752,3.568-25.966,5.482-18.442,3.81-35.148,7.209-47.243,9.652-6.043,1.217-10.937,2.2-14.327,2.88l-3.9.77c-.442.087-.779.15-1.016.2s-.346.059-.346.059.114-.032.342-.082l1.012-.219,3.887-.811c3.386-.7,8.271-1.709,14.309-2.953l47.224-9.72c9.214-1.914,18-3.714,25.966-5.464a27.654,27.654,0,0,0,2.907-.738c.943-.342,1.878-.624,2.784-.957a42.257,42.257,0,0,0,5.159-2.192,44.139,44.139,0,0,0,8.4-5.509c1.212-.957,2.251-1.991,3.263-2.939.51-.469.943-.993,1.394-1.463s.88-.939,1.285-1.394c.775-.948,1.495-1.832,2.156-2.643.62-.843,1.167-1.631,1.672-2.329.251-.351.483-.684.706-.993.2-.324.392-.629.565-.911.351-.561.647-1.039.889-1.426s.424-.67.552-.875S571.121,227.93,571.121,227.93Z" transform="translate(-446.45 -227.93)" fill="#263238"/>
                    </g>
                  </g>
                </g>
                <g id="Group_87517" data-name="Group 87517" transform="translate(60.555 13.999)">
                  <g id="Group_87516" data-name="Group 87516" transform="translate(0)">
                    <g id="Group_87515" data-name="Group 87515">
                      <path id="Path_74047" data-name="Path 74047" d="M545.893,264.017s-.032-.027-.082-.091-.132-.169-.223-.283c-.2-.264-.483-.633-.834-1.1-.182-.241-.383-.506-.6-.8s-.424-.633-.661-.984c-.465-.715-1.03-1.5-1.545-2.447-.269-.465-.551-.952-.843-1.458s-.547-1.062-.834-1.622c-.6-1.112-1.112-2.36-1.682-3.659a53.8,53.8,0,0,1-3.992-17.927c-.036-1.417-.1-2.766-.032-4.024.023-.629.023-1.24.068-1.823s.1-1.144.146-1.677c.068-1.071.246-2.028.36-2.871.064-.419.114-.816.178-1.171s.141-.679.205-.975c.123-.57.219-1.021.292-1.349.032-.141.059-.255.082-.351a.412.412,0,0,1,.036-.118.42.42,0,0,1-.014.123c-.013.091-.036.21-.059.355q-.089.492-.246,1.353c-.055.3-.119.62-.182.98s-.1.752-.16,1.171c-.1.843-.269,1.8-.323,2.866-.041.533-.087,1.089-.128,1.672s-.037,1.189-.055,1.818c-.059,1.258.009,2.6.05,4.01a54.822,54.822,0,0,0,3.978,17.854c.561,1.294,1.066,2.538,1.654,3.65.287.561.538,1.112.82,1.622s.565.993.825,1.458c.506.943,1.057,1.736,1.508,2.456.232.355.438.693.642.993s.406.565.583.807l.8,1.121c.082.118.15.219.205.3A.873.873,0,0,1,545.893,264.017Z" transform="translate(-534.534 -219.29)" fill="#263238"/>
                    </g>
                  </g>
                </g>
                <g id="Group_87520" data-name="Group 87520" transform="translate(1.747 34.749)">
                  <g id="Group_87519" data-name="Group 87519">
                    <g id="Group_87518" data-name="Group 87518">
                      <path id="Path_74048" data-name="Path 74048" d="M453.951,264.891l-48.45,10.03s-.219,4.73.971,4.771c.993.032,37.021-6.471,48.705-8.585a3.157,3.157,0,0,0,2.415-4.147h0A3.178,3.178,0,0,0,453.951,264.891Z" transform="translate(-405.485 -264.825)" fill="#e32726"/>
                    </g>
                  </g>
                </g>
              </g>
              <g id="Group_87527" data-name="Group 87527" transform="translate(75.614 19.471)">
                <g id="Group_87523" data-name="Group 87523" transform="translate(0.116 0.09)">
                  <g id="Group_87522" data-name="Group 87522" transform="translate(0 0)">
                    <ellipse id="Ellipse_2332" data-name="Ellipse 2332" cx="10.764" cy="11.579" rx="10.764" ry="11.579" transform="translate(0 21.527) rotate(-89.919)" fill="#fafafa"/>
                  </g>
                </g>
                <g id="Group_87526" data-name="Group 87526" transform="translate(0)">
                  <g id="Group_87525" data-name="Group 87525">
                    <g id="Group_87524" data-name="Group 87524">
                      <path id="Path_74049" data-name="Path 74049" d="M590.871,242.186a1.372,1.372,0,0,1-.023-.182c-.009-.132-.023-.305-.041-.529-.009-.118-.018-.246-.027-.392s-.05-.3-.082-.465-.059-.351-.1-.542-.109-.392-.164-.6a10.46,10.46,0,0,0-.5-1.381,11.374,11.374,0,0,0-.857-1.522,11.147,11.147,0,0,0-2.989-2.994,11.682,11.682,0,0,0-4.748-1.9,10.168,10.168,0,0,0-1.4-.146c-.237-.009-.478-.027-.725-.027s-.488.023-.734.036l-.369.018-.369.055c-.246.036-.5.068-.747.1l-.743.178-.374.091-.369.128a11.42,11.42,0,0,0-5.332,3.6,10.007,10.007,0,0,0-.018,12.878,11.445,11.445,0,0,0,5.323,3.618l.369.128.374.091.743.178.747.109.369.055.369.018c.246.014.492.023.734.036s.483-.018.725-.023a10.169,10.169,0,0,0,1.4-.146,11.651,11.651,0,0,0,4.753-1.882,11.083,11.083,0,0,0,3.855-4.5,9.929,9.929,0,0,0,.5-1.381c.059-.214.123-.41.169-.6s.064-.374.1-.542.059-.324.082-.465.018-.273.027-.392c.018-.223.032-.4.041-.529a1.83,1.83,0,0,1,.027-.182.915.915,0,0,1,0,.182c0,.132-.009.31-.018.533,0,.118-.009.251-.018.392s-.045.3-.073.469-.055.351-.086.547-.1.4-.16.611a10.39,10.39,0,0,1-.488,1.4,10.768,10.768,0,0,1-.852,1.545,11.2,11.2,0,0,1-3.012,3.049,11.848,11.848,0,0,1-4.817,1.937,10.418,10.418,0,0,1-1.426.15c-.242.009-.488.032-.734.027s-.5-.023-.747-.036l-.378-.018-.378-.055-.761-.109-.756-.178-.383-.091-.374-.128a11.614,11.614,0,0,1-5.432-3.678A10.226,10.226,0,0,1,570,235.56a11.59,11.59,0,0,1,5.441-3.659l.374-.128.383-.091.756-.178c.255-.036.51-.073.761-.1l.378-.05.378-.018c.251-.009.5-.023.747-.032s.492.018.734.027a10.432,10.432,0,0,1,1.426.155,11.842,11.842,0,0,1,4.812,1.95,11.247,11.247,0,0,1,3,3.058,10.771,10.771,0,0,1,.848,1.549,10.117,10.117,0,0,1,.483,1.4c.055.214.118.419.155.611s.059.378.082.547.05.324.068.469.009.273.014.392c.009.223.014.4.018.533A.682.682,0,0,1,590.871,242.186Z" transform="translate(-567.58 -231.299)" fill="#263238"/>
                    </g>
                  </g>
                </g>
              </g>
              <g id="Group_87530" data-name="Group 87530" transform="translate(96.194 34.774)">
                <g id="Group_87529" data-name="Group 87529" transform="translate(0)">
                  <g id="Group_87528" data-name="Group 87528">
                    <path id="Path_74050" data-name="Path 74050" d="M612.74,264.88" transform="translate(-612.74 -264.88)" fill="none" stroke="#4e585d" stroke-width="0.05"/>
                  </g>
                </g>
              </g>
            </g>
          </g>
          <g id="Group_87538" data-name="Group 87538" transform="translate(69.053 105.562)">
            <g id="Group_87534" data-name="Group 87534">
              <g id="Group_87533" data-name="Group 87533">
                <path id="Path_74051" data-name="Path 74051" d="M250.911,319.637a8.33,8.33,0,0,1-4.315.356,14.308,14.308,0,0,0-4.361-.118c-2.224.438-4.183,2.114-6.448,2-3.14-.164-5.017-3.545-7.788-5.031-3.372-1.809-7.9-.684-10.613-4.038a6.487,6.487,0,0,1-.652-7.182c1.973-3.545,6.517-4.138,10.085-2.853,3.058,1.1,5.56,3.327,7.943,5.532.811.747,1.622,1.508,2.461,2.233a13.015,13.015,0,0,0,9.811,3.09h0a6.63,6.63,0,0,1,4.758,1.39,2.784,2.784,0,0,1,.829,1.089h0a2.622,2.622,0,0,1,.237,1.312A2.758,2.758,0,0,1,250.911,319.637Z" transform="translate(-215.942 -302.145)" fill="#fad9d9"/>
              </g>
            </g>
          </g>
          <g id="Group_87544" data-name="Group 87544" transform="translate(28.791 120.209)">
            <g id="Group_87540" data-name="Group 87540" transform="translate(0)">
              <g id="Group_87539" data-name="Group 87539">
                <path id="Path_74053" data-name="Path 74053" d="M151.259,335.619c-.9-1.581-3.659-1.618-5.3-.82a11.936,11.936,0,0,0-3.878,3.778A9.416,9.416,0,0,1,138,342.086c-1.85.633-3.873.128-5.828.141s-4.252.948-4.543,2.885a3.619,3.619,0,0,0,.975,3.117,8.913,8.913,0,0,0,2.7,1.745,22.183,22.183,0,0,0,8.216,1.6,11.791,11.791,0,0,0,9.26-4.753c2.124-2.9,4.972-7.957,2.479-11.206" transform="translate(-127.589 -334.288)" fill="#fad9d9"/>
              </g>
            </g>
          </g>
          <g id="Group_87898" data-name="Group 87898" transform="translate(165.046)">
            <g id="Group_87611" data-name="Group 87611" transform="translate(33.586 56.74)">
              <g id="Group_87554" data-name="Group 87554" transform="translate(37.03 53.499)">
                <g id="Group_87553" data-name="Group 87553" transform="translate(0)">
                  <path id="Path_74058" data-name="Path 74058" d="M585.164,324.149l-3.614-8.4,7.715-3.34,2.684,10.536-6.462,1.2" transform="translate(-581.55 -312.41)" fill="#ffbf9d"/>
                </g>
              </g>
              <g id="Group_87599" data-name="Group 87599" transform="translate(40.374 62.668)">
                <g id="Group_87588" data-name="Group 87588" transform="translate(0)">
                  <g id="Group_87558" data-name="Group 87558" transform="translate(0)">
                    <g id="Group_87557" data-name="Group 87557">
                      <g id="Group_87556" data-name="Group 87556">
                        <g id="Group_87555" data-name="Group 87555">
                          <path id="Path_74059" data-name="Path 74059" d="M595.94,332.53l2.26,7.355s8.235.173,8.786,1.495l-14.109,4.89-3.987-11.32Z" transform="translate(-588.89 -332.53)" fill="#455a64"/>
                        </g>
                      </g>
                    </g>
                  </g>
                  <g id="Group_87563" data-name="Group 87563" transform="translate(4.484 8.167)" opacity="0.6">
                    <g id="Group_87562" data-name="Group 87562" transform="translate(0)">
                      <g id="Group_87561" data-name="Group 87561">
                        <g id="Group_87560" data-name="Group 87560">
                          <g id="Group_87559" data-name="Group 87559">
                            <path id="Path_74060" data-name="Path 74060" d="M598.981,350.542a.612.612,0,0,0-.169.8.588.588,0,0,0,.788.178.642.642,0,0,0,.178-.843.607.607,0,0,0-.839-.091" transform="translate(-598.73 -350.452)" fill="#fff"/>
                          </g>
                        </g>
                      </g>
                    </g>
                  </g>
                  <g id="Group_87567" data-name="Group 87567" transform="translate(3.632 8.33)" opacity="0.6">
                    <g id="Group_87566" data-name="Group 87566">
                      <g id="Group_87565" data-name="Group 87565">
                        <g id="Group_87564" data-name="Group 87564">
                          <path id="Path_74061" data-name="Path 74061" d="M597.216,356.224l-.356-1.158,13.662-4.256s.724.055.807.524Z" transform="translate(-596.86 -350.81)" fill="#fff"/>
                        </g>
                      </g>
                    </g>
                  </g>
                  <g id="Group_87572" data-name="Group 87572" transform="translate(8.479 7.185)">
                    <g id="Group_87571" data-name="Group 87571" transform="translate(0)">
                      <g id="Group_87570" data-name="Group 87570">
                        <g id="Group_87569" data-name="Group 87569">
                          <g id="Group_87568" data-name="Group 87568">
                            <path id="Path_74062" data-name="Path 74062" d="M608.532,348.321c.023.068-.31.219-.574.56s-.342.693-.415.688-.109-.437.214-.843S608.523,348.253,608.532,348.321Z" transform="translate(-607.495 -348.297)" fill="#263238"/>
                          </g>
                        </g>
                      </g>
                    </g>
                  </g>
                  <g id="Group_87577" data-name="Group 87577" transform="translate(10.544 7.292)">
                    <g id="Group_87576" data-name="Group 87576" transform="translate(0)">
                      <g id="Group_87575" data-name="Group 87575">
                        <g id="Group_87574" data-name="Group 87574">
                          <g id="Group_87573" data-name="Group 87573">
                            <path id="Path_74063" data-name="Path 74063" d="M612.69,348.544c.041.059-.219.283-.351.656s-.1.7-.164.725-.251-.355-.073-.816S612.667,348.481,612.69,348.544Z" transform="translate(-612.028 -348.531)" fill="#263238"/>
                          </g>
                        </g>
                      </g>
                    </g>
                  </g>
                  <g id="Group_87582" data-name="Group 87582" transform="translate(12.425 7.417)">
                    <g id="Group_87581" data-name="Group 87581" transform="translate(0)">
                      <g id="Group_87580" data-name="Group 87580">
                        <g id="Group_87579" data-name="Group 87579">
                          <g id="Group_87578" data-name="Group 87578">
                            <path id="Path_74064" data-name="Path 74064" d="M616.39,350.175c-.059.036-.273-.273-.228-.711s.315-.7.365-.652-.082.319-.114.679S616.459,350.143,616.39,350.175Z" transform="translate(-616.156 -348.807)" fill="#263238"/>
                          </g>
                        </g>
                      </g>
                    </g>
                  </g>
                  <g id="Group_87587" data-name="Group 87587" transform="translate(7.368 5.497)">
                    <g id="Group_87586" data-name="Group 87586" transform="translate(0)">
                      <g id="Group_87585" data-name="Group 87585">
                        <g id="Group_87584" data-name="Group 87584">
                          <g id="Group_87583" data-name="Group 87583">
                            <path id="Path_74065" data-name="Path 74065" d="M606.5,344.682c-.009.073-.355.087-.738.251s-.642.387-.7.342.15-.392.6-.579S606.517,344.618,606.5,344.682Z" transform="translate(-605.058 -344.592)" fill="#263238"/>
                          </g>
                        </g>
                      </g>
                    </g>
                  </g>
                </g>
                <g id="Group_87593" data-name="Group 87593" transform="translate(5.889 3.529)">
                  <g id="Group_87592" data-name="Group 87592" transform="translate(0)">
                    <g id="Group_87591" data-name="Group 87591">
                      <g id="Group_87590" data-name="Group 87590">
                        <g id="Group_87589" data-name="Group 87589">
                          <path id="Path_74066" data-name="Path 74066" d="M604.254,340.855a1.428,1.428,0,0,1-.706.241,3.339,3.339,0,0,1-.816.027,3.7,3.7,0,0,1-.479-.073.934.934,0,0,1-.269-.091.319.319,0,0,1-.159-.355.419.419,0,0,1,.246-.264,1,1,0,0,1,.278-.055,2.534,2.534,0,0,1,.492,0,2.717,2.717,0,0,1,.8.2c.433.191.633.41.615.428s-.255-.128-.679-.26a2.875,2.875,0,0,0-.752-.137,3.027,3.027,0,0,0-.451.014c-.164.014-.292.055-.305.137,0,.032,0,.041.041.073a.924.924,0,0,0,.2.068,4.448,4.448,0,0,0,.447.082,4.145,4.145,0,0,0,.775.023A5.69,5.69,0,0,1,604.254,340.855Z" transform="translate(-601.812 -340.274)" fill="#263238"/>
                        </g>
                      </g>
                    </g>
                  </g>
                </g>
                <g id="Group_87598" data-name="Group 87598" transform="translate(7.677 1.79)">
                  <g id="Group_87597" data-name="Group 87597">
                    <g id="Group_87596" data-name="Group 87596">
                      <g id="Group_87595" data-name="Group 87595">
                        <g id="Group_87594" data-name="Group 87594">
                          <path id="Path_74067" data-name="Path 74067" d="M606.336,338.91c-.023.018-.241-.182-.424-.62a2.485,2.485,0,0,1-.173-.807,2.627,2.627,0,0,1,.032-.492.619.619,0,0,1,.328-.515.346.346,0,0,1,.365.1,1.159,1.159,0,0,1,.164.232,1.636,1.636,0,0,1,.164.474,1.717,1.717,0,0,1-.05.834c-.15.46-.41.643-.424.62a6.086,6.086,0,0,0,.246-.665,1.7,1.7,0,0,0,0-.743,1.582,1.582,0,0,0-.155-.406c-.073-.141-.173-.242-.223-.21-.068.023-.15.178-.169.319a2.505,2.505,0,0,0-.041.442,2.592,2.592,0,0,0,.109.752C606.2,338.655,606.368,338.887,606.336,338.91Z" transform="translate(-605.738 -336.457)" fill="#263238"/>
                        </g>
                      </g>
                    </g>
                  </g>
                </g>
              </g>
              <g id="Group_87601" data-name="Group 87601" transform="translate(0)">
                <g id="Group_87600" data-name="Group 87600">
                  <path id="Path_74068" data-name="Path 74068" d="M504.037,195.01s-6.685,13.238-2.192,16.342,25.478,18.875,25.478,18.875l10.7,28.568,10.021-4.106L539.7,221.231,518.61,202.292Z" transform="translate(-500.292 -195.01)" fill="#263238"/>
                </g>
              </g>
              <g id="Group_87604" data-name="Group 87604" transform="translate(27.588 29.961)">
                <g id="Group_87603" data-name="Group 87603" transform="translate(0)">
                  <g id="Group_87602" data-name="Group 87602">
                    <path id="Path_74069" data-name="Path 74069" d="M562.736,260.758c.059.046-.633.966-1.148,2.269s-.661,2.447-.734,2.438a5.721,5.721,0,0,1,.51-2.525A5.8,5.8,0,0,1,562.736,260.758Z" transform="translate(-560.832 -260.757)" fill="#455a64"/>
                  </g>
                </g>
              </g>
              <g id="Group_87607" data-name="Group 87607" transform="translate(27.233 29.689)">
                <g id="Group_87606" data-name="Group 87606" transform="translate(0)">
                  <g id="Group_87605" data-name="Group 87605">
                    <path id="Path_74070" data-name="Path 74070" d="M560.653,260.16c.068.018-.232,1.107-.333,2.479s.014,2.493-.055,2.5a8.461,8.461,0,0,1,.387-4.981Z" transform="translate(-560.053 -260.159)" fill="#455a64"/>
                  </g>
                </g>
              </g>
              <g id="Group_87610" data-name="Group 87610" transform="translate(1.547 6.626)">
                <g id="Group_87609" data-name="Group 87609">
                  <g id="Group_87608" data-name="Group 87608">
                    <path id="Path_74071" data-name="Path 74071" d="M540.887,266.289a.594.594,0,0,1-.064-.141c-.041-.1-.1-.246-.173-.424-.15-.387-.369-.943-.643-1.654-.556-1.44-1.349-3.536-2.315-6.152s-2.11-5.756-3.308-9.3c-.3-.884-.6-1.8-.889-2.739a29.008,29.008,0,0,0-.948-2.848c-.761-1.9-1.682-3.823-2.68-5.774l.027.036c-1.126-.952-2.315-1.955-3.532-2.958-.953-.779-1.9-1.549-2.848-2.279s-1.9-1.44-2.825-2.146c-1.85-1.408-3.636-2.757-5.382-3.992s-3.454-2.32-5.022-3.4a29.668,29.668,0,0,1-4.138-3.3,9.963,9.963,0,0,1-1.463-1.8,6.654,6.654,0,0,1-.8-1.909,7.8,7.8,0,0,1-.041-3.29,11.748,11.748,0,0,1,.583-2c.082-.223.159-.387.205-.5s.077-.169.077-.169a.972.972,0,0,1-.055.178c-.041.114-.109.283-.182.51a12.4,12.4,0,0,0-.533,2,7.863,7.863,0,0,0,.077,3.24,6.333,6.333,0,0,0,.8,1.859,10.06,10.06,0,0,0,1.454,1.759,29.772,29.772,0,0,0,4.129,3.258c1.568,1.066,3.295,2.142,5.035,3.386s3.541,2.579,5.4,3.987l2.825,2.142c.957.729,1.9,1.5,2.857,2.283,1.221,1,2.411,2.005,3.536,2.962l.018.014.009.018c1,1.96,1.919,3.887,2.68,5.8a29.64,29.64,0,0,1,.948,2.866c.287.939.583,1.85.88,2.739,1.185,3.545,2.315,6.685,3.258,9.31s1.718,4.712,2.251,6.175c.26.715.465,1.276.606,1.668.064.182.114.324.15.433A.8.8,0,0,1,540.887,266.289Z" transform="translate(-503.687 -209.55)" fill="#455a64"/>
                  </g>
                </g>
              </g>
            </g>
            <g id="Group_87613" data-name="Group 87613" transform="translate(45.575 60.974)">
              <g id="Group_87612" data-name="Group 87612">
                <path id="Path_74072" data-name="Path 74072" d="M526.6,204.3l12.924,1.837,6.626,1.682-9.073,3.254Z" transform="translate(-526.6 -204.3)" fill="#263238"/>
              </g>
            </g>
            <g id="Group_87616" data-name="Group 87616" transform="translate(20.42 60.038)">
              <g id="Group_87615" data-name="Group 87615" transform="translate(0 0)">
                <g id="Group_87614" data-name="Group 87614">
                  <path id="Path_74073" data-name="Path 74073" d="M480.733,202.248c.014.014-.082.123-.269.31a10,10,0,0,1-.829.747,13.138,13.138,0,0,1-6.712,2.807,8.557,8.557,0,0,1-1.112.064,1.63,1.63,0,0,1-.41-.027c0-.041.579-.064,1.5-.205a15.44,15.44,0,0,0,3.486-.98,15.248,15.248,0,0,0,3.149-1.791C480.282,202.618,480.705,202.221,480.733,202.248Z" transform="translate(-471.4 -202.247)" fill="#263238"/>
                </g>
              </g>
            </g>
            <g id="Group_87664" data-name="Group 87664" transform="translate(36.543 20.79)">
              <g id="Group_87618" data-name="Group 87618">
                <g id="Group_87617" data-name="Group 87617">
                  <path id="Path_74074" data-name="Path 74074" d="M509.268,136.449l-3.075,18.586s5.9,1.5,11.751,3.438,12.4,0,12.4,0l-1.221-11.657,4.361-9.552,1.919,11.188,8.959,9.223,5.837-1.322-6.047-10.135-4.2-20.652c0-.009,0-.014,0-.023a7.691,7.691,0,0,0-2.643-4.384l-.169-.137-8.8-4.9-2.953.059a46.441,46.441,0,0,0-7.442.761,7.548,7.548,0,0,0-4.024,2.155h0a9.322,9.322,0,0,0-2.051,3.832Z" transform="translate(-506.78 -116.12)" fill="#0091c7"/>
                </g>
              </g>
              <g id="Group_87621" data-name="Group 87621" transform="translate(23.912 12.491)">
                <g id="Group_87620" data-name="Group 87620" transform="translate(0)">
                  <g id="Group_87619" data-name="Group 87619">
                    <path id="Path_74075" data-name="Path 74075" d="M565.769,143.53a3.792,3.792,0,0,1-.214.6c-.173.419-.4.962-.67,1.6-.574,1.353-1.381,3.213-2.283,5.263-.9,2.028-1.718,3.86-2.333,5.241-.292.633-.533,1.167-.724,1.581a4.1,4.1,0,0,1-.287.57,2.6,2.6,0,0,1,.2-.606c.15-.383.374-.934.656-1.613.565-1.353,1.372-3.217,2.274-5.272s1.732-3.9,2.347-5.236c.3-.633.542-1.162.738-1.577A2.981,2.981,0,0,1,565.769,143.53Z" transform="translate(-559.254 -143.53)" fill="#263238"/>
                  </g>
                </g>
              </g>
              <g id="Group_87627" data-name="Group 87627" transform="translate(5.357 2.015)">
                <g id="Group_87623" data-name="Group 87623" transform="translate(0)">
                  <g id="Group_87622" data-name="Group 87622">
                    <path id="Path_74076" data-name="Path 74076" d="M518.761,127.755c1.714,4.771,5.008,15.681,6.617,19.882a7.639,7.639,0,0,0,2.388,3.254l17.782,12.573,4.11-5.336-13.32-12.851L529.16,124a5.843,5.843,0,0,0-7.815-2.862h0C519.33,122.31,517.977,125.568,518.761,127.755Z" transform="translate(-518.535 -120.543)" fill="#0091c7"/>
                  </g>
                </g>
                <g id="Group_87626" data-name="Group 87626" transform="translate(1.392 4.342)">
                  <g id="Group_87625" data-name="Group 87625">
                    <g id="Group_87624" data-name="Group 87624">
                      <path id="Path_74077" data-name="Path 74077" d="M531.132,130.07s.055.123.141.369.214.615.378,1.08c.328.962.811,2.351,1.417,4.124,1.212,3.568,2.944,8.663,5.026,14.788l-.027-.041c3.905,3.764,8.453,8.143,13.334,12.837l.077.073-.064.082c-.943,1.226-1.941,2.525-2.953,3.837l-1.153,1.5-.068.091-.091-.068c-4.853-3.5-9.46-6.817-13.644-9.83-1.044-.752-2.065-1.486-3.049-2.2-.246-.178-.492-.355-.734-.533a5.87,5.87,0,0,1-.706-.561,6.945,6.945,0,0,1-1.135-1.353,7.736,7.736,0,0,1-.743-1.527c-.2-.515-.4-1.016-.588-1.513-.374-.993-.729-1.946-1.057-2.857-1.312-3.65-2.274-6.63-2.93-8.686-.319-1.025-.565-1.823-.738-2.374-.077-.264-.141-.469-.182-.62s-.055-.214-.055-.214a2.111,2.111,0,0,1,.078.205c.05.146.118.351.205.611.182.547.442,1.344.779,2.361.684,2.051,1.668,5.017,3,8.658q.5,1.367,1.071,2.848c.191.492.392.993.592,1.508a7.659,7.659,0,0,0,.734,1.49,6.666,6.666,0,0,0,1.1,1.308,5.9,5.9,0,0,0,.693.547c.246.173.488.351.738.529q1.483,1.066,3.058,2.192c4.183,3.008,8.8,6.316,13.653,9.807l-.164.023c.365-.474.761-.984,1.153-1.5,1.012-1.312,2.01-2.611,2.953-3.837l.014.155c-4.867-4.7-9.406-9.091-13.306-12.86l-.018-.018-.009-.023c-2.051-6.138-3.75-11.242-4.944-14.815-.588-1.777-1.048-3.176-1.367-4.142-.15-.469-.269-.834-.351-1.094A3.5,3.5,0,0,1,531.132,130.07Z" transform="translate(-521.59 -130.07)" fill="#263238"/>
                    </g>
                  </g>
                </g>
              </g>
              <g id="Group_87630" data-name="Group 87630" transform="translate(7.673 2.087)">
                <g id="Group_87629" data-name="Group 87629" transform="translate(0)">
                  <g id="Group_87628" data-name="Group 87628">
                    <path id="Path_74078" data-name="Path 74078" d="M530.537,122.372c-.027.027-.324-.283-.907-.643a5.144,5.144,0,0,0-5.049-.242c-.611.3-.934.583-.962.551a2.59,2.59,0,0,1,.884-.7,4.878,4.878,0,0,1,5.222.251A2.661,2.661,0,0,1,530.537,122.372Z" transform="translate(-523.618 -120.699)" fill="#263238"/>
                  </g>
                </g>
              </g>
              <g id="Group_87633" data-name="Group 87633" transform="translate(34.199 30.228)">
                <g id="Group_87632" data-name="Group 87632" transform="translate(0)">
                  <g id="Group_87631" data-name="Group 87631">
                    <path id="Path_74079" data-name="Path 74079" d="M585.378,182.584c-.009.073-.843-.014-1.823.228s-1.686.693-1.727.629a3.194,3.194,0,0,1,1.668-.861A3.149,3.149,0,0,1,585.378,182.584Z" transform="translate(-581.826 -182.453)" fill="#263238"/>
                  </g>
                </g>
              </g>
              <g id="Group_87636" data-name="Group 87636" transform="translate(3.572 15.314)">
                <g id="Group_87635" data-name="Group 87635" transform="translate(0)">
                  <g id="Group_87634" data-name="Group 87634">
                    <path id="Path_74080" data-name="Path 74080" d="M518.953,150.821a.823.823,0,0,1-.178.046c-.114.027-.283.05-.492.077a4.526,4.526,0,0,1-3.135-.788,4.133,4.133,0,0,1-.4-.3c-.091-.077-.137-.123-.132-.128a6.662,6.662,0,0,0,2.051,1.016A7,7,0,0,0,518.953,150.821Z" transform="translate(-514.619 -149.726)" fill="#fafafa"/>
                  </g>
                </g>
              </g>
              <g id="Group_87639" data-name="Group 87639" transform="translate(2.835 19.276)">
                <g id="Group_87638" data-name="Group 87638" transform="translate(0)">
                  <g id="Group_87637" data-name="Group 87637">
                    <path id="Path_74081" data-name="Path 74081" d="M519.457,159.618a8.065,8.065,0,0,0-.843-.5,6.37,6.37,0,0,0-2.269-.579,13.726,13.726,0,0,0-2.365.055c-.255.023-.492.046-.716.064a1.9,1.9,0,0,1-.264.014,1.861,1.861,0,0,1,.26-.05c.169-.027.41-.059.715-.1a12.271,12.271,0,0,1,2.379-.082,6.083,6.083,0,0,1,2.292.615,3.851,3.851,0,0,1,.611.383A1.085,1.085,0,0,1,519.457,159.618Z" transform="translate(-513 -158.419)" fill="#fafafa"/>
                  </g>
                </g>
              </g>
              <g id="Group_87642" data-name="Group 87642" transform="translate(6.995 13.571)" opacity="0.4">
                <g id="Group_87641" data-name="Group 87641" transform="translate(0)">
                  <g id="Group_87640" data-name="Group 87640">
                    <path id="Path_74082" data-name="Path 74082" d="M522.13,145.9s.478,7.127.989,10.422,1.572,6.649,3.933,9c2.374,2.374,5.755,3.422,9.046,4.088q-1.593-1.2-3.126-2.479c-1.317-1.1-3.254-2.165-4.311-3.513-2.042-2.593-2.484-5.869-3.536-9-.971-2.889-2.023-5.637-2.994-8.522" transform="translate(-522.13 -145.9)"/>
                  </g>
                </g>
              </g>
              <g id="Group_87645" data-name="Group 87645" transform="translate(9.296 16.284)">
                <g id="Group_87644" data-name="Group 87644">
                  <g id="Group_87643" data-name="Group 87643">
                    <path id="Path_74083" data-name="Path 74083" d="M537.256,151.939a1.369,1.369,0,0,1-.378.187,3.049,3.049,0,0,1-1.135.169,27.747,27.747,0,0,0-3.755-.319,8.044,8.044,0,0,0-3.55,1.139,8.856,8.856,0,0,0-.934.656c-.087.073-.164.137-.237.2-.055.046-.087.068-.087.064a5.779,5.779,0,0,1,1.226-.98,7.853,7.853,0,0,1,3.577-1.176,24.2,24.2,0,0,1,3.764.351,3.07,3.07,0,0,0,1.121-.137C537.123,152.011,537.251,151.925,537.256,151.939Z" transform="translate(-527.18 -151.854)" fill="#fafafa"/>
                  </g>
                </g>
              </g>
              <g id="Group_87648" data-name="Group 87648" transform="translate(8.098 12.909)">
                <g id="Group_87647" data-name="Group 87647" transform="translate(0)">
                  <g id="Group_87646" data-name="Group 87646">
                    <path id="Path_74084" data-name="Path 74084" d="M534.5,144.449a.4.4,0,0,1-.087.059q-.123.068-.26.15c-.228.132-.565.305-.989.506a18.08,18.08,0,0,1-3.463,1.208,18.338,18.338,0,0,1-3.637.478c-.469.014-.848.009-1.112-.009-.11,0-.205-.014-.3-.018a.329.329,0,0,1-.1-.014.372.372,0,0,1,.1,0h.3c.26,0,.643,0,1.107-.023a19.906,19.906,0,0,0,3.614-.506,19.567,19.567,0,0,0,3.454-1.176c.428-.191.77-.355,1-.479.1-.05.187-.091.269-.137C534.466,144.458,534.5,144.444,534.5,144.449Z" transform="translate(-524.55 -144.448)" fill="#fafafa"/>
                  </g>
                </g>
              </g>
              <g id="Group_87651" data-name="Group 87651" transform="translate(17.868 10.366)">
                <g id="Group_87650" data-name="Group 87650">
                  <g id="Group_87649" data-name="Group 87649">
                    <path id="Path_74085" data-name="Path 74085" d="M556.266,145.148a.442.442,0,0,1-.123-.027A1.812,1.812,0,0,1,555.8,145a3.923,3.923,0,0,1-1.112-.734c-.866-.738-1.663-2.124-3.008-3.194a10.093,10.093,0,0,0-3.9-1.923,10.78,10.78,0,0,0-1.308-.232c-.132-.014-.251-.023-.36-.032a.61.61,0,0,1-.128-.018,7.5,7.5,0,0,1,1.809.219A9.826,9.826,0,0,1,551.741,141a10.989,10.989,0,0,1,1.691,1.741,14.578,14.578,0,0,0,1.3,1.476,4.1,4.1,0,0,0,1.084.752C556.1,145.1,556.271,145.134,556.266,145.148Z" transform="translate(-545.99 -138.867)" fill="#fafafa"/>
                  </g>
                </g>
              </g>
              <g id="Group_87654" data-name="Group 87654" transform="translate(19.048 14.724)">
                <g id="Group_87653" data-name="Group 87653">
                  <g id="Group_87652" data-name="Group 87652">
                    <path id="Path_74086" data-name="Path 74086" d="M557.143,152.527a3.376,3.376,0,0,1-.378-.109,3.535,3.535,0,0,1-.921-.561,9.6,9.6,0,0,1-1.116-1.144,10.455,10.455,0,0,0-1.358-1.385,3.636,3.636,0,0,0-1.75-.752,6.675,6.675,0,0,0-1.581-.032c-.451.036-.816.1-1.066.128-.1.014-.2.027-.292.041a.865.865,0,0,1-.1.009.3.3,0,0,1,.1-.027c.091-.018.187-.036.287-.059.251-.046.611-.114,1.066-.16a6.487,6.487,0,0,1,1.6.009,3.723,3.723,0,0,1,1.8.766,10.349,10.349,0,0,1,1.367,1.4,10.016,10.016,0,0,0,1.094,1.148,3.59,3.59,0,0,0,.893.574C557.01,152.477,557.143,152.518,557.143,152.527Z" transform="translate(-548.58 -148.43)" fill="#fafafa"/>
                  </g>
                </g>
              </g>
              <g id="Group_87657" data-name="Group 87657" transform="translate(27.88 17.177)">
                <g id="Group_87656" data-name="Group 87656" transform="translate(0)">
                  <g id="Group_87655" data-name="Group 87655">
                    <path id="Path_74087" data-name="Path 74087" d="M574.673,153.99a3.071,3.071,0,0,0-1.012-.1,4.37,4.37,0,0,0-1.08.242c-.4.137-.811.337-1.253.538a6.739,6.739,0,0,1-1.294.465,3.231,3.231,0,0,1-1.125.059,2,2,0,0,1-.72-.237,1.224,1.224,0,0,1-.228-.164,2.387,2.387,0,0,0,.957.333,3.238,3.238,0,0,0,1.1-.077,7.183,7.183,0,0,0,1.276-.469c.442-.2.861-.4,1.267-.533a4.211,4.211,0,0,1,1.1-.228,2.434,2.434,0,0,1,.757.073A1.292,1.292,0,0,1,574.673,153.99Z" transform="translate(-567.96 -153.814)" fill="#fafafa"/>
                  </g>
                </g>
              </g>
              <g id="Group_87660" data-name="Group 87660" transform="translate(26.777 19.319)">
                <g id="Group_87659" data-name="Group 87659">
                  <g id="Group_87658" data-name="Group 87658">
                    <path id="Path_74088" data-name="Path 74088" d="M574.075,159.027a2.272,2.272,0,0,0-1.258-.442,3.438,3.438,0,0,0-1.431.26,8.016,8.016,0,0,0-1.554.907,11.647,11.647,0,0,1-1.545.962,3.818,3.818,0,0,1-1.435.383,2.3,2.3,0,0,1-.989-.146,1.367,1.367,0,0,1-.323-.173,2.525,2.525,0,0,0,1.312.251,3.966,3.966,0,0,0,1.4-.4,11.92,11.92,0,0,0,1.527-.962,7.772,7.772,0,0,1,1.577-.907,3.4,3.4,0,0,1,1.467-.242,2.211,2.211,0,0,1,.962.283A1.314,1.314,0,0,1,574.075,159.027Z" transform="translate(-565.54 -158.514)" fill="#fafafa"/>
                  </g>
                </g>
              </g>
              <g id="Group_87663" data-name="Group 87663" transform="translate(26.686 15.553)" opacity="0.4">
                <g id="Group_87662" data-name="Group 87662" transform="translate(0)">
                  <g id="Group_87661" data-name="Group 87661">
                    <path id="Path_74089" data-name="Path 74089" d="M566.388,161.866a56.678,56.678,0,0,0,1.244-11.616,29.328,29.328,0,0,1-1.659,3.791c-.246.615-.633,1.727-.633,1.727l1.03,6.006" transform="translate(-565.34 -150.25)"/>
                  </g>
                </g>
              </g>
            </g>
            <g id="Group_87725" data-name="Group 87725" transform="translate(54.342)">
              <g id="Group_87724" data-name="Group 87724" transform="translate(0)">
                <g id="Group_87666" data-name="Group 87666" transform="translate(0.8 4.056)">
                  <g id="Group_87665" data-name="Group 87665" transform="translate(0)">
                    <path id="Path_74090" data-name="Path 74090" d="M550.714,79.4a1.888,1.888,0,0,1-1.258,1.513c-.374.123-.784.123-1.153.264a.867.867,0,0,0-.629.884,1.428,1.428,0,0,0,.551.674c.219.2.419.506.292.77-.137.3-.56.319-.779.561a.757.757,0,0,0,.05.943,3.447,3.447,0,0,0,.807.633,1.342,1.342,0,0,1,.62.788" transform="translate(-547.594 -79.4)" fill="#725e57"/>
                  </g>
                </g>
                <g id="Group_87723" data-name="Group 87723">
                  <g id="Group_87668" data-name="Group 87668" transform="translate(2.265)">
                    <g id="Group_87667" data-name="Group 87667">
                      <path id="Path_74091" data-name="Path 74091" d="M565.98,80.474a6.152,6.152,0,0,0-1.29-6.507,12.64,12.64,0,0,0-6.056-3.386c-.324-.091-.724-.159-.952.091a.632.632,0,0,0,.059.811,1.847,1.847,0,0,0,.757.451,7.081,7.081,0,0,0-2.935-.8,1.861,1.861,0,0,0-1.03.223.849.849,0,0,0-.406.911.554.554,0,0,0,.848.287,4.324,4.324,0,0,0-2.78.652,1.789,1.789,0,0,0-.975,1.7,10.5,10.5,0,0,0,.51,1.107,3.262,3.262,0,0,1-.383,2.155,6.688,6.688,0,0,0-.479,3.409,3.955,3.955,0,0,0,1.814,2.834" transform="translate(-550.809 -70.498)" fill="#725e57"/>
                    </g>
                  </g>
                  <g id="Group_87689" data-name="Group 87689" transform="translate(0 2.881)">
                    <g id="Group_87688" data-name="Group 87688">
                      <g id="Group_87687" data-name="Group 87687">
                        <g id="Group_87677" data-name="Group 87677">
                          <g id="Group_87676" data-name="Group 87676">
                            <g id="Group_87675" data-name="Group 87675">
                              <g id="Group_87674" data-name="Group 87674">
                                <g id="Group_87673" data-name="Group 87673">
                                  <g id="Group_87672" data-name="Group 87672">
                                    <g id="Group_87671" data-name="Group 87671">
                                      <g id="Group_87670" data-name="Group 87670">
                                        <g id="Group_87669" data-name="Group 87669">
                                          <path id="Path_74092" data-name="Path 74092" d="M549.3,101.783a4.664,4.664,0,0,1-3.267-5.828l4.183-14.168a6.693,6.693,0,0,1,8.371-4.689l.328.118a6.737,6.737,0,0,1,4.211,8.107c-.861,3.153-1.85,6.621-2.465,8.257a4.338,4.338,0,0,1-4.862,2.684l-.884,2.538a4.67,4.67,0,0,1-5.614,2.98Z" transform="translate(-545.838 -76.82)" fill="#ffbf9d"/>
                                          <path id="Path_82858" data-name="Path 82858" d="M31.593,27.727a.536.536,0,0,1-.666.341.513.513,0,0,1-.363-.638.537.537,0,0,1,.665-.342.513.513,0,0,1,.363.638" transform="translate(-16.818 -16.898)" fill="#263238"/>
                                          <path id="Path_82859" data-name="Path 82859" d="M32.585,26.682c-.086.044-.37-.373-.915-.561s-1.039-.054-1.075-.141c-.019-.04.087-.137.3-.2a1.47,1.47,0,0,1,.888.031,1.413,1.413,0,0,1,.7.528c.123.187.138.326.1.345" transform="translate(-16.845 -16.14)" fill="#263238"/>
                                          <path id="Path_82860" data-name="Path 82860" d="M19.228,24.167a.535.535,0,0,1-.665.341.512.512,0,0,1-.363-.637.536.536,0,0,1,.665-.341.512.512,0,0,1,.363.638" transform="translate(-9.836 -14.888)" fill="#263238"/>
                                          <path id="Path_82861" data-name="Path 82861" d="M20.207,22.645c-.086.044-.372-.373-.916-.56s-1.039-.054-1.075-.141c-.018-.04.086-.137.3-.2a1.471,1.471,0,0,1,.889.031,1.417,1.417,0,0,1,.7.529c.122.186.138.326.1.344" transform="translate(-9.856 -13.86)" fill="#263238"/>
                                          <path id="Path_82862" data-name="Path 82862" d="M24.109,28.745a3.8,3.8,0,0,1,.94.148c.144.034.285.052.342-.035a.753.753,0,0,0,.05-.444q-.021-.573-.044-1.2a19.23,19.23,0,0,1,.039-3.091,19.372,19.372,0,0,1,.21,3.086c.008.42.017.82.024,1.2a.855.855,0,0,1-.118.571.37.37,0,0,1-.3.124,1,1,0,0,1-.248-.05,3.749,3.749,0,0,1-.9-.31" transform="translate(-13.184 -15.235)" fill="#263238"/>
                                          <path id="Path_82863" data-name="Path 82863" d="M19.8,34.327c.091.026-.114.617.246,1.212s1.012.749.988.833c0,.04-.18.066-.448-.019a1.557,1.557,0,0,1-.837-.662,1.359,1.359,0,0,1-.168-1c.063-.255.18-.378.219-.361" transform="translate(-10.607 -20.997)" fill="#263238"/>
                                          <path id="Path_82864" data-name="Path 82864" d="M21.48,17.924c-.105.129-.625-.13-1.29-.275s-1.243-.15-1.282-.313c-.016-.077.122-.185.38-.256a2.293,2.293,0,0,1,1.959.447c.2.176.279.333.232.4" transform="translate(-10.248 -11.224)" fill="#263238"/>
                                          <path id="Path_82865" data-name="Path 82865" d="M33.6,22.882c-.139.091-.469-.168-.919-.331-.443-.178-.862-.206-.9-.367-.017-.076.086-.179.294-.238a1.412,1.412,0,0,1,1.469.562c.115.182.123.328.06.373" transform="translate(-17.514 -13.984)" fill="#263238"/>
                                        </g>
                                      </g>
                                    </g>
                                  </g>
                                </g>
                              </g>
                            </g>
                          </g>
                        </g>
                        <g id="Group_87686" data-name="Group 87686" transform="translate(5.998 16.542)">
                          <g id="Group_87685" data-name="Group 87685" transform="translate(0)">
                            <g id="Group_87684" data-name="Group 87684">
                              <g id="Group_87683" data-name="Group 87683">
                                <g id="Group_87682" data-name="Group 87682">
                                  <g id="Group_87681" data-name="Group 87681">
                                    <g id="Group_87680" data-name="Group 87680">
                                      <g id="Group_87679" data-name="Group 87679">
                                        <g id="Group_87678" data-name="Group 87678">
                                          <path id="Path_74093" data-name="Path 74093" d="M562.978,115.982A8.418,8.418,0,0,1,559,113.12s.164,2.825,3.668,3.746Z" transform="translate(-559 -113.12)" fill="#654742"/>
                                        </g>
                                      </g>
                                    </g>
                                  </g>
                                </g>
                              </g>
                            </g>
                          </g>
                        </g>
                      </g>
                    </g>
                  </g>
                  <g id="Group_87694" data-name="Group 87694" transform="translate(3.153 2.483)">
                    <g id="Group_87691" data-name="Group 87691" transform="translate(0)">
                      <g id="Group_87690" data-name="Group 87690">
                        <path id="Path_74094" data-name="Path 74094" d="M558.937,78.682a10.071,10.071,0,0,0-1.1-2.42c-.474-.478-1.244-.319-1.891-.137a2.2,2.2,0,0,0-1.454,1.358c-.893,2.452-1,4.762-1.672,7.173a.9.9,0,0,0-.041.488c.128.41.574.556,1,.615,1.044.15,1.577-.611,2.069-1.527a10.562,10.562,0,0,0,.36-1.7,4.621,4.621,0,0,1,2.561-3.782Z" transform="translate(-552.757 -75.946)" fill="#725e57"/>
                      </g>
                    </g>
                    <g id="Group_87693" data-name="Group 87693" transform="translate(6.263 2.973)">
                      <g id="Group_87692" data-name="Group 87692" transform="translate(0)">
                        <path id="Path_74095" data-name="Path 74095" d="M566.5,82.47" transform="translate(-566.5 -82.47)" fill="#263238"/>
                      </g>
                    </g>
                  </g>
                  <g id="Group_87714" data-name="Group 87714" transform="translate(1.966 9.296)">
                    <g id="Group_87703" data-name="Group 87703" transform="translate(0)">
                      <g id="Group_87702" data-name="Group 87702">
                        <g id="Group_87701" data-name="Group 87701">
                          <g id="Group_87700" data-name="Group 87700">
                            <g id="Group_87699" data-name="Group 87699">
                              <g id="Group_87698" data-name="Group 87698">
                                <g id="Group_87697" data-name="Group 87697">
                                  <g id="Group_87696" data-name="Group 87696">
                                    <g id="Group_87695" data-name="Group 87695">
                                      <path id="Path_74096" data-name="Path 74096" d="M553.15,91.4c-.05-.046-2.087-1.536-2.853.816a1.861,1.861,0,0,0,1.777,2.57C552.1,94.726,553.15,91.4,553.15,91.4Z" transform="translate(-550.152 -90.897)" fill="#ffbf9d"/>
                                    </g>
                                  </g>
                                </g>
                              </g>
                            </g>
                          </g>
                        </g>
                      </g>
                    </g>
                    <g id="Group_87713" data-name="Group 87713" transform="translate(0.656 0.739)">
                      <g id="Group_87712" data-name="Group 87712">
                        <g id="Group_87711" data-name="Group 87711">
                          <g id="Group_87710" data-name="Group 87710">
                            <g id="Group_87709" data-name="Group 87709">
                              <g id="Group_87708" data-name="Group 87708">
                                <g id="Group_87707" data-name="Group 87707">
                                  <g id="Group_87706" data-name="Group 87706">
                                    <g id="Group_87705" data-name="Group 87705">
                                      <g id="Group_87704" data-name="Group 87704">
                                        <path id="Path_74097" data-name="Path 74097" d="M552.434,94.547c-.009-.009-.05.014-.132.023a.435.435,0,0,1-.31-.1,1.063,1.063,0,0,1-.173-1.062,1.441,1.441,0,0,1,.305-.551.493.493,0,0,1,.41-.214.223.223,0,0,1,.205.191c.009.077-.018.118-.009.128s.064-.023.078-.128a.281.281,0,0,0-.046-.178.327.327,0,0,0-.205-.132.615.615,0,0,0-.547.223,1.446,1.446,0,0,0-.355.611,1.116,1.116,0,0,0,.269,1.212.469.469,0,0,0,.4.059C552.412,94.6,552.439,94.556,552.434,94.547Z" transform="translate(-551.592 -92.518)" fill="#654742"/>
                                      </g>
                                    </g>
                                  </g>
                                </g>
                              </g>
                            </g>
                          </g>
                        </g>
                      </g>
                    </g>
                  </g>
                  <g id="Group_87716" data-name="Group 87716" transform="translate(7.53 1.498)">
                    <g id="Group_87715" data-name="Group 87715">
                      <path id="Path_74098" data-name="Path 74098" d="M563.26,78.035a2.837,2.837,0,0,1,3.149.064c.8.465,1.472,1.121,2.292,1.545a2.14,2.14,0,0,0,3.45-1.8,4.962,4.962,0,0,0-1.194-3.641c-.223-.26-.57-.51-.884-.374-.387.173-.328.734-.2,1.139,0,0-3.956-1.463-6.371-.62S563.26,78.035,563.26,78.035Z" transform="translate(-562.363 -73.785)" fill="#725e57"/>
                    </g>
                  </g>
                  <g id="Group_87719" data-name="Group 87719" transform="translate(9.909 0.037)">
                    <g id="Group_87718" data-name="Group 87718">
                      <g id="Group_87717" data-name="Group 87717">
                        <path id="Path_74099" data-name="Path 74099" d="M567.586,70.58c.023,0,.045.169.168.451a3.642,3.642,0,0,0,.752,1.053,5.854,5.854,0,0,0,1.577,1.1,4.389,4.389,0,0,0,1.076.36c.387.087.8.146,1.221.264a2.789,2.789,0,0,1,1.139.579,2.5,2.5,0,0,1,.688.975,2.158,2.158,0,0,1,.141,1.071,1.969,1.969,0,0,1-.342.879,2,2,0,0,1-1.071.8,1.517,1.517,0,0,1-.36.059.408.408,0,0,1-.128-.009c0-.018.173-.023.465-.123a2.018,2.018,0,0,0,.975-.8,1.919,1.919,0,0,0,.292-.816,2.04,2.04,0,0,0-.151-.984,2.391,2.391,0,0,0-.643-.893,2.7,2.7,0,0,0-1.066-.533c-.4-.109-.815-.173-1.212-.264A4.71,4.71,0,0,1,570,73.36a5.724,5.724,0,0,1-1.6-1.171,3.363,3.363,0,0,1-.725-1.126,1.756,1.756,0,0,1-.087-.355A.46.46,0,0,1,567.586,70.58Z" transform="translate(-567.582 -70.58)" fill="#4b3a35"/>
                      </g>
                    </g>
                  </g>
                  <g id="Group_87722" data-name="Group 87722" transform="translate(7.297 0.748)">
                    <g id="Group_87721" data-name="Group 87721">
                      <g id="Group_87720" data-name="Group 87720">
                        <path id="Path_74100" data-name="Path 74100" d="M561.855,72.14c.018,0,.059.173.191.469a3.5,3.5,0,0,0,.811,1.08,4.9,4.9,0,0,0,1.745.989,16.65,16.65,0,0,0,2.433.565,9.267,9.267,0,0,1,2.438.7,1.7,1.7,0,0,1,.8.811,1.555,1.555,0,0,1,.055.989,1.937,1.937,0,0,1-.843,1.112,1.908,1.908,0,0,1-.337.178c-.082.032-.123.046-.128.036s.16-.091.419-.283a1.95,1.95,0,0,0,.747-1.08,1.472,1.472,0,0,0-.068-.889,1.535,1.535,0,0,0-.729-.711A9.744,9.744,0,0,0,567,75.444a15.777,15.777,0,0,1-2.456-.588,4.848,4.848,0,0,1-1.782-1.062,3.206,3.206,0,0,1-.784-1.157,1.967,1.967,0,0,1-.1-.365C561.85,72.185,561.846,72.14,561.855,72.14Z" transform="translate(-561.85 -72.14)" fill="#4b3a35"/>
                      </g>
                    </g>
                  </g>
                </g>
              </g>
            </g>
            <g id="Group_87897" data-name="Group 87897" transform="translate(69.722 61.224)">
              <g id="Group_87884" data-name="Group 87884" transform="translate(0)">
                <g id="Group_87883" data-name="Group 87883">
                  <path id="Path_74153" data-name="Path 74153" d="M582.373,204.85s2.055.428,2.935.62c.283.064.579.018.866.068a10.72,10.72,0,0,0,3.805-.068c.87-.319.907.793-.032,1.271a4.633,4.633,0,0,1-1.517.529l2.265,1.818a.573.573,0,0,1,.214.378l.579,4.01a.686.686,0,0,1-.442.793.338.338,0,0,1-.433-.155l.064.538a.708.708,0,0,1-1.394.237c0-.009,0-.023,0-.032l-.8.451s-.528.547-1.1-.214c-.469-.629-1.882-3.126-1.882-3.126s-6.006-2.529-5.91-3.541Z" transform="translate(-579.587 -204.85)" fill="#ffbf9d"/>
                </g>
              </g>
              <g id="Group_87887" data-name="Group 87887" transform="translate(7.319 4.272)">
                <g id="Group_87886" data-name="Group 87886" transform="translate(0)">
                  <g id="Group_87885" data-name="Group 87885">
                    <path id="Path_74154" data-name="Path 74154" d="M598.023,220a5.965,5.965,0,0,1-.16-.971c-.091-.592-.264-1.426-.383-2.338-.082-.442-.187-.893-.287-1.253a.716.716,0,0,0-.323-.369c-.146-.091-.283-.182-.419-.264a4.064,4.064,0,0,1-.8-.574,4.043,4.043,0,0,1,.889.428c.141.078.287.16.433.242a.9.9,0,0,1,.424.46,12.071,12.071,0,0,1,.319,1.29c.123.93.264,1.745.315,2.361A3.243,3.243,0,0,1,598.023,220Z" transform="translate(-595.648 -214.224)" fill="#654742"/>
                  </g>
                </g>
              </g>
              <g id="Group_87890" data-name="Group 87890" transform="translate(8.509 3.754)">
                <g id="Group_87889" data-name="Group 87889">
                  <g id="Group_87888" data-name="Group 87888">
                    <path id="Path_74155" data-name="Path 74155" d="M600.775,218.6c-.091.018-.242-1.44-.611-3.176a2.775,2.775,0,0,0-.387-1.13,6.7,6.7,0,0,0-.738-.693,3.951,3.951,0,0,0-.556-.392c-.141-.077-.228-.1-.223-.114s.1-.023.26.032a2.566,2.566,0,0,1,.62.342,5.3,5.3,0,0,1,.8.684,2.686,2.686,0,0,1,.456,1.226,17.339,17.339,0,0,1,.342,2.278A4.5,4.5,0,0,1,600.775,218.6Z" transform="translate(-598.26 -213.087)" fill="#654742"/>
                  </g>
                </g>
              </g>
              <g id="Group_87893" data-name="Group 87893" transform="translate(6.111 5.47)">
                <g id="Group_87892" data-name="Group 87892" transform="translate(0)">
                  <g id="Group_87891" data-name="Group 87891">
                    <path id="Path_74156" data-name="Path 74156" d="M593,216.856a3.2,3.2,0,0,1,.788.369c.123.068.251.141.383.21a1.445,1.445,0,0,1,.433.314,1.37,1.37,0,0,1,.255.533c.059.187.119.374.178.57a18.538,18.538,0,0,1,.752,2.862,18.189,18.189,0,0,1-.975-2.789c-.059-.2-.114-.383-.173-.57a1.238,1.238,0,0,0-.2-.469,1.341,1.341,0,0,0-.365-.287c-.128-.082-.246-.16-.369-.237A2.912,2.912,0,0,1,593,216.856Z" transform="translate(-592.998 -216.853)" fill="#654742"/>
                  </g>
                </g>
              </g>
              <g id="Group_87896" data-name="Group 87896" transform="translate(6.271 1.124)">
                <g id="Group_87895" data-name="Group 87895">
                  <g id="Group_87894" data-name="Group 87894">
                    <path id="Path_74157" data-name="Path 74157" d="M593.35,207.332a4.94,4.94,0,0,1,1.827.793,5.346,5.346,0,0,1,1.6,1.18c-.037.041-.77-.437-1.723-.975-.41-.237-.793-.456-1.212-.7A2.463,2.463,0,0,1,593.35,207.332Z" transform="translate(-593.35 -207.317)" fill="#654742"/>
                  </g>
                </g>
              </g>
            </g>
          </g>
        </g>
      </g>
    </g>
  </g>
</svg>
