<svg xmlns="http://www.w3.org/2000/svg" xmlns:xlink="http://www.w3.org/1999/xlink" width="151" height="317" viewBox="0 0 151 317">
  <defs>
    <clipPath id="clip-path">
      <rect id="Rectangle_19536" data-name="Rectangle 19536" width="151" height="317" transform="translate(0 3564)" fill="#fff" stroke="#707070" stroke-width="1"/>
    </clipPath>
  </defs>
  <g id="Mask_Group_855" data-name="Mask Group 855" transform="translate(0 -3564)" clip-path="url(#clip-path)">
    <g id="Group_68582" data-name="Group 68582" transform="translate(-68.178 3594.603)">
      <g id="Group_68581" data-name="Group 68581" transform="translate(-1.14 -19.918)">
        <g id="Group_68565" data-name="Group 68565" transform="translate(0 11.149)">
          <g id="Group_68561" data-name="Group 68561" transform="translate(0 0)">
            <path id="Path_66905" data-name="Path 66905" d="M148.454,282.261l67.979-93.789-26.7-46.512L143.881,108.1,81.86,166.976Z" transform="translate(-81.86 -32.89)" fill="#1581af"/>
            <g id="Group_68560" data-name="Group 68560" transform="translate(58.689 0)">
              <g id="Group_73762" data-name="Group 73762" transform="translate(54.903 0) rotate(30)">
                <g id="Group_68840" data-name="Group 68840" transform="translate(75.707 8.964)">
                  <path id="Path_67841" data-name="Path 67841" d="M.047,0A13.78,13.78,0,0,1,7.454,13.348c-.3,2.982-1.584,5.777-2.1,8.735-.536,2.958-.07,6.406,2.329,8.2,2.609,1.933,7.058,1.654,8.223,4.682.7,1.84-.419,3.96-2.05,5.055A13.146,13.146,0,0,1,8.27,41.7c2.26.186,3.75,2.842,3.215,5.055A6.656,6.656,0,0,1,6.755,51.2,19.9,19.9,0,0,1,0,51.644" transform="translate(0 0)" fill="#ffeaa3"/>
                </g>
                <g id="Group_68841" data-name="Group 68841" transform="translate(4.012 0)">
                  <path id="Path_67842" data-name="Path 67842" d="M73.512,20.891c5.893-7.384-.233-14.909-5.707-18.263C62.354-.727,52.547-.284,46.234.764,40.573,1.7,35.053,3.909,29.322,3.792c-5.474-.116-11.391-2.26-16.12.512-3.68,2.166-5.265,6.779-5.265,11.042s1.281,8.433,1.98,12.626c.7,4.216.769,8.805-1.421,12.463a25.568,25.568,0,0,1-4.123,4.729A16.047,16.047,0,0,0,.6,50.149a6.31,6.31,0,0,0,.326,6.01c1.211,1.724,3.89,2.376,5.5,1.048-1.631,2.632-.745,6.359,1.631,8.363a9.528,9.528,0,0,0,8.782,1.514A16.307,16.307,0,0,0,24.314,61.8" transform="translate(0 0)" fill="#ffeaa3"/>
                </g>
                <g id="Group_68884" data-name="Group 68884" transform="translate(12.594 8.871)">
                  <g id="Group_68867" data-name="Group 68867" transform="translate(8.395 3.769)">
                    <g id="Group_68866" data-name="Group 68866" transform="translate(0 0)">
                      <g id="Group_68865" data-name="Group 68865" transform="translate(0 0)">
                        <g id="Group_68844" data-name="Group 68844">
                          <g id="Group_68843" data-name="Group 68843">
                            <g id="Group_68842" data-name="Group 68842">
                              <path id="Path_67843" data-name="Path 67843" d="M6.01,97.166l37.131-2.958c.233-4.333-.07-21.1-.07-21.1S58.516,70.7,58.7,55.259s-2.493-50.9-2.493-50.9h0A53.686,53.686,0,0,0,2.283,11.139L0,12.91Z" fill="#ffc09d"/>
                              <g id="Group_117198" data-name="Group 117198">
                                <path id="Path_86439" data-name="Path 86439" d="M4.13,2.6A2.107,2.107,0,0,1,1.513,3.937,2.017,2.017,0,0,1,.085,1.43,2.11,2.11,0,0,1,2.7.086,2.017,2.017,0,0,1,4.13,2.6" transform="translate(42.453 31.484) rotate(-19)" fill="#263238"/>
                                <path id="Path_86440" data-name="Path 86440" d="M7.834,3.769c-.337.173-1.457-1.465-3.6-2.2C2.1.8.149,1.353.008,1.01c-.074-.156.341-.537,1.2-.8A5.778,5.778,0,0,1,4.7.336,5.555,5.555,0,0,1,7.452,2.414c.484.734.544,1.282.382,1.356" transform="translate(41.786 29.284) rotate(-19)" fill="#263238"/>
                                <path id="Path_86441" data-name="Path 86441" d="M4.13,2.594a2.1,2.1,0,0,1-2.615,1.34A2.014,2.014,0,0,1,.085,1.429,2.108,2.108,0,0,1,2.7.087,2.014,2.014,0,0,1,4.13,2.594" transform="translate(20.455 32.613) rotate(-19)" fill="#263238"/>
                                <path id="Path_86442" data-name="Path 86442" d="M7.835,3.769c-.339.175-1.462-1.465-3.6-2.2C2.1.8.15,1.352.008,1.009c-.072-.156.339-.537,1.2-.8A5.782,5.782,0,0,1,4.7.335a5.571,5.571,0,0,1,2.752,2.08c.481.733.541,1.28.382,1.354" transform="translate(19.502 29.646) rotate(-19)" fill="#263238"/>
                                <path id="Path_86443" data-name="Path 86443" d="M0,18.181a14.959,14.959,0,0,1,3.7.58c.567.134,1.121.205,1.344-.137a2.959,2.959,0,0,0,.2-1.748q-.082-2.252-.171-4.724C4.88,5.445,4.949.005,5.219,0s.64,5.428.827,12.136c.033,1.65.065,3.223.094,4.728a3.361,3.361,0,0,1-.462,2.244A1.454,1.454,0,0,1,4.5,19.6a3.928,3.928,0,0,1-.974-.2A14.742,14.742,0,0,1,0,18.181" transform="translate(30.397 30.305) rotate(-19)" fill="#263238"/>
                                <path id="Path_86444" data-name="Path 86444" d="M.994.006c.356.1-.447,2.427.969,4.767s3.98,2.944,3.884,3.276c-.017.157-.709.26-1.763-.075a6.123,6.123,0,0,1-3.29-2.6A5.342,5.342,0,0,1,.131,1.425C.38.422.84-.062.994.006" transform="translate(28.698 49.361) rotate(-19)" fill="#263238"/>
                                <path id="Path_86445" data-name="Path 86445" d="M10.117,3.559c-.414.508-2.456-.51-5.073-1.08C2.439,1.856.157,1.888,0,1.25c-.062-.3.481-.726,1.5-1A8.619,8.619,0,0,1,5.556.235,8.626,8.626,0,0,1,9.2,2c.794.692,1.1,1.311.912,1.556" transform="translate(18.021 21.706) rotate(-19)" fill="#263238"/>
                                <path id="Path_86446" data-name="Path 86446" d="M7.175,3.832c-.546.356-1.845-.662-3.612-1.3C1.821,1.83.175,1.72.007,1.09-.06.791.346.387,1.162.154A5.32,5.32,0,0,1,4.387.38,5.3,5.3,0,0,1,6.939,2.364c.454.717.484,1.289.236,1.469" transform="translate(41.569 22.449) rotate(-19)" fill="#263238"/>
                              </g>
                            </g>
                          </g>
                        </g>
                        <g id="Group_68864" data-name="Group 68864" transform="translate(22.968 67.163)">
                          <g id="Group_68863" data-name="Group 68863" transform="translate(0 0)">
                            <g id="Group_68862" data-name="Group 68862">
                              <path id="Path_67848" data-name="Path 67848" d="M20.126,5.73A35.872,35.872,0,0,1,0,0S4.752,11.112,20.173,9.714Z" fill="#754330"/>
                            </g>
                          </g>
                        </g>
                      </g>
                    </g>
                  </g>
                  <g id="Group_68869" data-name="Group 68869" transform="translate(5.1 0)">
                    <g id="Group_68868" data-name="Group 68868" transform="translate(0)">
                      <path id="Path_67849" data-name="Path 67849" d="M59.83,12.02s-9.038,5.218-21.687.047c-8.293-3.4-17.774-4.659-19.707-2.912C16.5,10.925,20.276,29.3,9.025,31.1c0,0,.116,10.3-3.96,10.3-6.313,0-4.938-28.373-4.938-28.373L14.918,4.4,31.434,0,47.368,1.048,59.83,3.494Z" fill="#ffeaa3"/>
                    </g>
                  </g>
                  <g id="Group_68877" data-name="Group 68877" transform="translate(0 32.169)">
                    <g id="Group_68872" data-name="Group 68872" transform="translate(0 0)">
                      <g id="Group_68871" data-name="Group 68871">
                        <g id="Group_68870" data-name="Group 68870">
                          <path id="Path_67850" data-name="Path 67850" d="M10.281.49C10.025.373-.341-2.655.009,7.9c.326,10.552,10.855,8.037,10.879,7.734C10.91,15.352,10.281.49,10.281.49Z" fill="#ffc09d"/>
                        </g>
                      </g>
                    </g>
                    <g id="Group_68876" data-name="Group 68876" transform="translate(2.651 3.46)">
                      <g id="Group_68875" data-name="Group 68875" transform="translate(0 0)">
                        <g id="Group_68874" data-name="Group 68874">
                          <g id="Group_68873" data-name="Group 68873">
                            <path id="Path_67851" data-name="Path 67851" d="M4.882,8.3c-.047-.023-.186.14-.489.28a1.9,1.9,0,0,1-1.374.07C1.9,8.281.9,6.534.782,4.647A6.5,6.5,0,0,1,1.2,1.992,2.081,2.081,0,0,1,2.529.548a.948.948,0,0,1,1.095.466c.14.28.093.512.14.512.023.023.21-.186.116-.629A1.212,1.212,0,0,0,3.438.245,1.47,1.47,0,0,0,2.413.012a2.611,2.611,0,0,0-1.864,1.7A6.112,6.112,0,0,0,.013,4.671c.14,2.12,1.281,4.077,2.819,4.473a2.033,2.033,0,0,0,1.677-.326C4.882,8.561,4.928,8.3,4.882,8.3Z" fill="#754330"/>
                          </g>
                        </g>
                      </g>
                    </g>
                  </g>
                </g>
                <g id="Group_68893" data-name="Group 68893" transform="translate(0 16.907)">
                  <path id="Path_67860" data-name="Path 67860" d="M12.323,0c.908,2.819,1.817,5.754,1.444,8.689s-2.446,5.894-5.381,6.266a18.453,18.453,0,0,1-3.913-.28,4.5,4.5,0,0,0-3.657,1c-1.235,1.281-.908,3.4-.07,4.985a9.984,9.984,0,0,0,6.662,4.962,9.832,9.832,0,0,0,8.06-1.957" transform="translate(0 0)" fill="#ffeaa3"/>
                </g>
              </g>
              <path id="Path_66908" data-name="Path 66908" d="M142.322,125.867l1.269-1.877-.378,10.274,4.442,6.426,8.317,3.051,7.709-.959a13.672,13.672,0,0,1-19.05.932h0A13.64,13.64,0,0,1,142.322,125.867Z" transform="translate(-113.597 -25.348)" fill="#11668a"/>
            </g>
            <path id="Path_66909" data-name="Path 66909" d="M177.633,134.25v10.628a6.394,6.394,0,0,1-3.048,5.458h0A71.249,71.249,0,0,1,146.1,160.47l-2.08.268,3.357-22.141.783.062a62.125,62.125,0,0,0,29.473-4.408Z" transform="translate(-53.232 -22.403)" fill="#147396"/>
            <path id="Path_66910" data-name="Path 66910" d="M157.549,152.647l-1.05-5.808a91.124,91.124,0,0,1-1.03-25.375l.041-.474-6.1,1.318a7.435,7.435,0,0,0-5.025,3.872l-.844,1.627a79.106,79.106,0,0,0-6.776,18.908l-2.327,10.607Z" transform="translate(-63.382 -36.455)" fill="#147396"/>
          </g>
          <g id="Group_68564" data-name="Group 68564" transform="translate(43.396 121.809)">
            <g id="Group_68562" data-name="Group 68562">
              <path id="Path_66911" data-name="Path 66911" d="M111.94,140.4a242.607,242.607,0,0,0,33.514,23.559A242.408,242.408,0,0,0,182.747,180.9a96.057,96.057,0,0,1-19.015-4.27,111.846,111.846,0,0,1-20.327-9.074,113.134,113.134,0,0,1-18.135-12.912A98.2,98.2,0,0,1,111.94,140.4Z" transform="translate(-111.94 -140.4)" fill="#11668a"/>
            </g>
            <g id="Group_68563" data-name="Group 68563" transform="translate(21.698 14.47)">
              <path id="Path_66912" data-name="Path 66912" d="M126.98,150.43c6.1,1.9,13.965,4.386,21.958,6.319,7.992,1.976,16.115,3.419,22.4,4.544A83.089,83.089,0,0,1,126.98,150.43Z" transform="translate(-126.98 -150.43)" fill="#11668a"/>
            </g>
          </g>
        </g>
        <path id="Path_66913" data-name="Path 66913" d="M136.7,73.33l3.448,8.714a4.353,4.353,0,0,1-2.279,5.583h0a4.359,4.359,0,0,1-5.713-2.106L128.4,77.6Z" transform="translate(-61.257 -37.133)" fill="#ffc09d"/>
        <g id="Group_68566" data-name="Group 68566" transform="translate(57.419 0)">
          <path id="Path_66914" data-name="Path 66914" d="M147.441,80.051l-.693,1.024a8.823,8.823,0,0,1-2.077,2.193L140.5,86.413a13.018,13.018,0,0,1-5.843,2.481l-.188.029a6.567,6.567,0,0,1-7.6-6.478h0a4.567,4.567,0,0,1-5.208-4.53v-.678a4.6,4.6,0,0,1,3.419-4.429l2.193-.563-.2-1.674a8.818,8.818,0,0,1,5.886-9.377l.822-.289h0a12.45,12.45,0,0,1,4.487-9.565h0a13.6,13.6,0,0,1,7.5-3.087h0a3.828,3.828,0,0,1,4.155,3.65l.707,16.721A19.11,19.11,0,0,1,147.441,80.051Z" transform="translate(-121.66 -48.24)" fill="#ffc09d"/>
          <path id="Path_66915" data-name="Path 66915" d="M125.27,74.2l5.424-1.2a20.253,20.253,0,0,0,7.329-3.232l4.068-2.857L139.7,70.228a10.886,10.886,0,0,1-9.955,4.443Z" transform="translate(-120.062 -39.975)" fill="#dd745c"/>
          <path id="Path_66916" data-name="Path 66916" d="M125.56,66.709l6.29-1.14a11.176,11.176,0,0,0,3.232-1.125l6.882-3.664-4.025,3.967a9.514,9.514,0,0,1-8.065,2.626Z" transform="translate(-119.934 -42.689)" fill="#dd745c"/>
          <path id="Path_66917" data-name="Path 66917" d="M130.06,58.084l4.847-.779a6.265,6.265,0,0,0,1.8-.577l4.242-2.077-2.005,2.294a6.4,6.4,0,0,1-7.026,1.818Z" transform="translate(-117.941 -45.402)" fill="#dd745c"/>
        </g>
        <g id="Group_68569" data-name="Group 68569" transform="translate(74.154 166.746)">
          <path id="Path_66918" data-name="Path 66918" d="M176.389,230.51H148.718l-3.058-23.458,23.992-8.382Z" transform="translate(-127.771 -148.392)" fill="#32305f"/>
          <g id="Group_68567" data-name="Group 68567" transform="translate(0 46.166)">
            <path id="Path_66919" data-name="Path 66919" d="M144.74,210.146l10.387-14.326L175.282,214.3l-6.045,15.134A38.732,38.732,0,0,0,144.74,210.146Z" transform="translate(-128.178 -195.82)"/>
            <path id="Path_66920" data-name="Path 66920" d="M133.26,228.6l16.562-22.852a38.8,38.8,0,0,1,24.5,19.274l-11.945,29.893Z" transform="translate(-133.26 -191.424)" fill="#e1a285"/>
          </g>
          <g id="Group_68568" data-name="Group 68568" transform="translate(17.875)">
            <path id="Path_66921" data-name="Path 66921" d="M174.729,176.4h0l9.118-12.58h0a40.286,40.286,0,0,1,3.664,32.129l-15.451,50-4.2-6.377a38.9,38.9,0,0,0-12.422-11.931l14.384-29.806A49.313,49.313,0,0,0,174.729,176.4Z" transform="translate(-141.316 -163.82)" fill="#1978a0"/>
            <path id="Path_66922" data-name="Path 66922" d="M179.063,172.54h0a49.2,49.2,0,0,1-4.905,21.424L159.774,223.77a38.855,38.855,0,0,0-14.124-5.136Z" transform="translate(-145.65 -159.96)" fill="#11668a"/>
          </g>
        </g>
        <g id="Group_68570" data-name="Group 68570" transform="translate(58.293 139.495)">
          <path id="Path_66923" data-name="Path 66923" d="M145.268,185.209l6.608-20.789a5.818,5.818,0,0,0-.822-5.179l-5.612-7.848a14.22,14.22,0,0,0-6.838-5.122l-2.943-1.024a5.593,5.593,0,0,0-6.882,2.828h0l-1.558-.606a3.64,3.64,0,0,0-4.4,1.457h0a3.624,3.624,0,0,0,.5,4.487l1.1,1.111L123.008,157a5.177,5.177,0,0,0,.433,5.756l.548.707h0a7.354,7.354,0,0,0,.75,7.661l4.66,6.175-.4,2.005a25.062,25.062,0,0,0,6.348,22.232h0l1.4,74.673a15.83,15.83,0,0,0,15.826,15.538h0a15.836,15.836,0,0,0,15.321-19.837Z" transform="translate(-122.266 -144.931)" fill="#ffc09d"/>
          <path id="Path_66924" data-name="Path 66924" d="M126.79,147.11l6.261,3.131a10.506,10.506,0,0,1,2.914,2.164l5.295,5.626-2.438-5.352a7.862,7.862,0,0,0-5.843-4.5Z" transform="translate(-120.263 -143.967)" fill="#e1a285"/>
          <path id="Path_66925" data-name="Path 66925" d="M123.76,151.58l5.626,3.232a16.353,16.353,0,0,1,3.881,3.073l5.886,6.29-3.607-7.372a6.6,6.6,0,0,0-4.444-3.52Z" transform="translate(-121.604 -141.988)" fill="#e1a285"/>
          <path id="Path_66926" data-name="Path 66926" d="M123.48,157.78l4.617,3.145a20.31,20.31,0,0,1,5.756,5.929l2.308,3.621-1.457-5.6a7.382,7.382,0,0,0-4.963-5.179Z" transform="translate(-121.728 -139.243)" fill="#e1a285"/>
        </g>
      </g>
    </g>
  </g>
</svg>
