<svg xmlns="http://www.w3.org/2000/svg" xmlns:xlink="http://www.w3.org/1999/xlink" width="32" height="32" viewBox="0 0 32 32">
  <defs>
    <clipPath id="clip-path">
      <rect id="Rectangle_19410" data-name="Rectangle 19410" width="32" height="32" transform="translate(354 87.004)" fill="#fff" stroke="#707070" stroke-width="1"/>
    </clipPath>
  </defs>
  <g id="Mask_Group_837" data-name="Mask Group 837" transform="translate(-354 -87.004)" clip-path="url(#clip-path)">
    <g id="human-resources" transform="translate(348.953 89.373)">
      <path id="Path_87115" data-name="Path 87115" d="M46.826,83.95a2.7,2.7,0,0,0,2.2-1.061.393.393,0,1,0-.644-.451,2.038,2.038,0,0,1-3.119,0,.393.393,0,1,0-.644.451A2.7,2.7,0,0,0,46.826,83.95Z" transform="translate(-27.069 -65.131)" fill="#873795"/>
      <path id="Path_87116" data-name="Path 87116" d="M27.243,81.821a1.618,1.618,0,0,0-.865-1.187L23.6,79.228l-.845.442,1.008,1.155a13.531,13.531,0,0,1-4.095,2.14,13.531,13.531,0,0,1-4.095-2.14l1.008-1.155-.845-.442-2.776,1.406a1.618,1.618,0,0,0-.865,1.187l-.659,4.1-.392,2.434H28.294L27.9,85.918Z" transform="translate(0 -62.721)" fill="#873795"/>
      <path id="Path_87117" data-name="Path 87117" d="M34.519,14.677l-.448-.434a1.438,1.438,0,0,0-1.269-.379l-.929-1.072a6.983,6.983,0,0,0,1.341-4.31A7.118,7.118,0,0,0,28.673,2.1a7.044,7.044,0,0,0-7.614,1.7h0l0,0,0,0h0a7.156,7.156,0,0,0-1.281,7.742,7.074,7.074,0,0,0,6.572,4.225,6.883,6.883,0,0,0,4.205-1.576l1.113.877a1.459,1.459,0,0,0,.443,1.256l.454.428,3.478,3.29L37.968,18Zm-2.93-5.346a5.428,5.428,0,0,1-1.478,3.111,5.363,5.363,0,0,1-7.075.728,5.473,5.473,0,0,1-2.22-3.549A5.566,5.566,0,0,1,22.2,4.893a5.487,5.487,0,0,1,4.618-1.642,5.426,5.426,0,0,1,3.64,2.044A5.493,5.493,0,0,1,31.589,9.332Z" transform="translate(-6.545 0)" fill="#873795"/>
    </g>
  </g>
</svg>
